<?xml version="1.0" encoding="UTF-8"?>
<svg width="188px" height="20px" viewBox="0 0 188 20" version="1.1" xmlns="http://www.w3.org/2000/svg" xmlns:xlink="http://www.w3.org/1999/xlink">
    <!-- Generator: Sketch 46.2 (44496) - http://www.bohemiancoding.com/sketch -->
    <title>animal chan logo</title>
    <desc>Created with Sketch.</desc>
    <defs></defs>
    <g id="SBLY-homepage" stroke="none" stroke-width="1" fill="none" fill-rule="evenodd">
        <g id="sbly-homepage" transform="translate(-723.000000, -46.000000)" fill="#174A8F">
            <g id="01-header">
                <g id="Group-49" transform="translate(481.000000, 42.000000)">
                    <g id="Stacked-Group">
                        <g id="animal-chan-logo" transform="translate(242.000000, 4.000000)">
                            <path d="M13.7016095,19.5328686 L12.7427492,15.3987948 L6.18212583,15.3987948 L5.2232655,19.5328686 L0,19.5328686 L4.996167,0.879120879 L14.2819723,0.879120879 L19.2529062,19.5328686 L13.7016095,19.5328686 Z M7.09051983,11.4159675 L11.8343552,11.4159675 L9.48767066,1.28244515 L9.43720433,1.28244515 L7.09051983,11.4159675 Z M28.6948417,6.37441412 C26.2724577,6.37441412 24.8341672,8.21458112 24.8341672,11.3151365 L24.7837009,11.3151365 L24.7837009,6.62649179 L19.7370676,6.62649179 L19.7370676,19.5328686 L24.7837009,19.5328686 L24.7837009,12.6511481 C24.7837009,11.1890976 25.4145301,10.3068258 26.4995562,10.3068258 C27.4584166,10.3068258 28.0135462,10.9874355 28.0135462,12.1469928 L28.0135462,19.5328686 L33.0601795,19.5328686 L33.0601795,11.8949151 C33.0601795,8.41624325 31.4452569,6.37441412 28.6948417,6.37441412 Z M34.6293671,4.71070148 L39.6760004,4.71070148 L39.6760004,0.879120879 L34.6293671,0.879120879 L34.6293671,4.71070148 Z M34.6293671,19.5328686 L39.6760004,19.5328686 L39.6760004,6.62649179 L34.6293671,6.62649179 L34.6293671,19.5328686 Z M58.2271092,6.37441412 C55.8804247,6.37441412 54.4926005,8.21458112 54.4926005,11.3151365 L54.4421342,11.3151365 C54.4421342,8.21458112 52.9533773,6.37441412 50.4048275,6.37441412 C47.9319772,6.37441412 46.4684535,8.21458112 46.4684535,11.3151365 L46.4179872,11.3151365 L46.4179872,6.62649179 L41.3713538,6.62649179 L41.3713538,19.5328686 L46.4179872,19.5328686 L46.4179872,12.5251093 C46.4179872,11.1386821 46.99835,10.3068258 48.0076767,10.3068258 C48.8908375,10.3068258 49.3955008,10.93702 49.3955008,12.020954 L49.3955008,19.5328686 L54.4421342,19.5328686 L54.4421342,12.5251093 C54.4421342,11.1386821 55.022497,10.3068258 56.0318237,10.3068258 C56.9149845,10.3068258 57.4196478,10.93702 57.4196478,12.020954 L57.4196478,19.5328686 L62.4662812,19.5328686 L62.4662812,11.7688763 C62.4662812,8.36582772 60.9018248,6.37441412 58.2271092,6.37441412 Z M72.6147454,6.62649179 L77.6613787,6.62649179 L77.6613787,19.5328686 L72.6147454,19.5328686 L72.6147454,14.8442239 L72.5642791,14.8442239 C72.5642791,17.9447792 70.9493564,19.7849462 68.1989412,19.7849462 C65.2466607,19.7849462 63.4803391,17.2893773 63.4803391,13.0796802 C63.4803391,8.86998306 65.2466607,6.37441412 68.1989412,6.37441412 C70.9493564,6.37441412 72.5642791,8.21458112 72.5642791,11.3151365 L72.6147454,11.3151365 L72.6147454,6.62649179 Z M70.7222579,15.8273268 C72.0343826,15.8273268 72.8166107,14.5669384 72.8166107,13.0796802 C72.8166107,11.5924219 72.0343826,10.3068258 70.7222579,10.3068258 C69.4101332,10.3068258 68.6279051,11.3403442 68.6279051,13.0796802 C68.6279051,14.8190161 69.4101332,15.8273268 70.7222579,15.8273268 Z M79.3567321,19.5328686 L84.4033654,19.5328686 L84.4033654,0.122887865 L79.3567321,0.122887865 L79.3567321,19.5328686 Z M107.677808,11.9705384 L102.656407,11.9705384 C102.353609,14.3148608 101.041485,15.701288 98.9723651,15.701288 C96.5247479,15.701288 95.0612242,13.6594588 95.0612242,10.2059947 C95.0612242,6.75253062 96.5247479,4.71070148 98.9723651,4.71070148 C100.965785,4.71070148 102.353609,6.12233644 102.656407,8.46665879 L107.677808,8.46665879 C107.198377,3.5511442 103.968532,0.627043208 98.9723651,0.627043208 C93.0930372,0.627043208 89.6108602,4.18133837 89.6108602,10.2059947 C89.6108602,16.2306511 93.0930372,19.7849462 98.9723651,19.7849462 C103.968532,19.7849462 107.198377,16.8608452 107.677808,11.9705384 Z M117.64964,6.37441412 C115.227256,6.37441412 113.788965,8.21458112 113.788965,11.3151365 L113.738499,11.3151365 L113.738499,0.122887865 L108.691865,0.122887865 L108.691865,19.5328686 L113.738499,19.5328686 L113.738499,12.6511481 C113.738499,11.1890976 114.369328,10.3068258 115.454354,10.3068258 C116.413214,10.3068258 116.968344,10.9874355 116.968344,12.1469928 L116.968344,19.5328686 L122.014977,19.5328686 L122.014977,11.8949151 C122.014977,8.41624325 120.400055,6.37441412 117.64964,6.37441412 Z M132.163442,6.62649179 L137.210075,6.62649179 L137.210075,19.5328686 L132.163442,19.5328686 L132.163442,14.8442239 L132.112975,14.8442239 C132.112975,17.9447792 130.498053,19.7849462 127.747638,19.7849462 C124.795357,19.7849462 123.029035,17.2893773 123.029035,13.0796802 C123.029035,8.86998306 124.795357,6.37441412 127.747638,6.37441412 C130.498053,6.37441412 132.112975,8.21458112 132.112975,11.3151365 L132.163442,11.3151365 L132.163442,6.62649179 Z M130.270954,15.8273268 C131.583079,15.8273268 132.365307,14.5669384 132.365307,13.0796802 C132.365307,11.5924219 131.583079,10.3068258 130.270954,10.3068258 C128.95883,10.3068258 128.176601,11.3403442 128.176601,13.0796802 C128.176601,14.8190161 128.95883,15.8273268 130.270954,15.8273268 Z M147.863203,6.37441412 C145.440819,6.37441412 144.002528,8.21458112 144.002528,11.3151365 L143.952062,11.3151365 L143.952062,6.62649179 L138.905428,6.62649179 L138.905428,19.5328686 L143.952062,19.5328686 L143.952062,12.6511481 C143.952062,11.1890976 144.582891,10.3068258 145.667917,10.3068258 C146.626777,10.3068258 147.181907,10.9874355 147.181907,12.1469928 L147.181907,19.5328686 L152.22854,19.5328686 L152.22854,11.8949151 C152.22854,8.41624325 150.613618,6.37441412 147.863203,6.37441412 Z M162.755502,6.37441412 C160.333118,6.37441412 158.894828,8.21458112 158.894828,11.3151365 L158.844361,11.3151365 L158.844361,6.62649179 L153.797728,6.62649179 L153.797728,19.5328686 L158.844361,19.5328686 L158.844361,12.6511481 C158.844361,11.1890976 159.47519,10.3068258 160.560217,10.3068258 C161.519077,10.3068258 162.074207,10.9874355 162.074207,12.1469928 L162.074207,19.5328686 L167.12084,19.5328686 L167.12084,11.8949151 C167.12084,8.41624325 165.505917,6.37441412 162.755502,6.37441412 Z M181.710342,13.0544724 L181.710342,13.5586278 L172.954433,13.5586278 C173.080599,15.1467171 173.81236,16.0541967 174.947853,16.0541967 C175.88148,16.0541967 176.588009,15.6004569 176.865574,14.8442239 L181.710342,14.8442239 C181.180445,17.9447792 178.657128,19.7849462 174.947853,19.7849462 C170.632981,19.7849462 168.084432,17.2893773 168.084432,13.0544724 C168.084432,8.8447753 170.632981,6.37441412 174.947853,6.37441412 C179.187025,6.37441412 181.710342,8.8447753 181.710342,13.0544724 Z M174.947853,10.0799559 C173.862827,10.0799559 173.156298,10.8866044 172.979666,12.2982394 L176.815107,12.2982394 C176.663708,10.8866044 175.982413,10.0799559 174.947853,10.0799559 Z M182.774866,19.5328686 L187.821499,19.5328686 L187.821499,0.122887865 L182.774866,0.122887865 L182.774866,19.5328686 Z" id="Animal-Channel"></path>
                        </g>
                    </g>
                </g>
            </g>
        </g>
    </g>
</svg>