<svg class="chevron" width="49" height="48" viewBox="0 0 49 48" xmlns="http://www.w3.org/2000/svg" xmlns:xlink="http://www.w3.org/1999/xlink">
  <title>
    circle dot
  </title>
  <defs>
    <path id="a" d="M.3.3H2v2H.4v-2z"/>
  </defs>
  <g  fill="none" fill-rule="evenodd">
    <path d="M28.5 7.7c-11 0-20 9-20 20.2 0 11 9 20 20 20 11.2 0 20.2-9 20.2-20 0-11.6-9-20.6-20.2-20.6m0 1.6C38.8 9.3 47 17.7 47 28c0 10-8.2 18.5-18.5 18.5C18.3 46.5 10 38 10 28c0-10.4 8.3-18.7 18.5-18.7" fill="#189DA0"/>
    <path d="M41.3 12.4C50 19.4 51 32 44 40.7c-7 8.6-19.8 9.8-28.3 2.8l25.6-31z" fill="#3BEFF3"/>
    <g transform="translate(11.78 .018)">
      <mask id="b" fill="#fff">
        <use xlink:href="#a"/>
      </mask>
      <path d="M1.2 2.2c1.2 0 1.2-2 0-2s-1.2 2 0 2" fill="#241E1E" mask="url(#b)"/>
    </g>
    <path d="M9 7c1.2 0 1.2-2 0-2S7.8 7 9 7m8 0c1 0 1-2 0-2-1.3 0-1.3 2 0 2M5 11.6c1 0 1-2 0-2-1.3 0-1.3 2 0 2m7.8 0c1.2 0 1.2-2 0-2s-1.2 2 0 2M1 16.4c1 0 1-2 0-2-1.3 0-1.3 2 0 2m7.8 0c1.2 0 1.2-2 0-2s-1.2 2 0 2m8 0c1 0 1.2-2 0-2s-1.2 2 0 2M5 21c1.2 0 1.2-1.8 0-1.8S3.8 21 5 21m8 0c1 0 1-1.8 0-1.8-1.3 0-1.3 1.8 0 1.8M1 25.8c1.2 0 1.3-1.8 0-1.8-1 0-1 1.8 0 1.8m8 0c1.2 0 1.2-1.8 0-1.8s-1.2 1.8 0 1.8m8 0c1 0 1-1.8 0-1.8-1.3 0-1.3 1.8 0 1.8M5 30.4c1.2 0 1.2-1.8 0-1.8s-1.2 1.8 0 1.8m8 0c1 0 1-1.8 0-1.8-1.3 0-1.3 1.8 0 1.8m-4 4.8c1.2 0 1.2-1.8 0-1.8s-1.2 1.8 0 1.8m8 0c1 0 1-1.8 0-1.8-1.3 0-1.3 1.8 0 1.8M13 40c1 0 1-2 0-2-1.3 0-1.3 2 0 2M28.6 2.2c1.2 0 1.2-2 0-2s-1.2 2 0 2m-8 0c1.2 0 1.2-2 0-2-1 0-1.2 2 0 2m4 4.8c1.2 0 1.2-2 0-2s-1.2 2 0 2m8 0c1 0 1-2 0-2s-1.3 2 0 2m-12 4.6c1 0 1-2 0-2s-1.3 2 0 2m7.8 0c1.2 0 1.2-2 0-2s-1.2 2 0 2m8 0c1 0 1-2 0-2s-1.3 2 0 2m-12 4.8c1.3 0 1.3-2 0-2s-1 2 0 2m8 0c1.2 0 1.2-2 0-2s-1.2 2 0 2m8 0c1 0 1-2 0-2s-1.3 2 0 2m-20 4.6c1.3 0 1.3-1.8 0-1.8-1 0-1 1.8 0 1.8m8 0c1.3 0 1.3-1.8 0-1.8s-1 1.8 0 1.8m8 0c1 0 1-1.8 0-1.8s-1.2 1.8 0 1.8m-12 4.8c1.3 0 1.3-1.8 0-1.8s-1 1.8 0 1.8m8 0c1 0 1-1.8 0-1.8s-1.2 1.8 0 1.8m8 0c1 0 1-1.8 0-1.8s-1.2 1.8 0 1.8m-20 4.6c1.3 0 1.3-1.8 0-1.8-1 0-1 1.8 0 1.8m8 0c1.3 0 1.3-1.8 0-1.8s-1 1.8 0 1.8m8 0c1 0 1-1.8 0-1.8s-1.2 1.8 0 1.8m-12 4.8c1.3 0 1.3-1.8 0-1.8s-1 1.8 0 1.8m8 0c1 0 1-1.8 0-1.8s-1.2 1.8 0 1.8m-12 4.8c1.3 0 1.3-2 0-2-1 0-1 2 0 2m8 0c1.3 0 1.3-2 0-2s-1 2 0 2" fill="#189DA0"/>
  </g>
</svg>
