<?xml version="1.0" encoding="UTF-8"?>
<svg width="49px" height="48px" viewBox="0 0 49 48" version="1.1" xmlns="http://www.w3.org/2000/svg" xmlns:xlink="http://www.w3.org/1999/xlink">
    <!-- Generator: Sketch 46.2 (44496) - http://www.bohemiancoding.com/sketch -->
    <title>circle dot</title>
    <desc>Created with Sketch.</desc>
    <defs>
        <polygon id="path-1" points="0.266459677 0.292312242 2.06287832 0.292312242 2.06287832 2.15216826 0.266459677 2.15216826 0.266459677 0.292312242"></polygon>
    </defs>
    <g id="SBLY-homepage" stroke="none" stroke-width="1" fill="none" fill-rule="evenodd">
        <g id="sbly-homepage" transform="translate(-1346.000000, -2173.000000)">
            <g id="07-sub-cards-01" transform="translate(57.000000, 2087.000000)">
                <g id="circle-dot" transform="translate(1289.000000, 86.000000)">
                    <path d="M28.5284969,7.703807 C17.4007929,7.703807 8.37972093,16.724879 8.37972093,27.852583 C8.37972093,38.980287 17.4007929,48.0013589 28.5284969,48.0013589 C39.6562009,48.0013589 48.6772729,38.980287 48.6772729,27.852583 C48.6772729,16.724879 39.6562009,7.703807 28.5284969,7.703807 M28.5284969,9.25371284 C38.7842239,9.25371284 47.127367,17.597166 47.127367,27.852583 C47.127367,38.108 38.7842239,46.4514531 28.5284969,46.4514531 C18.2730799,46.4514531 9.92962678,38.108 9.92962678,27.852583 C9.92962678,17.597166 18.2730799,9.25371284 28.5284969,9.25371284" id="Fill-1" fill="#189DA0"></path>
                    <path d="M41.2910106,12.3668227 C49.8781089,19.4440028 51.1022246,32.1426913 44.0250445,40.7297897 C36.9478644,49.317198 24.2491759,50.5413136 15.6617676,43.4641336 L41.2910106,12.3668227 Z" id="Fill-3" fill="#3BEFF3"></path>
                    <g id="Group-7" transform="translate(11.779284, 0.017669)">
                        <mask id="mask-2" fill="white">
                            <use xlink:href="#path-1"></use>
                        </mask>
                        <g id="Clip-6"></g>
                        <path d="M1.16478524,2.15216826 C2.36131255,2.15216826 2.36317244,0.292281244 1.16478524,0.292281244 C-0.0320520528,0.292281244 -0.0339119399,2.15216826 1.16478524,2.15216826" id="Fill-5" fill="#241E1E" mask="url(#mask-2)"></path>
                    </g>
                    <path d="M8.98030945,6.9745453 C10.1771467,6.9745453 10.1790066,5.11465829 8.98030945,5.11465829 C7.78378214,5.11465829 7.78161227,6.9745453 8.98030945,6.9745453" id="Fill-8" fill="#189DA0"></path>
                    <path d="M16.9075199,6.9745453 C18.1040472,6.9745453 18.1062171,5.11465829 16.9075199,5.11465829 C15.7106826,5.11465829 15.7088227,6.9745453 16.9075199,6.9745453" id="Fill-10" fill="#189DA0"></path>
                    <path d="M4.86186864,11.5930787 C6.05839595,11.5930787 6.06056582,9.73319171 4.86186864,9.73319171 C3.66534133,9.73319171 3.66317146,11.5930787 4.86186864,11.5930787" id="Fill-12" fill="#189DA0"></path>
                    <path d="M12.7890791,11.5930787 C13.9856064,11.5930787 13.9874663,9.73319171 12.7890791,9.73319171 C11.5922418,9.73319171 11.5903819,11.5930787 12.7890791,11.5930787" id="Fill-14" fill="#189DA0"></path>
                    <path d="M0.898387423,16.3977868 C2.09491473,16.3977868 2.0970846,14.5378998 0.898387423,14.5378998 C-0.298449869,14.5378998 -0.300309756,16.3977868 0.898387423,16.3977868" id="Fill-16" fill="#189DA0"></path>
                    <path d="M8.82531886,16.3977868 C10.0221562,16.3977868 10.024016,14.5378998 8.82531886,14.5378998 C7.62879155,14.5378998 7.62662168,16.3977868 8.82531886,16.3977868" id="Fill-18" fill="#189DA0"></path>
                    <path d="M16.7525293,16.3977868 C17.9490566,16.3977868 17.9512265,14.5378998 16.7525293,14.5378998 C15.555692,14.5378998 15.5538321,16.3977868 16.7525293,16.3977868" id="Fill-20" fill="#189DA0"></path>
                    <path d="M5.01685923,21.0166302 C6.21338654,21.0166302 6.21555641,19.1567432 5.01685923,19.1567432 C3.82033192,19.1567432 3.81816205,21.0166302 5.01685923,21.0166302" id="Fill-22" fill="#189DA0"></path>
                    <path d="M12.9440697,21.0166302 C14.140597,21.0166302 14.1424568,19.1567432 12.9440697,19.1567432 C11.7472324,19.1567432 11.7453725,21.0166302 12.9440697,21.0166302" id="Fill-24" fill="#189DA0"></path>
                    <path d="M1.05337801,25.8213384 C2.24990532,25.8213384 2.25207519,23.9614513 1.05337801,23.9614513 C-0.143459285,23.9614513 -0.145319172,25.8213384 1.05337801,25.8213384" id="Fill-26" fill="#189DA0"></path>
                    <path d="M8.98030945,25.8213384 C10.1771467,25.8213384 10.1790066,23.9614513 8.98030945,23.9614513 C7.78378214,23.9614513 7.78161227,25.8213384 8.98030945,25.8213384" id="Fill-28" fill="#189DA0"></path>
                    <path d="M16.9075199,25.8213384 C18.1040472,25.8213384 18.1062171,23.9614513 16.9075199,23.9614513 C15.7106826,23.9614513 15.7088227,25.8213384 16.9075199,25.8213384" id="Fill-30" fill="#189DA0"></path>
                    <path d="M5.01685923,30.4401818 C6.21338654,30.4401818 6.21555641,28.5802948 5.01685923,28.5802948 C3.82033192,28.5802948 3.81816205,30.4401818 5.01685923,30.4401818" id="Fill-32" fill="#189DA0"></path>
                    <path d="M12.9440697,30.4401818 C14.140597,30.4401818 14.1424568,28.5802948 12.9440697,28.5802948 C11.7472324,28.5802948 11.7453725,30.4401818 12.9440697,30.4401818" id="Fill-34" fill="#189DA0"></path>
                    <path d="M8.98030945,35.2448899 C10.1771467,35.2448899 10.1790066,33.3850029 8.98030945,33.3850029 C7.78378214,33.3850029 7.78161227,35.2448899 8.98030945,35.2448899" id="Fill-36" fill="#189DA0"></path>
                    <path d="M16.9075199,35.2448899 C18.1040472,35.2448899 18.1062171,33.3850029 16.9075199,33.3850029 C15.7106826,33.3850029 15.7088227,35.2448899 16.9075199,35.2448899" id="Fill-38" fill="#189DA0"></path>
                    <path d="M12.9440697,39.8634233 C14.140597,39.8634233 14.1424568,38.0035363 12.9440697,38.0035363 C11.7472324,38.0035363 11.7453725,39.8634233 12.9440697,39.8634233" id="Fill-40" fill="#189DA0"></path>
                    <path d="M28.5739091,2.16983718 C29.7704365,2.16983718 29.7726063,0.309950171 28.5739091,0.309950171 C27.3773818,0.309950171 27.375212,2.16983718 28.5739091,2.16983718" id="Fill-45" fill="#189DA0"></path>
                    <path d="M20.6469777,2.16983718 C21.843505,2.16983718 21.8453649,0.309950171 20.6469777,0.309950171 C19.4501404,0.309950171 19.4482805,2.16983718 20.6469777,2.16983718" id="Fill-42" fill="#189DA0"></path>
                    <path d="M24.6104279,6.9745453 C25.8069552,6.9745453 25.8091251,5.11465829 24.6104279,5.11465829 C23.4135906,5.11465829 23.4117307,6.9745453 24.6104279,6.9745453" id="Fill-48" fill="#189DA0"></path>
                    <path d="M32.5373594,6.9745453 C33.7341967,6.9745453 33.7360565,5.11465829 32.5373594,5.11465829 C31.3408321,5.11465829 31.3386622,6.9745453 32.5373594,6.9745453" id="Fill-50" fill="#189DA0"></path>
                    <path d="M20.4919871,11.5930787 C21.6885144,11.5930787 21.6903743,9.73319171 20.4919871,9.73319171 C19.2951498,9.73319171 19.2932899,11.5930787 20.4919871,11.5930787" id="Fill-52" fill="#189DA0"></path>
                    <path d="M28.4189186,11.5930787 C29.6154459,11.5930787 29.6176157,9.73319171 28.4189186,9.73319171 C27.2223912,9.73319171 27.2202214,11.5930787 28.4189186,11.5930787" id="Fill-54" fill="#189DA0"></path>
                    <path d="M36.346129,11.5930787 C37.5426563,11.5930787 37.5448262,9.73319171 36.346129,9.73319171 C35.1492917,9.73319171 35.1474318,11.5930787 36.346129,11.5930787" id="Fill-56" fill="#189DA0"></path>
                    <path d="M24.4554373,16.3977868 C25.6519647,16.3977868 25.6541345,14.5378998 24.4554373,14.5378998 C23.2586,14.5378998 23.2567402,16.3977868 24.4554373,16.3977868" id="Fill-58" fill="#189DA0"></path>
                    <path d="M32.3823688,16.3977868 C33.5792061,16.3977868 33.581066,14.5378998 32.3823688,14.5378998 C31.1858415,14.5378998 31.1836716,16.3977868 32.3823688,16.3977868" id="Fill-60" fill="#189DA0"></path>
                    <path d="M40.3095792,16.3977868 C41.5061065,16.3977868 41.5082764,14.5378998 40.3095792,14.5378998 C39.1130519,14.5378998 39.110882,16.3977868 40.3095792,16.3977868" id="Fill-62" fill="#189DA0"></path>
                    <path d="M20.6469777,21.0166302 C21.843505,21.0166302 21.8453649,19.1567432 20.6469777,19.1567432 C19.4501404,19.1567432 19.4482805,21.0166302 20.6469777,21.0166302" id="Fill-64" fill="#189DA0"></path>
                    <path d="M28.5739091,21.0166302 C29.7704365,21.0166302 29.7726063,19.1567432 28.5739091,19.1567432 C27.3773818,19.1567432 27.375212,21.0166302 28.5739091,21.0166302" id="Fill-66" fill="#189DA0"></path>
                    <path d="M36.5011196,21.0166302 C37.6976469,21.0166302 37.6998167,19.1567432 36.5011196,19.1567432 C35.3042823,19.1567432 35.3024224,21.0166302 36.5011196,21.0166302" id="Fill-68" fill="#189DA0"></path>
                    <path d="M24.6104279,25.8213384 C25.8069552,25.8213384 25.8091251,23.9614513 24.6104279,23.9614513 C23.4135906,23.9614513 23.4117307,25.8213384 24.6104279,25.8213384" id="Fill-70" fill="#189DA0"></path>
                    <path d="M32.5373594,25.8213384 C33.7341967,25.8213384 33.7360565,23.9614513 32.5373594,23.9614513 C31.3408321,23.9614513 31.3386622,25.8213384 32.5373594,25.8213384" id="Fill-72" fill="#189DA0"></path>
                    <path d="M40.4645698,25.8213384 C41.6610971,25.8213384 41.663267,23.9614513 40.4645698,23.9614513 C39.2680425,23.9614513 39.2658726,25.8213384 40.4645698,25.8213384" id="Fill-74" fill="#189DA0"></path>
                    <path d="M20.6469777,30.4401818 C21.843505,30.4401818 21.8453649,28.5802948 20.6469777,28.5802948 C19.4501404,28.5802948 19.4482805,30.4401818 20.6469777,30.4401818" id="Fill-76" fill="#189DA0"></path>
                    <path d="M28.5739091,30.4401818 C29.7704365,30.4401818 29.7726063,28.5802948 28.5739091,28.5802948 C27.3773818,28.5802948 27.375212,30.4401818 28.5739091,30.4401818" id="Fill-78" fill="#189DA0"></path>
                    <path d="M36.5011196,30.4401818 C37.6976469,30.4401818 37.6998167,28.5802948 36.5011196,28.5802948 C35.3042823,28.5802948 35.3024224,30.4401818 36.5011196,30.4401818" id="Fill-80" fill="#189DA0"></path>
                    <path d="M24.6104279,35.2448899 C25.8069552,35.2448899 25.8091251,33.3850029 24.6104279,33.3850029 C23.4135906,33.3850029 23.4117307,35.2448899 24.6104279,35.2448899" id="Fill-82" fill="#189DA0"></path>
                    <path d="M32.5373594,35.2448899 C33.7341967,35.2448899 33.7360565,33.3850029 32.5373594,33.3850029 C31.3408321,33.3850029 31.3386622,35.2448899 32.5373594,35.2448899" id="Fill-84" fill="#189DA0"></path>
                    <path d="M20.6469777,39.8634233 C21.843505,39.8634233 21.8453649,38.0035363 20.6469777,38.0035363 C19.4501404,38.0035363 19.4482805,39.8634233 20.6469777,39.8634233" id="Fill-86" fill="#189DA0"></path>
                    <path d="M28.5739091,39.8634233 C29.7704365,39.8634233 29.7726063,38.0035363 28.5739091,38.0035363 C27.3773818,38.0035363 27.375212,39.8634233 28.5739091,39.8634233" id="Fill-88" fill="#189DA0"></path>
                </g>
            </g>
        </g>
    </g>
</svg>