<svg class="dot-grid" width="457" height="200" viewBox="0 0 457 200" xmlns="http://www.w3.org/2000/svg">
  <title>
    dot pattern1
  </title>
  <path d="M456.7894 1.4815c0-.7408-.6017-1.3403-1.3447-1.3403-.745 0-1.3446.5995-1.3446 1.3403 0 .745.6 1.3468 1.345 1.3468.743 0 1.345-.6017 1.345-1.3468m0 15.1385c0-.743-.602-1.3424-1.345-1.3424-.745 0-1.344.5995-1.344 1.3425 0 .739.6 1.343 1.345 1.343.743 0 1.345-.604 1.345-1.342m0 15.134c0-.738-.602-1.342-1.345-1.342-.745 0-1.344.604-1.344 1.343 0 .745.6 1.347 1.345 1.347.743 0 1.345-.601 1.345-1.346m0 15.139c0-.743-.602-1.344-1.345-1.344-.745 0-1.344.602-1.344 1.345 0 .741.6 1.343 1.345 1.343.743 0 1.345-.602 1.345-1.343m0 15.137c0-.741-.602-1.342-1.345-1.342-.745 0-1.344.602-1.344 1.343 0 .743.6 1.345 1.345 1.345.743 0 1.345-.602 1.345-1.345m0 15.137c0-.741-.602-1.343-1.342-1.343-.747 0-1.347.602-1.347 1.342 0 .745.6 1.343 1.347 1.343.741 0 1.342-.597 1.342-1.342m0 15.139c0-.741-.601-1.344-1.342-1.344-.747 0-1.347.604-1.347 1.345s.6 1.338 1.347 1.338c.741 0 1.343-.597 1.343-1.338m0 15.137c0-.743-.602-1.344-1.342-1.344-.747 0-1.347.602-1.347 1.345 0 .745.6 1.343 1.347 1.343.741 0 1.343-.597 1.343-1.342m0 15.137c0-.741-.601-1.344-1.342-1.344-.747 0-1.347.604-1.347 1.345s.6 1.342 1.347 1.342c.741 0 1.343-.601 1.343-1.342m0 15.135c0-.745-.601-1.342-1.342-1.342-.747 0-1.347.598-1.347 1.343s.6 1.345 1.347 1.345c.741 0 1.343-.599 1.343-1.344m0 15.137c0-.743-.602-1.345-1.343-1.345-.747 0-1.347.602-1.347 1.345 0 .745.6 1.345 1.347 1.345.741 0 1.343-.599 1.343-1.345m0 15.137c0-.741-.602-1.342-1.343-1.342-.747 0-1.347.602-1.347 1.343 0 .743.6 1.344 1.347 1.344.741 0 1.343-.601 1.343-1.344m0 15.137c0-.743-.601-1.34-1.342-1.34-.747 0-1.347.597-1.347 1.34 0 .746.6 1.345 1.347 1.345.741 0 1.343-.599 1.343-1.345m-2.689 15.136c0 .743.6 1.345 1.347 1.345.741 0 1.343-.602 1.343-1.345 0-.738-.602-1.342-1.343-1.342-.747 0-1.347.604-1.347 1.343M441.652 1.485c0-.741-.6018-1.3403-1.3426-1.3403-.743 0-1.3423.5995-1.3423 1.3403 0 .745.6 1.3468 1.343 1.3468.741 0 1.343-.6015 1.343-1.3466m0 15.1386c0-.743-.601-1.3425-1.342-1.3425-.743 0-1.342.5996-1.342 1.3426 0 .739.6 1.343 1.343 1.343.741 0 1.343-.604 1.343-1.342m0 15.134c0-.739-.601-1.343-1.342-1.343-.743 0-1.342.603-1.342 1.342 0 .745.6 1.347 1.343 1.347.741 0 1.343-.602 1.343-1.347m0 15.139c0-.743-.601-1.345-1.342-1.345-.743 0-1.342.601-1.342 1.344 0 .74.599 1.342 1.342 1.342.741 0 1.343-.602 1.343-1.343m0 15.136c0-.741-.602-1.343-1.342-1.343-.743 0-1.342.602-1.342 1.343 0 .743.6 1.344 1.343 1.344.741 0 1.343-.602 1.343-1.345m0 15.136c0-.741-.602-1.343-1.341-1.343-.745 0-1.345.601-1.345 1.342 0 .745.6 1.343 1.345 1.343.739 0 1.341-.598 1.341-1.343m0 15.139c0-.741-.601-1.345-1.34-1.345-.745 0-1.345.604-1.345 1.344s.6 1.338 1.345 1.338c.739 0 1.34-.597 1.34-1.338m0 15.137c0-.743-.601-1.345-1.34-1.345-.745 0-1.344.602-1.344 1.345 0 .745.599 1.342 1.344 1.342.739 0 1.341-.597 1.341-1.342m0 15.136c0-.741-.602-1.345-1.341-1.345-.745 0-1.344.603-1.344 1.344s.599 1.342 1.345 1.342c.738 0 1.34-.602 1.34-1.343m0 15.135c0-.745-.602-1.342-1.341-1.342-.745 0-1.344.597-1.344 1.342 0 .745.599 1.344 1.344 1.344.739 0 1.341-.599 1.341-1.345m0 15.136c0-.743-.602-1.345-1.34-1.345-.745 0-1.345.602-1.345 1.345 0 .745.6 1.344 1.345 1.344.7387 0 1.34-.6 1.34-1.345m0 15.137c0-.741-.601-1.343-1.34-1.343-.745 0-1.3444.602-1.3444 1.343 0 .743.6 1.345 1.345 1.345.739 0 1.341-.602 1.341-1.345m0 15.137c0-.743-.602-1.341-1.341-1.341-.745 0-1.345.597-1.345 1.34 0 .745.6 1.345 1.345 1.345.7384 0 1.34-.6 1.34-1.345m0 15.136c0-.739-.602-1.343-1.34-1.343-.745 0-1.345.604-1.345 1.342 0 .743.599 1.344 1.344 1.344.738 0 1.34-.601 1.34-1.344M426.517 1.482c0-.741-.6017-1.3406-1.3447-1.3406-.745 0-1.3447.6-1.3447 1.341 0 .745.599 1.3468 1.344 1.3468.743 0 1.344-.6016 1.344-1.3467m0 15.1384c0-.743-.6015-1.343-1.3445-1.343-.745 0-1.344.599-1.344 1.342 0 .739.6 1.343 1.345 1.343.743 0 1.345-.604 1.345-1.343m0 15.134c0-.739-.601-1.343-1.344-1.343-.745 0-1.345.603-1.345 1.342 0 .745.6 1.347 1.345 1.347.743 0 1.345-.602 1.345-1.347m.001 15.139c0-.743-.602-1.345-1.345-1.345-.745 0-1.345.601-1.345 1.344 0 .74.6 1.342 1.345 1.342.743 0 1.345-.602 1.345-1.343m.001 15.136c0-.741-.601-1.343-1.344-1.343-.745 0-1.345.601-1.345 1.342 0 .743.599 1.344 1.345 1.344.743 0 1.344-.602 1.344-1.345m0 15.136c0-.741-.601-1.343-1.342-1.343-.747 0-1.347.601-1.347 1.342 0 .745.599 1.342 1.347 1.342.741 0 1.342-.598 1.342-1.343m0 15.139c0-.741-.602-1.345-1.343-1.345-.747 0-1.347.604-1.347 1.344s.6 1.338 1.347 1.338c.741 0 1.343-.597 1.343-1.338m0 15.137c0-.743-.602-1.345-1.343-1.345-.747 0-1.347.601-1.347 1.344 0 .745.6 1.342 1.347 1.342.741 0 1.342-.597 1.342-1.342m0 15.136c0-.741-.601-1.345-1.342-1.345-.747 0-1.347.604-1.347 1.344s.599 1.343 1.346 1.343c.741 0 1.343-.602 1.343-1.343m0 15.135c0-.745-.601-1.343-1.342-1.343-.747 0-1.347.597-1.347 1.342 0 .745.599 1.344 1.347 1.344.741 0 1.342-.599 1.342-1.344m.001 15.136c0-.743-.602-1.345-1.343-1.345-.747 0-1.347.6012-1.347 1.3442 0 .745.6 1.344 1.347 1.344.741 0 1.343-.599 1.343-1.344m0 15.137c0-.741-.602-1.343-1.343-1.343-.747 0-1.347.602-1.347 1.343 0 .743.6 1.344 1.347 1.344.741 0 1.343-.6015 1.343-1.3445m0 15.136c0-.743-.601-1.34-1.342-1.34-.747 0-1.347.597-1.347 1.34 0 .746.599 1.345 1.346 1.345.741 0 1.342-.599 1.342-1.3445M411.377 1.481c0-.7407-.6016-1.34-1.3425-1.34-.745 0-1.3444.5993-1.3444 1.34 0 .745.6 1.347 1.345 1.347.741 0 1.342-.6018 1.342-1.347m15.139 196.777c0-.7386-.601-1.3424-1.342-1.3424-.747 0-1.347.6038-1.347 1.3425 0 .743.6 1.345 1.347 1.345.741 0 1.343-.601 1.343-1.344M411.378 16.62c0-.743-.6016-1.3424-1.3425-1.3424-.745 0-1.3444.5995-1.3444 1.3425 0 .739.599 1.343 1.344 1.343.741 0 1.343-.604 1.343-1.342m0 15.134c0-.738-.602-1.342-1.342-1.342-.745 0-1.344.604-1.344 1.343 0 .745.6 1.347 1.345 1.347.741 0 1.343-.601 1.343-1.346m0 15.139c0-.743-.601-1.344-1.342-1.344-.745 0-1.344.602-1.344 1.345 0 .741.6 1.343 1.345 1.343.741 0 1.342-.602 1.342-1.343m0 15.136c0-.741-.601-1.342-1.342-1.342-.745 0-1.344.602-1.344 1.343 0 .743.6 1.345 1.345 1.345.741 0 1.343-.601 1.343-1.344m0 15.137c0-.741-.602-1.342-1.34-1.342-.747 0-1.347.602-1.347 1.343 0 .745.6 1.343 1.347 1.343.739 0 1.341-.598 1.341-1.343m0 15.139c0-.74-.602-1.344-1.34-1.344-.747 0-1.347.604-1.347 1.345s.6 1.338 1.347 1.338c.739 0 1.341-.597 1.341-1.338m0 15.137c0-.743-.601-1.345-1.34-1.345-.747 0-1.347.602-1.347 1.345 0 .745.6 1.342 1.347 1.342.739 0 1.34-.597 1.34-1.342m0 15.137c0-.741-.601-1.344-1.34-1.344-.747 0-1.347.604-1.347 1.345s.6 1.342 1.347 1.342c.739 0 1.341-.602 1.341-1.343m0 15.135c0-.745-.601-1.342-1.34-1.342-.747 0-1.347.597-1.347 1.343 0 .745.6 1.345 1.347 1.345.739 0 1.341-.599 1.341-1.344m0 15.136c0-.743-.601-1.344-1.34-1.344-.747 0-1.347.602-1.347 1.345 0 .745.6 1.345 1.347 1.345.739 0 1.34-.599 1.34-1.344m0 15.137c0-.741-.601-1.342-1.34-1.342-.747 0-1.347.602-1.347 1.342 0 .743.6 1.345 1.347 1.345.739 0 1.34-.602 1.34-1.345m0 15.137c0-.743-.602-1.34-1.34-1.34-.747 0-1.347.597-1.347 1.34 0 .746.6 1.345 1.347 1.345.739 0 1.34-.599 1.34-1.344M396.243 1.481c0-.7405-.606-1.34-1.3467-1.34-.743 0-1.3404.5995-1.3404 1.34 0 .745.597 1.347 1.34 1.347.741 0 1.347-.6016 1.347-1.347m15.134 196.777c0-.7384-.602-1.342-1.341-1.342-.748 0-1.347.604-1.347 1.3424 0 .743.599 1.344 1.346 1.344.739 0 1.34-.6017 1.34-1.3447M396.243 16.62c0-.743-.606-1.3424-1.3467-1.3424-.743 0-1.3404.5995-1.3404 1.3425 0 .739.597 1.343 1.34 1.343.741 0 1.347-.604 1.347-1.342m0 15.134c0-.738-.606-1.342-1.347-1.342-.743 0-1.341.604-1.341 1.343 0 .745.597 1.347 1.34 1.347.74 0 1.346-.601 1.346-1.346m0 15.139c0-.743-.606-1.344-1.347-1.344-.743 0-1.341.602-1.341 1.345 0 .741.597 1.343 1.34 1.343.74 0 1.346-.602 1.346-1.343m0 15.137c0-.741-.606-1.342-1.347-1.342-.743 0-1.341.602-1.341 1.343 0 .743.597 1.345 1.34 1.345.741 0 1.347-.602 1.347-1.345m0 15.137c0-.741-.602-1.343-1.342-1.343-.748 0-1.343.602-1.343 1.342 0 .745.596 1.343 1.343 1.343.741 0 1.343-.597 1.343-1.342m-.001 15.139c0-.741-.602-1.344-1.343-1.344-.748 0-1.343.604-1.343 1.345s.595 1.338 1.342 1.338c.741 0 1.343-.597 1.343-1.338m-.001 15.137c0-.743-.602-1.344-1.343-1.344-.747 0-1.343.602-1.343 1.345 0 .745.595 1.343 1.342 1.343.741 0 1.342-.597 1.342-1.342m0 15.137c0-.741-.602-1.344-1.343-1.344-.747 0-1.342.604-1.342 1.345s.595 1.342 1.342 1.342c.741 0 1.342-.601 1.342-1.342m0 15.135c0-.745-.602-1.342-1.343-1.342-.747 0-1.342.598-1.342 1.343s.596 1.345 1.343 1.345c.741 0 1.342-.599 1.342-1.344m0 15.137c0-.743-.601-1.345-1.342-1.345-.747 0-1.343.602-1.343 1.345 0 .745.595 1.345 1.343 1.345.74 0 1.342-.599 1.342-1.345m0 15.137c0-.741-.601-1.342-1.342-1.342-.747 0-1.343.602-1.343 1.343 0 .743.595 1.344 1.342 1.344.74 0 1.342-.601 1.342-1.344m0 15.137c0-.743-.602-1.34-1.343-1.34-.748 0-1.343.597-1.343 1.34 0 .746.595 1.345 1.342 1.345.741 0 1.343-.599 1.343-1.345M381.104 1.482c0-.7408-.604-1.3403-1.3426-1.3403-.745 0-1.3426.5996-1.3426 1.3404 0 .745.5974 1.347 1.3425 1.347.7386 0 1.3424-.601 1.3424-1.347m15.1385 196.777c0-.738-.6017-1.342-1.3425-1.342-.7473 0-1.3425.604-1.3425 1.343 0 .743.5955 1.345 1.3428 1.345.7408 0 1.3425-.601 1.3425-1.344m-15.138-181.64c0-.743-.6038-1.342-1.3425-1.342-.745 0-1.3425.6-1.3425 1.343 0 .739.5974 1.343 1.3425 1.343.7387 0 1.3425-.604 1.3425-1.342m0 15.134c0-.738-.6038-1.342-1.3425-1.342-.745 0-1.3425.604-1.3425 1.343 0 .745.5974 1.347 1.3425 1.347.7387 0 1.3425-.601 1.3425-1.346m0 15.139c0-.743-.6038-1.344-1.3425-1.344-.745 0-1.3425.602-1.3425 1.345 0 .741.5974 1.342 1.3425 1.342.7387 0 1.3425-.601 1.3425-1.342m0 15.137c0-.741-.6038-1.342-1.3425-1.342-.745 0-1.3425.602-1.3425 1.343 0 .743.5974 1.345 1.3425 1.345.7387 0 1.3425-.602 1.3425-1.345m0 15.137c0-.741-.6017-1.342-1.3425-1.342-.745 0-1.3404.602-1.3404 1.343 0 .745.5953 1.343 1.3404 1.343.7408 0 1.3425-.597 1.3425-1.342m0 15.139c0-.741-.6017-1.344-1.3425-1.344-.745 0-1.3404.604-1.3404 1.345s.5953 1.338 1.3404 1.338c.7408 0 1.3425-.597 1.3425-1.338m0 15.137c0-.743-.6017-1.344-1.3425-1.344-.745 0-1.3404.602-1.3404 1.345 0 .745.5953 1.343 1.3404 1.343.7408 0 1.3425-.597 1.3425-1.342m0 15.136c0-.741-.6017-1.344-1.3425-1.344-.745 0-1.3404.604-1.3404 1.345s.5953 1.342 1.3404 1.342c.7408 0 1.3425-.601 1.3425-1.342m0 15.135c0-.745-.6017-1.342-1.3425-1.342-.745 0-1.3404.597-1.3404 1.343 0 .745.5953 1.345 1.3404 1.345.7408 0 1.3425-.599 1.3425-1.344m0 15.136c0-.743-.6017-1.345-1.3425-1.345-.745 0-1.3404.602-1.3404 1.345 0 .745.5953 1.345 1.3404 1.345.7408 0 1.3425-.599 1.3425-1.344m0 15.137c0-.741-.6017-1.343-1.3425-1.343-.745 0-1.3404.602-1.3404 1.343 0 .743.5953 1.345 1.3404 1.345.7408 0 1.3425-.602 1.3425-1.345m0 15.137c0-.743-.6017-1.341-1.3425-1.341-.745 0-1.3404.597-1.3404 1.34 0 .746.5953 1.345 1.3404 1.345.7408 0 1.3425-.599 1.3425-1.345m0 15.136c0-.738-.6017-1.342-1.3425-1.342-.745 0-1.3404.604-1.3404 1.343 0 .743.5953 1.344 1.3404 1.344.7408 0 1.3425-.601 1.3425-1.344M365.966 1.482c0-.741-.6018-1.3405-1.3426-1.3405-.7387 0-1.3425.6-1.3425 1.341 0 .745.603 1.347 1.342 1.347.741 0 1.342-.6014 1.342-1.347m0 15.139c0-.743-.602-1.3425-1.343-1.3425-.739 0-1.343.5995-1.343 1.3425 0 .739.603 1.343 1.342 1.343.741 0 1.342-.604 1.342-1.3424m0 15.134c0-.739-.602-1.342-1.343-1.342-.739 0-1.343.604-1.343 1.343 0 .745.603 1.347 1.342 1.347.74 0 1.342-.601 1.342-1.347m0 15.139c0-.743-.602-1.345-1.343-1.345-.739 0-1.343.602-1.343 1.345 0 .741.603 1.343 1.342 1.343.74 0 1.342-.601 1.342-1.342m0 15.137c0-.741-.602-1.342-1.343-1.342-.739 0-1.343.602-1.343 1.343 0 .743.604 1.344 1.343 1.344.741 0 1.343-.602 1.343-1.345m0 15.136c0-.741-.6-1.342-1.338-1.342-.743 0-1.343.601-1.343 1.342 0 .745.6 1.343 1.343 1.343.738 0 1.338-.598 1.338-1.343m0 15.139c0-.741-.6-1.345-1.338-1.345-.743 0-1.343.604-1.343 1.345s.599 1.339 1.342 1.339c.739 0 1.338-.597 1.338-1.338m0 15.137c0-.743-.6-1.345-1.339-1.345-.743 0-1.342.602-1.342 1.345 0 .745.599 1.343 1.342 1.343.739 0 1.339-.597 1.339-1.343m0 15.136c0-.741-.6-1.344-1.338-1.344-.743 0-1.343.604-1.343 1.345s.599 1.342 1.342 1.342c.739 0 1.338-.601 1.338-1.342m0 15.135c0-.745-.599-1.342-1.338-1.342-.743 0-1.342.597-1.342 1.343 0 .745.599 1.344 1.342 1.344.739 0 1.338-.599 1.338-1.344m0 15.137c0-.743-.599-1.345-1.338-1.345-.743 0-1.343.602-1.343 1.345 0 .745.6 1.345 1.343 1.345.738 0 1.338-.599 1.338-1.345m0 15.137c0-.741-.6-1.342-1.339-1.342-.743 0-1.343.602-1.343 1.343 0 .743.6 1.345 1.343 1.345.738 0 1.338-.601 1.338-1.344m0 15.136c0-.743-.6-1.34-1.339-1.34-.743 0-1.342.597-1.342 1.34 0 .746.599 1.345 1.342 1.345.739 0 1.338-.599 1.338-1.344m0 15.136c0-.739-.599-1.343-1.338-1.343-.743 0-1.342.604-1.342 1.343 0 .743.599 1.345 1.342 1.345.739 0 1.338-.602 1.338-1.345M350.829 1.482c0-.741-.5975-1.3405-1.3404-1.3405-.743 0-1.3424.5994-1.3424 1.3402 0 .745.5995 1.3468 1.3425 1.3468s1.3405-.6017 1.3405-1.3468m-.0002 15.1385c0-.743-.5974-1.3424-1.3403-1.3424-.743 0-1.342.5995-1.342 1.3425 0 .739.5994 1.343 1.3424 1.343s1.341-.604 1.341-1.3426m0 15.1343c0-.739-.597-1.343-1.34-1.343-.743 0-1.342.6035-1.342 1.3422 0 .7452.6 1.3468 1.343 1.3468s1.341-.6012 1.341-1.3464m0 15.139c0-.743-.597-1.3448-1.34-1.3448-.743 0-1.342.6015-1.342 1.3445 0 .7407.6 1.3424 1.343 1.3424s1.341-.602 1.341-1.3427m-.001 15.1364c0-.741-.597-1.3426-1.34-1.3426-.743 0-1.342.6018-1.342 1.3426 0 .743.6 1.3446 1.343 1.3446s1.341-.6017 1.341-1.3447m-.001 15.1363c0-.741-.595-1.3426-1.34-1.3426-.741 0-1.34.6014-1.34 1.3423 0 .745.6 1.3425 1.341 1.3425.745 0 1.341-.5975 1.341-1.3426m0 15.139c0-.741-.595-1.3447-1.34-1.3447-.74 0-1.34.604-1.34 1.3446s.6 1.339 1.341 1.339c.745 0 1.34-.597 1.34-1.338m0 15.137c0-.743-.595-1.344-1.34-1.344-.74 0-1.34.602-1.34 1.345 0 .745.6 1.343 1.34 1.343.745 0 1.341-.597 1.341-1.342m0 15.137c0-.741-.595-1.344-1.34-1.344-.74 0-1.34.604-1.34 1.344s.6 1.343 1.341 1.343c.745 0 1.34-.601 1.34-1.342m0 15.135c0-.745-.595-1.342-1.34-1.342-.741 0-1.341.598-1.341 1.343s.599 1.344 1.34 1.344c.745 0 1.341-.599 1.341-1.345m0 15.137c0-.743-.595-1.345-1.34-1.345-.741 0-1.34.602-1.34 1.345 0 .745.599 1.345 1.34 1.345.745 0 1.34-.599 1.34-1.345m0 15.137c0-.741-.595-1.342-1.34-1.342-.741 0-1.34.602-1.34 1.343 0 .743.599 1.344 1.34 1.344.745 0 1.34-.601 1.34-1.344m0 15.137c0-.743-.595-1.34-1.341-1.34-.741 0-1.341.598-1.341 1.341 0 .745.599 1.345 1.34 1.345.745 0 1.341-.6 1.341-1.345M335.697 1.481c0-.7405-.6038-1.34-1.3468-1.34s-1.3425.5995-1.3425 1.3403c0 .745.5996 1.3468 1.3425 1.3468.743 0 1.3468-.601 1.3468-1.346m15.1324 196.777c0-.738-.5952-1.342-1.3403-1.342-.74 0-1.34.604-1.34 1.343 0 .743.6 1.345 1.341 1.345.745 0 1.341-.601 1.341-1.344M335.697 16.62c0-.743-.6038-1.3424-1.3468-1.3424s-1.3425.5995-1.3425 1.3425c0 .739.5996 1.343 1.3425 1.343.743 0 1.3468-.604 1.3468-1.342m0 15.134c0-.738-.6038-1.342-1.3468-1.342s-1.3425.604-1.3425 1.343c0 .745.5996 1.347 1.3425 1.347.743 0 1.3468-.601 1.3468-1.346m0 15.139c0-.743-.6038-1.344-1.3468-1.344s-1.3425.602-1.3425 1.345c0 .741.5996 1.343 1.3425 1.343.743 0 1.3468-.602 1.3468-1.343m0 15.137c0-.741-.6038-1.342-1.3468-1.342s-1.3425.602-1.3425 1.343c0 .743.5996 1.345 1.3425 1.345.743 0 1.3468-.602 1.3468-1.345m0 15.137c0-.741-.6038-1.343-1.3468-1.343-.7387 0-1.3425.602-1.3425 1.342 0 .745.6038 1.343 1.3425 1.343.743 0 1.3468-.597 1.3468-1.342m0 15.139c0-.741-.6038-1.344-1.3468-1.344-.7387 0-1.3425.604-1.3425 1.345s.6038 1.338 1.3425 1.338c.743 0 1.3468-.597 1.3468-1.338m0 15.137c0-.743-.6038-1.344-1.3468-1.344-.7387 0-1.3425.602-1.3425 1.345 0 .745.6038 1.343 1.3425 1.343.743 0 1.3468-.597 1.3468-1.342m0 15.137c0-.741-.6038-1.344-1.3468-1.344-.7387 0-1.3425.604-1.3425 1.345s.6038 1.342 1.3425 1.342c.743 0 1.3468-.601 1.3468-1.342m0 15.135c0-.745-.6038-1.342-1.3468-1.342-.7387 0-1.3425.598-1.3425 1.343s.6038 1.345 1.3425 1.345c.743 0 1.3468-.599 1.3468-1.344m0 15.137c0-.743-.6038-1.345-1.3468-1.345-.7387 0-1.3425.602-1.3425 1.345 0 .745.6038 1.345 1.3425 1.345.743 0 1.3468-.599 1.3468-1.345m0 15.137c0-.741-.6038-1.342-1.3468-1.342-.7387 0-1.3425.602-1.3425 1.343 0 .743.6038 1.344 1.3425 1.344.743 0 1.3468-.601 1.3468-1.344m0 15.137c0-.743-.6038-1.34-1.3468-1.34-.7387 0-1.3425.597-1.3425 1.34 0 .746.6038 1.345 1.3425 1.345.743 0 1.3468-.599 1.3468-1.345m0 15.136c0-.739-.6038-1.342-1.3468-1.342-.7387 0-1.3425.604-1.3425 1.343 0 .743.6038 1.344 1.3425 1.344.743 0 1.3468-.602 1.3468-1.345M320.5584 1.481c0-.741-.6016-1.3403-1.3425-1.3403-.743 0-1.343.6-1.343 1.341 0 .745.599 1.3467 1.342 1.3467.741 0 1.342-.6017 1.342-1.3468m0 15.1383c0-.743-.602-1.343-1.343-1.343-.743 0-1.343.599-1.343 1.342 0 .739.599 1.343 1.342 1.343.741 0 1.342-.604 1.342-1.343m0 15.135c0-.739-.602-1.342-1.343-1.342-.743 0-1.343.604-1.343 1.343 0 .746.599 1.347 1.342 1.347.741 0 1.343-.601 1.343-1.346m0 15.139c0-.743-.602-1.345-1.343-1.345-.743 0-1.343.601-1.343 1.344 0 .74.599 1.342 1.342 1.342.741 0 1.342-.602 1.342-1.343m0 15.136c0-.741-.602-1.343-1.343-1.343-.743 0-1.343.602-1.343 1.343 0 .743.599 1.344 1.342 1.344.741 0 1.342-.602 1.342-1.345m.004 15.136c0-.741-.606-1.342-1.347-1.342-.743 0-1.343.602-1.343 1.343 0 .745.6 1.342 1.343 1.342.741 0 1.347-.598 1.347-1.343m0 15.139c0-.741-.606-1.344-1.347-1.344-.743 0-1.343.604-1.343 1.345s.599 1.338 1.342 1.338c.741 0 1.347-.597 1.347-1.338m0 15.137c0-.743-.606-1.345-1.347-1.345-.743 0-1.343.602-1.343 1.345 0 .745.599 1.342 1.342 1.342.741 0 1.347-.597 1.347-1.342m0 15.136c0-.741-.606-1.345-1.347-1.345-.743 0-1.342.604-1.342 1.344s.599 1.342 1.342 1.342c.741 0 1.347-.602 1.347-1.343m0 15.135c0-.745-.606-1.343-1.347-1.343-.743 0-1.343.597-1.343 1.343 0 .745.599 1.344 1.342 1.344.741 0 1.347-.599 1.347-1.344m0 15.137c0-.743-.606-1.345-1.347-1.345-.743 0-1.343.602-1.343 1.345 0 .745.6 1.344 1.343 1.344.741 0 1.347-.6 1.347-1.345m0 15.137c0-.741-.606-1.343-1.347-1.343-.743 0-1.343.602-1.343 1.343 0 .743.6 1.344 1.343 1.344.741 0 1.347-.602 1.347-1.345m0 15.136c0-.743-.606-1.34-1.347-1.34-.743 0-1.342.597-1.342 1.34 0 .746.599 1.345 1.342 1.345.741 0 1.347-.599 1.347-1.344m0 15.136c0-.739-.606-1.342-1.347-1.342-.743 0-1.342.604-1.342 1.342 0 .743.599 1.345 1.342 1.345.741 0 1.347-.602 1.347-1.345M305.42 1.483c0-.741-.5994-1.34-1.3445-1.34-.745 0-1.3426.6-1.3426 1.34 0 .745.597 1.347 1.342 1.347.745 0 1.345-.602 1.345-1.347m0 15.139c0-.743-.6-1.342-1.345-1.342s-1.342.6-1.342 1.343c0 .739.597 1.343 1.342 1.343.745 0 1.345-.604 1.345-1.342m0 15.134c0-.739-.6-1.342-1.345-1.342s-1.342.604-1.342 1.3426c0 .745.597 1.346 1.342 1.346.745 0 1.345-.601 1.345-1.346m0 15.139c0-.743-.6-1.344-1.345-1.344s-1.342.601-1.342 1.344c0 .741.597 1.343 1.343 1.343.745 0 1.344-.602 1.344-1.343m0 15.137c0-.741-.6-1.342-1.345-1.342s-1.343.602-1.343 1.343c0 .743.597 1.345 1.342 1.345.745 0 1.344-.602 1.344-1.345m.002 15.137c0-.741-.6-1.343-1.347-1.343-.741 0-1.343.6017-1.343 1.3426 0 .745.601 1.342 1.342 1.342.747 0 1.347-.597 1.347-1.3425m0 15.139c0-.7406-.6-1.3444-1.347-1.3444-.741 0-1.343.604-1.343 1.345s.601 1.338 1.342 1.338c.747 0 1.347-.597 1.347-1.338m0 15.137c0-.743-.6-1.344-1.347-1.344-.741 0-1.342.602-1.342 1.345 0 .745.602 1.342 1.343 1.342.747 0 1.347-.597 1.347-1.343m0 15.1363c0-.741-.6-1.345-1.347-1.345-.741 0-1.342.603-1.342 1.344s.601 1.342 1.342 1.342c.747 0 1.347-.602 1.347-1.343m0 15.134c0-.745-.6-1.342-1.347-1.342-.741 0-1.343.598-1.343 1.343s.601 1.345 1.342 1.345c.747 0 1.347-.599 1.347-1.3447m0 15.136c0-.743-.6-1.345-1.347-1.345-.741 0-1.343.602-1.343 1.345 0 .745.602 1.345 1.342 1.345.747 0 1.347-.599 1.347-1.344m0 15.137c0-.741-.6-1.342-1.347-1.342-.741 0-1.343.602-1.343 1.343 0 .743.602 1.345 1.343 1.345.748 0 1.347-.602 1.347-1.345m0 15.136c0-.743-.599-1.341-1.347-1.341-.741 0-1.342.598-1.342 1.341 0 .745.602 1.345 1.342 1.345.747 0 1.347-.6 1.347-1.345m0 15.136c0-.739-.6-1.343-1.347-1.343-.741 0-1.343.604-1.343 1.343 0 .743.602 1.345 1.342 1.345.747 0 1.347-.602 1.347-1.345M290.283 1.482c0-.741-.5994-1.3405-1.3424-1.3405s-1.3446.5995-1.3446 1.3403c0 .745.6017 1.3468 1.3446 1.3468.743 0 1.3425-.6017 1.3425-1.3468m0 15.1385c0-.743-.599-1.342-1.342-1.342s-1.344.6-1.344 1.343c0 .739.602 1.347 1.345 1.347s1.343-.608 1.343-1.347m0 15.135c0-.7382-.599-1.34-1.342-1.34s-1.344.602-1.344 1.3408c0 .75.602 1.347 1.345 1.347s1.343-.597 1.343-1.347m0 15.139c0-.743-.599-1.342-1.342-1.342s-1.344.6-1.344 1.343c0 .741.602 1.347 1.345 1.347s1.343-.606 1.343-1.346m0 15.136c0-.741-.6-1.34-1.343-1.34s-1.344.6-1.344 1.341c0 .747.602 1.347 1.345 1.347s1.343-.599 1.343-1.346m.005 15.136c0-.741-.604-1.34-1.347-1.34s-1.34.6-1.34 1.341c0 .745.598 1.347 1.341 1.347s1.347-.602 1.347-1.347m0 15.139c0-.74-.604-1.342-1.347-1.342s-1.34.602-1.34 1.343.598 1.339 1.341 1.339 1.347-.597 1.347-1.338m0 15.137c0-.743-.604-1.342-1.347-1.342s-1.34.599-1.34 1.342c0 .745.598 1.343 1.34 1.343.743 0 1.347-.597 1.347-1.342m0 15.137c0-.741-.604-1.343-1.347-1.343s-1.34.602-1.34 1.343.598 1.343 1.341 1.343 1.347-.601 1.347-1.342m0 15.137c0-.748-.604-1.341-1.347-1.341s-1.34.593-1.34 1.341c0 .743.598 1.343 1.341 1.343s1.347-.599 1.347-1.342m0 15.136c0-.741-.604-1.346-1.347-1.346s-1.34.606-1.34 1.347c0 .743.598 1.343 1.341 1.343s1.347-.6 1.347-1.342m0 15.136c0-.739-.604-1.345-1.347-1.345s-1.34.606-1.34 1.344c0 .743.597 1.343 1.34 1.343.743 0 1.347-.599 1.347-1.342m0 15.137c0-.745-.604-1.342-1.347-1.342s-1.34.598-1.34 1.343c0 .743.598 1.343 1.341 1.343s1.347-.5996 1.347-1.3426m0 15.139c0-.741-.604-1.347-1.347-1.347s-1.34.606-1.34 1.347.598 1.34 1.341 1.34 1.347-.6 1.347-1.3406M275.15 1.481c0-.7404-.5997-1.34-1.347-1.34-.743 0-1.3403.6-1.3403 1.341 0 .745.5975 1.347 1.3404 1.347.748 0 1.347-.601 1.347-1.346m0 15.1384c0-.743-.599-1.342-1.347-1.342-.743 0-1.34.6-1.34 1.343 0 .739.598 1.347 1.341 1.347.747 0 1.347-.608 1.347-1.347m0 15.1347c0-.738-.599-1.34-1.347-1.34-.743 0-1.34.602-1.34 1.341 0 .749.598 1.347 1.341 1.347.747 0 1.347-.597 1.347-1.347m0 15.139c0-.743-.599-1.343-1.346-1.343-.743 0-1.34.599-1.34 1.342 0 .741.598 1.347 1.341 1.347.747 0 1.347-.606 1.347-1.347m0 15.136c0-.741-.6-1.341-1.347-1.341-.743 0-1.34.599-1.34 1.34 0 .747.598 1.346 1.341 1.346.747 0 1.347-.599 1.347-1.347m0 15.137c0-.741-.599-1.34-1.347-1.34-.739 0-1.34.6-1.34 1.34 0 .745.602 1.347 1.341 1.347.747 0 1.347-.602 1.347-1.347m0 15.139c0-.741-.6-1.342-1.347-1.342-.739 0-1.34.602-1.34 1.343s.602 1.338 1.341 1.338c.747 0 1.347-.597 1.347-1.338m0 15.137c0-.743-.599-1.342-1.347-1.342-.738 0-1.34.599-1.34 1.342 0 .745.602 1.342 1.341 1.342.747 0 1.347-.598 1.347-1.343m0 15.137c0-.741-.599-1.343-1.347-1.343-.738 0-1.34.602-1.34 1.343s.602 1.343 1.34 1.343c.747 0 1.347-.602 1.347-1.343m0 15.137c0-.747-.6-1.34-1.347-1.34-.739 0-1.341.593-1.341 1.341 0 .743.602 1.342 1.341 1.342.747 0 1.347-.599 1.347-1.342m0 15.136c0-.741-.599-1.347-1.347-1.347-.739 0-1.34.606-1.34 1.347 0 .743.602 1.342 1.34 1.342.747 0 1.347-.6 1.347-1.343m0 15.137c0-.739-.6-1.345-1.347-1.345-.739 0-1.34.605-1.34 1.344 0 .743.602 1.342 1.34 1.342.747 0 1.347-.599 1.347-1.342m0 15.137c0-.745-.6-1.342-1.347-1.342-.739 0-1.341.597-1.341 1.342 0 .743.602 1.342 1.34 1.342.747 0 1.347-.599 1.347-1.342m0 15.139c0-.741-.599-1.347-1.347-1.347-.739 0-1.34.606-1.34 1.347s.602 1.341 1.341 1.341c.747 0 1.347-.6 1.347-1.34M260.011 1.481c0-.741-.6-1.3404-1.343-1.3404s-1.345.5997-1.345 1.3405c0 .745.602 1.347 1.345 1.347s1.343-.601 1.343-1.347m0 15.139c0-.743-.599-1.342-1.342-1.342s-1.344.6-1.344 1.343c0 .739.602 1.347 1.345 1.347s1.342-.608 1.342-1.347m0 15.135c0-.738-.599-1.34-1.342-1.34s-1.345.602-1.345 1.341c0 .75.602 1.347 1.345 1.347s1.342-.597 1.342-1.346m0 15.139c0-.743-.6-1.342-1.343-1.342s-1.344.6-1.344 1.343c0 .741.602 1.347 1.345 1.347s1.342-.606 1.342-1.346m0 15.137c0-.741-.6-1.34-1.343-1.34s-1.345.599-1.345 1.34c0 .747.602 1.347 1.345 1.347s1.343-.599 1.343-1.347m.002 15.137c0-.741-.601-1.34-1.344-1.34s-1.34.6-1.34 1.341c0 .745.598 1.347 1.341 1.347s1.345-.601 1.345-1.347m0 15.139c0-.741-.601-1.342-1.344-1.342s-1.34.602-1.34 1.343.598 1.338 1.341 1.338 1.344-.597 1.344-1.338m-.001 15.136c0-.743-.602-1.342-1.345-1.342s-1.341.6-1.341 1.343c0 .745.5973 1.342 1.3403 1.342s1.345-.597 1.345-1.342m0 15.136c0-.741-.601-1.343-1.344-1.343s-1.34.602-1.34 1.343.598 1.343 1.341 1.343 1.344-.601 1.344-1.342m0 15.137c0-.747-.602-1.34-1.345-1.34s-1.34.593-1.34 1.34c0 .743.598 1.343 1.341 1.343s1.345-.599 1.345-1.342m-.0005 15.136c0-.74-.6014-1.346-1.3444-1.346s-1.3407.606-1.3407 1.347c0 .743.598 1.343 1.341 1.343s1.345-.6 1.345-1.343m0 15.136c0-.739-.601-1.345-1.344-1.345s-1.34.605-1.34 1.344c0 .743.597 1.343 1.34 1.343s1.3443-.599 1.3443-1.342m0 15.137c0-.745-.602-1.343-1.345-1.343s-1.34.598-1.34 1.343c0 .743.598 1.342 1.341 1.342s1.344-.599 1.344-1.342m0 15.139c0-.741-.602-1.347-1.345-1.347s-1.34.606-1.34 1.347.598 1.34 1.341 1.34 1.345-.599 1.345-1.34M244.874 1.481c0-.7408-.6018-1.3403-1.3448-1.3403-.739 0-1.3428.5995-1.3428 1.3403 0 .745.6038 1.3468 1.3425 1.3468.743 0 1.344-.6017 1.344-1.3468m0 15.1385c0-.743-.602-1.3424-1.345-1.3424-.739 0-1.343.6-1.343 1.343 0 .739.604 1.347 1.342 1.347.743 0 1.344-.608 1.344-1.347m0 15.135c0-.738-.602-1.34-1.345-1.34-.739 0-1.343.602-1.343 1.341 0 .75.603 1.347 1.342 1.347.743 0 1.344-.597 1.344-1.346m0 15.139c0-.743-.602-1.342-1.345-1.342-.739 0-1.343.6-1.343 1.343 0 .741.603 1.347 1.342 1.347.743 0 1.344-.606 1.344-1.346m0 15.137c0-.741-.602-1.34-1.345-1.34-.739 0-1.343.599-1.343 1.34 0 .747.604 1.347 1.342 1.347.743 0 1.344-.599 1.344-1.347m.002 15.137c0-.741-.604-1.34-1.347-1.34-.739 0-1.343.6-1.343 1.341 0 .745.603 1.347 1.342 1.347.743 0 1.347-.601 1.347-1.347m0 15.139c0-.741-.604-1.342-1.347-1.342-.739 0-1.343.602-1.343 1.342s.603 1.338 1.342 1.338c.743 0 1.346-.597 1.346-1.338m0 15.137c0-.743-.604-1.343-1.347-1.343-.739 0-1.343.6-1.343 1.343 0 .745.604 1.343 1.343 1.343.743 0 1.346-.597 1.346-1.342m0 15.136c0-.741-.604-1.343-1.347-1.343-.739 0-1.343.602-1.343 1.343s.604 1.343 1.343 1.343c.743 0 1.346-.601 1.346-1.342m0 15.137c0-.747-.604-1.34-1.347-1.34-.739 0-1.343.593-1.343 1.34 0 .743.604 1.343 1.342 1.343.743 0 1.346-.599 1.346-1.342m0 15.136c0-.741-.604-1.347-1.347-1.347-.739 0-1.343.606-1.343 1.347 0 .743.604 1.343 1.343 1.343.743 0 1.347-.6 1.347-1.343m0 15.137c0-.739-.603-1.345-1.346-1.345-.739 0-1.343.606-1.343 1.345 0 .743.604 1.343 1.342 1.343.743 0 1.346-.599 1.346-1.342m0 15.137c0-.745-.604-1.343-1.347-1.343-.739 0-1.343.597-1.343 1.342 0 .743.603 1.343 1.342 1.343.743 0 1.346-.6 1.346-1.343M229.736 1.482c0-.741-.5974-1.3403-1.3425-1.3403-.743 0-1.3424.6-1.3424 1.341 0 .745.6 1.347 1.343 1.347.745 0 1.343-.601 1.343-1.347m15.139 196.782c0-.741-.604-1.347-1.347-1.347-.739 0-1.342.606-1.342 1.3467s.604 1.34 1.343 1.34c.743 0 1.347-.599 1.347-1.34M229.737 16.62c0-.743-.5973-1.3424-1.3424-1.3424-.743 0-1.3425.5995-1.3425 1.3425 0 .739.6 1.347 1.343 1.347.745 0 1.343-.608 1.343-1.347m0 15.135c0-.738-.597-1.34-1.342-1.34-.743 0-1.342.602-1.342 1.341 0 .75.6 1.347 1.343 1.347.745 0 1.343-.597 1.343-1.346m0 15.139c0-.743-.597-1.342-1.342-1.342-.743 0-1.342.6-1.342 1.343 0 .741.6 1.347 1.343 1.347.745 0 1.343-.606 1.343-1.346m0 15.136c0-.741-.597-1.34-1.342-1.34-.743 0-1.342.6-1.342 1.34 0 .747.6 1.347 1.343 1.347.745 0 1.343-.599 1.343-1.347m.002 15.137c0-.741-.599-1.34-1.344-1.34-.743 0-1.342.6-1.342 1.341 0 .745.6 1.347 1.343 1.347.745 0 1.345-.602 1.345-1.347m0 15.139c0-.741-.599-1.342-1.345-1.342-.743 0-1.342.602-1.342 1.343s.6 1.339 1.343 1.339c.745 0 1.345-.597 1.345-1.338m0 15.137c0-.743-.599-1.342-1.344-1.342-.743 0-1.343.6-1.343 1.343 0 .745.599 1.343 1.342 1.343.745 0 1.345-.597 1.345-1.342m0 15.137c0-.741-.599-1.342-1.344-1.342-.743 0-1.342.602-1.342 1.343s.6 1.343 1.343 1.343c.745 0 1.345-.602 1.345-1.342m0 15.137c0-.747-.599-1.34-1.345-1.34-.743 0-1.342.593-1.342 1.341 0 .743.6 1.343 1.343 1.343.745 0 1.344-.6 1.344-1.343m0 15.136c0-.741-.599-1.347-1.345-1.347-.743 0-1.342.606-1.342 1.347 0 .743.6 1.343 1.343 1.343.745 0 1.345-.6 1.345-1.343m0 15.136c0-.738-.599-1.344-1.344-1.344-.743 0-1.342.606-1.342 1.344 0 .743.6 1.343 1.343 1.343.745 0 1.345-.599 1.345-1.342m0 15.137c0-.745-.599-1.342-1.344-1.342-.743 0-1.343.598-1.343 1.343 0 .743.6 1.343 1.343 1.343.745 0 1.345-.6 1.345-1.343M214.601 1.481c0-.7407-.6014-1.3402-1.3423-1.3402-.7405 0-1.3443.5996-1.3443 1.3404 0 .745.6037 1.3468 1.3445 1.3468.741 0 1.342-.6016 1.342-1.3467M229.74 198.263c0-.741-.5996-1.347-1.3447-1.347-.743 0-1.3425.606-1.3425 1.347s.5997 1.3403 1.3427 1.3403c.745 0 1.3445-.5996 1.3445-1.3404M214.6005 16.62c0-.743-.6015-1.3424-1.3424-1.3424-.74 0-1.344.5995-1.344 1.3425 0 .739.604 1.347 1.345 1.347s1.343-.608 1.343-1.347m0 15.135c0-.738-.601-1.34-1.342-1.34-.74 0-1.344.602-1.344 1.341 0 .75.604 1.347 1.345 1.347s1.343-.597 1.343-1.346m0 15.139c0-.743-.601-1.342-1.342-1.342-.74 0-1.344.6-1.344 1.343 0 .741.604 1.347 1.345 1.347s1.343-.606 1.343-1.346m0 15.136c0-.741-.601-1.34-1.342-1.34-.74 0-1.344.6-1.344 1.34 0 .747.604 1.347 1.345 1.347s1.343-.599 1.343-1.347m.002 15.137c0-.741-.604-1.34-1.343-1.34s-1.347.6-1.347 1.341c0 .745.608 1.347 1.347 1.347s1.343-.602 1.343-1.347m0 15.139c0-.741-.604-1.342-1.342-1.342s-1.346.602-1.346 1.343.608 1.339 1.347 1.339 1.343-.597 1.343-1.338m0 15.137c0-.743-.604-1.342-1.343-1.342s-1.346.6-1.346 1.343c0 .745.608 1.343 1.347 1.343s1.343-.597 1.343-1.342m0 15.137c0-.741-.604-1.342-1.343-1.342s-1.347.602-1.347 1.343.608 1.343 1.347 1.343 1.343-.602 1.343-1.342m0 15.137c0-.747-.604-1.34-1.342-1.34s-1.347.593-1.347 1.341c0 .743.608 1.343 1.347 1.343s1.343-.6 1.343-1.343m0 15.136c0-.741-.604-1.347-1.342-1.347s-1.346.606-1.346 1.347c0 .743.608 1.343 1.347 1.343s1.343-.6 1.343-1.343m0 15.136c0-.738-.604-1.344-1.343-1.344s-1.346.606-1.346 1.344c0 .743.608 1.343 1.347 1.343s1.343-.599 1.343-1.342m0 15.137c0-.745-.604-1.342-1.343-1.342s-1.346.598-1.346 1.343c0 .743.608 1.343 1.346 1.343s1.342-.6 1.342-1.343M199.462 1.482c0-.741-.5974-1.3403-1.3403-1.3403-.743 0-1.3425.6-1.3425 1.341 0 .745.5995 1.347 1.3425 1.347s1.3403-.601 1.3403-1.347m15.1405 196.782c0-.741-.6038-1.347-1.3425-1.347s-1.3467.606-1.3467 1.347.608 1.34 1.3467 1.34 1.3425-.599 1.3425-1.34M199.462 16.62c0-.743-.5974-1.3424-1.3403-1.3424-.743 0-1.3425.5995-1.3425 1.3425 0 .739.5995 1.347 1.3425 1.347s1.3403-.608 1.3403-1.347m0 15.135c0-.738-.5974-1.34-1.3403-1.34-.743 0-1.3425.602-1.3425 1.341 0 .75.5995 1.347 1.3425 1.347s1.3403-.597 1.3403-1.346m0 15.139c0-.743-.5974-1.342-1.3403-1.342-.743 0-1.3425.6-1.3425 1.343 0 .741.5995 1.347 1.3425 1.347s1.3403-.606 1.3403-1.346m0 15.136c0-.741-.5974-1.34-1.3403-1.34-.743 0-1.3425.6-1.3425 1.34 0 .747.5995 1.347 1.3425 1.347s1.3403-.599 1.3403-1.347m.004 15.137c0-.741-.6016-1.34-1.3424-1.34-.741 0-1.3447.6-1.3447 1.341 0 .745.603 1.347 1.344 1.347.741 0 1.342-.602 1.342-1.347m0 15.139c0-.741-.602-1.342-1.343-1.342s-1.345.602-1.345 1.343.603 1.339 1.344 1.339c.741 0 1.342-.597 1.342-1.338m0 15.137c0-.743-.602-1.342-1.343-1.342s-1.345.6-1.345 1.343c0 .745.603 1.343 1.344 1.343.74 0 1.342-.597 1.342-1.342m0 15.137c0-.741-.602-1.342-1.343-1.342s-1.345.602-1.345 1.343.603 1.343 1.344 1.343c.741 0 1.342-.602 1.342-1.342m0 15.137c0-.747-.602-1.34-1.343-1.34s-1.345.593-1.345 1.341c0 .743.604 1.343 1.345 1.343s1.342-.6 1.342-1.343m0 15.136c0-.741-.602-1.347-1.343-1.347s-1.344.606-1.344 1.347c0 .743.603 1.343 1.344 1.343.74 0 1.342-.6 1.342-1.343m0 15.136c0-.738-.602-1.344-1.343-1.344s-1.345.606-1.345 1.344c0 .743.603 1.343 1.344 1.343.741 0 1.343-.599 1.343-1.342m0 15.137c0-.745-.602-1.342-1.342-1.342-.741 0-1.345.598-1.345 1.343 0 .743.603 1.343 1.344 1.343.741 0 1.342-.6 1.342-1.343M184.327 1.482c0-.7405-.5976-1.34-1.3427-1.34-.745 0-1.3447.5998-1.3447 1.3406 0 .745.5995 1.347 1.3446 1.347.745 0 1.3425-.602 1.3425-1.347m15.139 196.781c0-.741-.6016-1.347-1.3424-1.347-.741 0-1.3447.606-1.3447 1.347s.603 1.34 1.344 1.34c.741 0 1.342-.6 1.342-1.341M184.3272 16.62c0-.743-.5972-1.3424-1.3423-1.3424-.745 0-1.345.5995-1.345 1.3425 0 .739.599 1.347 1.344 1.347.745 0 1.342-.608 1.342-1.347m0 15.135c0-.738-.598-1.34-1.343-1.34s-1.345.602-1.345 1.341c0 .75.599 1.347 1.344 1.347.745 0 1.342-.597 1.342-1.346m0 15.139c0-.743-.598-1.342-1.343-1.342s-1.345.6-1.345 1.343c0 .741.599 1.347 1.344 1.347.745 0 1.342-.606 1.342-1.346m0 15.136c0-.741-.598-1.34-1.343-1.34s-1.345.6-1.345 1.34c0 .747.599 1.347 1.344 1.347.745 0 1.343-.599 1.343-1.347m.002 15.137c0-.741-.6-1.34-1.343-1.34-.747 0-1.346.6-1.346 1.341 0 .745.599 1.347 1.347 1.347.743 0 1.342-.602 1.342-1.347m0 15.139c0-.741-.6-1.342-1.343-1.342-.747 0-1.346.602-1.346 1.343s.599 1.339 1.347 1.339c.743 0 1.342-.597 1.342-1.338m0 15.137c0-.743-.6-1.342-1.343-1.342-.747 0-1.347.6-1.347 1.343 0 .745.6 1.343 1.347 1.343.743 0 1.343-.597 1.343-1.342m0 15.137c0-.741-.6-1.342-1.343-1.342-.747 0-1.346.602-1.346 1.343s.599 1.343 1.347 1.343c.743 0 1.342-.602 1.342-1.342m0 15.137c0-.747-.6-1.34-1.343-1.34-.747 0-1.347.593-1.347 1.341 0 .743.6 1.343 1.347 1.343.743 0 1.343-.6 1.343-1.343m0 15.136c0-.741-.599-1.347-1.342-1.347-.747 0-1.347.606-1.347 1.347 0 .743.6 1.343 1.347 1.343.743 0 1.343-.6 1.343-1.343m0 15.136c0-.738-.6-1.344-1.343-1.344-.747 0-1.347.606-1.347 1.344 0 .743.6 1.343 1.347 1.343.743 0 1.342-.599 1.342-1.342m0 15.137c0-.745-.599-1.342-1.342-1.342-.747 0-1.347.598-1.347 1.343 0 .743.6 1.343 1.347 1.343.743 0 1.343-.6 1.343-1.343M169.189 1.482c0-.741-.5975-1.3403-1.3405-1.3403s-1.3446.6-1.3446 1.341c0 .745.601 1.347 1.344 1.347s1.34-.601 1.34-1.347m15.141 196.782c0-.741-.6-1.347-1.343-1.347-.747 0-1.347.606-1.347 1.347s.599 1.34 1.347 1.34c.743 0 1.342-.599 1.342-1.34M169.189 16.62c0-.743-.5975-1.3424-1.3405-1.3424s-1.3446.5995-1.3446 1.3425c0 .739.601 1.347 1.344 1.347s1.34-.608 1.34-1.347m0 15.135c0-.738-.598-1.34-1.341-1.34s-1.345.602-1.345 1.341c0 .75.601 1.347 1.344 1.347s1.34-.597 1.34-1.346m0 15.139c0-.743-.598-1.342-1.341-1.342s-1.345.6-1.345 1.343c0 .741.601 1.347 1.344 1.347s1.34-.606 1.34-1.346m0 15.136c0-.741-.598-1.34-1.341-1.34s-1.345.6-1.345 1.34c0 .747.601 1.347 1.344 1.347s1.34-.599 1.34-1.347m0 15.137c0-.741-.597-1.34-1.338-1.34-.743 0-1.347.6-1.347 1.341 0 .745.603 1.347 1.346 1.347.741 0 1.338-.602 1.338-1.347m0 15.139c0-.741-.598-1.342-1.339-1.342-.743 0-1.347.602-1.347 1.343s.603 1.339 1.346 1.339c.741 0 1.338-.597 1.338-1.338m0 15.137c0-.743-.597-1.342-1.338-1.342-.743 0-1.347.6-1.347 1.343 0 .745.603 1.343 1.346 1.343.74 0 1.338-.597 1.338-1.342m0 15.137c0-.741-.598-1.342-1.338-1.342-.743 0-1.347.602-1.347 1.343s.604 1.343 1.347 1.343c.741 0 1.338-.602 1.338-1.342m0 15.137c0-.747-.598-1.34-1.339-1.34-.743 0-1.347.593-1.347 1.341 0 .743.603 1.343 1.346 1.343.741 0 1.338-.6 1.338-1.343m0 15.136c0-.741-.598-1.347-1.338-1.347-.743 0-1.347.606-1.347 1.347 0 .743.603 1.343 1.346 1.343.741 0 1.338-.6 1.338-1.343m.001 15.136c0-.738-.598-1.344-1.338-1.344-.743 0-1.347.606-1.347 1.344 0 .743.603 1.343 1.346 1.343.741 0 1.338-.599 1.338-1.342m0 15.137c0-.745-.598-1.342-1.339-1.342-.743 0-1.347.598-1.347 1.343 0 .743.603 1.343 1.346 1.343.741 0 1.338-.6 1.338-1.343M154.054 1.482c0-.741-.5974-1.34-1.3468-1.34-.741 0-1.3404.6-1.3404 1.3407 0 .745.5996 1.347 1.3405 1.347.7494 0 1.3467-.602 1.3467-1.347m15.1348 196.781c0-.741-.5975-1.347-1.3383-1.347-.743 0-1.3468.606-1.3468 1.347s.603 1.34 1.346 1.34c.741 0 1.338-.6 1.338-1.341M154.054 16.62c0-.743-.5972-1.3424-1.3466-1.3424-.741 0-1.3404.5995-1.3404 1.3425 0 .739.5995 1.347 1.3404 1.347.7494 0 1.3467-.608 1.3467-1.347m0 15.135c0-.738-.597-1.34-1.346-1.34-.741 0-1.34.602-1.34 1.341 0 .75.6 1.347 1.341 1.347.75 0 1.347-.597 1.347-1.346m0 15.139c0-.743-.597-1.342-1.346-1.342-.741 0-1.34.6-1.34 1.343 0 .741.6 1.347 1.34 1.347.749 0 1.347-.606 1.347-1.346m0 15.136c0-.741-.597-1.34-1.346-1.34-.741 0-1.34.6-1.34 1.34 0 .747.599 1.347 1.34 1.347.749 0 1.347-.599 1.347-1.347m0 15.137c0-.741-.597-1.34-1.34-1.34-.747 0-1.346.6-1.346 1.341 0 .745.6 1.347 1.347 1.347.743 0 1.34-.602 1.34-1.347m0 15.139c0-.741-.597-1.342-1.34-1.342-.747 0-1.346.602-1.346 1.343s.6 1.339 1.347 1.339c.743 0 1.341-.597 1.341-1.338m0 15.137c0-.743-.597-1.342-1.34-1.342-.747 0-1.347.6-1.347 1.343 0 .745.6 1.343 1.347 1.343.743 0 1.341-.597 1.341-1.342m0 15.137c0-.741-.597-1.342-1.34-1.342-.747 0-1.346.602-1.346 1.343s.6 1.343 1.347 1.343c.743 0 1.34-.602 1.34-1.342m0 15.137c0-.747-.597-1.34-1.34-1.34-.747 0-1.347.593-1.347 1.341 0 .743.6 1.343 1.347 1.343.743 0 1.34-.6 1.34-1.343m0 15.136c0-.741-.597-1.347-1.34-1.347-.747 0-1.347.606-1.347 1.347 0 .743.6 1.343 1.347 1.343.743 0 1.341-.6 1.341-1.343m0 15.136c0-.738-.597-1.344-1.34-1.344-.747 0-1.346.606-1.346 1.344 0 .743.599 1.343 1.347 1.343.743 0 1.34-.599 1.34-1.342m0 15.137c0-.745-.597-1.342-1.34-1.342-.747 0-1.346.598-1.346 1.343 0 .743.6 1.343 1.347 1.343.743 0 1.341-.6 1.341-1.343m0 15.139c0-.741-.598-1.347-1.341-1.347-.747 0-1.347.606-1.347 1.347s.6 1.34 1.347 1.34c.743 0 1.341-.599 1.341-1.34M138.92 1.488c0-.741-.597-1.341-1.342-1.341-.741 0-1.3425.6-1.3425 1.341 0 .745.601 1.347 1.342 1.347.745 0 1.342-.601 1.342-1.347m0 15.139c0-.743-.597-1.342-1.343-1.342-.741 0-1.343.6-1.343 1.343 0 .739.602 1.347 1.342 1.347.745 0 1.342-.608 1.342-1.347m0 15.135c0-.739-.5973-1.34-1.3425-1.34-.741 0-1.343.602-1.343 1.341 0 .7493.6012 1.347 1.342 1.347.745 0 1.3422-.5977 1.3422-1.347m0 15.139c0-.743-.5977-1.343-1.343-1.343-.741 0-1.3426.599-1.3426 1.342 0 .741.6016 1.346 1.3424 1.346.745 0 1.342-.606 1.342-1.347m0 15.137c0-.741-.597-1.341-1.3426-1.341-.741 0-1.343.6-1.343 1.34 0 .748.602 1.347 1.343 1.347.745 0 1.342-.599 1.342-1.347m0 15.137c0-.741-.5978-1.341-1.3387-1.341-.743 0-1.347.6-1.347 1.341 0 .745.603 1.347 1.346 1.347.741 0 1.3388-.601 1.3388-1.347m0 15.139c0-.741-.5973-1.342-1.3382-1.342-.743 0-1.347.601-1.347 1.342s.604 1.338 1.347 1.338c.741 0 1.338-.597 1.338-1.338m0 15.1367c0-.743-.597-1.342-1.338-1.342-.743 0-1.347.5996-1.347 1.3426 0 .745.604 1.343 1.347 1.343.741 0 1.338-.597 1.338-1.342m0 15.136c0-.741-.597-1.342-1.338-1.342-.743 0-1.347.602-1.347 1.342s.604 1.342 1.347 1.342c.741 0 1.338-.602 1.338-1.343m0 15.1367c0-.747-.597-1.34-1.338-1.34-.743 0-1.347.593-1.347 1.34 0 .743.604 1.343 1.347 1.343.741 0 1.339-.5992 1.339-1.3422m0 15.136c0-.741-.597-1.347-1.338-1.347-.743 0-1.346.606-1.346 1.347 0 .743.6036 1.343 1.3466 1.343.741 0 1.338-.6 1.338-1.343m0 15.136c0-.738-.597-1.344-1.338-1.344-.743 0-1.347.606-1.347 1.345 0 .743.604 1.3425 1.347 1.3425.741 0 1.338-.599 1.338-1.342m0 15.137c0-.745-.597-1.342-1.338-1.342-.743 0-1.347.598-1.347 1.343 0 .743.604 1.342 1.347 1.342.741 0 1.338-.599 1.338-1.342m0 15.139c0-.741-.597-1.347-1.338-1.347-.743 0-1.347.606-1.347 1.347s.604 1.341 1.347 1.341c.741 0 1.338-.6 1.338-1.34M123.781 1.481c0-.741-.6017-1.3405-1.3468-1.3405-.7387 0-1.3403.6-1.3403 1.341 0 .745.602 1.3463 1.341 1.3463.745 0 1.347-.6013 1.347-1.3464m0 15.138c0-.743-.602-1.3428-1.347-1.3428-.738 0-1.34.5992-1.34 1.3422 0 .739.602 1.347 1.341 1.347.745 0 1.347-.608 1.347-1.347m0 15.1344c0-.739-.601-1.3405-1.347-1.3405-.738 0-1.34.602-1.34 1.34 0 .75.602 1.347 1.341 1.347.745 0 1.347-.597 1.347-1.347m0 15.139c0-.743-.602-1.3427-1.347-1.3427-.739 0-1.34.5997-1.34 1.3427 0 .741.601 1.3465 1.34 1.3465.745 0 1.347-.606 1.347-1.347m0 15.1366c0-.741-.602-1.3403-1.347-1.3403-.739 0-1.341.5994-1.341 1.34 0 .7475.601 1.347 1.34 1.347.745 0 1.347-.5995 1.347-1.347m0 15.1366c0-.741-.602-1.34-1.343-1.34s-1.345.6-1.345 1.341c0 .745.604 1.347 1.344 1.347s1.343-.601 1.343-1.347m0 15.139c0-.741-.602-1.342-1.343-1.342s-1.345.602-1.345 1.343.604 1.338 1.345 1.338 1.342-.597 1.342-1.338m0 15.137c0-.743-.602-1.342-1.343-1.342s-1.345.6-1.345 1.343c0 .745.604 1.343 1.345 1.343s1.343-.597 1.343-1.342m0 15.137c0-.741-.602-1.342-1.343-1.342s-1.345.602-1.345 1.342.604 1.343 1.345 1.343 1.342-.602 1.342-1.342m0 15.137c0-.747-.602-1.34-1.343-1.34s-1.345.593-1.345 1.341c0 .743.604 1.343 1.345 1.343s1.342-.599 1.342-1.342m0 15.136c0-.74-.602-1.346-1.343-1.346s-1.345.606-1.345 1.347c0 .743.604 1.343 1.345 1.343s1.342-.6 1.342-1.342m0 15.137c0-.738-.602-1.344-1.343-1.344s-1.345.606-1.345 1.345c0 .743.604 1.342 1.345 1.342s1.342-.6 1.342-1.343m0 15.137c0-.745-.602-1.342-1.343-1.342s-1.345.598-1.345 1.343c0 .743.604 1.342 1.345 1.342s1.343-.599 1.343-1.342m0 15.138c0-.741-.602-1.347-1.343-1.347s-1.345.606-1.345 1.347.604 1.34 1.345 1.34 1.342-.599 1.342-1.34M108.643 1.481c0-.7408-.5995-1.3403-1.3425-1.3403-.74 0-1.346.5995-1.346 1.3403 0 .745.606 1.3468 1.3467 1.3468.743 0 1.342-.6017 1.342-1.3468m0 15.1385c0-.743-.5998-1.3424-1.3428-1.3424-.7407 0-1.3467.6-1.3467 1.343 0 .739.606 1.347 1.3467 1.347.743 0 1.3426-.608 1.3426-1.347m0 15.135c0-.738-.5996-1.34-1.3426-1.34-.7406 0-1.3466.602-1.3466 1.341 0 .75.606 1.347 1.347 1.347.743 0 1.3425-.597 1.3425-1.346m0 15.139c0-.743-.5992-1.342-1.3422-1.342-.74 0-1.346.6-1.346 1.343 0 .741.606 1.347 1.347 1.347.743 0 1.343-.606 1.343-1.346m0 15.137c0-.741-.599-1.34-1.342-1.34-.74 0-1.346.6-1.346 1.34 0 .747.606 1.347 1.347 1.347.743 0 1.343-.599 1.343-1.347m0 15.137c0-.741-.6-1.341-1.343-1.341-.739 0-1.347.6-1.347 1.341 0 .745.608 1.347 1.347 1.347.743 0 1.343-.601 1.343-1.346m0 15.139c0-.741-.599-1.342-1.342-1.342-.738 0-1.346.602-1.346 1.343s.608 1.339 1.347 1.339c.743 0 1.343-.597 1.343-1.338m0 15.137c0-.743-.599-1.342-1.342-1.342-.738 0-1.346.6-1.346 1.343 0 .745.608 1.343 1.347 1.343.743 0 1.343-.597 1.343-1.342m0 15.137c0-.741-.599-1.343-1.342-1.343-.738 0-1.346.602-1.346 1.343s.608 1.342 1.347 1.342c.743 0 1.343-.602 1.343-1.342m0 15.137c0-.747-.599-1.341-1.342-1.341-.738 0-1.346.593-1.346 1.341 0 .743.608 1.343 1.347 1.343.743 0 1.343-.599 1.343-1.342m0 15.136c0-.741-.6-1.347-1.343-1.347-.738 0-1.346.606-1.346 1.347 0 .743.608 1.343 1.347 1.343.743 0 1.343-.599 1.343-1.342m0 15.136c0-.738-.599-1.344-1.342-1.344-.738 0-1.346.606-1.346 1.344 0 .743.608 1.343 1.347 1.343.743 0 1.342-.6 1.342-1.343m0 15.137c0-.745-.599-1.342-1.342-1.342-.739 0-1.347.598-1.347 1.343 0 .743.608 1.343 1.347 1.343.743 0 1.343-.6 1.343-1.343m0 15.139c0-.741-.599-1.347-1.342-1.347-.739 0-1.347.606-1.347 1.347s.608 1.341 1.347 1.341c.743 0 1.343-.6 1.343-1.341M93.509 1.481c0-.741-.604-1.34-1.347-1.34-.741 0-1.3426.6-1.3426 1.341 0 .745.6012 1.347 1.342 1.347.743 0 1.347-.601 1.347-1.347m0 15.138c0-.743-.604-1.342-1.347-1.342-.7407 0-1.3424.6-1.3424 1.343 0 .739.6015 1.347 1.3423 1.347.743 0 1.347-.608 1.347-1.347m0 15.135c0-.739-.604-1.34-1.347-1.34-.7407 0-1.3424.602-1.3424 1.341 0 .75.601 1.347 1.342 1.347.743 0 1.347-.597 1.347-1.347m0 15.139c0-.743-.604-1.342-1.347-1.342-.741 0-1.343.5996-1.343 1.3426 0 .741.601 1.347 1.342 1.347.743 0 1.347-.606 1.347-1.347m0 15.136c0-.741-.604-1.341-1.347-1.341-.741 0-1.343.6-1.343 1.34 0 .748.601 1.347 1.342 1.347.743 0 1.347-.599 1.347-1.347m0 15.137c0-.741-.602-1.34-1.343-1.34s-1.343.599-1.343 1.34c0 .745.601 1.347 1.342 1.347.741 0 1.342-.601 1.342-1.347m0 15.139c0-.741-.602-1.342-1.343-1.342s-1.343.602-1.343 1.343.601 1.338 1.342 1.338c.741 0 1.343-.597 1.343-1.338m0 15.137c0-.743-.602-1.3427-1.343-1.3427s-1.343.599-1.343 1.342c0 .745.601 1.342 1.342 1.342.74 0 1.342-.597 1.342-1.342m0 15.137c0-.741-.602-1.343-1.343-1.343s-1.343.602-1.343 1.342.601 1.342 1.342 1.342c.741 0 1.342-.602 1.342-1.343m0 15.137c0-.747-.602-1.341-1.342-1.341-.741 0-1.343.593-1.343 1.341 0 .743.601 1.343 1.342 1.343.741 0 1.342-.599 1.342-1.342m0 15.136c0-.741-.602-1.346-1.343-1.346s-1.343.606-1.343 1.347c0 .743.601 1.343 1.342 1.343.741 0 1.342-.6 1.342-1.343m0 15.136c0-.739-.602-1.345-1.342-1.345-.741 0-1.342.605-1.342 1.344 0 .743.601 1.343 1.342 1.343.741 0 1.342-.6 1.342-1.343m0 15.137c0-.745-.602-1.343-1.343-1.343s-1.343.597-1.343 1.342c0 .743.601 1.3424 1.342 1.3424.7403 0 1.342-.6 1.342-1.343m0 15.139c0-.741-.602-1.347-1.3427-1.347-.741 0-1.343.606-1.343 1.347s.602 1.3404 1.343 1.3404 1.3424-.599 1.3424-1.34M78.369 1.482c0-.741-.5993-1.34-1.3423-1.34-.738 0-1.342.6-1.342 1.341 0 .745.604 1.347 1.3424 1.347.743 0 1.343-.601 1.343-1.347m0 15.139c0-.743-.599-1.342-1.342-1.342-.738 0-1.342.599-1.342 1.342 0 .739.604 1.347 1.343 1.347.743 0 1.342-.608 1.342-1.347m0 15.135c0-.7384-.599-1.34-1.342-1.34-.739 0-1.342.602-1.342 1.3406 0 .7498.604 1.347 1.343 1.347.743 0 1.343-.5972 1.343-1.347m0 15.139c0-.743-.599-1.3423-1.342-1.3423-.738 0-1.342.6-1.342 1.343 0 .741.604 1.347 1.343 1.347.743 0 1.343-.606 1.343-1.346m0 15.137c0-.741-.599-1.34-1.342-1.34-.739 0-1.342.6-1.342 1.34 0 .747.604 1.347 1.343 1.347.743 0 1.343-.599 1.343-1.347m0 15.136c0-.741-.599-1.34-1.342-1.34-.738 0-1.342.6-1.342 1.341 0 .745.604 1.347 1.343 1.347.743 0 1.343-.601 1.343-1.347m0 15.139c0-.741-.599-1.342-1.342-1.342-.738 0-1.342.602-1.342 1.3428s.604 1.338 1.343 1.338c.743 0 1.342-.597 1.342-1.338m0 15.137c0-.743-.599-1.342-1.342-1.342-.739 0-1.3422.6-1.3422 1.343 0 .745.604 1.343 1.343 1.343.743 0 1.342-.598 1.342-1.343m0 15.136c0-.741-.6-1.342-1.343-1.342-.739 0-1.343.602-1.343 1.343s.604 1.343 1.343 1.343c.743 0 1.3427-.602 1.3427-1.343m0 15.137c0-.747-.5994-1.34-1.3424-1.34-.738 0-1.342.593-1.342 1.34 0 .743.6034 1.342 1.342 1.342.743 0 1.342-.599 1.342-1.342m0 15.136c0-.741-.599-1.347-1.342-1.347-.739 0-1.342.606-1.342 1.347 0 .743.603 1.342 1.342 1.342.743 0 1.342-.6 1.342-1.343m0 15.136c0-.739-.599-1.345-1.342-1.345-.739 0-1.343.606-1.343 1.344 0 .743.6036 1.343 1.342 1.343.743 0 1.343-.6 1.343-1.343m0 15.137c0-.745-.599-1.343-1.342-1.343-.739 0-1.343.598-1.343 1.343 0 .743.604 1.343 1.343 1.343.743 0 1.3428-.599 1.3428-1.342M63.233 1.482c0-.741-.5952-1.3405-1.3404-1.3405-.743 0-1.3425.6-1.3425 1.341 0 .745.6 1.347 1.343 1.347.745 0 1.341-.601 1.341-1.347M78.37 198.263c0-.7408-.5994-1.3468-1.3424-1.3468-.7387 0-1.3425.606-1.3425 1.347s.603 1.3403 1.342 1.3403c.743 0 1.343-.5996 1.343-1.3404M63.233 16.62c0-.743-.5952-1.3424-1.3404-1.3424-.743 0-1.3425.5995-1.3425 1.3425 0 .739.6 1.347 1.343 1.347.745 0 1.341-.608 1.341-1.347m0 15.135c0-.738-.595-1.34-1.34-1.34-.743 0-1.342.602-1.342 1.341 0 .75.6 1.347 1.343 1.347.746 0 1.341-.597 1.341-1.346m0 15.139c0-.743-.595-1.342-1.34-1.342-.743 0-1.342.6-1.342 1.343 0 .741.6 1.347 1.343 1.347.745 0 1.341-.606 1.341-1.346m0 15.136c0-.741-.595-1.34-1.34-1.34-.743 0-1.342.6-1.342 1.34 0 .747.6 1.347 1.343 1.347.745 0 1.341-.599 1.341-1.347m0 15.137c0-.741-.595-1.34-1.34-1.34-.743 0-1.342.6-1.342 1.341 0 .745.6 1.347 1.343 1.347.745 0 1.34-.602 1.34-1.347m0 15.139c0-.741-.595-1.342-1.34-1.342-.743 0-1.343.602-1.343 1.343s.6 1.339 1.343 1.339c.745 0 1.341-.597 1.341-1.338m0 15.137c0-.743-.595-1.342-1.34-1.342-.743 0-1.343.6-1.343 1.343 0 .745.6 1.343 1.343 1.343.746 0 1.341-.597 1.341-1.342m0 15.137c0-.741-.595-1.342-1.34-1.342-.743 0-1.343.602-1.343 1.343s.6 1.343 1.343 1.343c.745 0 1.34-.602 1.34-1.342m0 15.137c0-.747-.595-1.34-1.34-1.34-.743 0-1.342.593-1.342 1.341 0 .743.6 1.343 1.343 1.343.745 0 1.341-.6 1.341-1.343m0 15.136c0-.741-.595-1.347-1.34-1.347-.743 0-1.342.606-1.342 1.347 0 .743.6 1.343 1.343 1.343.745 0 1.34-.6 1.34-1.343m0 15.136c0-.738-.595-1.344-1.341-1.344-.743 0-1.343.606-1.343 1.344 0 .743.6 1.343 1.343 1.343.745 0 1.34-.599 1.34-1.342m0 15.137c0-.745-.595-1.342-1.34-1.342-.743 0-1.342.598-1.342 1.343 0 .743.6 1.343 1.343 1.343.745 0 1.341-.6 1.341-1.343M48.097 1.482c0-.741-.6-1.3404-1.343-1.3404-.74 0-1.342.6-1.342 1.341 0 .745.602 1.347 1.343 1.347.743 0 1.343-.601 1.343-1.347m15.136 196.781c0-.741-.595-1.347-1.341-1.347-.743 0-1.342.606-1.342 1.347s.6 1.341 1.343 1.341c.745 0 1.341-.599 1.341-1.34M48.097 16.62c0-.743-.5995-1.3424-1.3425-1.3424-.74 0-1.342.5995-1.342 1.3425 0 .739.602 1.347 1.3428 1.347.743 0 1.343-.608 1.343-1.347m0 15.135c0-.738-.599-1.34-1.342-1.34-.74 0-1.342.602-1.342 1.341 0 .75.602 1.347 1.343 1.347.743 0 1.343-.597 1.343-1.346m0 15.139c0-.743-.599-1.342-1.342-1.342-.74 0-1.342.6-1.342 1.343 0 .741.602 1.347 1.343 1.347.743 0 1.343-.606 1.343-1.346m0 15.136c0-.741-.599-1.34-1.342-1.34-.741 0-1.342.6-1.342 1.34 0 .747.602 1.347 1.343 1.347.743 0 1.343-.599 1.343-1.347m0 15.137c0-.741-.599-1.34-1.342-1.34-.74 0-1.342.6-1.342 1.341 0 .745.602 1.347 1.343 1.347.743 0 1.343-.602 1.343-1.347m0 15.139c0-.741-.599-1.342-1.342-1.342-.74 0-1.342.602-1.342 1.343s.602 1.339 1.343 1.339c.743 0 1.343-.597 1.343-1.338m0 15.137c0-.743-.6-1.342-1.343-1.342-.7407 0-1.342.6-1.342 1.343 0 .745.601 1.343 1.342 1.343.743 0 1.343-.597 1.343-1.342m0 15.137c0-.741-.5994-1.342-1.3424-1.342-.741 0-1.343.602-1.343 1.343s.602 1.343 1.343 1.343c.743 0 1.342-.602 1.342-1.342m0 15.137c0-.747-.6-1.34-1.343-1.34-.741 0-1.343.593-1.343 1.341 0 .743.602 1.343 1.342 1.343.743 0 1.342-.6 1.342-1.343m0 15.136c0-.741-.6-1.347-1.343-1.347-.741 0-1.343.606-1.343 1.347 0 .743.602 1.343 1.343 1.343.743 0 1.343-.6 1.343-1.343m0 15.136c0-.738-.599-1.344-1.342-1.344-.741 0-1.342.606-1.342 1.344 0 .743.601 1.343 1.342 1.343.743 0 1.342-.599 1.342-1.342m0 15.137c0-.745-.6-1.342-1.343-1.342-.741 0-1.343.598-1.343 1.343 0 .743.602 1.343 1.342 1.343.743 0 1.343-.6 1.343-1.343M32.958 1.482c0-.741-.5953-1.3403-1.3383-1.3403-.745 0-1.3468.6-1.3468 1.341 0 .745.601 1.347 1.346 1.347.743 0 1.338-.601 1.338-1.347m15.139 196.781c0-.741-.6-1.347-1.343-1.347-.741 0-1.343.606-1.343 1.347s.602 1.341 1.342 1.341c.743 0 1.342-.599 1.342-1.34M32.958 16.62c0-.743-.5953-1.3424-1.3383-1.3424-.745 0-1.3468.5995-1.3468 1.3425 0 .739.601 1.347 1.346 1.347.743 0 1.338-.608 1.338-1.347m0 15.135c0-.738-.596-1.34-1.339-1.34-.745 0-1.347.602-1.347 1.341 0 .75.601 1.347 1.346 1.347.743 0 1.338-.597 1.338-1.346m0 15.139c0-.743-.596-1.342-1.339-1.342-.745 0-1.347.6-1.347 1.343 0 .741.601 1.347 1.346 1.347.743 0 1.338-.606 1.338-1.346m0 15.136c0-.741-.596-1.34-1.339-1.34-.745 0-1.347.6-1.347 1.34 0 .747.601 1.347 1.346 1.347.743 0 1.338-.599 1.338-1.347m0 15.137c0-.741-.595-1.34-1.338-1.34-.745 0-1.347.6-1.347 1.341 0 .745.601 1.347 1.346 1.347.743 0 1.338-.602 1.338-1.347m0 15.139c0-.741-.595-1.342-1.338-1.342-.745 0-1.347.602-1.347 1.343s.602 1.338 1.347 1.338c.743 0 1.338-.597 1.338-1.338m0 15.137c0-.743-.596-1.342-1.339-1.342-.745 0-1.347.6-1.347 1.343 0 .745.602 1.343 1.347 1.343.743 0 1.338-.597 1.338-1.342m0 15.137c0-.741-.595-1.342-1.338-1.342-.745 0-1.347.602-1.347 1.343s.602 1.343 1.347 1.343c.743 0 1.338-.602 1.338-1.342m0 15.137c0-.747-.595-1.34-1.338-1.34-.745 0-1.347.593-1.347 1.341 0 .743.601 1.343 1.346 1.343.743 0 1.338-.6 1.338-1.343m0 15.136c0-.741-.595-1.347-1.338-1.347-.745 0-1.347.606-1.347 1.347 0 .743.601 1.343 1.347 1.343.743 0 1.338-.599 1.338-1.342m0 15.136c0-.738-.595-1.344-1.338-1.344-.745 0-1.347.606-1.347 1.344 0 .743.601 1.343 1.346 1.343.743 0 1.338-.599 1.338-1.342m0 15.137c0-.745-.596-1.342-1.339-1.342-.745 0-1.347.598-1.347 1.343 0 .743.601 1.343 1.346 1.343.743 0 1.338-.6 1.338-1.343m0 15.139c0-.741-.595-1.347-1.338-1.347-.745 0-1.347.606-1.347 1.347s.601 1.34 1.346 1.34c.743 0 1.338-.6 1.338-1.34M17.824 1.482c0-.741-.5997-1.3405-1.3427-1.3405-.741 0-1.343.6-1.343 1.341 0 .745.601 1.347 1.342 1.347.743 0 1.342-.6013 1.342-1.347m0 15.138c0-.743-.6-1.342-1.343-1.342-.741 0-1.343.5995-1.343 1.3425 0 .739.602 1.347 1.343 1.347.743 0 1.3426-.608 1.3426-1.347m0 15.1344c0-.739-.6-1.3407-1.343-1.3407-.741 0-1.343.602-1.343 1.3407 0 .7497.601 1.347 1.342 1.347.743 0 1.342-.5973 1.342-1.347m0 15.139c0-.743-.6-1.3424-1.343-1.3424-.741 0-1.343.5992-1.343 1.3422 0 .7406.601 1.3465 1.342 1.3465.743 0 1.342-.606 1.342-1.3468m.001 15.136c0-.741-.6-1.341-1.343-1.341-.741 0-1.343.599-1.343 1.34 0 .747.602 1.346 1.342 1.346.743 0 1.343-.6 1.343-1.347m0 15.136c0-.741-.6-1.34-1.343-1.34-.741 0-1.343.599-1.343 1.34 0 .745.601 1.347 1.342 1.347.743 0 1.342-.602 1.342-1.347m0 15.139c0-.741-.6-1.343-1.343-1.343-.741 0-1.343.601-1.343 1.342s.602 1.338 1.343 1.338c.743 0 1.342-.598 1.342-1.338m0 15.136c0-.743-.599-1.343-1.342-1.343-.741 0-1.343.599-1.343 1.342 0 .745.602 1.342 1.343 1.342.743 0 1.342-.598 1.342-1.343m0 15.137c0-.741-.6-1.343-1.343-1.343-.741 0-1.342.601-1.342 1.342s.602 1.342 1.342 1.342c.743 0 1.342-.602 1.342-1.343m0 15.136c0-.747-.6-1.34-1.343-1.34-.741 0-1.342.593-1.342 1.34 0 .743.601 1.343 1.342 1.343.743 0 1.342-.599 1.342-1.342m0 15.136c0-.741-.6-1.347-1.343-1.347-.741 0-1.343.606-1.343 1.347 0 .743.602 1.343 1.343 1.343.743 0 1.342-.6 1.342-1.342m.001 15.136c0-.739-.599-1.345-1.342-1.345-.741 0-1.343.605-1.343 1.344 0 .743.602 1.342 1.343 1.342.743 0 1.342-.599 1.342-1.342m.001 30.275c0-.741-.6-1.347-1.343-1.347-.741 0-1.342.606-1.342 1.347s.602 1.34 1.343 1.34c.743 0 1.342-.6 1.342-1.341M2.687 1.481c0-.74-.5996-1.34-1.3447-1.34-.7408 0-1.3425.5997-1.3425 1.3405 0 .745.6017 1.3468 1.3425 1.3468.745 0 1.3446-.6017 1.3446-1.3468M17.823 183.124c0-.745-.5995-1.3424-1.3425-1.3424-.741 0-1.3427.5974-1.3427 1.3425 0 .743.6018 1.343 1.3426 1.343.743 0 1.3424-.599 1.3424-1.342M2.687 16.62c0-.743-.5996-1.3424-1.3447-1.3424-.7408 0-1.3425.5995-1.3425 1.3425 0 .739.6017 1.347 1.3425 1.347.745 0 1.3446-.608 1.3446-1.347m0 15.135c0-.738-.6-1.34-1.345-1.34-.741 0-1.343.602-1.343 1.341 0 .75.601 1.347 1.342 1.347.745 0 1.344-.597 1.344-1.346m0 30.275c0-.741-.6-1.34-1.345-1.34-.741 0-1.343.6-1.343 1.341 0 .747.601 1.347 1.342 1.347.745 0 1.345-.599 1.345-1.346m0 45.412c0-.743-.6-1.342-1.345-1.342-.741 0-1.343.6-1.343 1.343 0 .745.602 1.342 1.342 1.342.745 0 1.345-.597 1.345-1.342m0-15.137c0-.741-.6-1.343-1.345-1.343-.741 0-1.343.602-1.343 1.343s.605 1.334 1.346 1.334c.745 0 1.344-.597 1.344-1.338m0-15.139c0-.741-.6-1.34-1.345-1.34-.741 0-1.343.6-1.343 1.341 0 .745.601 1.347 1.342 1.347.745 0 1.344-.602 1.344-1.347m0 45.412c0-.741-.6-1.342-1.345-1.342-.741 0-1.343.602-1.343 1.343s.603 1.342 1.344 1.342c.745 0 1.344-.601 1.344-1.342m0 15.137c0-.747-.6-1.34-1.345-1.34-.741 0-1.342.593-1.342 1.341 0 .743.602 1.343 1.343 1.343.745 0 1.345-.599 1.345-1.342m0 15.136c0-.741-.599-1.347-1.344-1.347-.741 0-1.342.606-1.342 1.347 0 .743.602 1.343 1.343 1.343.745 0 1.345-.599 1.345-1.342m0 15.137c0-.739-.599-1.345-1.344-1.345-.741 0-1.343.606-1.343 1.344 0 .743.602 1.343 1.342 1.343.745 0 1.345-.599 1.345-1.342m0 30.276c0-.741-.6-1.347-1.345-1.347-.741 0-1.343.606-1.343 1.347s.602 1.341 1.343 1.341c.745 0 1.344-.599 1.344-1.34m0-15.139c0-.745-.6-1.343-1.345-1.343-.741 0-1.342.598-1.342 1.343 0 .743.601 1.342 1.342 1.342.745 0 1.344-.6 1.344-1.343m0-136.231c0-.743-.6-1.342-1.345-1.342-.739-.002-1.34.597-1.34 1.34 0 .741.601 1.347 1.342 1.347.745 0 1.345-.606 1.345-1.347" fill="#2F7ADF" fill-rule="evenodd"/>
</svg>
