<svg class="dot-grid-triangle" width="126" height="115" viewBox="0 0 126 115" xmlns="http://www.w3.org/2000/svg">
  <title>
    triangle dots
  </title>
  <path d="M36.14 69.67l-1.8-3.15c.3-.3.73-.46 1.2-.46 1.03 0 1.86.83 1.86 1.85 0 .9-.53 1.5-1.26 1.8zm-6.1-10.9h-.2l-1.5-2.6c.3-.65.95-1.1 1.7-1.1 1.03 0 1.86.83 1.86 1.85 0 1.03-.83 1.86-1.85 1.86zm5.5-10.98c-1.03 0-1.86-.9-1.86-1.9 0-1.1.83-1.9 1.86-1.9 1.03 0 1.86.8 1.86 1.8s-.83 1.8-1.86 1.8zm0-22c-1.03 0-1.86-.9-1.86-1.9 0-1.1.83-1.9 1.86-1.9 1.03 0 1.86.8 1.86 1.8s-.83 1.8-1.86 1.8zm-16.5 11c-1 0-1.85-.9-1.85-1.9 0-1.1.8-1.9 1.8-1.9s1.8.8 1.8 1.8-.9 1.8-1.9 1.8zm33 43.9c-1.04 0-1.87-.9-1.87-1.9 0-1.1.83-1.9 1.86-1.9 1.03 0 1.86.8 1.86 1.8s-.9 1.9-1.9 1.9zm-27.5-54.9c-1.03 0-1.86-.9-1.86-1.9 0-1.1.82-1.9 1.85-1.9 1.03 0 1.85.8 1.85 1.8s-.82 1.8-1.85 1.8zm5.5 11c-1.03 0-1.87-.9-1.87-1.9 0-1.1.84-1.9 1.87-1.9 1.02 0 1.85.8 1.85 1.8s-.9 1.9-1.9 1.9zM46.74 88c.93.12 1.64.9 1.64 1.84 0 .25-.06.5-.16.72L46.74 88zm-.22-40.27c-1.03 0-1.86-.9-1.86-1.9 0-1.06.83-1.9 1.86-1.9 1.03 0 1.86.84 1.86 1.87 0 1.03-.84 1.86-1.87 1.86zm0-22c-1.03 0-1.86-.88-1.86-1.9 0-1.04.83-1.87 1.86-1.87 1.03 0 1.86.82 1.86 1.85 0 1.1-.84 1.9-1.87 1.9zm-27.48-11c-1.02 0-1.86-.8-1.86-1.9 0-1.03.83-1.86 1.85-1.86 1.03 0 1.86.82 1.86 1.85 0 1.03-.9 1.85-1.9 1.85zm22 22c-1.04 0-1.87-.9-1.87-1.9 0-1.05.83-1.87 1.86-1.87 1.02 0 1.85.8 1.85 1.84s-.84 1.86-1.86 1.86zm0-22c-1.04 0-1.87-.8-1.87-1.9 0-1.03.83-1.86 1.86-1.86 1.02 0 1.85.82 1.85 1.85 0 1.03-.84 1.85-1.86 1.85zm5.48 54.92c-1.03 0-1.86-.85-1.86-1.88 0-1 .83-1.86 1.86-1.86 1.03 0 1.86.9 1.86 1.9 0 1.1-.84 1.9-1.87 1.9zM40.45 77c.18-.05.37-.1.58-.1 1.02 0 1.85.84 1.85 1.86 0 .54-.25 1.03-.63 1.37L40.45 77zm.58-18.36c-1.03 0-1.86-.84-1.86-1.87 0-1 .83-1.86 1.86-1.86 1.02 0 1.85.9 1.85 1.9 0 1.1-.84 1.9-1.86 1.9zm-11-43.98c-1.02 0-1.86-.8-1.86-1.86 0-1.02.84-1.85 1.87-1.85 1.02 0 1.85.8 1.85 1.84s-.9 1.8-1.9 1.8zm76.95 0c-1.04 0-1.87-.8-1.87-1.86 0-1.02.9-1.85 1.9-1.85 1 0 1.9.8 1.9 1.84s-.8 1.8-1.8 1.8zm-5.5 33c-1.04 0-1.87-.86-1.87-1.9s.9-1.87 1.9-1.87c1 0 1.9.8 1.9 1.8s-.8 1.8-1.8 1.8zm0-22c-1.04 0-1.87-.84-1.87-1.87 0-1 .9-1.9 1.9-1.9 1 0 1.9.8 1.9 1.8s-.8 1.8-1.8 1.8zM96 55.06c.84 0 1.55.56 1.78 1.34l-1.33 2.3c-.15.1-.3.1-.46.1-1.1 0-1.9-.8-1.9-1.83 0-1 .8-1.84 1.8-1.84zm5.5-51.25c-1.04 0-1.87-.8-1.87-1.8 0-.7.45-1.4 1.1-1.7h1.52c.65.3 1.1 1 1.1 1.7 0 1-.83 1.9-1.86 1.9zm-87.95 22c-1.03 0-1.86-.8-1.86-1.8s.8-1.8 1.8-1.8 1.8.8 1.8 1.8-.9 1.8-1.9 1.8zm98.92 0c-1.02 0-1.86-.8-1.86-1.8s.9-1.8 1.9-1.8c1.1 0 1.9.8 1.9 1.8s-.8 1.8-1.8 1.8zm-5.5 11c-1.02 0-1.85-.8-1.85-1.8s.83-1.8 1.86-1.8c1 0 1.85.8 1.85 1.8s-.84 1.8-1.86 1.8zm11-22c-1.03 0-1.86-.8-1.86-1.8s.9-1.8 1.9-1.8c1.1 0 1.9.87 1.9 1.9 0 1.03-.8 1.85-1.8 1.85zM90.5 3.9c-1.03 0-1.86-.84-1.86-1.86 0-.76.45-1.4 1.1-1.7h1.52c.65.3 1.1.94 1.1 1.7 0 1-.83 1.86-1.86 1.86zM8.06 14.8c-1.02 0-1.86-.8-1.86-1.84 0-1.03.84-1.86 1.86-1.86 1.03 0 1.86.83 1.86 1.86 0 1.03-.83 1.85-1.86 1.85zm5.5-10.97c-1.03 0-1.86-.84-1.86-1.86 0-.76.45-1.4 1.1-1.7h1.52c.64.3 1.1.94 1.1 1.7 0 1.02-.84 1.86-1.86 1.86zm21.98 0c-1.03 0-1.86-.84-1.86-1.86 0-.76.45-1.4 1.1-1.7h1.52c.65.3 1.1.94 1.1 1.7 0 1.02-.83 1.86-1.86 1.86zm-11 0c-1.02 0-1.85-.84-1.85-1.86 0-.76.4-1.4 1.1-1.7h1.5c.6.3 1.1.94 1.1 1.7 0 1.02-.9 1.86-1.9 1.86zm54.97 0c-1 0-1.8-.84-1.8-1.86 0-.76.5-1.4 1.1-1.7h1.5c.7.3 1.1.94 1.1 1.7 0 1.02-.8 1.86-1.8 1.86zm-10.9 0c-1 0-1.8-.84-1.8-1.86 0-.76.5-1.4 1.1-1.7h1.6c.65.3 1.1.94 1.1 1.7 0 1.02-.83 1.86-1.85 1.86zm-22 0c-1 0-1.8-.84-1.8-1.86 0-.76.5-1.4 1.1-1.7h1.6c.68.3 1.1.94 1.1 1.7 0 1.02-.8 1.86-1.83 1.86zm11 0c-1 0-1.8-.84-1.8-1.86 0-.76.5-1.4 1.1-1.7h1.5c.7.3 1.1.94 1.1 1.7 0 1.02-.8 1.86-1.8 1.86zm55 0c-1 0-1.8-.84-1.8-1.86 0-.76.5-1.4 1.1-1.7h1.5c.7.3 1.1.94 1.1 1.7 0 1.02-.8 1.86-1.8 1.86zM85 77.05c.28 0 .53.06.77.17l-1.85 3.2c-.47-.34-.77-.9-.77-1.52 0-1.02.82-1.85 1.85-1.85zM79.5 47.8c-1.02 0-1.85-.84-1.85-1.87 0-1.03.83-1.86 1.86-1.86 1.1 0 1.9.83 1.9 1.86 0 1.03-.8 1.86-1.8 1.86zM85 58.77c-1.03 0-1.85-.83-1.85-1.86 0-1 .82-1.8 1.85-1.8 1.03 0 1.86.9 1.86 1.9 0 1.1-.83 1.9-1.86 1.9zm-5.5 29.26h.02l-1.6 2.8c-.17-.3-.27-.6-.27-.94 0-1.1.83-1.9 1.86-1.9zM74 36.8c-1.02 0-1.85-.83-1.85-1.86 0-1.03.83-1.85 1.86-1.85 1.1 0 1.9.8 1.9 1.8s-.8 1.8-1.8 1.8zm11-22c-1.03 0-1.85-.8-1.85-1.84 0-1.03.82-1.86 1.85-1.86 1.03 0 1.86.83 1.86 1.86 0 1.03-.83 1.85-1.86 1.85zm-32.97 44c-1.03 0-1.86-.83-1.86-1.86 0-1.02.83-1.85 1.86-1.85 1.03 0 1.86.8 1.86 1.8s-.9 1.8-1.9 1.8zm27.47-33c-1.02 0-1.85-.82-1.85-1.85 0-1.03.83-1.86 1.86-1.86 1.1 0 1.9.8 1.9 1.8s-.8 1.8-1.8 1.8zm11 0c-1.03 0-1.86-.82-1.86-1.85 0-1.03.83-1.86 1.86-1.86 1.03 0 1.86.8 1.86 1.8s-.83 1.8-1.86 1.8zm5.5 11c-1.03 0-1.86-.83-1.86-1.86 0-1.03.83-1.85 1.85-1.85s1.8.8 1.8 1.8-.9 1.8-1.9 1.8zm-71.45 11c-.6 0-1.1-.28-1.44-.7l-.3-.52c0-.2-.1-.42-.1-.65 0-1.03.9-1.86 1.9-1.86 1.1 0 1.9.83 1.9 1.86 0 1.03-.8 1.86-1.8 1.86zM2.57 3.82C1.54 3.82.7 3 .7 1.97c0-.76.46-1.4 1.1-1.7h1.53c.64.3 1.1.94 1.1 1.7 0 1.02-.84 1.86-1.86 1.86zM85 36.8c-1.03 0-1.85-.83-1.85-1.86 0-1.03.82-1.85 1.85-1.85 1.03 0 1.86.8 1.86 1.8s-.83 1.9-1.86 1.9zm38.47-32.97c-1.02 0-1.86-.84-1.86-1.86 0-.76.5-1.4 1.1-1.7h1.6c.7.3 1.1.94 1.1 1.7 0 1.02-.8 1.86-1.8 1.86zM90.5 66.06c.54 0 1.02.23 1.36.6l-1.77 3.07c-.9-.2-1.5-.93-1.5-1.82 0-1 .8-1.8 1.8-1.8zm0-18.27c-1.03 0-1.86-.9-1.86-1.9 0-1.1.83-1.9 1.86-1.9 1.03 0 1.86.8 1.86 1.8s-.83 1.8-1.86 1.8zm5.5-33c-1.03 0-1.86-.8-1.86-1.9 0-1.1.83-1.9 1.85-1.9s1.8.8 1.8 1.8-.9 1.8-1.9 1.8zm-22 0c-1.02 0-1.85-.8-1.85-1.9 0-1.1.83-1.9 1.86-1.9 1.1 0 1.9.8 1.9 1.8s-.8 1.8-1.8 1.8zm5.5 54.9c-1.02 0-1.85-.9-1.85-1.9 0-1 .83-1.9 1.86-1.9 1.1 0 1.9.8 1.9 1.8 0 1.03-.8 1.9-1.8 1.9zM57.53 25.8c-1.02 0-1.85-.82-1.85-1.85 0-1.03.83-1.86 1.85-1.86 1.03 0 1.86.8 1.86 1.8s-.9 1.8-1.9 1.8zm0 22c-1.02 0-1.85-.84-1.85-1.87 0-1.03.83-1.86 1.85-1.86 1.03 0 1.86.83 1.86 1.86 0 1.03-.9 1.86-1.9 1.86zm5.73 66.63c-1.03 0-1.86-.84-1.86-1.86 0-1.03.82-1.86 1.85-1.86 1.03 0 1.86.9 1.86 1.9 0 1-.8 1.9-1.8 1.9zm-.23-11.68c-1.03 0-1.86-.83-1.86-1.86 0-1.1.83-1.9 1.86-1.9 1.03 0 1.86.8 1.86 1.8s-.9 1.8-1.9 1.8zm-5.5-32.97c-1.02 0-1.85-.84-1.85-1.87 0-1 .83-1.8 1.85-1.8 1.03 0 1.86.9 1.86 1.9 0 1.1-.9 1.9-1.9 1.9zm-5.5-54.97c-1.02 0-1.85-.8-1.85-1.8s.83-1.8 1.86-1.8c1.03 0 1.86.9 1.86 1.9 0 1.1-.84 1.9-1.87 1.9zm0 22c-1.02 0-1.85-.8-1.85-1.8s.83-1.8 1.86-1.8c1.03 0 1.86.8 1.86 1.9 0 1.1-.84 1.9-1.87 1.9zm5.5 55c-1.02 0-1.85-.8-1.85-1.8s.83-1.8 1.85-1.8c1.03 0 1.86.9 1.86 1.9 0 1.07-.9 1.9-1.9 1.9zm5.5-11c-1.03 0-1.86-.8-1.86-1.8s.83-1.8 1.86-1.8c1.03 0 1.86.9 1.86 1.9 0 1.08-.9 1.9-1.9 1.9zm11 0c-1.04 0-1.87-.8-1.87-1.8s.83-1.8 1.86-1.8c1.04 0 1.87.9 1.87 1.9 0 1.08-.9 1.9-1.9 1.9zM63 58.8c-1.03 0-1.86-.83-1.86-1.86 0-1.02.83-1.85 1.86-1.85 1.03 0 1.86.8 1.86 1.8s-.83 1.9-1.86 1.9zm5.5-11c-1.03 0-1.87-.82-1.87-1.85 0-1.03.84-1.86 1.87-1.86 1.02 0 1.86.8 1.86 1.8s-.84 1.8-1.86 1.8zM73 99.34l-.84 1.45c.04-.6.36-1.2.83-1.5zm1-40.55c-1.02 0-1.85-.9-1.85-1.9 0-1 .83-1.9 1.86-1.9 1.1 0 1.9.8 1.9 1.8s-.8 1.8-1.8 1.8zm-5.48 11c-1.03 0-1.87-.9-1.87-1.9 0-1 .84-1.9 1.87-1.9 1.02 0 1.86.8 1.86 1.8s-.84 1.9-1.86 1.9zm-5.5-55c-1.03 0-1.86-.8-1.86-1.9S62 11 63.02 11c1.03 0 1.86.83 1.86 1.86 0 1.03-.83 1.85-1.86 1.85zm0 22c-1.03 0-1.86-.9-1.86-1.9 0-1.1.83-1.9 1.86-1.9 1.03 0 1.86.8 1.86 1.8s-.83 1.8-1.86 1.8zm5.5-11c-1.03 0-1.87-.8-1.87-1.9 0-1.1.84-1.9 1.87-1.9 1.02 0 1.86.8 1.86 1.8s-.84 1.8-1.86 1.8zm0 65.9c-1.03 0-1.87-.9-1.87-1.9s.85-1.8 1.87-1.8 1.86.8 1.86 1.8-.84 1.9-1.86 1.9z" fill="#F7AB62" fill-rule="evenodd"/>
</svg>
