<svg class="fb-icon" width="25" height="24" viewBox="0 0 25 24" xmlns="http://www.w3.org/2000/svg">
  <title>
    Shape
  </title>
  <path d="M22.7305052 0h-21.351c-.732 0-1.3245.5925-1.3245 1.3245v21.351c0 .732.5925 1.3245 1.3245 1.3245h11.4945v-9.294h-3.129v-3.621h3.129V8.4105c0-3.099 1.893-4.785 4.659-4.785 1.3245 0 2.463.096 2.7945.141v3.24h-1.92c-1.5 0-1.7925.714-1.7925 1.764v2.31h3.585l-.465 3.624h-3.12V24h6.1155c.732 0 1.3245-.5925 1.3245-1.3245V1.3245c0-.732-.5925-1.3245-1.3245-1.3245" fill="#174A8F" fill-rule="evenodd"/>
</svg>
