<?xml version="1.0" encoding="UTF-8"?>
<svg width="230px" height="155px" viewBox="0 0 230 155" version="1.1" xmlns="http://www.w3.org/2000/svg" xmlns:xlink="http://www.w3.org/1999/xlink">
    <!-- Generator: Sketch 46.2 (44496) - http://www.bohemiancoding.com/sketch -->
    <title>dot pattern2</title>
    <desc>Created with Sketch.</desc>
    <defs></defs>
    <g id="SBLY-homepage" stroke="none" stroke-width="1" fill="none" fill-rule="evenodd">
        <g id="sbly-homepage" transform="translate(-99.000000, -1835.000000)" fill="#2F7ADF">
            <g id="04-sponsor-article-callout" transform="translate(60.000000, 1429.000000)">
                <g id="dot-pattern2" transform="translate(39.000000, 406.000000)">
                    <path d="M229.737083,1.48151698 C229.737083,0.74067757 229.139701,0.141154352 228.394579,0.141154352 C227.651599,0.141154352 227.052076,0.74067757 227.052076,1.48151698 C227.052076,2.22663869 227.651599,2.82830306 228.394579,2.82830306 C229.139701,2.82830306 229.737083,2.22663869 229.737083,1.48151698" id="Fill-451"></path>
                    <path d="M229.737083,16.6201206 C229.737083,15.87714 229.139701,15.2776168 228.394579,15.2776168 C227.651599,15.2776168 227.052076,15.87714 227.052076,16.6201206 C227.052076,17.3588188 227.651599,17.9669067 228.394579,17.9669067 C229.139701,17.9669067 229.737083,17.3588188 229.737083,16.6201206" id="Fill-454"></path>
                    <path d="M229.737083,31.7544419 C229.737083,31.0157436 229.139701,30.4140793 228.394579,30.4140793 C227.651599,30.4140793 227.052076,31.0157436 227.052076,31.7544419 C227.052076,32.5038459 227.651599,33.101228 228.394579,33.101228 C229.139701,33.101228 229.737083,32.5038459 229.737083,31.7544419" id="Fill-456"></path>
                    <path d="M229.737083,46.8932596 C229.737083,46.1502791 229.139701,45.5507558 228.394579,45.5507558 C227.651599,45.5507558 227.052076,46.1502791 227.052076,46.8932596 C227.052076,47.634099 227.651599,48.2400457 228.394579,48.2400457 C229.139701,48.2400457 229.737083,47.634099 229.737083,46.8932596" id="Fill-458"></path>
                    <path d="M229.737083,62.0297221 C229.737083,61.2888827 229.139701,60.6893595 228.394579,60.6893595 C227.651599,60.6893595 227.052076,61.2888827 227.052076,62.0297221 C227.052076,62.7769849 227.651599,63.3765082 228.394579,63.3765082 C229.139701,63.3765082 229.737083,62.7769849 229.737083,62.0297221" id="Fill-460"></path>
                    <path d="M229.739224,77.1661845 C229.739224,76.4253451 229.139701,75.8258219 228.394579,75.8258219 C227.651599,75.8258219 227.052076,76.4253451 227.052076,77.1661845 C227.052076,77.9113063 227.651599,78.5129706 228.394579,78.5129706 C229.139701,78.5129706 229.739224,77.9113063 229.739224,77.1661845" id="Fill-462"></path>
                    <path d="M229.739224,92.3050023 C229.739224,91.5641629 229.139701,90.9624985 228.394579,90.9624985 C227.651599,90.9624985 227.052076,91.5641629 227.052076,92.3050023 C227.052076,93.0458417 227.651599,93.6432237 228.394579,93.6432237 C229.139701,93.6432237 229.739224,93.0458417 229.739224,92.3050023" id="Fill-464"></path>
                    <path d="M229.739224,107.441465 C229.739224,106.698484 229.139701,106.098961 228.394579,106.098961 C227.651599,106.098961 227.052076,106.698484 227.052076,107.441465 C227.052076,108.186586 227.651599,108.783968 228.394579,108.783968 C229.139701,108.783968 229.739224,108.186586 229.739224,107.441465" id="Fill-466"></path>
                    <path d="M229.739224,122.577927 C229.739224,121.837088 229.139701,121.235423 228.394579,121.235423 C227.651599,121.235423 227.052076,121.837088 227.052076,122.577927 C227.052076,123.318767 227.651599,123.920431 228.394579,123.920431 C229.139701,123.920431 229.739224,123.318767 229.739224,122.577927" id="Fill-468"></path>
                    <path d="M229.739224,137.714604 C229.739224,136.967341 229.139701,136.374241 228.394579,136.374241 C227.651599,136.374241 227.052076,136.967341 227.052076,137.714604 C227.052076,138.457584 227.651599,139.057108 228.394579,139.057108 C229.139701,139.057108 229.739224,138.457584 229.739224,137.714604" id="Fill-470"></path>
                    <path d="M229.739224,152.851066 C229.739224,152.110227 229.139701,151.50428 228.394579,151.50428 C227.651599,151.50428 227.052076,152.110227 227.052076,152.851066 C227.052076,153.594047 227.651599,154.19357 228.394579,154.19357 C229.139701,154.19357 229.739224,153.594047 229.739224,152.851066" id="Fill-472"></path>
                    <path d="M214.600621,1.48151698 C214.600621,0.74067757 213.998956,0.141154352 213.258117,0.141154352 C212.517278,0.141154352 211.913472,0.74067757 211.913472,1.48151698 C211.913472,2.22663869 212.517278,2.82830306 213.258117,2.82830306 C213.998956,2.82830306 214.600621,2.22663869 214.600621,1.48151698" id="Fill-481"></path>
                    <path d="M214.600621,16.6201206 C214.600621,15.87714 213.998956,15.2776168 213.258117,15.2776168 C212.517278,15.2776168 211.913472,15.87714 211.913472,16.6201206 C211.913472,17.3588188 212.517278,17.9669067 213.258117,17.9669067 C213.998956,17.9669067 214.600621,17.3588188 214.600621,16.6201206" id="Fill-484"></path>
                    <path d="M214.600621,31.7544419 C214.600621,31.0157436 213.998956,30.4140793 213.258117,30.4140793 C212.517278,30.4140793 211.913472,31.0157436 211.913472,31.7544419 C211.913472,32.5038459 212.517278,33.101228 213.258117,33.101228 C213.998956,33.101228 214.600621,32.5038459 214.600621,31.7544419" id="Fill-486"></path>
                    <path d="M214.600621,46.8932596 C214.600621,46.1502791 213.998956,45.5507558 213.258117,45.5507558 C212.517278,45.5507558 211.913472,46.1502791 211.913472,46.8932596 C211.913472,47.634099 212.517278,48.2400457 213.258117,48.2400457 C213.998956,48.2400457 214.600621,47.634099 214.600621,46.8932596" id="Fill-488"></path>
                    <path d="M214.600621,62.0297221 C214.600621,61.2888827 213.998956,60.6893595 213.258117,60.6893595 C212.517278,60.6893595 211.913472,61.2888827 211.913472,62.0297221 C211.913472,62.7769849 212.517278,63.3765082 213.258117,63.3765082 C213.998956,63.3765082 214.600621,62.7769849 214.600621,62.0297221" id="Fill-490"></path>
                    <path d="M214.602548,77.1661845 C214.602548,76.4253451 213.998742,75.8258219 213.260044,75.8258219 C212.521346,75.8258219 211.913258,76.4253451 211.913258,77.1661845 C211.913258,77.9113063 212.521346,78.5129706 213.260044,78.5129706 C213.998742,78.5129706 214.602548,77.9113063 214.602548,77.1661845" id="Fill-492"></path>
                    <path d="M214.602548,92.3050023 C214.602548,91.5641629 213.998742,90.9624985 213.260044,90.9624985 C212.521346,90.9624985 211.913258,91.5641629 211.913258,92.3050023 C211.913258,93.0458417 212.521346,93.6432237 213.260044,93.6432237 C213.998742,93.6432237 214.602548,93.0458417 214.602548,92.3050023" id="Fill-494"></path>
                    <path d="M214.602548,107.441465 C214.602548,106.698484 213.998742,106.098961 213.260044,106.098961 C212.521346,106.098961 211.913258,106.698484 211.913258,107.441465 C211.913258,108.186586 212.521346,108.783968 213.260044,108.783968 C213.998742,108.783968 214.602548,108.186586 214.602548,107.441465" id="Fill-496"></path>
                    <path d="M214.602548,122.577927 C214.602548,121.837088 213.998742,121.235423 213.260044,121.235423 C212.521346,121.235423 211.913258,121.837088 211.913258,122.577927 C211.913258,123.318767 212.521346,123.920431 213.260044,123.920431 C213.998742,123.920431 214.602548,123.318767 214.602548,122.577927" id="Fill-498"></path>
                    <path d="M214.602548,137.714604 C214.602548,136.967341 213.998742,136.374241 213.260044,136.374241 C212.521346,136.374241 211.913258,136.967341 211.913258,137.714604 C211.913258,138.457584 212.521346,139.057108 213.260044,139.057108 C213.998742,139.057108 214.602548,138.457584 214.602548,137.714604" id="Fill-500"></path>
                    <path d="M214.602548,152.851066 C214.602548,152.110227 213.998742,151.50428 213.260044,151.50428 C212.521346,151.50428 211.913258,152.110227 211.913258,152.851066 C211.913258,153.594047 212.521346,154.19357 213.260044,154.19357 C213.998742,154.19357 214.602548,153.594047 214.602548,152.851066" id="Fill-502"></path>
                    <path d="M199.462017,1.48151698 C199.462017,0.74067757 198.864635,0.141154352 198.121655,0.141154352 C197.378674,0.141154352 196.779151,0.74067757 196.779151,1.48151698 C196.779151,2.22663869 197.378674,2.82830306 198.121655,2.82830306 C198.864635,2.82830306 199.462017,2.22663869 199.462017,1.48151698" id="Fill-511"></path>
                    <path d="M199.462017,16.6201206 C199.462017,15.87714 198.864635,15.2776168 198.121655,15.2776168 C197.378674,15.2776168 196.779151,15.87714 196.779151,16.6201206 C196.779151,17.3588188 197.378674,17.9669067 198.121655,17.9669067 C198.864635,17.9669067 199.462017,17.3588188 199.462017,16.6201206" id="Fill-514"></path>
                    <path d="M199.462017,31.7544419 C199.462017,31.0157436 198.864635,30.4140793 198.121655,30.4140793 C197.378674,30.4140793 196.779151,31.0157436 196.779151,31.7544419 C196.779151,32.5038459 197.378674,33.101228 198.121655,33.101228 C198.864635,33.101228 199.462017,32.5038459 199.462017,31.7544419" id="Fill-516"></path>
                    <path d="M199.462017,46.8932596 C199.462017,46.1502791 198.864635,45.5507558 198.121655,45.5507558 C197.378674,45.5507558 196.779151,46.1502791 196.779151,46.8932596 C196.779151,47.634099 197.378674,48.2400457 198.121655,48.2400457 C198.864635,48.2400457 199.462017,47.634099 199.462017,46.8932596" id="Fill-518"></path>
                    <path d="M199.462017,62.0297221 C199.462017,61.2888827 198.864635,60.6893595 198.121655,60.6893595 C197.378674,60.6893595 196.779151,61.2888827 196.779151,62.0297221 C196.779151,62.7769849 197.378674,63.3765082 198.121655,63.3765082 C198.864635,63.3765082 199.462017,62.7769849 199.462017,62.0297221" id="Fill-520"></path>
                    <path d="M199.466085,77.1661845 C199.466085,76.4253451 198.864421,75.8258219 198.123582,75.8258219 C197.382742,75.8258219 196.778937,76.4253451 196.778937,77.1661845 C196.778937,77.9113063 197.382742,78.5129706 198.123582,78.5129706 C198.864421,78.5129706 199.466085,77.9113063 199.466085,77.1661845" id="Fill-522"></path>
                    <path d="M199.466085,92.3050023 C199.466085,91.5641629 198.864421,90.9624985 198.123582,90.9624985 C197.382742,90.9624985 196.778937,91.5641629 196.778937,92.3050023 C196.778937,93.0458417 197.382742,93.6432237 198.123582,93.6432237 C198.864421,93.6432237 199.466085,93.0458417 199.466085,92.3050023" id="Fill-524"></path>
                    <path d="M199.466085,107.441465 C199.466085,106.698484 198.864421,106.098961 198.123582,106.098961 C197.382742,106.098961 196.778937,106.698484 196.778937,107.441465 C196.778937,108.186586 197.382742,108.783968 198.123582,108.783968 C198.864421,108.783968 199.466085,108.186586 199.466085,107.441465" id="Fill-526"></path>
                    <path d="M199.466085,122.577927 C199.466085,121.837088 198.864421,121.235423 198.123582,121.235423 C197.382742,121.235423 196.778937,121.837088 196.778937,122.577927 C196.778937,123.318767 197.382742,123.920431 198.123582,123.920431 C198.864421,123.920431 199.466085,123.318767 199.466085,122.577927" id="Fill-528"></path>
                    <path d="M199.466085,137.714604 C199.466085,136.967341 198.864421,136.374241 198.123582,136.374241 C197.382742,136.374241 196.778937,136.967341 196.778937,137.714604 C196.778937,138.457584 197.382742,139.057108 198.123582,139.057108 C198.864421,139.057108 199.466085,138.457584 199.466085,137.714604" id="Fill-530"></path>
                    <path d="M199.466085,152.851066 C199.466085,152.110227 198.864421,151.50428 198.123582,151.50428 C197.382742,151.50428 196.778937,152.110227 196.778937,152.851066 C196.778937,153.594047 197.382742,154.19357 198.123582,154.19357 C198.864421,154.19357 199.466085,153.594047 199.466085,152.851066" id="Fill-532"></path>
                    <path d="M184.327482,1.48151698 C184.327482,0.74067757 183.7301,0.141154352 182.984978,0.141154352 C182.239856,0.141154352 181.640333,0.74067757 181.640333,1.48151698 C181.640333,2.22663869 182.239856,2.82830306 182.984978,2.82830306 C183.7301,2.82830306 184.327482,2.22663869 184.327482,1.48151698" id="Fill-541"></path>
                    <path d="M184.327482,16.6201206 C184.327482,15.87714 183.7301,15.2776168 182.984978,15.2776168 C182.239856,15.2776168 181.640333,15.87714 181.640333,16.6201206 C181.640333,17.3588188 182.239856,17.9669067 182.984978,17.9669067 C183.7301,17.9669067 184.327482,17.3588188 184.327482,16.6201206" id="Fill-544"></path>
                    <path d="M184.327482,31.7544419 C184.327482,31.0157436 183.7301,30.4140793 182.984978,30.4140793 C182.239856,30.4140793 181.640333,31.0157436 181.640333,31.7544419 C181.640333,32.5038459 182.239856,33.101228 182.984978,33.101228 C183.7301,33.101228 184.327482,32.5038459 184.327482,31.7544419" id="Fill-546"></path>
                    <path d="M184.327482,46.8932596 C184.327482,46.1502791 183.7301,45.5507558 182.984978,45.5507558 C182.239856,45.5507558 181.640333,46.1502791 181.640333,46.8932596 C181.640333,47.634099 182.239856,48.2400457 182.984978,48.2400457 C183.7301,48.2400457 184.327482,47.634099 184.327482,46.8932596" id="Fill-548"></path>
                    <path d="M184.327482,62.0297221 C184.327482,61.2888827 183.7301,60.6893595 182.984978,60.6893595 C182.239856,60.6893595 181.640333,61.2888827 181.640333,62.0297221 C181.640333,62.7769849 182.239856,63.3765082 182.984978,63.3765082 C183.7301,63.3765082 184.327482,62.7769849 184.327482,62.0297221" id="Fill-550"></path>
                    <path d="M184.329623,77.1661845 C184.329623,76.4253451 183.7301,75.8258219 182.987119,75.8258219 C182.239856,75.8258219 181.640333,76.4253451 181.640333,77.1661845 C181.640333,77.9113063 182.239856,78.5129706 182.987119,78.5129706 C183.7301,78.5129706 184.329623,77.9113063 184.329623,77.1661845" id="Fill-552"></path>
                    <path d="M184.329623,92.3050023 C184.329623,91.5641629 183.7301,90.9624985 182.987119,90.9624985 C182.239856,90.9624985 181.640333,91.5641629 181.640333,92.3050023 C181.640333,93.0458417 182.239856,93.6432237 182.987119,93.6432237 C183.7301,93.6432237 184.329623,93.0458417 184.329623,92.3050023" id="Fill-554"></path>
                    <path d="M184.329623,107.441465 C184.329623,106.698484 183.7301,106.098961 182.987119,106.098961 C182.239856,106.098961 181.640333,106.698484 181.640333,107.441465 C181.640333,108.186586 182.239856,108.783968 182.987119,108.783968 C183.7301,108.783968 184.329623,108.186586 184.329623,107.441465" id="Fill-556"></path>
                    <path d="M184.329623,122.577927 C184.329623,121.837088 183.7301,121.235423 182.987119,121.235423 C182.239856,121.235423 181.640333,121.837088 181.640333,122.577927 C181.640333,123.318767 182.239856,123.920431 182.987119,123.920431 C183.7301,123.920431 184.329623,123.318767 184.329623,122.577927" id="Fill-558"></path>
                    <path d="M184.329623,137.714604 C184.329623,136.967341 183.7301,136.374241 182.987119,136.374241 C182.239856,136.374241 181.640333,136.967341 181.640333,137.714604 C181.640333,138.457584 182.239856,139.057108 182.987119,139.057108 C183.7301,139.057108 184.329623,138.457584 184.329623,137.714604" id="Fill-560"></path>
                    <path d="M184.329623,152.851066 C184.329623,152.110227 183.7301,151.50428 182.987119,151.50428 C182.239856,151.50428 181.640333,152.110227 181.640333,152.851066 C181.640333,153.594047 182.239856,154.19357 182.987119,154.19357 C183.7301,154.19357 184.329623,153.594047 184.329623,152.851066" id="Fill-562"></path>
                    <path d="M169.188878,1.48151698 C169.188878,0.74067757 168.591496,0.141154352 167.848515,0.141154352 C167.105535,0.141154352 166.503871,0.74067757 166.503871,1.48151698 C166.503871,2.22663869 167.105535,2.82830306 167.848515,2.82830306 C168.591496,2.82830306 169.188878,2.22663869 169.188878,1.48151698" id="Fill-571"></path>
                    <path d="M169.188878,16.6201206 C169.188878,15.87714 168.591496,15.2776168 167.848515,15.2776168 C167.105535,15.2776168 166.503871,15.87714 166.503871,16.6201206 C166.503871,17.3588188 167.105535,17.9669067 167.848515,17.9669067 C168.591496,17.9669067 169.188878,17.3588188 169.188878,16.6201206" id="Fill-574"></path>
                    <path d="M169.188878,31.7544419 C169.188878,31.0157436 168.591496,30.4140793 167.848515,30.4140793 C167.105535,30.4140793 166.503871,31.0157436 166.503871,31.7544419 C166.503871,32.5038459 167.105535,33.101228 167.848515,33.101228 C168.591496,33.101228 169.188878,32.5038459 169.188878,31.7544419" id="Fill-576"></path>
                    <path d="M169.188878,46.8932596 C169.188878,46.1502791 168.591496,45.5507558 167.848515,45.5507558 C167.105535,45.5507558 166.503871,46.1502791 166.503871,46.8932596 C166.503871,47.634099 167.105535,48.2400457 167.848515,48.2400457 C168.591496,48.2400457 169.188878,47.634099 169.188878,46.8932596" id="Fill-578"></path>
                    <path d="M169.188878,62.0297221 C169.188878,61.2888827 168.591496,60.6893595 167.848515,60.6893595 C167.105535,60.6893595 166.503871,61.2888827 166.503871,62.0297221 C166.503871,62.7769849 167.105535,63.3765082 167.848515,63.3765082 C168.591496,63.3765082 169.188878,62.7769849 169.188878,62.0297221" id="Fill-580"></path>
                    <path d="M169.188878,77.1661845 C169.188878,76.4253451 168.591496,75.8258219 167.850657,75.8258219 C167.107676,75.8258219 166.503871,76.4253451 166.503871,77.1661845 C166.503871,77.9113063 167.107676,78.5129706 167.850657,78.5129706 C168.591496,78.5129706 169.188878,77.9113063 169.188878,77.1661845" id="Fill-582"></path>
                    <path d="M169.188878,92.3050023 C169.188878,91.5641629 168.591496,90.9624985 167.850657,90.9624985 C167.107676,90.9624985 166.503871,91.5641629 166.503871,92.3050023 C166.503871,93.0458417 167.107676,93.6432237 167.850657,93.6432237 C168.591496,93.6432237 169.188878,93.0458417 169.188878,92.3050023" id="Fill-584"></path>
                    <path d="M169.188878,107.441465 C169.188878,106.698484 168.591496,106.098961 167.850657,106.098961 C167.107676,106.098961 166.503871,106.698484 166.503871,107.441465 C166.503871,108.186586 167.107676,108.783968 167.850657,108.783968 C168.591496,108.783968 169.188878,108.186586 169.188878,107.441465" id="Fill-586"></path>
                    <path d="M169.188878,122.577927 C169.188878,121.837088 168.591496,121.235423 167.850657,121.235423 C167.107676,121.235423 166.503871,121.837088 166.503871,122.577927 C166.503871,123.318767 167.107676,123.920431 167.850657,123.920431 C168.591496,123.920431 169.188878,123.318767 169.188878,122.577927" id="Fill-588"></path>
                    <path d="M169.188878,137.714604 C169.188878,136.967341 168.591496,136.374241 167.850657,136.374241 C167.107676,136.374241 166.503871,136.967341 166.503871,137.714604 C166.503871,138.457584 167.107676,139.057108 167.850657,139.057108 C168.591496,139.057108 169.188878,138.457584 169.188878,137.714604" id="Fill-590"></path>
                    <path d="M169.188878,152.851066 C169.188878,152.110227 168.591496,151.50428 167.850657,151.50428 C167.107676,151.50428 166.503871,152.110227 166.503871,152.851066 C166.503871,153.594047 167.107676,154.19357 167.850657,154.19357 C168.591496,154.19357 169.188878,153.594047 169.188878,152.851066" id="Fill-592"></path>
                    <path d="M154.054343,1.48151698 C154.054343,0.74067757 153.456961,0.141154352 152.707557,0.141154352 C151.966717,0.141154352 151.367194,0.74067757 151.367194,1.48151698 C151.367194,2.22663869 151.966717,2.82830306 152.707557,2.82830306 C153.456961,2.82830306 154.054343,2.22663869 154.054343,1.48151698" id="Fill-601"></path>
                    <path d="M154.054343,16.6201206 C154.054343,15.87714 153.456961,15.2776168 152.707557,15.2776168 C151.966717,15.2776168 151.367194,15.87714 151.367194,16.6201206 C151.367194,17.3588188 151.966717,17.9669067 152.707557,17.9669067 C153.456961,17.9669067 154.054343,17.3588188 154.054343,16.6201206" id="Fill-604"></path>
                    <path d="M154.054343,31.7544419 C154.054343,31.0157436 153.456961,30.4140793 152.707557,30.4140793 C151.966717,30.4140793 151.367194,31.0157436 151.367194,31.7544419 C151.367194,32.5038459 151.966717,33.101228 152.707557,33.101228 C153.456961,33.101228 154.054343,32.5038459 154.054343,31.7544419" id="Fill-606"></path>
                    <path d="M154.054343,46.8932596 C154.054343,46.1502791 153.456961,45.5507558 152.707557,45.5507558 C151.966717,45.5507558 151.367194,46.1502791 151.367194,46.8932596 C151.367194,47.634099 151.966717,48.2400457 152.707557,48.2400457 C153.456961,48.2400457 154.054343,47.634099 154.054343,46.8932596" id="Fill-608"></path>
                    <path d="M154.054343,62.0297221 C154.054343,61.2888827 153.456961,60.6893595 152.707557,60.6893595 C151.966717,60.6893595 151.367194,61.2888827 151.367194,62.0297221 C151.367194,62.7769849 151.966717,63.3765082 152.707557,63.3765082 C153.456961,63.3765082 154.054343,62.7769849 154.054343,62.0297221" id="Fill-610"></path>
                    <path d="M154.054343,77.1661845 C154.054343,76.4253451 153.456961,75.8258219 152.71398,75.8258219 C151.966717,75.8258219 151.367194,76.4253451 151.367194,77.1661845 C151.367194,77.9113063 151.966717,78.5129706 152.71398,78.5129706 C153.456961,78.5129706 154.054343,77.9113063 154.054343,77.1661845" id="Fill-612"></path>
                    <path d="M154.054343,92.3050023 C154.054343,91.5641629 153.456961,90.9624985 152.71398,90.9624985 C151.966717,90.9624985 151.367194,91.5641629 151.367194,92.3050023 C151.367194,93.0458417 151.966717,93.6432237 152.71398,93.6432237 C153.456961,93.6432237 154.054343,93.0458417 154.054343,92.3050023" id="Fill-614"></path>
                    <path d="M154.054343,107.441465 C154.054343,106.698484 153.456961,106.098961 152.71398,106.098961 C151.966717,106.098961 151.367194,106.698484 151.367194,107.441465 C151.367194,108.186586 151.966717,108.783968 152.71398,108.783968 C153.456961,108.783968 154.054343,108.186586 154.054343,107.441465" id="Fill-616"></path>
                    <path d="M154.054343,122.577927 C154.054343,121.837088 153.456961,121.235423 152.71398,121.235423 C151.966717,121.235423 151.367194,121.837088 151.367194,122.577927 C151.367194,123.318767 151.966717,123.920431 152.71398,123.920431 C153.456961,123.920431 154.054343,123.318767 154.054343,122.577927" id="Fill-618"></path>
                    <path d="M154.054343,137.714604 C154.054343,136.967341 153.456961,136.374241 152.71398,136.374241 C151.966717,136.374241 151.367194,136.967341 151.367194,137.714604 C151.367194,138.457584 151.966717,139.057108 152.71398,139.057108 C153.456961,139.057108 154.054343,138.457584 154.054343,137.714604" id="Fill-620"></path>
                    <path d="M154.054343,152.851066 C154.054343,152.110227 153.456961,151.50428 152.71398,151.50428 C151.966717,151.50428 151.367194,152.110227 151.367194,152.851066 C151.367194,153.594047 151.966717,154.19357 152.71398,154.19357 C153.456961,154.19357 154.054343,153.594047 154.054343,152.851066" id="Fill-622"></path>
                    <path d="M138.915739,1.48151698 C138.915739,0.74067757 138.318357,0.141154352 137.573235,0.141154352 C136.832396,0.141154352 136.230732,0.74067757 136.230732,1.48151698 C136.230732,2.22663869 136.832396,2.82830306 137.573235,2.82830306 C138.318357,2.82830306 138.915739,2.22663869 138.915739,1.48151698" id="Fill-631"></path>
                    <path d="M138.915739,16.6201206 C138.915739,15.87714 138.318357,15.2776168 137.573235,15.2776168 C136.832396,15.2776168 136.230732,15.87714 136.230732,16.6201206 C136.230732,17.3588188 136.832396,17.9669067 137.573235,17.9669067 C138.318357,17.9669067 138.915739,17.3588188 138.915739,16.6201206" id="Fill-634"></path>
                    <path d="M138.915739,31.7544419 C138.915739,31.0157436 138.318357,30.4140793 137.573235,30.4140793 C136.832396,30.4140793 136.230732,31.0157436 136.230732,31.7544419 C136.230732,32.5038459 136.832396,33.101228 137.573235,33.101228 C138.318357,33.101228 138.915739,32.5038459 138.915739,31.7544419" id="Fill-636"></path>
                    <path d="M138.915739,46.8932596 C138.915739,46.1502791 138.318357,45.5507558 137.573235,45.5507558 C136.832396,45.5507558 136.230732,46.1502791 136.230732,46.8932596 C136.230732,47.634099 136.832396,48.2400457 137.573235,48.2400457 C138.318357,48.2400457 138.915739,47.634099 138.915739,46.8932596" id="Fill-638"></path>
                    <path d="M138.915739,62.0297221 C138.915739,61.2888827 138.318357,60.6893595 137.573235,60.6893595 C136.832396,60.6893595 136.230732,61.2888827 136.230732,62.0297221 C136.230732,62.7769849 136.832396,63.3765082 137.573235,63.3765082 C138.318357,63.3765082 138.915739,62.7769849 138.915739,62.0297221" id="Fill-640"></path>
                    <path d="M138.915739,77.1661845 C138.915739,76.4253451 138.318357,75.8258219 137.577518,75.8258219 C136.834537,75.8258219 136.230732,76.4253451 136.230732,77.1661845 C136.230732,77.9113063 136.834537,78.5129706 137.577518,78.5129706 C138.318357,78.5129706 138.915739,77.9113063 138.915739,77.1661845" id="Fill-642"></path>
                    <path d="M138.915739,92.3050023 C138.915739,91.5641629 138.318357,90.9624985 137.577518,90.9624985 C136.834537,90.9624985 136.230732,91.5641629 136.230732,92.3050023 C136.230732,93.0458417 136.834537,93.6432237 137.577518,93.6432237 C138.318357,93.6432237 138.915739,93.0458417 138.915739,92.3050023" id="Fill-644"></path>
                    <path d="M138.915739,107.441465 C138.915739,106.698484 138.318357,106.098961 137.577518,106.098961 C136.834537,106.098961 136.230732,106.698484 136.230732,107.441465 C136.230732,108.186586 136.834537,108.783968 137.577518,108.783968 C138.318357,108.783968 138.915739,108.186586 138.915739,107.441465" id="Fill-646"></path>
                    <path d="M138.915739,122.577927 C138.915739,121.837088 138.318357,121.235423 137.577518,121.235423 C136.834537,121.235423 136.230732,121.837088 136.230732,122.577927 C136.230732,123.318767 136.834537,123.920431 137.577518,123.920431 C138.318357,123.920431 138.915739,123.318767 138.915739,122.577927" id="Fill-648"></path>
                    <path d="M138.915739,137.714604 C138.915739,136.967341 138.318357,136.374241 137.577518,136.374241 C136.834537,136.374241 136.230732,136.967341 136.230732,137.714604 C136.230732,138.457584 136.834537,139.057108 137.577518,139.057108 C138.318357,139.057108 138.915739,138.457584 138.915739,137.714604" id="Fill-650"></path>
                    <path d="M138.915739,152.851066 C138.915739,152.110227 138.318357,151.50428 137.577518,151.50428 C136.834537,151.50428 136.230732,152.110227 136.230732,152.851066 C136.230732,153.594047 136.834537,154.19357 137.577518,154.19357 C138.318357,154.19357 138.915739,153.594047 138.915739,152.851066" id="Fill-652"></path>
                    <path d="M123.781204,1.48151698 C123.781204,0.74067757 123.179539,0.141154352 122.434418,0.141154352 C121.695719,0.141154352 121.094055,0.74067757 121.094055,1.48151698 C121.094055,2.22663869 121.695719,2.82830306 122.434418,2.82830306 C123.179539,2.82830306 123.781204,2.22663869 123.781204,1.48151698" id="Fill-661"></path>
                    <path d="M123.781204,16.6201206 C123.781204,15.87714 123.179539,15.2776168 122.434418,15.2776168 C121.695719,15.2776168 121.094055,15.87714 121.094055,16.6201206 C121.094055,17.3588188 121.695719,17.9669067 122.434418,17.9669067 C123.179539,17.9669067 123.781204,17.3588188 123.781204,16.6201206" id="Fill-664"></path>
                    <path d="M123.781204,31.7544419 C123.781204,31.0157436 123.179539,30.4140793 122.434418,30.4140793 C121.695719,30.4140793 121.094055,31.0157436 121.094055,31.7544419 C121.094055,32.5038459 121.695719,33.101228 122.434418,33.101228 C123.179539,33.101228 123.781204,32.5038459 123.781204,31.7544419" id="Fill-666"></path>
                    <path d="M123.781204,46.8932596 C123.781204,46.1502791 123.179539,45.5507558 122.434418,45.5507558 C121.695719,45.5507558 121.094055,46.1502791 121.094055,46.8932596 C121.094055,47.634099 121.695719,48.2400457 122.434418,48.2400457 C123.179539,48.2400457 123.781204,47.634099 123.781204,46.8932596" id="Fill-668"></path>
                    <path d="M123.781204,62.0297221 C123.781204,61.2888827 123.179539,60.6893595 122.434418,60.6893595 C121.695719,60.6893595 121.094055,61.2888827 121.094055,62.0297221 C121.094055,62.7769849 121.695719,63.3765082 122.434418,63.3765082 C123.179539,63.3765082 123.781204,62.7769849 123.781204,62.0297221" id="Fill-670"></path>
                    <path d="M123.781204,77.1661845 C123.781204,76.4253451 123.179539,75.8258219 122.4387,75.8258219 C121.69786,75.8258219 121.094055,76.4253451 121.094055,77.1661845 C121.094055,77.9113063 121.69786,78.5129706 122.4387,78.5129706 C123.179539,78.5129706 123.781204,77.9113063 123.781204,77.1661845" id="Fill-672"></path>
                    <path d="M123.781204,92.3050023 C123.781204,91.5641629 123.179539,90.9624985 122.4387,90.9624985 C121.69786,90.9624985 121.094055,91.5641629 121.094055,92.3050023 C121.094055,93.0458417 121.69786,93.6432237 122.4387,93.6432237 C123.179539,93.6432237 123.781204,93.0458417 123.781204,92.3050023" id="Fill-674"></path>
                    <path d="M123.781204,107.441465 C123.781204,106.698484 123.179539,106.098961 122.4387,106.098961 C121.69786,106.098961 121.094055,106.698484 121.094055,107.441465 C121.094055,108.186586 121.69786,108.783968 122.4387,108.783968 C123.179539,108.783968 123.781204,108.186586 123.781204,107.441465" id="Fill-676"></path>
                    <path d="M123.781204,122.577927 C123.781204,121.837088 123.179539,121.235423 122.4387,121.235423 C121.69786,121.235423 121.094055,121.837088 121.094055,122.577927 C121.094055,123.318767 121.69786,123.920431 122.4387,123.920431 C123.179539,123.920431 123.781204,123.318767 123.781204,122.577927" id="Fill-678"></path>
                    <path d="M123.781204,137.714604 C123.781204,136.967341 123.179539,136.374241 122.4387,136.374241 C121.69786,136.374241 121.094055,136.967341 121.094055,137.714604 C121.094055,138.457584 121.69786,139.057108 122.4387,139.057108 C123.179539,139.057108 123.781204,138.457584 123.781204,137.714604" id="Fill-680"></path>
                    <path d="M123.781204,152.851066 C123.781204,152.110227 123.179539,151.50428 122.4387,151.50428 C121.69786,151.50428 121.094055,152.110227 121.094055,152.851066 C121.094055,153.594047 121.69786,154.19357 122.4387,154.19357 C123.179539,154.19357 123.781204,153.594047 123.781204,152.851066" id="Fill-682"></path>
                    <path d="M108.6426,1.48151698 C108.6426,0.74067757 108.043077,0.141154352 107.300096,0.141154352 C106.559257,0.141154352 105.95331,0.74067757 105.95331,1.48151698 C105.95331,2.22663869 106.559257,2.82830306 107.300096,2.82830306 C108.043077,2.82830306 108.6426,2.22663869 108.6426,1.48151698" id="Fill-691"></path>
                    <path d="M108.6426,16.6201206 C108.6426,15.87714 108.043077,15.2776168 107.300096,15.2776168 C106.559257,15.2776168 105.95331,15.87714 105.95331,16.6201206 C105.95331,17.3588188 106.559257,17.9669067 107.300096,17.9669067 C108.043077,17.9669067 108.6426,17.3588188 108.6426,16.6201206" id="Fill-694"></path>
                    <path d="M108.6426,31.7544419 C108.6426,31.0157436 108.043077,30.4140793 107.300096,30.4140793 C106.559257,30.4140793 105.95331,31.0157436 105.95331,31.7544419 C105.95331,32.5038459 106.559257,33.101228 107.300096,33.101228 C108.043077,33.101228 108.6426,32.5038459 108.6426,31.7544419" id="Fill-696"></path>
                    <path d="M108.6426,46.8932596 C108.6426,46.1502791 108.043077,45.5507558 107.300096,45.5507558 C106.559257,45.5507558 105.95331,46.1502791 105.95331,46.8932596 C105.95331,47.634099 106.559257,48.2400457 107.300096,48.2400457 C108.043077,48.2400457 108.6426,47.634099 108.6426,46.8932596" id="Fill-698"></path>
                    <path d="M108.6426,62.0297221 C108.6426,61.2888827 108.043077,60.6893595 107.300096,60.6893595 C106.559257,60.6893595 105.95331,61.2888827 105.95331,62.0297221 C105.95331,62.7769849 106.559257,63.3765082 107.300096,63.3765082 C108.043077,63.3765082 108.6426,62.7769849 108.6426,62.0297221" id="Fill-700"></path>
                    <path d="M108.6426,77.1661845 C108.6426,76.4253451 108.043077,75.8258219 107.300096,75.8258219 C106.561398,75.8258219 105.95331,76.4253451 105.95331,77.1661845 C105.95331,77.9113063 106.561398,78.5129706 107.300096,78.5129706 C108.043077,78.5129706 108.6426,77.9113063 108.6426,77.1661845" id="Fill-702"></path>
                    <path d="M108.6426,92.3050023 C108.6426,91.5641629 108.043077,90.9624985 107.300096,90.9624985 C106.561398,90.9624985 105.95331,91.5641629 105.95331,92.3050023 C105.95331,93.0458417 106.561398,93.6432237 107.300096,93.6432237 C108.043077,93.6432237 108.6426,93.0458417 108.6426,92.3050023" id="Fill-704"></path>
                    <path d="M108.6426,107.441465 C108.6426,106.698484 108.043077,106.098961 107.300096,106.098961 C106.561398,106.098961 105.95331,106.698484 105.95331,107.441465 C105.95331,108.186586 106.561398,108.783968 107.300096,108.783968 C108.043077,108.783968 108.6426,108.186586 108.6426,107.441465" id="Fill-706"></path>
                    <path d="M108.6426,122.577927 C108.6426,121.837088 108.043077,121.235423 107.300096,121.235423 C106.561398,121.235423 105.95331,121.837088 105.95331,122.577927 C105.95331,123.318767 106.561398,123.920431 107.300096,123.920431 C108.043077,123.920431 108.6426,123.318767 108.6426,122.577927" id="Fill-708"></path>
                    <path d="M108.6426,137.714604 C108.6426,136.967341 108.043077,136.374241 107.300096,136.374241 C106.561398,136.374241 105.95331,136.967341 105.95331,137.714604 C105.95331,138.457584 106.561398,139.057108 107.300096,139.057108 C108.043077,139.057108 108.6426,138.457584 108.6426,137.714604" id="Fill-710"></path>
                    <path d="M108.6426,152.851066 C108.6426,152.110227 108.043077,151.50428 107.300096,151.50428 C106.561398,151.50428 105.95331,152.110227 105.95331,152.851066 C105.95331,153.594047 106.561398,154.19357 107.300096,154.19357 C108.043077,154.19357 108.6426,153.594047 108.6426,152.851066" id="Fill-712"></path>
                    <path d="M93.5082787,1.48151698 C93.5082787,0.74067757 92.9044732,0.141154352 92.1614926,0.141154352 C91.4206532,0.141154352 90.8189889,0.74067757 90.8189889,1.48151698 C90.8189889,2.22663869 91.4206532,2.82830306 92.1614926,2.82830306 C92.9044732,2.82830306 93.5082787,2.22663869 93.5082787,1.48151698" id="Fill-721"></path>
                    <path d="M93.5082787,16.6201206 C93.5082787,15.87714 92.9044732,15.2776168 92.1614926,15.2776168 C91.4206532,15.2776168 90.8189889,15.87714 90.8189889,16.6201206 C90.8189889,17.3588188 91.4206532,17.9669067 92.1614926,17.9669067 C92.9044732,17.9669067 93.5082787,17.3588188 93.5082787,16.6201206" id="Fill-724"></path>
                    <path d="M93.5082787,31.7544419 C93.5082787,31.0157436 92.9044732,30.4140793 92.1614926,30.4140793 C91.4206532,30.4140793 90.8189889,31.0157436 90.8189889,31.7544419 C90.8189889,32.5038459 91.4206532,33.101228 92.1614926,33.101228 C92.9044732,33.101228 93.5082787,32.5038459 93.5082787,31.7544419" id="Fill-726"></path>
                    <path d="M93.5082787,46.8932596 C93.5082787,46.1502791 92.9044732,45.5507558 92.1614926,45.5507558 C91.4206532,45.5507558 90.8189889,46.1502791 90.8189889,46.8932596 C90.8189889,47.634099 91.4206532,48.2400457 92.1614926,48.2400457 C92.9044732,48.2400457 93.5082787,47.634099 93.5082787,46.8932596" id="Fill-728"></path>
                    <path d="M93.5082787,62.0297221 C93.5082787,61.2888827 92.9044732,60.6893595 92.1614926,60.6893595 C91.4206532,60.6893595 90.8189889,61.2888827 90.8189889,62.0297221 C90.8189889,62.7769849 91.4206532,63.3765082 92.1614926,63.3765082 C92.9044732,63.3765082 93.5082787,62.7769849 93.5082787,62.0297221" id="Fill-730"></path>
                    <path d="M93.5082787,77.1661845 C93.5082787,76.4253451 92.9066144,75.8258219 92.165775,75.8258219 C91.4249355,75.8258219 90.8232712,76.4253451 90.8232712,77.1661845 C90.8232712,77.9113063 91.4249355,78.5129706 92.165775,78.5129706 C92.9066144,78.5129706 93.5082787,77.9113063 93.5082787,77.1661845" id="Fill-732"></path>
                    <path d="M93.5082787,92.3050023 C93.5082787,91.5641629 92.9066144,90.9624985 92.165775,90.9624985 C91.4249355,90.9624985 90.8232712,91.5641629 90.8232712,92.3050023 C90.8232712,93.0458417 91.4249355,93.6432237 92.165775,93.6432237 C92.9066144,93.6432237 93.5082787,93.0458417 93.5082787,92.3050023" id="Fill-734"></path>
                    <path d="M93.5082787,107.441465 C93.5082787,106.698484 92.9066144,106.098961 92.165775,106.098961 C91.4249355,106.098961 90.8232712,106.698484 90.8232712,107.441465 C90.8232712,108.186586 91.4249355,108.783968 92.165775,108.783968 C92.9066144,108.783968 93.5082787,108.186586 93.5082787,107.441465" id="Fill-736"></path>
                    <path d="M93.5082787,122.577927 C93.5082787,121.837088 92.9066144,121.235423 92.165775,121.235423 C91.4249355,121.235423 90.8232712,121.837088 90.8232712,122.577927 C90.8232712,123.318767 91.4249355,123.920431 92.165775,123.920431 C92.9066144,123.920431 93.5082787,123.318767 93.5082787,122.577927" id="Fill-738"></path>
                    <path d="M93.5082787,137.714604 C93.5082787,136.967341 92.9066144,136.374241 92.165775,136.374241 C91.4249355,136.374241 90.8232712,136.967341 90.8232712,137.714604 C90.8232712,138.457584 91.4249355,139.057108 92.165775,139.057108 C92.9066144,139.057108 93.5082787,138.457584 93.5082787,137.714604" id="Fill-740"></path>
                    <path d="M93.5082787,152.851066 C93.5082787,152.110227 92.9066144,151.50428 92.165775,151.50428 C91.4249355,151.50428 90.8232712,152.110227 90.8232712,152.851066 C90.8232712,153.594047 91.4249355,154.19357 92.165775,154.19357 C92.9066144,154.19357 93.5082787,153.594047 93.5082787,152.851066" id="Fill-742"></path>
                    <path d="M78.3696751,1.48151698 C78.3696751,0.74067757 77.7701519,0.141154352 77.0271713,0.141154352 C76.2884731,0.141154352 75.6846676,0.74067757 75.6846676,1.48151698 C75.6846676,2.22663869 76.2884731,2.82830306 77.0271713,2.82830306 C77.7701519,2.82830306 78.3696751,2.22663869 78.3696751,1.48151698" id="Fill-751"></path>
                    <path d="M78.3696751,16.6201206 C78.3696751,15.87714 77.7701519,15.2776168 77.0271713,15.2776168 C76.2884731,15.2776168 75.6846676,15.87714 75.6846676,16.6201206 C75.6846676,17.3588188 76.2884731,17.9669067 77.0271713,17.9669067 C77.7701519,17.9669067 78.3696751,17.3588188 78.3696751,16.6201206" id="Fill-754"></path>
                    <path d="M78.3696751,31.7544419 C78.3696751,31.0157436 77.7701519,30.4140793 77.0271713,30.4140793 C76.2884731,30.4140793 75.6846676,31.0157436 75.6846676,31.7544419 C75.6846676,32.5038459 76.2884731,33.101228 77.0271713,33.101228 C77.7701519,33.101228 78.3696751,32.5038459 78.3696751,31.7544419" id="Fill-756"></path>
                    <path d="M78.3696751,46.8932596 C78.3696751,46.1502791 77.7701519,45.5507558 77.0271713,45.5507558 C76.2884731,45.5507558 75.6846676,46.1502791 75.6846676,46.8932596 C75.6846676,47.634099 76.2884731,48.2400457 77.0271713,48.2400457 C77.7701519,48.2400457 78.3696751,47.634099 78.3696751,46.8932596" id="Fill-758"></path>
                    <path d="M78.3696751,62.0297221 C78.3696751,61.2888827 77.7701519,60.6893595 77.0271713,60.6893595 C76.2884731,60.6893595 75.6846676,61.2888827 75.6846676,62.0297221 C75.6846676,62.7769849 76.2884731,63.3765082 77.0271713,63.3765082 C77.7701519,63.3765082 78.3696751,62.7769849 78.3696751,62.0297221" id="Fill-760"></path>
                    <path d="M78.3696751,77.1661845 C78.3696751,76.4253451 77.7701519,75.8258219 77.0271713,75.8258219 C76.2884731,75.8258219 75.6846676,76.4253451 75.6846676,77.1661845 C75.6846676,77.9113063 76.2884731,78.5129706 77.0271713,78.5129706 C77.7701519,78.5129706 78.3696751,77.9113063 78.3696751,77.1661845" id="Fill-762"></path>
                    <path d="M78.3696751,92.3050023 C78.3696751,91.5641629 77.7701519,90.9624985 77.0271713,90.9624985 C76.2884731,90.9624985 75.6846676,91.5641629 75.6846676,92.3050023 C75.6846676,93.0458417 76.2884731,93.6432237 77.0271713,93.6432237 C77.7701519,93.6432237 78.3696751,93.0458417 78.3696751,92.3050023" id="Fill-764"></path>
                    <path d="M78.3696751,107.441465 C78.3696751,106.698484 77.7701519,106.098961 77.0271713,106.098961 C76.2884731,106.098961 75.6846676,106.698484 75.6846676,107.441465 C75.6846676,108.186586 76.2884731,108.783968 77.0271713,108.783968 C77.7701519,108.783968 78.3696751,108.186586 78.3696751,107.441465" id="Fill-766"></path>
                    <path d="M78.3696751,122.577927 C78.3696751,121.837088 77.7701519,121.235423 77.0271713,121.235423 C76.2884731,121.235423 75.6846676,121.837088 75.6846676,122.577927 C75.6846676,123.318767 76.2884731,123.920431 77.0271713,123.920431 C77.7701519,123.920431 78.3696751,123.318767 78.3696751,122.577927" id="Fill-768"></path>
                    <path d="M78.3696751,137.714604 C78.3696751,136.967341 77.7701519,136.374241 77.0271713,136.374241 C76.2884731,136.374241 75.6846676,136.967341 75.6846676,137.714604 C75.6846676,138.457584 76.2884731,139.057108 77.0271713,139.057108 C77.7701519,139.057108 78.3696751,138.457584 78.3696751,137.714604" id="Fill-770"></path>
                    <path d="M78.3696751,152.851066 C78.3696751,152.110227 77.7701519,151.50428 77.0271713,151.50428 C76.2884731,151.50428 75.6846676,152.110227 75.6846676,152.851066 C75.6846676,153.594047 76.2884731,154.19357 77.0271713,154.19357 C77.7701519,154.19357 78.3696751,153.594047 78.3696751,152.851066" id="Fill-772"></path>
                    <path d="M63.2329985,1.48151698 C63.2329985,0.74067757 62.6377576,0.141154352 61.8926359,0.141154352 C61.1496554,0.141154352 60.5501321,0.74067757 60.5501321,1.48151698 C60.5501321,2.22663869 61.1496554,2.82830306 61.8926359,2.82830306 C62.6377576,2.82830306 63.2329985,2.22663869 63.2329985,1.48151698" id="Fill-781"></path>
                    <path d="M63.2329985,16.6201206 C63.2329985,15.87714 62.6377576,15.2776168 61.8926359,15.2776168 C61.1496554,15.2776168 60.5501321,15.87714 60.5501321,16.6201206 C60.5501321,17.3588188 61.1496554,17.9669067 61.8926359,17.9669067 C62.6377576,17.9669067 63.2329985,17.3588188 63.2329985,16.6201206" id="Fill-784"></path>
                    <path d="M63.2329985,31.7544419 C63.2329985,31.0157436 62.6377576,30.4140793 61.8926359,30.4140793 C61.1496554,30.4140793 60.5501321,31.0157436 60.5501321,31.7544419 C60.5501321,32.5038459 61.1496554,33.101228 61.8926359,33.101228 C62.6377576,33.101228 63.2329985,32.5038459 63.2329985,31.7544419" id="Fill-786"></path>
                    <path d="M63.2329985,46.8932596 C63.2329985,46.1502791 62.6377576,45.5507558 61.8926359,45.5507558 C61.1496554,45.5507558 60.5501321,46.1502791 60.5501321,46.8932596 C60.5501321,47.634099 61.1496554,48.2400457 61.8926359,48.2400457 C62.6377576,48.2400457 63.2329985,47.634099 63.2329985,46.8932596" id="Fill-788"></path>
                    <path d="M63.2329985,62.0297221 C63.2329985,61.2888827 62.6377576,60.6893595 61.8926359,60.6893595 C61.1496554,60.6893595 60.5501321,61.2888827 60.5501321,62.0297221 C60.5501321,62.7769849 61.1496554,63.3765082 61.8926359,63.3765082 C62.6377576,63.3765082 63.2329985,62.7769849 63.2329985,62.0297221" id="Fill-790"></path>
                    <path d="M63.2329985,77.1661845 C63.2329985,76.4253451 62.6377576,75.8258219 61.8926359,75.8258219 C61.1496554,75.8258219 60.5501321,76.4253451 60.5501321,77.1661845 C60.5501321,77.9113063 61.1496554,78.5129706 61.8926359,78.5129706 C62.6377576,78.5129706 63.2329985,77.9113063 63.2329985,77.1661845" id="Fill-792"></path>
                    <path d="M63.2329985,92.3050023 C63.2329985,91.5641629 62.6377576,90.9624985 61.8926359,90.9624985 C61.1496554,90.9624985 60.5501321,91.5641629 60.5501321,92.3050023 C60.5501321,93.0458417 61.1496554,93.6432237 61.8926359,93.6432237 C62.6377576,93.6432237 63.2329985,93.0458417 63.2329985,92.3050023" id="Fill-794"></path>
                    <path d="M63.2329985,107.441465 C63.2329985,106.698484 62.6377576,106.098961 61.8926359,106.098961 C61.1496554,106.098961 60.5501321,106.698484 60.5501321,107.441465 C60.5501321,108.186586 61.1496554,108.783968 61.8926359,108.783968 C62.6377576,108.783968 63.2329985,108.186586 63.2329985,107.441465" id="Fill-796"></path>
                    <path d="M63.2329985,122.577927 C63.2329985,121.837088 62.6377576,121.235423 61.8926359,121.235423 C61.1496554,121.235423 60.5501321,121.837088 60.5501321,122.577927 C60.5501321,123.318767 61.1496554,123.920431 61.8926359,123.920431 C62.6377576,123.920431 63.2329985,123.318767 63.2329985,122.577927" id="Fill-798"></path>
                    <path d="M63.2329985,137.714604 C63.2329985,136.967341 62.6377576,136.374241 61.8926359,136.374241 C61.1496554,136.374241 60.5501321,136.967341 60.5501321,137.714604 C60.5501321,138.457584 61.1496554,139.057108 61.8926359,139.057108 C62.6377576,139.057108 63.2329985,138.457584 63.2329985,137.714604" id="Fill-800"></path>
                    <path d="M63.2329985,152.851066 C63.2329985,152.110227 62.6377576,151.50428 61.8926359,151.50428 C61.1496554,151.50428 60.5501321,152.110227 60.5501321,152.851066 C60.5501321,153.594047 61.1496554,154.19357 61.8926359,154.19357 C62.6377576,154.19357 63.2329985,153.594047 63.2329985,152.851066" id="Fill-802"></path>
                    <path d="M48.0965361,1.48151698 C48.0965361,0.74067757 47.4970129,0.141154352 46.7540323,0.141154352 C46.0131929,0.141154352 45.4115285,0.74067757 45.4115285,1.48151698 C45.4115285,2.22663869 46.0131929,2.82830306 46.7540323,2.82830306 C47.4970129,2.82830306 48.0965361,2.22663869 48.0965361,1.48151698" id="Fill-811"></path>
                    <path d="M48.0965361,16.6201206 C48.0965361,15.87714 47.4970129,15.2776168 46.7540323,15.2776168 C46.0131929,15.2776168 45.4115285,15.87714 45.4115285,16.6201206 C45.4115285,17.3588188 46.0131929,17.9669067 46.7540323,17.9669067 C47.4970129,17.9669067 48.0965361,17.3588188 48.0965361,16.6201206" id="Fill-814"></path>
                    <path d="M48.0965361,31.7544419 C48.0965361,31.0157436 47.4970129,30.4140793 46.7540323,30.4140793 C46.0131929,30.4140793 45.4115285,31.0157436 45.4115285,31.7544419 C45.4115285,32.5038459 46.0131929,33.101228 46.7540323,33.101228 C47.4970129,33.101228 48.0965361,32.5038459 48.0965361,31.7544419" id="Fill-816"></path>
                    <path d="M48.0965361,46.8932596 C48.0965361,46.1502791 47.4970129,45.5507558 46.7540323,45.5507558 C46.0131929,45.5507558 45.4115285,46.1502791 45.4115285,46.8932596 C45.4115285,47.634099 46.0131929,48.2400457 46.7540323,48.2400457 C47.4970129,48.2400457 48.0965361,47.634099 48.0965361,46.8932596" id="Fill-818"></path>
                    <path d="M48.0965361,62.0297221 C48.0965361,61.2888827 47.4970129,60.6893595 46.7540323,60.6893595 C46.0131929,60.6893595 45.4115285,61.2888827 45.4115285,62.0297221 C45.4115285,62.7769849 46.0131929,63.3765082 46.7540323,63.3765082 C47.4970129,63.3765082 48.0965361,62.7769849 48.0965361,62.0297221" id="Fill-820"></path>
                    <path d="M48.0965361,77.1661845 C48.0965361,76.4253451 47.4970129,75.8258219 46.7540323,75.8258219 C46.0131929,75.8258219 45.4115285,76.4253451 45.4115285,77.1661845 C45.4115285,77.9113063 46.0131929,78.5129706 46.7540323,78.5129706 C47.4970129,78.5129706 48.0965361,77.9113063 48.0965361,77.1661845" id="Fill-822"></path>
                    <path d="M48.0965361,92.3050023 C48.0965361,91.5641629 47.4970129,90.9624985 46.7540323,90.9624985 C46.0131929,90.9624985 45.4115285,91.5641629 45.4115285,92.3050023 C45.4115285,93.0458417 46.0131929,93.6432237 46.7540323,93.6432237 C47.4970129,93.6432237 48.0965361,93.0458417 48.0965361,92.3050023" id="Fill-824"></path>
                    <path d="M48.0965361,107.441465 C48.0965361,106.698484 47.4970129,106.098961 46.7540323,106.098961 C46.0131929,106.098961 45.4115285,106.698484 45.4115285,107.441465 C45.4115285,108.186586 46.0131929,108.783968 46.7540323,108.783968 C47.4970129,108.783968 48.0965361,108.186586 48.0965361,107.441465" id="Fill-826"></path>
                    <path d="M48.0965361,122.577927 C48.0965361,121.837088 47.4970129,121.235423 46.7540323,121.235423 C46.0131929,121.235423 45.4115285,121.837088 45.4115285,122.577927 C45.4115285,123.318767 46.0131929,123.920431 46.7540323,123.920431 C47.4970129,123.920431 48.0965361,123.318767 48.0965361,122.577927" id="Fill-828"></path>
                    <path d="M48.0965361,137.714604 C48.0965361,136.967341 47.4970129,136.374241 46.7540323,136.374241 C46.0131929,136.374241 45.4115285,136.967341 45.4115285,137.714604 C45.4115285,138.457584 46.0131929,139.057108 46.7540323,139.057108 C47.4970129,139.057108 48.0965361,138.457584 48.0965361,137.714604" id="Fill-830"></path>
                    <path d="M48.0965361,152.851066 C48.0965361,152.110227 47.4970129,151.50428 46.7540323,151.50428 C46.0131929,151.50428 45.4115285,152.110227 45.4115285,152.851066 C45.4115285,153.594047 46.0131929,154.19357 46.7540323,154.19357 C47.4970129,154.19357 48.0965361,153.594047 48.0965361,152.851066" id="Fill-832"></path>
                    <path d="M32.9579325,1.48151698 C32.9579325,0.74067757 32.3626916,0.141154352 31.619711,0.141154352 C30.8745893,0.141154352 30.2729249,0.74067757 30.2729249,1.48151698 C30.2729249,2.22663869 30.8745893,2.82830306 31.619711,2.82830306 C32.3626916,2.82830306 32.9579325,2.22663869 32.9579325,1.48151698" id="Fill-841"></path>
                    <path d="M32.9579325,16.6201206 C32.9579325,15.87714 32.3626916,15.2776168 31.619711,15.2776168 C30.8745893,15.2776168 30.2729249,15.87714 30.2729249,16.6201206 C30.2729249,17.3588188 30.8745893,17.9669067 31.619711,17.9669067 C32.3626916,17.9669067 32.9579325,17.3588188 32.9579325,16.6201206" id="Fill-844"></path>
                    <path d="M32.9579325,31.7544419 C32.9579325,31.0157436 32.3626916,30.4140793 31.619711,30.4140793 C30.8745893,30.4140793 30.2729249,31.0157436 30.2729249,31.7544419 C30.2729249,32.5038459 30.8745893,33.101228 31.619711,33.101228 C32.3626916,33.101228 32.9579325,32.5038459 32.9579325,31.7544419" id="Fill-846"></path>
                    <path d="M32.9579325,46.8932596 C32.9579325,46.1502791 32.3626916,45.5507558 31.619711,45.5507558 C30.8745893,45.5507558 30.2729249,46.1502791 30.2729249,46.8932596 C30.2729249,47.634099 30.8745893,48.2400457 31.619711,48.2400457 C32.3626916,48.2400457 32.9579325,47.634099 32.9579325,46.8932596" id="Fill-848"></path>
                    <path d="M32.9579325,62.0297221 C32.9579325,61.2888827 32.3626916,60.6893595 31.619711,60.6893595 C30.8745893,60.6893595 30.2729249,61.2888827 30.2729249,62.0297221 C30.2729249,62.7769849 30.8745893,63.3765082 31.619711,63.3765082 C32.3626916,63.3765082 32.9579325,62.7769849 32.9579325,62.0297221" id="Fill-850"></path>
                    <path d="M32.9579325,77.1661845 C32.9579325,76.4253451 32.3626916,75.8258219 31.619711,75.8258219 C30.8745893,75.8258219 30.2729249,76.4253451 30.2729249,77.1661845 C30.2729249,77.9113063 30.8745893,78.5129706 31.619711,78.5129706 C32.3626916,78.5129706 32.9579325,77.9113063 32.9579325,77.1661845" id="Fill-852"></path>
                    <path d="M32.9579325,92.3050023 C32.9579325,91.5641629 32.3626916,90.9624985 31.619711,90.9624985 C30.8745893,90.9624985 30.2729249,91.5641629 30.2729249,92.3050023 C30.2729249,93.0458417 30.8745893,93.6432237 31.619711,93.6432237 C32.3626916,93.6432237 32.9579325,93.0458417 32.9579325,92.3050023" id="Fill-854"></path>
                    <path d="M32.9579325,107.441465 C32.9579325,106.698484 32.3626916,106.098961 31.619711,106.098961 C30.8745893,106.098961 30.2729249,106.698484 30.2729249,107.441465 C30.2729249,108.186586 30.8745893,108.783968 31.619711,108.783968 C32.3626916,108.783968 32.9579325,108.186586 32.9579325,107.441465" id="Fill-856"></path>
                    <path d="M32.9579325,122.577927 C32.9579325,121.837088 32.3626916,121.235423 31.619711,121.235423 C30.8745893,121.235423 30.2729249,121.837088 30.2729249,122.577927 C30.2729249,123.318767 30.8745893,123.920431 31.619711,123.920431 C32.3626916,123.920431 32.9579325,123.318767 32.9579325,122.577927" id="Fill-858"></path>
                    <path d="M32.9579325,137.714604 C32.9579325,136.967341 32.3626916,136.374241 31.619711,136.374241 C30.8745893,136.374241 30.2729249,136.967341 30.2729249,137.714604 C30.2729249,138.457584 30.8745893,139.057108 31.619711,139.057108 C32.3626916,139.057108 32.9579325,138.457584 32.9579325,137.714604" id="Fill-860"></path>
                    <path d="M32.9579325,152.851066 C32.9579325,152.110227 32.3626916,151.50428 31.619711,151.50428 C30.8745893,151.50428 30.2729249,152.110227 30.2729249,152.851066 C30.2729249,153.594047 30.8745893,154.19357 31.619711,154.19357 C32.3626916,154.19357 32.9579325,153.594047 32.9579325,152.851066" id="Fill-862"></path>
                    <path d="M17.8233971,1.48151698 C17.8233971,0.74067757 17.2238738,0.141154352 16.4808933,0.141154352 C15.7400539,0.141154352 15.1383895,0.74067757 15.1383895,1.48151698 C15.1383895,2.22663869 15.7400539,2.82830306 16.4808933,2.82830306 C17.2238738,2.82830306 17.8233971,2.22663869 17.8233971,1.48151698" id="Fill-871"></path>
                    <path d="M17.8233971,16.6201206 C17.8233971,15.87714 17.2238738,15.2776168 16.4808933,15.2776168 C15.7400539,15.2776168 15.1383895,15.87714 15.1383895,16.6201206 C15.1383895,17.3588188 15.7400539,17.9669067 16.4808933,17.9669067 C17.2238738,17.9669067 17.8233971,17.3588188 17.8233971,16.6201206" id="Fill-874"></path>
                    <path d="M17.8233971,31.7544419 C17.8233971,31.0157436 17.2238738,30.4140793 16.4808933,30.4140793 C15.7400539,30.4140793 15.1383895,31.0157436 15.1383895,31.7544419 C15.1383895,32.5038459 15.7400539,33.101228 16.4808933,33.101228 C17.2238738,33.101228 17.8233971,32.5038459 17.8233971,31.7544419" id="Fill-876"></path>
                    <path d="M17.8233971,46.8932596 C17.8233971,46.1502791 17.2238738,45.5507558 16.4808933,45.5507558 C15.7400539,45.5507558 15.1383895,46.1502791 15.1383895,46.8932596 C15.1383895,47.634099 15.7400539,48.2400457 16.4808933,48.2400457 C17.2238738,48.2400457 17.8233971,47.634099 17.8233971,46.8932596" id="Fill-878"></path>
                    <path d="M17.8233971,62.0297221 C17.8233971,61.2888827 17.2238738,60.6893595 16.4808933,60.6893595 C15.7400539,60.6893595 15.1383895,61.2888827 15.1383895,62.0297221 C15.1383895,62.7769849 15.7400539,63.3765082 16.4808933,63.3765082 C17.2238738,63.3765082 17.8233971,62.7769849 17.8233971,62.0297221" id="Fill-880"></path>
                    <path d="M17.8233971,77.1661845 C17.8233971,76.4253451 17.2238738,75.8258219 16.4808933,75.8258219 C15.7400539,75.8258219 15.1383895,76.4253451 15.1383895,77.1661845 C15.1383895,77.9113063 15.7400539,78.5129706 16.4808933,78.5129706 C17.2238738,78.5129706 17.8233971,77.9113063 17.8233971,77.1661845" id="Fill-882"></path>
                    <path d="M17.8233971,92.3050023 C17.8233971,91.5641629 17.2238738,90.9624985 16.4808933,90.9624985 C15.7400539,90.9624985 15.1383895,91.5641629 15.1383895,92.3050023 C15.1383895,93.0458417 15.7400539,93.6432237 16.4808933,93.6432237 C17.2238738,93.6432237 17.8233971,93.0458417 17.8233971,92.3050023" id="Fill-884"></path>
                    <path d="M17.8233971,107.441465 C17.8233971,106.698484 17.2238738,106.098961 16.4808933,106.098961 C15.7400539,106.098961 15.1383895,106.698484 15.1383895,107.441465 C15.1383895,108.186586 15.7400539,108.783968 16.4808933,108.783968 C17.2238738,108.783968 17.8233971,108.186586 17.8233971,107.441465" id="Fill-886"></path>
                    <path d="M17.8233971,122.577927 C17.8233971,121.837088 17.2238738,121.235423 16.4808933,121.235423 C15.7400539,121.235423 15.1383895,121.837088 15.1383895,122.577927 C15.1383895,123.318767 15.7400539,123.920431 16.4808933,123.920431 C17.2238738,123.920431 17.8233971,123.318767 17.8233971,122.577927" id="Fill-888"></path>
                    <path d="M17.8233971,137.714604 C17.8233971,136.967341 17.2238738,136.374241 16.4808933,136.374241 C15.7400539,136.374241 15.1383895,136.967341 15.1383895,137.714604 C15.1383895,138.457584 15.7400539,139.057108 16.4808933,139.057108 C17.2238738,139.057108 17.8233971,138.457584 17.8233971,137.714604" id="Fill-890"></path>
                    <path d="M17.8233971,152.851066 C17.8233971,152.110227 17.2238738,151.50428 16.4808933,151.50428 C15.7400539,151.50428 15.1383895,152.110227 15.1383895,152.851066 C15.1383895,153.594047 15.7400539,154.19357 16.4808933,154.19357 C17.2238738,154.19357 17.8233971,153.594047 17.8233971,152.851066" id="Fill-892"></path>
                    <path d="M2.6869346,1.48151698 C2.6869346,0.74067757 2.08741138,0.141154352 1.34228966,0.141154352 C0.601450257,0.141154352 -0.000214115435,0.74067757 -0.000214115435,1.48151698 C-0.000214115435,2.22663869 0.601450257,2.82830306 1.34228966,2.82830306 C2.08741138,2.82830306 2.6869346,2.22663869 2.6869346,1.48151698" id="Fill-901"></path>
                    <path d="M2.6869346,16.6201206 C2.6869346,15.87714 2.08741138,15.2776168 1.34228966,15.2776168 C0.601450257,15.2776168 -0.000214115435,15.87714 -0.000214115435,16.6201206 C-0.000214115435,17.3588188 0.601450257,17.9669067 1.34228966,17.9669067 C2.08741138,17.9669067 2.6869346,17.3588188 2.6869346,16.6201206" id="Fill-904"></path>
                    <path d="M2.6869346,31.7544419 C2.6869346,31.0157436 2.08741138,30.4140793 1.34228966,30.4140793 C0.601450257,30.4140793 -0.000214115435,31.0157436 -0.000214115435,31.7544419 C-0.000214115435,32.5038459 0.601450257,33.101228 1.34228966,33.101228 C2.08741138,33.101228 2.6869346,32.5038459 2.6869346,31.7544419" id="Fill-907"></path>
                    <path d="M2.6869346,46.8932596 C2.6869346,46.1502791 2.08741138,45.5507558 1.34228966,45.5507558 C0.601450257,45.5507558 -0.000214115435,46.1502791 -0.000214115435,46.8932596 C-0.000214115435,47.634099 0.601450257,48.2400457 1.34228966,48.2400457 C2.08741138,48.2400457 2.6869346,47.634099 2.6869346,46.8932596" id="Fill-910"></path>
                    <path d="M2.6869346,62.0297221 C2.6869346,61.2888827 2.08741138,60.6893595 1.34228966,60.6893595 C0.601450257,60.6893595 -0.000214115435,61.2888827 -0.000214115435,62.0297221 C-0.000214115435,62.7769849 0.601450257,63.3765082 1.34228966,63.3765082 C2.08741138,63.3765082 2.6869346,62.7769849 2.6869346,62.0297221" id="Fill-913"></path>
                    <path d="M2.6869346,77.1661845 C2.6869346,76.4253451 2.08741138,75.8258219 1.34228966,75.8258219 C0.601450257,75.8258219 -0.000214115435,76.4253451 -0.000214115435,77.1661845 C-0.000214115435,77.9113063 0.601450257,78.5129706 1.34228966,78.5129706 C2.08741138,78.5129706 2.6869346,77.9113063 2.6869346,77.1661845" id="Fill-916"></path>
                    <path d="M2.6869346,92.3050023 C2.6869346,91.5641629 2.08741138,90.9624985 1.34228966,90.9624985 C0.601450257,90.9624985 -0.000214115435,91.5641629 -0.000214115435,92.3050023 C-0.000214115435,93.0458417 0.601450257,93.6432237 1.34228966,93.6432237 C2.08741138,93.6432237 2.6869346,93.0458417 2.6869346,92.3050023" id="Fill-919"></path>
                    <path d="M2.6869346,107.441465 C2.6869346,106.698484 2.08741138,106.098961 1.34228966,106.098961 C0.601450257,106.098961 -0.000214115435,106.698484 -0.000214115435,107.441465 C-0.000214115435,108.186586 0.601450257,108.783968 1.34228966,108.783968 C2.08741138,108.783968 2.6869346,108.186586 2.6869346,107.441465" id="Fill-922"></path>
                    <path d="M2.6869346,122.577927 C2.6869346,121.837088 2.08741138,121.235423 1.34228966,121.235423 C0.601450257,121.235423 -0.000214115435,121.837088 -0.000214115435,122.577927 C-0.000214115435,123.318767 0.601450257,123.920431 1.34228966,123.920431 C2.08741138,123.920431 2.6869346,123.318767 2.6869346,122.577927" id="Fill-925"></path>
                    <path d="M2.6869346,137.714604 C2.6869346,136.967341 2.08741138,136.374241 1.34228966,136.374241 C0.601450257,136.374241 -0.000214115435,136.967341 -0.000214115435,137.714604 C-0.000214115435,138.457584 0.601450257,139.057108 1.34228966,139.057108 C2.08741138,139.057108 2.6869346,138.457584 2.6869346,137.714604" id="Fill-928"></path>
                    <path d="M2.6869346,152.851066 C2.6869346,152.110227 2.08741138,151.50428 1.34228966,151.50428 C0.601450257,151.50428 -0.000214115435,152.110227 -0.000214115435,152.851066 C-0.000214115435,153.594047 0.601450257,154.19357 1.34228966,154.19357 C2.08741138,154.19357 2.6869346,153.594047 2.6869346,152.851066" id="Fill-931"></path>
                </g>
            </g>
        </g>
    </g>
</svg>