<svg width="230" height="155" viewBox="0 0 230 155" xmlns="http://www.w3.org/2000/svg">
  <title>
    dot pattern2
  </title>
  <path d="M229.737 1.4815c0-.7408-.5973-1.3403-1.3424-1.3403-.743 0-1.3425.5995-1.3425 1.3403 0 .745.6 1.3468 1.343 1.3468.745 0 1.343-.6017 1.343-1.3468m-.001 15.1385c0-.743-.597-1.3424-1.342-1.3424-.743 0-1.342.5995-1.342 1.3425 0 .739.6 1.347 1.343 1.347.745 0 1.343-.608 1.343-1.347m0 15.135c0-.738-.597-1.34-1.342-1.34-.743 0-1.342.602-1.342 1.341 0 .75.6 1.347 1.343 1.347.745 0 1.343-.597 1.343-1.346m0 15.139c0-.743-.597-1.342-1.342-1.342-.743 0-1.342.6-1.342 1.343 0 .741.6 1.347 1.343 1.347.745 0 1.343-.606 1.343-1.346m0 15.136c0-.741-.597-1.34-1.342-1.34-.743 0-1.342.6-1.342 1.34 0 .747.6 1.347 1.343 1.347.745 0 1.343-.599 1.343-1.347m.002 15.137c0-.741-.599-1.34-1.345-1.34-.743 0-1.342.6-1.342 1.341 0 .745.6 1.347 1.343 1.347.745 0 1.345-.602 1.345-1.347m0 15.139c0-.741-.599-1.342-1.344-1.342-.743 0-1.343.602-1.343 1.343s.6 1.339 1.343 1.339c.745 0 1.345-.597 1.345-1.338m0 15.137c0-.743-.599-1.342-1.344-1.342-.743 0-1.343.6-1.343 1.343 0 .745.6 1.343 1.343 1.343.745 0 1.345-.597 1.345-1.342m0 15.137c0-.741-.599-1.342-1.344-1.342-.743 0-1.342.602-1.342 1.343s.6 1.343 1.343 1.343c.745 0 1.345-.602 1.345-1.342m0 15.137c0-.747-.599-1.34-1.344-1.34-.743 0-1.343.593-1.343 1.341 0 .743.6 1.343 1.343 1.343.745 0 1.345-.6 1.345-1.343m0 15.136c0-.741-.599-1.347-1.345-1.347-.743 0-1.343.606-1.343 1.347 0 .743.6 1.343 1.343 1.343.745 0 1.345-.6 1.345-1.343M214.601 1.481c0-.7408-.6016-1.3403-1.3425-1.3403-.7405 0-1.3443.5992-1.3443 1.34 0 .745.6037 1.347 1.3445 1.347.741 0 1.3425-.602 1.3425-1.347m-.0002 15.1385c0-.743-.6016-1.3424-1.3425-1.3424-.7406 0-1.3444.5996-1.3444 1.3426 0 .739.604 1.347 1.345 1.347s1.343-.608 1.343-1.347m0 15.1345c0-.739-.601-1.341-1.342-1.341-.74 0-1.344.601-1.344 1.34 0 .749.604 1.347 1.345 1.347s1.343-.598 1.343-1.347m0 15.139c0-.743-.601-1.343-1.342-1.343-.74 0-1.344.599-1.344 1.342 0 .74.604 1.346 1.345 1.346s1.343-.606 1.343-1.347m-.001 15.136c0-.741-.601-1.341-1.342-1.341-.74 0-1.344.599-1.344 1.34 0 .747.604 1.346 1.345 1.346s1.343-.6 1.343-1.347m.002 15.136c0-.741-.603-1.34-1.342-1.34s-1.346.599-1.346 1.34c0 .745.608 1.347 1.347 1.347s1.343-.602 1.343-1.347m0 15.139c0-.741-.603-1.343-1.342-1.343s-1.347.601-1.347 1.342.608 1.338 1.347 1.338 1.343-.597 1.343-1.338m0 15.136c0-.743-.604-1.343-1.342-1.343s-1.347.599-1.347 1.342c0 .745.608 1.343 1.347 1.343s1.343-.598 1.343-1.343m0 15.136c0-.741-.604-1.343-1.342-1.343s-1.347.602-1.347 1.343.608 1.342 1.347 1.342 1.342-.601 1.342-1.342m0 15.137c0-.747-.604-1.341-1.343-1.341s-1.347.593-1.347 1.34c0 .743.608 1.342 1.347 1.342s1.343-.599 1.343-1.342m0 15.136c0-.741-.604-1.347-1.342-1.347s-1.347.606-1.347 1.347c0 .743.608 1.343 1.346 1.343s1.343-.6 1.343-1.343M199.464 1.478c0-.7408-.597-1.3403-1.34-1.3403-.743 0-1.3424.5996-1.3424 1.34 0 .745.5995 1.347 1.3425 1.347s1.341-.602 1.341-1.347m0 15.1385c0-.743-.597-1.3422-1.34-1.3422-.743 0-1.342.5997-1.342 1.3427 0 .739.6 1.347 1.343 1.347s1.341-.608 1.341-1.347m0 15.1346c0-.7385-.597-1.34-1.34-1.34-.743 0-1.342.6017-1.342 1.3404 0 .7494.6 1.3468 1.343 1.3468s1.341-.597 1.341-1.3463m0 15.139c0-.743-.597-1.3427-1.34-1.3427-.743 0-1.342.5995-1.342 1.3425 0 .741.6 1.3468 1.343 1.3468s1.341-.606 1.341-1.3464m0 15.137c0-.741-.598-1.341-1.34-1.341-.743 0-1.343.6-1.343 1.3407 0 .747.599 1.347 1.342 1.347s1.34-.599 1.34-1.347m.004 15.137c0-.741-.601-1.34-1.342-1.34-.741 0-1.345.6-1.345 1.341 0 .745.604 1.347 1.344 1.347.741 0 1.343-.601 1.343-1.346m0 15.139c0-.74-.602-1.342-1.342-1.342-.741 0-1.344.601-1.344 1.342s.604 1.338 1.345 1.338 1.343-.597 1.343-1.338m0 15.137c0-.743-.601-1.342-1.342-1.342-.741 0-1.345.6-1.345 1.343 0 .745.604 1.343 1.345 1.343s1.343-.597 1.343-1.342m0 15.136c0-.741-.601-1.343-1.342-1.343-.741 0-1.345.602-1.345 1.343s.603 1.343 1.344 1.343c.741 0 1.343-.601 1.343-1.342m0 15.137c0-.747-.601-1.34-1.342-1.34-.741 0-1.345.593-1.345 1.341 0 .743.604 1.343 1.345 1.343s1.343-.599 1.343-1.342m0 15.137c0-.74-.602-1.346-1.343-1.346s-1.344.606-1.344 1.347c0 .743.604 1.343 1.345 1.343.74 0 1.342-.599 1.342-1.342M184.329 1.48c0-.741-.5975-1.3404-1.3426-1.3404-.745 0-1.3446.5995-1.3446 1.3403 0 .745.5997 1.346 1.3448 1.346.745 0 1.3426-.602 1.3426-1.347m0 15.138c0-.743-.5973-1.343-1.3424-1.343-.745 0-1.3446.599-1.3446 1.342 0 .739.5997 1.347 1.345 1.347.745 0 1.3423-.608 1.3423-1.347m0 15.135c0-.739-.5972-1.341-1.3423-1.341-.745 0-1.3448.601-1.3448 1.34 0 .749.5996 1.347 1.3447 1.347.745 0 1.343-.598 1.343-1.347m0 15.139c0-.743-.597-1.343-1.342-1.343-.745 0-1.344.6-1.344 1.343 0 .741.6 1.346 1.345 1.346s1.343-.606 1.343-1.347m0 15.136c0-.741-.597-1.341-1.342-1.341-.745 0-1.345.599-1.345 1.34 0 .747.6 1.347 1.345 1.347s1.343-.599 1.343-1.347m.002 15.136c0-.741-.599-1.341-1.342-1.341-.747 0-1.346.6-1.346 1.341 0 .745.6 1.347 1.347 1.347.743 0 1.343-.601 1.343-1.347m0 15.139c0-.741-.599-1.342-1.342-1.342-.747 0-1.346.602-1.346 1.342s.599 1.338 1.347 1.338c.743 0 1.342-.598 1.342-1.338m0 15.136c0-.743-.599-1.342-1.342-1.342-.747 0-1.346.599-1.346 1.342 0 .745.6 1.343 1.347 1.343.743 0 1.343-.598 1.343-1.343m0 15.136c0-.741-.599-1.343-1.342-1.343-.747 0-1.347.602-1.347 1.343s.6 1.342 1.347 1.342c.743 0 1.343-.602 1.343-1.343m0 15.136c0-.748-.599-1.341-1.342-1.341-.747 0-1.347.593-1.347 1.34 0 .743.599 1.342 1.346 1.342.743 0 1.343-.5996 1.343-1.3426m0 15.136c0-.741-.599-1.3464-1.342-1.3464-.747 0-1.347.606-1.347 1.347 0 .743.6 1.3426 1.347 1.3426.743 0 1.343-.599 1.343-1.342M169.189 1.482c0-.741-.5975-1.3406-1.3405-1.3406s-1.3446.5995-1.3446 1.3403c0 .745.601 1.3468 1.344 1.3468s1.34-.6017 1.34-1.3468m0 15.1385c0-.743-.598-1.3424-1.341-1.3424s-1.345.5995-1.345 1.3425c0 .739.601 1.347 1.344 1.347s1.34-.608 1.34-1.347m0 15.135c0-.7387-.598-1.3403-1.341-1.3403s-1.345.6018-1.345 1.3405c0 .7494.601 1.3468 1.344 1.3468s1.34-.5974 1.34-1.3468m0 15.1386c0-.743-.598-1.342-1.341-1.342s-1.345.6-1.345 1.343c0 .741.601 1.347 1.344 1.347s1.34-.606 1.34-1.346m0 15.137c0-.741-.597-1.34-1.34-1.34s-1.344.6-1.344 1.341c0 .747.601 1.347 1.344 1.347s1.34-.599 1.34-1.347m0 15.137c0-.741-.597-1.34-1.338-1.34-.743 0-1.347.6-1.347 1.34 0 .745.603 1.347 1.346 1.347.74 0 1.338-.601 1.338-1.346m0 15.139c0-.74-.597-1.342-1.338-1.342-.743 0-1.347.602-1.347 1.343s.603 1.339 1.346 1.339c.741 0 1.338-.597 1.338-1.338m0 15.137c0-.743-.598-1.342-1.339-1.342-.743 0-1.347.6-1.347 1.343 0 .745.604 1.343 1.347 1.343.741 0 1.338-.597 1.338-1.342m0 15.137c0-.741-.597-1.342-1.338-1.342-.743 0-1.347.602-1.347 1.343s.604 1.342 1.347 1.342c.741 0 1.338-.602 1.338-1.342m0 15.136c0-.747-.598-1.34-1.338-1.34-.743 0-1.347.593-1.347 1.34 0 .743.603 1.342 1.346 1.342.741 0 1.338-.599 1.338-1.342m0 15.137c0-.741-.598-1.347-1.339-1.347-.743 0-1.347.606-1.347 1.346 0 .743.603 1.343 1.346 1.343.741 0 1.338-.599 1.338-1.342M154.053 1.482c0-.741-.5973-1.3404-1.3467-1.3404-.741 0-1.3404.5993-1.3404 1.34 0 .745.599 1.347 1.34 1.347.749 0 1.346-.6018 1.346-1.347m0 15.1386c0-.743-.598-1.3424-1.347-1.3424-.741 0-1.341.5995-1.341 1.3425 0 .739.599 1.347 1.34 1.347.749 0 1.347-.608 1.347-1.347m0 15.1345c0-.7387-.598-1.3403-1.347-1.3403-.741 0-1.341.6017-1.341 1.3404 0 .749.599 1.346 1.34 1.346.749 0 1.347-.598 1.347-1.347m0 15.138c0-.743-.598-1.343-1.347-1.343-.741 0-1.341.599-1.341 1.342 0 .741.599 1.346 1.34 1.346.749 0 1.347-.606 1.347-1.347m0 15.136c0-.741-.598-1.341-1.347-1.341-.741 0-1.341.599-1.341 1.34 0 .747.599 1.346 1.34 1.346.749 0 1.346-.6 1.346-1.347m0 15.136c0-.741-.597-1.341-1.34-1.341-.747 0-1.347.599-1.347 1.34 0 .745.599 1.346 1.347 1.346.743 0 1.34-.601 1.34-1.347m0 15.139c0-.741-.598-1.343-1.341-1.343-.748 0-1.347.602-1.347 1.343s.599 1.338 1.347 1.338c.743 0 1.34-.598 1.34-1.339m0 15.136c0-.743-.598-1.342-1.341-1.342-.748 0-1.347.6-1.347 1.343 0 .745.599 1.342 1.347 1.342.743 0 1.34-.597 1.34-1.342m0 15.136c0-.741-.598-1.343-1.341-1.343-.747 0-1.347.601-1.347 1.342s.599 1.343 1.347 1.343c.743 0 1.34-.602 1.34-1.343m0 15.137c0-.748-.597-1.341-1.34-1.341-.747 0-1.347.593-1.347 1.34 0 .743.599 1.342 1.347 1.342.743 0 1.34-.6 1.34-1.343m0 15.136c0-.741-.598-1.347-1.341-1.347-.747 0-1.347.606-1.347 1.3464 0 .743.6 1.343 1.347 1.343.743 0 1.34-.599 1.34-1.342M138.915 1.481c0-.741-.5973-1.3404-1.3425-1.3404-.7408 0-1.3425.5995-1.3425 1.3403 0 .745.6017 1.346 1.3425 1.346.7452 0 1.3425-.602 1.3425-1.347m0 15.138c0-.743-.5973-1.343-1.3425-1.343-.7408 0-1.3425.599-1.3425 1.342 0 .739.6017 1.347 1.3425 1.347.7452 0 1.3425-.608 1.3425-1.347m0 15.134c0-.739-.5973-1.34-1.3425-1.34-.7408 0-1.3425.601-1.3425 1.34 0 .749.6017 1.346 1.3425 1.346.7452 0 1.3425-.598 1.3425-1.347m0 15.139c0-.743-.5973-1.343-1.3425-1.343-.7408 0-1.3425.599-1.3425 1.342 0 .741.6017 1.346 1.3425 1.346.7452 0 1.3425-.606 1.3425-1.347m0 15.136c0-.741-.5973-1.341-1.3425-1.341-.7408 0-1.3425.599-1.3425 1.34 0 .747.6017 1.347 1.3425 1.347.7452 0 1.3425-.6 1.3425-1.347m0 15.136c0-.741-.5973-1.341-1.3382-1.341-.743 0-1.3467.599-1.3467 1.34 0 .745.604 1.347 1.347 1.347.741 0 1.339-.602 1.339-1.347m0 15.139c0-.741-.597-1.343-1.338-1.343-.743 0-1.346.602-1.346 1.343s.604 1.338 1.347 1.338c.741 0 1.339-.598 1.339-1.339m0 15.137c0-.743-.597-1.343-1.338-1.343-.743 0-1.346.599-1.346 1.342 0 .745.604 1.342 1.347 1.342.741 0 1.338-.597 1.338-1.342m0 15.136c0-.741-.597-1.343-1.338-1.343-.743 0-1.347.602-1.347 1.342s.604 1.342 1.347 1.342c.741 0 1.339-.601 1.339-1.342m0 15.136c0-.747-.597-1.34-1.338-1.34-.743 0-1.347.593-1.347 1.34 0 .743.604 1.343 1.347 1.343.741 0 1.338-.599 1.338-1.342m0 15.137c0-.741-.597-1.347-1.338-1.347-.743 0-1.346.606-1.346 1.347 0 .743.604 1.343 1.347 1.343.741 0 1.338-.6 1.338-1.343M123.782 1.48c0-.7408-.6018-1.3403-1.347-1.3403-.7386 0-1.3402.5995-1.3402 1.3403 0 .745.602 1.3468 1.3406 1.3468.745 0 1.3468-.6017 1.3468-1.3468m0 15.1385c0-.743-.6017-1.3423-1.347-1.3423-.7385 0-1.34.5995-1.34 1.3425 0 .739.6017 1.347 1.3404 1.347.745 0 1.3468-.608 1.3468-1.347m0 15.1345c0-.7387-.6018-1.3403-1.347-1.3403-.7386 0-1.3402.601-1.3402 1.34 0 .749.6018 1.346 1.3405 1.346.745 0 1.3468-.598 1.3468-1.347m0 15.138c0-.743-.6018-1.343-1.347-1.343-.7386 0-1.3402.599-1.3402 1.342 0 .741.602 1.347 1.3406 1.347.745 0 1.346-.606 1.346-1.347m0 15.136c0-.741-.602-1.341-1.347-1.341-.739 0-1.34.599-1.34 1.34 0 .747.602 1.346 1.34 1.346.745 0 1.346-.6 1.346-1.347m0 15.136c0-.741-.602-1.341-1.343-1.341s-1.345.599-1.345 1.34c0 .745.604 1.347 1.345 1.347s1.342-.602 1.342-1.347m0 15.138c0-.741-.602-1.342-1.343-1.342s-1.345.601-1.345 1.342.604 1.338 1.345 1.338 1.342-.598 1.342-1.338m0 15.136c0-.743-.602-1.343-1.343-1.343s-1.345.599-1.345 1.342c0 .745.604 1.342 1.344 1.342s1.342-.598 1.342-1.343m0 15.136c0-.741-.602-1.343-1.343-1.343s-1.345.601-1.345 1.342.604 1.342 1.345 1.342 1.342-.601 1.342-1.342m0 15.137c0-.747-.602-1.34-1.343-1.34s-1.345.593-1.345 1.34c0 .743.604 1.342 1.345 1.342s1.342-.6 1.342-1.343m0 15.136c0-.741-.602-1.347-1.343-1.347s-1.345.606-1.345 1.347c0 .743.604 1.342 1.345 1.342s1.342-.6 1.342-1.343M108.643 1.48c0-.7407-.5993-1.3402-1.3423-1.3402-.74 0-1.346.5995-1.346 1.3403 0 .745.606 1.347 1.347 1.347.743 0 1.343-.601 1.343-1.346m0 15.139c0-.743-.599-1.342-1.342-1.342-.741 0-1.347.6-1.347 1.343 0 .739.606 1.347 1.346 1.347.743 0 1.342-.608 1.342-1.347m0 15.135c0-.739-.6-1.34-1.343-1.34-.741 0-1.347.602-1.347 1.341 0 .75.606 1.347 1.346 1.347.743 0 1.343-.597 1.343-1.347m0 15.139c0-.743-.6-1.342-1.343-1.342-.74 0-1.346.6-1.346 1.343 0 .741.606 1.347 1.347 1.347.743 0 1.343-.606 1.343-1.347m0 15.138c0-.741-.6-1.34-1.343-1.34-.74 0-1.346.599-1.346 1.34 0 .747.606 1.347 1.3464 1.347.743 0 1.343-.6 1.343-1.347m0 15.136c0-.741-.599-1.34-1.342-1.34-.738 0-1.346.599-1.346 1.34 0 .745.608 1.347 1.347 1.347.743 0 1.343-.601 1.343-1.346m-.001 15.139c0-.74-.599-1.342-1.342-1.342-.738 0-1.346.602-1.346 1.343s.608 1.338 1.347 1.338c.743 0 1.343-.597 1.343-1.338m0 15.137c0-.743-.6-1.342-1.343-1.342-.739 0-1.347.6-1.347 1.343 0 .745.608 1.343 1.347 1.343.743 0 1.343-.597 1.343-1.342m0 15.136c0-.741-.599-1.342-1.342-1.342-.738 0-1.346.601-1.346 1.342s.608 1.342 1.347 1.342c.743 0 1.342-.601 1.342-1.342m0 15.137c0-.748-.599-1.341-1.342-1.341-.739 0-1.347.593-1.347 1.34 0 .743.608 1.343 1.347 1.343.743 0 1.343-.599 1.343-1.342m0 15.136c0-.741-.599-1.347-1.342-1.347-.739 0-1.347.606-1.347 1.347 0 .743.608 1.343 1.347 1.343.743 0 1.343-.599 1.343-1.342M93.508 1.481c0-.7407-.6038-1.3402-1.3468-1.3402-.7408 0-1.3425.5997-1.3425 1.3405 0 .745.6015 1.3468 1.3423 1.3468.743 0 1.3468-.601 1.3468-1.346m0 15.139c0-.743-.6037-1.342-1.3467-1.342-.74 0-1.342.6-1.342 1.343 0 .739.601 1.347 1.342 1.347.743 0 1.347-.608 1.347-1.347m0 15.135c0-.738-.604-1.34-1.347-1.34-.74 0-1.342.602-1.342 1.341 0 .75.602 1.347 1.343 1.347.743 0 1.347-.597 1.347-1.347m0 15.139c0-.743-.604-1.342-1.347-1.342-.74 0-1.342.599-1.342 1.342 0 .741.602 1.346 1.343 1.346.743 0 1.347-.606 1.347-1.347m0 15.137c0-.741-.604-1.34-1.347-1.34-.741 0-1.342.6-1.342 1.34 0 .747.602 1.347 1.343 1.347.743 0 1.347-.599 1.347-1.347m0 15.137c0-.741-.602-1.34-1.342-1.34-.741 0-1.342.6-1.342 1.34 0 .745.602 1.347 1.343 1.347s1.342-.601 1.342-1.346m0 15.139c0-.741-.602-1.343-1.342-1.343-.741 0-1.342.602-1.342 1.342s.602 1.338 1.343 1.338 1.343-.597 1.343-1.338m0 15.137c0-.743-.602-1.342-1.343-1.342s-1.342.599-1.342 1.342c0 .745.602 1.343 1.342 1.343.741 0 1.343-.597 1.343-1.342m0 15.137c0-.741-.602-1.342-1.343-1.342s-1.343.602-1.343 1.343.602 1.342 1.343 1.342 1.343-.601 1.343-1.342m0 15.137c0-.747-.601-1.34-1.342-1.34-.741 0-1.343.593-1.343 1.34 0 .743.602 1.342 1.343 1.342s1.343-.599 1.343-1.342m0 15.136c0-.741-.601-1.346-1.342-1.346-.741 0-1.342.606-1.342 1.347 0 .743.602 1.342 1.343 1.342s1.342-.599 1.342-1.342M78.369 1.482c0-.741-.5992-1.3405-1.3422-1.3405-.739 0-1.3424.5995-1.3424 1.3403 0 .745.6038 1.3468 1.3425 1.3468.743 0 1.343-.6017 1.343-1.3468m0 15.1385c0-.743-.6-1.3423-1.343-1.3423-.738 0-1.342.5995-1.342 1.3425 0 .739.604 1.347 1.342 1.347.743 0 1.343-.608 1.343-1.347m0 15.135c0-.738-.6-1.34-1.343-1.34-.739 0-1.343.602-1.343 1.341 0 .7497.603 1.347 1.342 1.347.743 0 1.343-.5972 1.343-1.3466m0 15.138c0-.743-.599-1.343-1.342-1.343-.738 0-1.342.599-1.342 1.342 0 .741.604 1.347 1.342 1.347.743 0 1.343-.606 1.343-1.347m0 15.136c0-.741-.599-1.341-1.342-1.341-.739 0-1.343.599-1.343 1.34 0 .747.604 1.347 1.343 1.347.743 0 1.343-.6 1.343-1.347m0 15.136c0-.741-.6-1.341-1.343-1.341-.739 0-1.342.599-1.342 1.34 0 .745.604 1.347 1.343 1.347.743 0 1.343-.602 1.343-1.347m0 15.139c0-.741-.6-1.343-1.343-1.343-.739 0-1.343.601-1.343 1.342s.604 1.338 1.342 1.338c.743 0 1.342-.597 1.342-1.338m0 15.136c0-.743-.6-1.342-1.343-1.342-.739 0-1.342.599-1.342 1.342 0 .745.604 1.342 1.342 1.342.743 0 1.342-.598 1.342-1.343m0 15.136c0-.741-.599-1.343-1.342-1.343-.739 0-1.343.602-1.343 1.343s.604 1.342 1.343 1.342c.743 0 1.343-.602 1.343-1.343m0 15.137c0-.747-.6-1.341-1.343-1.341-.739 0-1.343.593-1.343 1.34 0 .743.603 1.343 1.342 1.343.743 0 1.343-.6 1.343-1.343m0 15.136c0-.741-.6-1.347-1.343-1.347-.738 0-1.342.606-1.342 1.346 0 .743.604 1.343 1.343 1.343.743 0 1.343-.6 1.343-1.343M63.233 1.481c0-.741-.5952-1.34-1.3404-1.34-.743 0-1.3425.6-1.3425 1.34 0 .745.6 1.347 1.343 1.347.745 0 1.341-.601 1.341-1.347m0 15.139c0-.743-.595-1.342-1.34-1.342-.743 0-1.342.5997-1.342 1.3427 0 .739.6 1.347 1.343 1.347.746 0 1.341-.608 1.341-1.347m0 15.1346c0-.7386-.595-1.3402-1.34-1.3402-.743 0-1.342.602-1.342 1.341 0 .75.6 1.347 1.343 1.347.745 0 1.341-.597 1.341-1.347m0 15.138c0-.743-.595-1.343-1.34-1.343-.743 0-1.342.599-1.342 1.342 0 .741.6 1.347 1.343 1.347.745 0 1.341-.606 1.341-1.346m0 15.137c0-.741-.595-1.34-1.34-1.34-.743 0-1.342.599-1.342 1.34 0 .747.6 1.347 1.343 1.347.745 0 1.34-.599 1.34-1.347m0 15.136c0-.741-.595-1.34-1.34-1.34-.743 0-1.343.599-1.343 1.34 0 .745.6 1.347 1.343 1.347.745 0 1.341-.601 1.341-1.347m0 15.139c0-.74-.595-1.342-1.34-1.342-.743 0-1.343.602-1.343 1.342s.6 1.338 1.343 1.338c.746 0 1.341-.597 1.341-1.338m0 15.137c0-.743-.595-1.342-1.34-1.342-.743 0-1.343.6-1.343 1.343 0 .745.6 1.343 1.343 1.343.745 0 1.34-.597 1.34-1.342m0 15.136c0-.741-.595-1.342-1.34-1.342-.743 0-1.342.602-1.342 1.343s.6 1.343 1.343 1.343c.745 0 1.341-.602 1.341-1.343m0 15.137c0-.747-.595-1.34-1.34-1.34-.743 0-1.342.593-1.342 1.341 0 .743.6 1.343 1.343 1.343.745 0 1.34-.599 1.34-1.342m0 15.137c0-.741-.595-1.347-1.341-1.347-.743 0-1.343.606-1.343 1.347 0 .743.6 1.343 1.343 1.343.745 0 1.34-.599 1.34-1.342M48.097 1.482c0-.741-.5996-1.3404-1.3426-1.3404-.7405 0-1.342.5996-1.342 1.3404 0 .745.6015 1.3467 1.3423 1.3467.743 0 1.3425-.6017 1.3425-1.347m0 15.1385c0-.743-.5997-1.343-1.3427-1.343-.741 0-1.3426.599-1.3426 1.342 0 .739.601 1.347 1.342 1.347.743 0 1.342-.608 1.342-1.347m0 15.134c0-.7386-.6-1.3402-1.343-1.3402-.741 0-1.343.602-1.343 1.3406 0 .749.602 1.3464 1.343 1.3464.743 0 1.343-.5972 1.343-1.347m0 15.139c0-.743-.6-1.3427-1.343-1.3427-.741 0-1.343.6-1.343 1.343 0 .741.602 1.347 1.342 1.347.743 0 1.342-.606 1.342-1.347m0 15.1363c0-.741-.599-1.3403-1.342-1.3403-.741 0-1.343.5998-1.343 1.3406 0 .747.601 1.347 1.342 1.347.743 0 1.342-.6 1.342-1.347m0 15.136c0-.741-.6-1.341-1.343-1.341-.74 0-1.342.599-1.342 1.34 0 .745.602 1.347 1.342 1.347.743 0 1.343-.602 1.343-1.347m0 15.139c0-.741-.6-1.343-1.343-1.343-.741 0-1.343.601-1.343 1.342s.601 1.338 1.342 1.338c.743 0 1.342-.598 1.342-1.338m0 15.136c0-.743-.6-1.343-1.343-1.343-.741 0-1.342.599-1.342 1.342 0 .745.602 1.342 1.343 1.342.743 0 1.343-.597 1.343-1.342m0 15.136c0-.741-.599-1.343-1.342-1.343-.741 0-1.343.602-1.343 1.342s.601 1.342 1.342 1.342c.743 0 1.342-.602 1.342-1.343m0 15.137c0-.747-.599-1.341-1.342-1.341-.741 0-1.343.593-1.343 1.341 0 .743.601 1.342 1.342 1.342.743 0 1.342-.599 1.342-1.342m0 15.136c0-.741-.6-1.347-1.343-1.347-.74 0-1.342.606-1.342 1.347 0 .743.602 1.342 1.342 1.342.743 0 1.342-.6 1.342-1.343M32.958 1.481c0-.741-.5953-1.34-1.3383-1.34-.745 0-1.3468.6-1.3468 1.341 0 .745.601 1.347 1.346 1.347.743 0 1.338-.6014 1.338-1.347m.001 15.139c0-.743-.596-1.342-1.339-1.342-.745 0-1.347.599-1.347 1.342 0 .739.601 1.347 1.346 1.347.743 0 1.338-.608 1.338-1.347m0 15.135c0-.738-.596-1.34-1.339-1.34-.745 0-1.347.602-1.347 1.3408 0 .75.601 1.347 1.346 1.347.743 0 1.338-.597 1.338-1.347m0 15.138c0-.743-.596-1.342-1.339-1.342-.745 0-1.347.6-1.347 1.343 0 .741.601 1.347 1.346 1.347.743 0 1.338-.606 1.338-1.347m0 15.1367c0-.741-.596-1.3405-1.339-1.3405-.745 0-1.347.5995-1.347 1.34 0 .747.601 1.3468 1.346 1.3468.743 0 1.338-.5995 1.338-1.347m0 15.1364c0-.741-.596-1.3405-1.339-1.3405-.745 0-1.347.5994-1.347 1.34 0 .745.601 1.347 1.347 1.347.743 0 1.338-.601 1.338-1.3465m0 15.139c0-.7406-.595-1.3423-1.338-1.3423-.745 0-1.347.601-1.347 1.342s.601 1.339 1.347 1.339c.743 0 1.338-.597 1.338-1.338m0 15.137c0-.743-.596-1.343-1.339-1.343-.745 0-1.347.599-1.347 1.342 0 .745.601 1.342 1.346 1.342.743 0 1.338-.597 1.338-1.342m0 15.137c0-.741-.595-1.343-1.338-1.343-.745 0-1.347.602-1.347 1.343s.601 1.342 1.346 1.342c.743 0 1.338-.602 1.338-1.343m0 15.137c0-.748-.596-1.341-1.339-1.341-.745 0-1.347.593-1.347 1.34 0 .743.601 1.342 1.347 1.342.743 0 1.338-.599 1.338-1.342m0 15.136c0-.741-.595-1.347-1.338-1.347-.745 0-1.347.606-1.347 1.346 0 .743.601 1.342 1.346 1.342.743 0 1.338-.6 1.338-1.342M17.823 1.481c0-.741-.6-1.34-1.343-1.34-.741 0-1.343.599-1.343 1.34 0 .745.601 1.347 1.342 1.347.743 0 1.342-.602 1.342-1.347m.001 15.1384c0-.743-.5992-1.3425-1.3422-1.3425-.741 0-1.342.6-1.342 1.343 0 .739.602 1.347 1.343 1.347.743 0 1.343-.608 1.343-1.347m0 15.135c0-.738-.6-1.34-1.343-1.34-.741 0-1.343.602-1.343 1.341 0 .75.602 1.347 1.342 1.347.743 0 1.343-.597 1.343-1.346m0 15.139c0-.743-.599-1.342-1.342-1.342-.741 0-1.3422.6-1.3422 1.343 0 .741.601 1.347 1.342 1.347.743 0 1.342-.606 1.342-1.346m.001 15.136c0-.741-.6-1.34-1.343-1.34-.741 0-1.3423.6-1.3423 1.341 0 .747.602 1.346 1.3427 1.346.743 0 1.342-.6 1.342-1.347m0 15.136c0-.741-.6-1.34-1.343-1.34-.741 0-1.343.599-1.343 1.34 0 .745.6017 1.347 1.3425 1.347.743 0 1.342-.602 1.342-1.347m0 15.139c0-.741-.5997-1.343-1.3427-1.343-.741 0-1.343.602-1.343 1.343s.602 1.338 1.343 1.338c.743 0 1.342-.598 1.342-1.338m0 15.136c0-.743-.5996-1.343-1.3426-1.343-.741 0-1.343.599-1.343 1.342 0 .745.602 1.343 1.342 1.343.743 0 1.3425-.597 1.3425-1.342m0 15.136c0-.741-.6-1.342-1.343-1.342-.741 0-1.3427.602-1.3427 1.342s.6013 1.342 1.342 1.342c.743 0 1.3425-.602 1.3425-1.343m0 15.137c0-.748-.599-1.341-1.342-1.341-.741 0-1.343.593-1.343 1.341 0 .743.602 1.342 1.343 1.342.743 0 1.3426-.6 1.3426-1.343m0 15.1362c0-.741-.599-1.347-1.342-1.347-.741 0-1.343.606-1.343 1.347 0 .743.602 1.343 1.343 1.343.743 0 1.342-.6 1.342-1.342M2.687 1.481c0-.7405-.5996-1.34-1.3447-1.34-.7408 0-1.3425.5995-1.3425 1.3403 0 .745.6017 1.3468 1.3425 1.3468.745 0 1.3446-.601 1.3446-1.346m0 15.139c0-.743-.6-1.342-1.345-1.342-.741 0-1.343.6-1.343 1.343 0 .739.601 1.347 1.342 1.347.745 0 1.344-.608 1.344-1.347m0 15.135c0-.738-.6-1.34-1.345-1.34-.741 0-1.343.602-1.343 1.341 0 .749.601 1.347 1.342 1.347.745 0 1.345-.597 1.345-1.347m0 15.139c0-.743-.6-1.342-1.345-1.342-.741 0-1.343.6-1.343 1.343 0 .741.602 1.347 1.342 1.347.745 0 1.345-.606 1.345-1.346m0 15.137c0-.741-.6-1.34-1.345-1.34-.741 0-1.343.6-1.343 1.341 0 .747.601 1.347 1.342 1.347.745 0 1.344-.599 1.344-1.347m0 15.136c0-.741-.6-1.34-1.345-1.34-.741 0-1.343.6-1.343 1.341 0 .745.602 1.347 1.342 1.347.745 0 1.345-.601 1.345-1.347m0 15.139c0-.74-.6-1.342-1.345-1.342-.741 0-1.343.601-1.343 1.342s.602 1.338 1.343 1.338c.745 0 1.344-.597 1.344-1.338m0 15.136c0-.743-.6-1.343-1.345-1.343-.741 0-1.343.6-1.343 1.343 0 .745.602 1.343 1.342 1.343.745 0 1.344-.597 1.344-1.342m0 15.136c0-.741-.6-1.342-1.345-1.342-.741 0-1.343.601-1.343 1.342s.602 1.343 1.343 1.343c.745 0 1.344-.602 1.344-1.343m0 15.137c0-.747-.6-1.34-1.345-1.34-.741 0-1.343.593-1.343 1.341 0 .743.602 1.342 1.343 1.342.745 0 1.344-.599 1.344-1.342m0 15.136c0-.741-.599-1.346-1.345-1.346-.74 0-1.342.606-1.342 1.346 0 .743.602 1.343 1.343 1.343.745 0 1.344-.6 1.344-1.343" fill="#2F7ADF" fill-rule="evenodd"/>
</svg>
