<svg class="like-icon" width="17" height="16" viewBox="0 0 17 16" xmlns="http://www.w3.org/2000/svg">
  <title>
    Shape
  </title>
  <path d="M8.265 15.769c-.015 0-.0304-.0008-.0455-.0024-.1414-.0137-.8-.1847-3.065-.7955l-.525-.141c-.092.164-.273.336-.6074.489-.061.028-.128.043-.195.043H.971c-.068 0-.1348-.015-.196-.043-.453-.208-.6826-.489-.6826-.836V7.567c0-.2494.1343-.5105.3503-.6816.1698-.1348.373-.1955.566-.1715H3.788c.244-.032.5082.071.702.276.017.018.0338.037.049.056.526-.411 1.287-1.003 1.863-1.451.428-.333.7472-.582.774-.603.006-.005.0144-.012.0207-.016.0014-.002.1348-.1128.2247-.313.144-.32 1.8002-3.791 1.8708-3.938.0838-.176.2306-.314.4125-.388.058-.024.2805-.1076.569-.1076.5828 0 1.569.341 1.569 1.618l-.0013 1.118c-.0014.7643-.003 1.634-.001 2.3186h2.6264c1.1788 0 1.9113.69 1.9116 1.8 0 .5065-.203.987-.5504 1.3406.1504.276.2304.588.2304.91 0 .559-.248 1.084-.6593 1.442.118.251.18.527.18.8082 0 .559-.248 1.0842-.659 1.443.117.2503.18.526.18.8075 0 1.0387-.852 1.905-1.899 1.931H8.265zm.04-.9412h4.8828c.5294-.0134.9696-.4574.9696-.99 0-.2336-.0842-.459-.2374-.6345-.0972-.1113-.1365-.262-.106-.4068.0307-.1445.1276-.2666.2615-.329.3412-.1593.562-.505.562-.88 0-.2334-.0846-.459-.2382-.6355-.0967-.1115-.1358-.262-.105-.4066.0306-.1442.127-.266.261-.3285.3412-.16.562-.505.562-.881 0-.252-.0968-.492-.2728-.674-.1007-.104-.1478-.25-.1276-.393.02-.144.105-.27.231-.342.301-.174.489-.496.489-.842 0-.369-.101-.859-.971-.859h-3.094c-.259 0-.469-.209-.471-.467-.005-.721-.003-1.84-.002-2.795l.002-1.117c0-.559-.342-.677-.628-.677-.065 0-.123.011-.162.021-.234.4893-1.699 3.561-1.832 3.857-.179.3993-.448.624-.5.665l-.0255.02c-.0405.032-.184.144-.7753.604-.7157.556-1.833 1.426-2.276 1.7723v5.763l.6947.187c.9245.2493 2.621.707 2.906.7656zM1.0813 14.42H3.717c.0183-.0096.0336-.0186.0463-.026v-.146c-.0002-.0064-.0002-.0127 0-.0188V7.6548h-2.73v6.7363c.012.008.028.018.048.029z" fill="#FFF"/>
</svg>
