<svg class="logo-animal-chan" width="188" height="40" viewBox="0 0 188 20" xmlns="http://www.w3.org/2000/svg">
  <title>
    animal chan logo
  </title>
  <path d="M13.7016 13.53287l-.95885-4.13408H6.18213l-.95886 4.134H0L4.99617-5.1209h9.2858l4.97094 18.65375h-5.5513zm-6.61108-8.1169h4.74384L9.48766-4.71755H9.4372L7.09052 5.41597zM28.69484.3744c-2.42238 0-3.86067 1.84018-3.86067 4.94074h-.05047V.6265h-5.04663v12.90637h5.04663V6.65115c0-1.46205.63083-2.34432 1.71586-2.34432.95886 0 1.514.6806 1.514 1.84016v7.3858h5.04662V5.8949c0-3.4787-1.61492-5.5205-4.36534-5.5205zm5.93453-1.6637H39.676v-3.83158h-5.04663v3.83158zm0 14.82217H39.676V.6265h-5.04663v12.90637zM58.2271.3744c-2.34668 0-3.7345 1.84018-3.7345 4.94074h-.05047c0-3.10056-1.48875-4.94073-4.0373-4.94073-2.47285 0-3.93638 1.8402-3.93638 4.9408H46.418V.6265h-5.04665v12.90637H46.418V6.5251c0-1.38642.58035-2.21827 1.58968-2.21827.88316 0 1.38782.6302 1.38782 1.71412v7.51192h5.04663V6.5251c0-1.38642.58037-2.21827 1.5897-2.21827.88315 0 1.38782.6302 1.38782 1.71412v7.51192h5.04663v-7.764c0-3.40304-1.56446-5.39446-4.23917-5.39446zm14.38765.2521h5.04663v12.90637h-5.04663V8.84422h-.05047c0 3.10056-1.61492 4.94073-4.36534 4.94073-2.95228 0-4.7186-2.49557-4.7186-6.70527S65.24666.3744 68.19894.3744c2.75042 0 4.36534 1.84018 4.36534 4.94074h.05047V.6265zm-1.8925 9.20083c1.31213 0 2.09436-1.2604 2.09436-2.74765 0-1.48726-.7822-2.77285-2.0943-2.77285s-2.0943 1.0335-2.0943 2.77285c0 1.73934.78223 2.74765 2.09436 2.74765zm8.63448 3.70554h5.04664V-5.8771h-5.04664v19.40997zm28.32108-7.56233h-5.0214c-.3028 2.34432-1.6149 3.73075-3.684 3.73075-2.4476 0-3.9111-2.0419-3.9111-5.4953 0-3.4535 1.46353-5.4953 3.91115-5.4953 1.9934 0 3.38124 1.4116 3.68404 3.7559h5.0214c-.47947-4.9155-3.7093-7.8396-8.70547-7.8396-5.87933 0-9.3615 3.5543-9.3615 9.57893 0 6.02465 3.48217 9.57895 9.3615 9.57895 4.99616 0 8.226-2.9241 8.70544-7.8144zM117.6497.3744c-2.42238 0-3.86068 1.84018-3.86068 4.94074h-.05047V-5.8771h-5.04662v19.40997h5.04665V6.65115c0-1.46205.63084-2.34432 1.71586-2.34432.95886 0 1.514.6806 1.514 1.84016v7.3858h5.04663V5.8949c0-3.4787-1.61493-5.5205-4.36535-5.5205zm14.5138.2521h5.04663v12.90637h-5.04663V8.84422h-.05047c0 3.10056-1.61494 4.94073-4.36535 4.94073-2.95228 0-4.7186-2.49557-4.7186-6.70527S124.79535.3744 127.74763.3744c2.7504 0 4.36534 1.84018 4.36534 4.94074h.05046V.6265zm-1.8925 9.20083c1.31214 0 2.09437-1.2604 2.09437-2.74765 0-1.48726-.78222-2.77285-2.09435-2.77285-1.31213 0-2.09436 1.0335-2.09436 2.77285 0 1.73934.78223 2.74765 2.09435 2.74765zM147.8632.3744c-2.42238 0-3.86067 1.84018-3.86067 4.94074h-.05047V.6265h-5.04663v12.90637h5.04663V6.65115c0-1.46205.63083-2.34432 1.71586-2.34432.95886 0 1.514.6806 1.514 1.84016v7.3858h5.04662V5.8949c0-3.4787-1.61492-5.5205-4.36534-5.5205zm14.8923 0c-2.42238 0-3.86067 1.84018-3.86067 4.94074h-.05047V.6265h-5.04663v12.90637h5.04663V6.65115c0-1.46205.63083-2.34432 1.71586-2.34432.95886 0 1.514.6806 1.514 1.84016v7.3858h5.04662V5.8949c0-3.4787-1.61492-5.5205-4.36534-5.5205zm18.95484 6.68007v.50416h-8.7559c.12616 1.5881.85792 2.49557 1.9934 2.49557.93364 0 1.64017-.45374 1.91773-1.20998h4.84477c-.5299 3.10056-3.0532 4.94073-6.7625 4.94073-4.31486 0-6.8634-2.49557-6.8634-6.73048 0-4.2097 2.54854-6.68006 6.8634-6.68006 4.23918 0 6.7625 2.4704 6.7625 6.6801zm-6.7625-2.9745c-1.085 0-1.79154.80663-1.96817 2.21827h3.83544c-.1514-1.41164-.8327-2.21828-1.8672-2.21828zm7.82703 9.4529h5.04663V-5.8771h-5.04663v19.40997z" fill="#2AF598" fill-rule="evenodd"/>
</svg>
