<?xml version="1.0" encoding="UTF-8"?>
<svg width="135px" height="21px" viewBox="0 0 135 21" version="1.1" xmlns="http://www.w3.org/2000/svg" xmlns:xlink="http://www.w3.org/1999/xlink">
    <!-- Generator: Sketch 46.2 (44496) - http://www.bohemiancoding.com/sketch -->
    <title>Home Hacks</title>
    <desc>Created with Sketch.</desc>
    <defs></defs>
    <g id="SBLY-homepage" stroke="none" stroke-width="1" fill="none" fill-rule="evenodd">
        <g id="sbly-homepage" transform="translate(-951.000000, -45.000000)" fill="#174A8F">
            <g id="01-header">
                <g id="Group-49" transform="translate(481.000000, 42.000000)">
                    <g id="Stacked-Group">
                        <g id="homehacks-logo" transform="translate(470.000000, 3.000000)">
                            <path d="M19.6065573,19.9531293 C19.6065573,20.0641348 19.5786678,20.1196367 19.5228878,20.1196367 C18.8907149,20.1196367 18.3887029,20.1103863 18.0168365,20.0918854 L15.9250985,20.0641342 L13.6102418,20.0918854 C13.2569687,20.1103863 12.7921427,20.1196367 12.2157498,20.1196367 C12.1785632,20.1196367 12.1599701,20.0641348 12.1599701,19.9531293 C12.1599701,19.8421239 12.1785632,19.786622 12.2157498,19.786622 C12.9222959,19.786622 13.4382528,19.7403704 13.7636359,19.6478659 C14.089019,19.5553613 14.3074872,19.3796053 14.4190471,19.1205926 C14.5306071,18.8615799 14.5863862,18.4453157 14.5863862,17.8717876 L14.5863862,11.4612551 L5.02017115,11.4612551 L5.02017115,17.8717876 C5.02017115,18.4268148 5.07595027,18.8384539 5.18751019,19.106717 C5.29907011,19.3749802 5.51753833,19.5553613 5.84292142,19.6478659 C6.16830451,19.7403704 6.68426139,19.786622 7.39080753,19.786622 C7.42799417,19.786622 7.44658721,19.8421239 7.44658721,19.9531293 C7.44658721,20.0641348 7.42799417,20.1196367 7.39080753,20.1196367 C6.75863467,20.1196367 6.26591909,20.1103863 5.91264602,20.0918854 L3.59778933,20.0641342 L1.56183102,20.0918854 C1.20855796,20.1103863 0.715842381,20.1196367 0.0836695192,20.1196367 C0.0278895608,20.1196367 0,20.0641348 0,19.9531293 C0,19.8421239 0.0278895608,19.786622 0.0836695192,19.786622 C0.753029019,19.786622 1.24109633,19.7403704 1.54788611,19.6478659 C1.85467588,19.5553613 2.06384758,19.3749802 2.1754075,19.106717 C2.28696742,18.8384539 2.34274654,18.4268148 2.34274654,17.8717876 L2.34274654,5.02297136 C2.34274654,4.46794412 2.28696742,4.06093026 2.1754075,3.80191755 C2.06384758,3.54290484 1.85467588,3.36252369 1.54788611,3.2607687 C1.24109633,3.15901371 0.76232554,3.10813697 0.111559359,3.10813697 C0.07437272,3.10813697 0.0557796795,3.05263508 0.0557796795,2.94162964 C0.0557796795,2.83062419 0.07437272,2.7751223 0.111559359,2.7751223 L1.58972086,2.80287352 C2.40782692,2.83987534 3.07717638,2.85837597 3.59778933,2.85837597 C4.24855551,2.85837597 5.02016669,2.83987534 5.91264602,2.80287352 L7.39080753,2.7751223 C7.42799417,2.7751223 7.44658721,2.83062419 7.44658721,2.94162964 C7.44658721,3.05263508 7.42799417,3.10813697 7.39080753,3.10813697 C6.70285471,3.10813697 6.19619435,3.16363886 5.87081126,3.27464431 C5.54542817,3.38564976 5.32231169,3.57528122 5.20145511,3.84354438 C5.08059853,4.11180755 5.02017115,4.52344657 5.02017115,5.0784738 L5.02017115,10.7397233 L14.5863862,10.7397233 L14.5863862,5.0784738 C14.5863862,4.52344657 14.5306071,4.11180755 14.4190471,3.84354438 C14.3074872,3.57528122 14.089019,3.38564976 13.7636359,3.27464431 C13.4382528,3.16363886 12.9222959,3.10813697 12.2157498,3.10813697 C12.1785632,3.10813697 12.1599701,3.05263508 12.1599701,2.94162964 C12.1599701,2.83062419 12.1785632,2.7751223 12.2157498,2.7751223 L13.6102418,2.80287352 C14.4655345,2.83987534 15.2371457,2.85837597 15.9250985,2.85837597 C16.4271181,2.85837597 17.1243571,2.83987534 18.0168365,2.80287352 L19.5228878,2.7751223 C19.5786678,2.7751223 19.6065573,2.83062419 19.6065573,2.94162964 C19.6065573,3.05263508 19.5786678,3.10813697 19.5228878,3.10813697 C18.8535283,3.10813697 18.365461,3.15901371 18.0586712,3.2607687 C17.7518815,3.36252369 17.5427097,3.54290484 17.4311498,3.80191755 C17.3195899,4.06093026 17.2638108,4.46794412 17.2638108,5.02297136 L17.2638108,17.8717876 C17.2638108,18.4268148 17.3195899,18.8384539 17.4311498,19.106717 C17.5427097,19.3749802 17.7518815,19.5553613 18.0586712,19.6478659 C18.365461,19.7403704 18.8535283,19.786622 19.5228878,19.786622 C19.5786678,19.786622 19.6065573,19.8421239 19.6065573,19.9531293 Z M23.3974301,19.6894927 C22.5421374,19.1622168 21.8820845,18.4499426 21.4172515,17.5526485 C20.9524185,16.6553545 20.7200055,15.6794463 20.7200055,14.6248945 C20.7200055,13.4223355 21.0221424,12.4001757 21.6264253,11.5583844 C22.2307082,10.7165931 23.0023194,10.0875716 23.941282,9.67130121 C24.8802446,9.25503078 25.8424345,9.04689869 26.8278804,9.04689869 C27.9620729,9.04689869 28.9521523,9.31515783 29.7981484,9.85168416 C30.6441444,10.3882105 31.2949008,11.0958596 31.7504371,11.9746527 C32.2059735,12.8534458 32.4337382,13.7923528 32.4337382,14.7914018 C32.4337382,15.9014563 32.1548426,16.89124 31.597043,17.7607827 C31.0392434,18.6303254 30.3001701,19.3009732 29.3798008,19.7727464 C28.4594314,20.2445195 27.4600555,20.4804026 26.381643,20.4804026 C25.2474505,20.4804026 24.2527228,20.2167686 23.3974301,19.6894927 Z M29.0869574,18.8430804 C29.5331971,18.121545 29.7563136,17.0670091 29.7563136,15.679441 C29.7563136,14.4398802 29.5796797,13.3622184 29.2264066,12.4464235 C28.8731336,11.5306286 28.4036593,10.8322298 27.8179697,10.3512062 C27.2322802,9.87018257 26.5954685,9.62967437 25.9075157,9.62967437 C25.0894097,9.62967437 24.4618945,9.96731088 24.0249515,10.642594 C23.5880085,11.3178771 23.3695403,12.3215363 23.3695403,13.6536017 C23.3695403,14.8561607 23.5368777,15.9338224 23.8715574,16.8866192 C24.2062372,17.8394159 24.6617667,18.5840663 25.2381596,19.1205926 C25.8145525,19.657119 26.4560124,19.9253781 27.1625585,19.9253781 C27.9992579,19.9253781 28.6407178,19.5646158 29.0869574,18.8430804 Z M53.8230999,19.9531293 C53.8230999,20.0641348 53.7859138,20.1196367 53.7115405,20.1196367 C53.2467075,20.1196367 52.8748467,20.1103863 52.5959469,20.0918854 L51.0062261,20.0641342 L49.3886154,20.0918854 C49.1283089,20.1103863 48.7657446,20.1196367 48.3009116,20.1196367 C48.2451317,20.1196367 48.2172421,20.0641348 48.2172421,19.9531293 C48.2172421,19.8421239 48.2451317,19.786622 48.3009116,19.786622 C48.9144912,19.786622 49.3281863,19.6571176 49.5420095,19.3981049 C49.7558327,19.1390922 49.8627426,18.6303248 49.8627426,17.8717876 L49.8627426,13.7368554 C49.8627426,12.7008045 49.6861088,11.9376535 49.3328357,11.4473795 C48.9795626,10.9571054 48.4310679,10.7119721 47.6873351,10.7119721 C47.1853155,10.7119721 46.6833034,10.827601 46.1812838,11.0588624 C45.6792642,11.2901237 45.2423277,11.6092596 44.8704613,12.0162795 L44.8704613,17.8717876 C44.8704613,18.6303248 44.9773713,19.1390922 45.1911945,19.3981049 C45.4050177,19.6571176 45.8280093,19.786622 46.4601822,19.786622 C46.5159622,19.786622 46.5438517,19.8421239 46.5438517,19.9531293 C46.5438517,20.0641348 46.5159622,20.1196367 46.4601822,20.1196367 C45.9953492,20.1196367 45.6234884,20.1103863 45.3445886,20.0918854 L43.7269779,20.0641342 L42.137257,20.0918854 C41.8583572,20.1103863 41.4864964,20.1196367 41.0216634,20.1196367 C40.9658835,20.1196367 40.9379939,20.0641348 40.9379939,19.9531293 C40.9379939,19.8421239 40.9658835,19.786622 41.0216634,19.786622 C41.635243,19.786622 42.0535864,19.6524924 42.2767062,19.3842292 C42.4998261,19.1159661 42.6113843,18.6118239 42.6113843,17.8717876 L42.6113843,13.7368554 C42.6113843,12.7008045 42.4347504,11.9376535 42.0814774,11.4473795 C41.7282043,10.9571054 41.1704131,10.7119721 40.408087,10.7119721 C39.9246607,10.7119721 39.4412416,10.8229759 38.9578153,11.0449867 C38.474389,11.2669976 38.0467491,11.572258 37.6748827,11.9607771 L37.6748827,17.8717876 C37.6748827,18.6303248 37.7817927,19.1390922 37.9956158,19.3981049 C38.209439,19.6571176 38.6324307,19.786622 39.2646035,19.786622 C39.3389768,19.786622 39.3761629,19.8421239 39.3761629,19.9531293 C39.3761629,20.0641348 39.3389768,20.1196367 39.2646035,20.1196367 C38.7997706,20.1196367 38.4279097,20.1103863 38.14901,20.0918854 L36.5592891,20.0641342 L34.9695682,20.0918854 C34.6906684,20.1103863 34.3095111,20.1196367 33.8260848,20.1196367 C33.7888982,20.1196367 33.7703051,20.0641348 33.7703051,19.9531293 C33.7703051,19.8421239 33.7888982,19.786622 33.8260848,19.786622 C34.4582577,19.786622 34.8812493,19.6571176 35.0950725,19.3981049 C35.3088957,19.1390922 35.4158057,18.6303248 35.4158057,17.8717876 L35.4158057,12.571304 C35.4158057,11.979275 35.3460818,11.5491353 35.2066319,11.2808721 C35.067182,11.012609 34.8394172,10.8784794 34.5233308,10.8784794 C34.2072444,10.8784794 33.7331218,11.0079838 33.100949,11.2669965 L33.0730591,11.2669965 C32.9986858,11.2669965 32.947555,11.220745 32.919665,11.1282404 C32.891775,11.0357359 32.9057198,10.980234 32.9614998,10.9617331 L36.6429586,9.18565481 C36.7173319,9.14865299 36.773111,9.13015236 36.8102976,9.13015236 C37.0148242,9.13015236 37.2054028,9.33365929 37.3820394,9.74067927 C37.5586759,10.1476992 37.6562894,10.6934678 37.6748827,11.3780014 C38.9578217,9.86092698 40.3244102,9.10240114 41.7746891,9.10240114 C42.6299818,9.10240114 43.3179243,9.31053323 43.8385373,9.72680365 C44.3591502,10.1430741 44.6845284,10.7489697 44.8146817,11.5445088 C46.1348073,9.91642887 47.5478784,9.10240114 49.0539373,9.10240114 C50.0579765,9.10240114 50.8249395,9.38453575 51.3548491,9.94881344 C51.8847587,10.5130911 52.1497095,11.3779956 52.1497095,12.5435528 L52.1497095,17.8717876 C52.1497095,18.6303248 52.2519712,19.1390922 52.4564977,19.3981049 C52.6610243,19.6571176 53.0793677,19.786622 53.7115405,19.786622 C53.7859138,19.786622 53.8230999,19.8421239 53.8230999,19.9531293 Z M64.1959749,18.3713096 C64.2517548,18.3713096 64.2982374,18.4083109 64.3354241,18.4823145 C64.3726107,18.5563181 64.3726107,18.61182 64.3354241,18.6488218 C63.6660646,19.2778527 62.9827703,19.7357433 62.2855208,20.0225074 C61.5882714,20.3092714 60.8399015,20.4526513 60.0403887,20.4526513 C58.9061963,20.4526513 57.9207651,20.207518 57.0840657,19.7172439 C56.2473664,19.2269699 55.6105547,18.5748226 55.1736117,17.7607827 C54.7366687,16.9467428 54.5182005,16.0587125 54.5182005,15.0966653 C54.5182005,14.0051117 54.7924478,13.0060777 55.3409508,12.0995332 C55.8894537,11.1929887 56.6424718,10.4760893 57.6000278,9.94881344 C58.5575837,9.42153756 59.6127388,9.15790358 60.7655246,9.15790358 C61.8625304,9.15790358 62.7085138,9.40303693 63.3035,9.89331099 C63.8984862,10.383585 64.1959749,11.0542329 64.1959749,11.9052747 C64.1959749,12.4047992 64.0937131,12.6545577 63.8891866,12.6545577 L62.3552454,12.6545577 L57.1119556,12.7100601 C57.0561756,13.0985792 57.0282861,13.5148434 57.0282861,13.9588652 C57.0282861,15.5684441 57.4047951,16.8449876 58.1578246,17.7885339 C58.910854,18.7320802 59.9660091,19.2038463 61.3233214,19.2038463 C61.7881544,19.2038463 62.2715734,19.1344689 62.773593,18.9957121 C63.2756127,18.8569553 63.7311422,18.6580735 64.1401952,18.3990608 L64.1959749,18.3713096 Z M58.1717695,10.3789574 C57.7255298,10.8229792 57.4094481,11.4335 57.2235149,12.2105381 L61.5464401,12.1272844 C61.5278468,11.3687472 61.3698059,10.7767271 61.0723128,10.3512062 C60.7748197,9.92568529 60.3378833,9.71292804 59.7614903,9.71292804 C59.1479108,9.71292804 58.6180092,9.93493561 58.1717695,10.3789574 Z M90.7985912,19.9531293 C90.7985912,20.0641348 90.7707016,20.1196367 90.7149217,20.1196367 C90.0827488,20.1196367 89.5807367,20.1103863 89.2088703,20.0918854 L87.1171323,20.0641342 L84.8022756,20.0918854 C84.4490026,20.1103863 83.9841765,20.1196367 83.4077836,20.1196367 C83.370597,20.1196367 83.352004,20.0641348 83.352004,19.9531293 C83.352004,19.8421239 83.370597,19.786622 83.4077836,19.786622 C84.1143298,19.786622 84.6302867,19.7403704 84.9556697,19.6478659 C85.2810528,19.5553613 85.4995211,19.3796053 85.611081,19.1205926 C85.7226409,18.8615799 85.77842,18.4453157 85.77842,17.8717876 L85.77842,11.4612551 L76.212205,11.4612551 L76.212205,17.8717876 C76.212205,18.4268148 76.2679841,18.8384539 76.379544,19.106717 C76.4911039,19.3749802 76.7095722,19.5553613 77.0349553,19.6478659 C77.3603384,19.7403704 77.8762952,19.786622 78.5828414,19.786622 C78.620028,19.786622 78.638621,19.8421239 78.638621,19.9531293 C78.638621,20.0641348 78.620028,20.1196367 78.5828414,20.1196367 C77.9506685,20.1196367 77.4579529,20.1103863 77.1046799,20.0918854 L74.7898232,20.0641342 L72.7538649,20.0918854 C72.4005918,20.1103863 71.9078762,20.1196367 71.2757034,20.1196367 C71.2199234,20.1196367 71.1920338,20.0641348 71.1920338,19.9531293 C71.1920338,19.8421239 71.2199234,19.786622 71.2757034,19.786622 C71.9450629,19.786622 72.4331302,19.7403704 72.7399199,19.6478659 C73.0467097,19.5553613 73.2558814,19.3749802 73.3674413,19.106717 C73.4790013,18.8384539 73.5347804,18.4268148 73.5347804,17.8717876 L73.5347804,5.02297136 C73.5347804,4.46794412 73.4790013,4.06093026 73.3674413,3.80191755 C73.2558814,3.54290484 73.0467097,3.36252369 72.7399199,3.2607687 C72.4331302,3.15901371 71.9543594,3.10813697 71.3035932,3.10813697 C71.2664066,3.10813697 71.2478135,3.05263508 71.2478135,2.94162964 C71.2478135,2.83062419 71.2664066,2.7751223 71.3035932,2.7751223 L72.7817547,2.80287352 C73.5998608,2.83987534 74.2692102,2.85837597 74.7898232,2.85837597 C75.4405893,2.85837597 76.2122005,2.83987534 77.1046799,2.80287352 L78.5828414,2.7751223 C78.620028,2.7751223 78.638621,2.83062419 78.638621,2.94162964 C78.638621,3.05263508 78.620028,3.10813697 78.5828414,3.10813697 C77.8948886,3.10813697 77.3882282,3.16363886 77.0628451,3.27464431 C76.737462,3.38564976 76.5143455,3.57528122 76.393489,3.84354438 C76.2726324,4.11180755 76.212205,4.52344657 76.212205,5.0784738 L76.212205,10.7397233 L85.77842,10.7397233 L85.77842,5.0784738 C85.77842,4.52344657 85.7226409,4.11180755 85.611081,3.84354438 C85.4995211,3.57528122 85.2810528,3.38564976 84.9556697,3.27464431 C84.6302867,3.16363886 84.1143298,3.10813697 83.4077836,3.10813697 C83.370597,3.10813697 83.352004,3.05263508 83.352004,2.94162964 C83.352004,2.83062419 83.370597,2.7751223 83.4077836,2.7751223 L84.8022756,2.80287352 C85.6575683,2.83987534 86.4291795,2.85837597 87.1171323,2.85837597 C87.619152,2.85837597 88.316391,2.83987534 89.2088703,2.80287352 L90.7149217,2.7751223 C90.7707016,2.7751223 90.7985912,2.83062419 90.7985912,2.94162964 C90.7985912,3.05263508 90.7707016,3.10813697 90.7149217,3.10813697 C90.0455622,3.10813697 89.5574948,3.15901371 89.2507051,3.2607687 C88.9439153,3.36252369 88.7347436,3.54290484 88.6231837,3.80191755 C88.5116238,4.06093026 88.4558446,4.46794412 88.4558446,5.02297136 L88.4558446,17.8717876 C88.4558446,18.4268148 88.5116238,18.8384539 88.6231837,19.106717 C88.7347436,19.3749802 88.9439153,19.5553613 89.2507051,19.6478659 C89.5574948,19.7403704 90.0455622,19.786622 90.7149217,19.786622 C90.7707016,19.786622 90.7985912,19.8421239 90.7985912,19.9531293 Z M102.649628,18.6210706 C102.724001,18.6210706 102.775132,18.662697 102.803022,18.7459511 C102.830912,18.8292052 102.80767,18.8893323 102.733297,18.9263341 L99.8606437,20.286144 C99.7490838,20.3231458 99.6561186,20.3416464 99.5817453,20.3416464 C99.3214388,20.3416464 99.0704328,20.1936414 98.8287196,19.8976269 C98.5870065,19.6016123 98.4196691,19.2038488 98.3267025,18.7043243 L96.8764308,19.4813585 C95.7980183,20.0363858 94.8776628,20.3138952 94.1153367,20.3138952 C93.5203505,20.3138952 93.0555245,20.161265 92.7208447,19.856 C92.386165,19.5507351 92.2188276,19.1298457 92.2188276,18.5933194 C92.2188276,18.0197913 92.4279993,17.5896516 92.846349,17.3028875 C93.2646987,17.0161235 94.0595512,16.678487 95.2309303,16.2899679 L98.243033,15.2631726 L98.243033,13.0430748 C98.243033,11.8960185 98.1128817,11.0634902 97.8525752,10.5454647 C97.5922688,10.0274393 97.2018149,9.76843049 96.681202,9.76843049 C95.6771627,9.76843049 95.1007784,10.4992054 94.9520319,11.9607771 C94.8590653,12.8858225 94.3849428,13.3483383 93.5296501,13.3483383 C92.7301373,13.3483383 92.330387,13.0060766 92.330387,12.321543 C92.330387,11.8405194 92.6325239,11.3548779 93.2368068,10.8646038 C93.8410896,10.3743297 94.5708665,9.96731587 95.4261592,9.64354998 C96.2814519,9.3197841 97.0437665,9.15790358 97.713126,9.15790358 C98.5498254,9.15790358 99.2238231,9.41228725 99.7351394,9.92106221 C100.246456,10.4298372 100.50211,11.1929882 100.50211,12.2105381 L100.50211,17.1225046 C100.50211,18.2880618 100.873971,18.8708316 101.617704,18.8708316 C101.87801,18.8708316 102.203388,18.7875788 102.593848,18.6210706 L102.649628,18.6210706 Z M98.2709228,18.2880559 C98.2523295,18.1955514 98.243033,18.0475464 98.243033,17.8440364 L98.243033,15.7071922 L96.2349645,16.428724 C95.7701315,16.5952322 95.4354568,16.7894888 95.2309303,17.0114997 C95.0264038,17.2335106 94.9241421,17.5017697 94.9241421,17.8162852 C94.9241421,18.2048042 95.0357003,18.5100646 95.2588201,18.7320755 C95.48194,18.9540864 95.7701321,19.0650902 96.1234052,19.0650902 C96.5138649,19.0650902 96.9508013,18.9448361 97.4342276,18.7043243 L98.2709228,18.2880559 Z M105.464356,19.6617415 C104.627657,19.1344656 104.00479,18.4499423 103.595737,17.608151 C103.186684,16.7663597 102.98216,15.8829546 102.98216,14.9579092 C102.98216,13.792352 103.298242,12.7701922 103.930415,11.891399 C104.562588,11.0126059 105.376033,10.3373329 106.370776,9.86555977 C107.365518,9.39378662 108.374191,9.15790358 109.396823,9.15790358 C110.363676,9.15790358 111.172473,9.34753504 111.82324,9.72680365 C112.474006,10.1060723 112.799384,10.5732132 112.799384,11.1282404 C112.799384,11.4427558 112.683177,11.711015 112.450761,11.9330259 C112.218344,12.1550368 111.888318,12.2660406 111.460672,12.2660406 C110.754125,12.2660406 110.242817,11.8497764 109.92673,11.0172355 C109.740797,10.5362119 109.54557,10.1985754 109.341044,10.0043159 C109.136517,9.81005635 108.811139,9.71292804 108.364899,9.71292804 C107.491013,9.71292804 106.798423,10.1153168 106.287106,10.9201062 C105.77579,11.7248957 105.520136,12.7840568 105.520136,14.0976213 C105.520136,15.6146957 105.878052,16.8496128 106.593895,17.8024095 C107.309737,18.7552063 108.429968,19.2315975 109.95462,19.2315975 C110.475233,19.2315975 110.940059,19.1714705 111.349112,19.0512146 C111.758165,18.9309587 112.204398,18.7228266 112.687825,18.4268121 L112.743604,18.4268121 C112.799384,18.4268121 112.850515,18.454563 112.896998,18.5100657 C112.943482,18.5655684 112.938833,18.6210703 112.883053,18.6765731 C112.213694,19.287103 111.539696,19.7357433 110.86104,20.0225074 C110.182384,20.3092714 109.415421,20.4526513 108.560128,20.4526513 C107.332969,20.4526513 106.301055,20.1890174 105.464356,19.6617415 Z M126.937387,19.9531293 C126.937387,20.0641348 126.909498,20.1196367 126.853718,20.1196367 C126.388885,20.1196367 126.017024,20.1103863 125.738124,20.0918854 L124.148403,20.0641342 L122.028775,20.0918854 C121.731282,20.1103863 121.312939,20.1196367 120.773733,20.1196367 C120.736546,20.1196367 120.717953,20.0641348 120.717953,19.9531293 C120.717953,19.8421239 120.736546,19.786622 120.773733,19.786622 C121.536059,19.786622 121.917216,19.6016157 121.917216,19.2315975 C121.917216,19.0650894 121.833547,18.8708327 121.666208,18.6488218 L118.430986,14.4028847 L117.622181,15.0966653 L117.622181,17.8717876 C117.622181,18.6303248 117.729091,19.1390922 117.942914,19.3981049 C118.156737,19.6571176 118.579729,19.786622 119.211902,19.786622 C119.267682,19.786622 119.295571,19.8421239 119.295571,19.9531293 C119.295571,20.0641348 119.267682,20.1196367 119.211902,20.1196367 C118.728475,20.1196367 118.347318,20.1103863 118.068418,20.0918854 L116.478697,20.0641342 L114.888977,20.0918854 C114.610077,20.1103863 114.238216,20.1196367 113.773383,20.1196367 C113.717603,20.1196367 113.689713,20.0641348 113.689713,19.9531293 C113.689713,19.8421239 113.717603,19.786622 113.773383,19.786622 C114.386962,19.786622 114.805306,19.6524924 115.028426,19.3842292 C115.251546,19.1159661 115.363104,18.6118239 115.363104,17.8717876 L115.363104,3.69091266 C115.363104,3.04338088 115.298028,2.57623997 115.167875,2.2894759 C115.037722,2.00271182 114.814605,1.85933194 114.498519,1.85933194 C114.238212,1.85933194 113.866351,1.97033572 113.382925,2.19234662 L113.355035,2.19234662 C113.280662,2.19234662 113.224883,2.14609504 113.187696,2.0535905 C113.15051,1.96108596 113.159806,1.89633376 113.215586,1.85933194 L117.092274,0.027751223 C117.12946,0.00925031516 117.175943,0 117.231723,0 C117.306096,0 117.389765,0.0370012606 117.482732,0.111004892 C117.575698,0.185008523 117.622181,0.249760729 117.622181,0.305263453 L117.622181,14.5138896 L120.578504,11.8497722 C121.099117,11.4057504 121.359419,10.9709856 121.359419,10.5454647 C121.359419,10.3049529 121.252509,10.1106963 121.038686,9.96268905 C120.824863,9.81468179 120.522726,9.74067927 120.132266,9.74067927 C120.076486,9.74067927 120.048597,9.68517737 120.048597,9.57417193 C120.048597,9.46316648 120.076486,9.40766459 120.132266,9.40766459 C120.652879,9.40766459 121.061926,9.4169149 121.359419,9.43541581 L123.506937,9.46316704 L125.459226,9.43541581 C125.719532,9.4169149 126.082097,9.40766459 126.54693,9.40766459 C126.584116,9.40766459 126.602709,9.46316648 126.602709,9.57417193 C126.602709,9.68517737 126.584116,9.74067927 126.54693,9.74067927 C125.76601,9.74067927 124.892137,9.93031073 123.925285,10.3095793 C122.958432,10.6888479 122.065966,11.2392417 121.24786,11.9607771 L120.048597,13.0153236 L123.757946,17.8717876 C124.724798,19.1483502 125.756712,19.786622 126.853718,19.786622 C126.909498,19.786622 126.937387,19.8421239 126.937387,19.9531293 Z M129.891565,12.3076674 C130.282025,12.686936 130.858409,13.0893247 131.620735,13.5148456 C132.290094,13.8848637 132.8107,14.1901241 133.182566,14.4306359 C133.554432,14.6711478 133.875162,14.9949088 134.144765,15.4019288 C134.414369,15.8089487 134.549168,16.2992154 134.549168,16.8727436 C134.549168,17.5017744 134.391127,18.0845443 134.075041,18.6210706 C133.758954,19.1575969 133.28948,19.5923618 132.666604,19.9253781 C132.043728,20.2583944 131.304654,20.4249001 130.449362,20.4249001 C129.463916,20.4249001 128.524967,20.1658913 127.632488,19.6478659 C127.520928,19.5368604 127.465149,19.4258566 127.465149,19.3148512 L127.409369,16.7617387 C127.409369,16.706236 127.4605,16.6738599 127.562763,16.6646094 C127.665027,16.6553589 127.725454,16.6784847 127.744047,16.7339875 C128.060134,17.6405319 128.543553,18.3898075 129.194319,18.9818365 C129.845085,19.5738656 130.533028,19.8698757 131.258167,19.8698757 C131.704407,19.8698757 132.057674,19.7496216 132.317981,19.5091098 C132.578287,19.268598 132.708439,18.917086 132.708439,18.4545633 C132.708439,17.7330279 132.503915,17.1687587 132.094862,16.7617387 C131.685809,16.3547187 131.090832,15.9384545 130.309912,15.5129336 C129.67774,15.1799173 129.185024,14.8977827 128.831751,14.6665213 C128.478478,14.43526 128.176341,14.1253744 127.925331,13.7368554 C127.674321,13.3483363 127.548818,12.8580696 127.548818,12.2660406 C127.548818,11.2114888 127.934624,10.4205869 128.706247,9.89331099 C129.477869,9.36603512 130.41217,9.10240114 131.509176,9.10240114 C132.234315,9.10240114 132.978037,9.24115586 133.740363,9.51866948 C133.907703,9.59267311 133.991371,9.69442658 133.991371,9.82393293 C133.991371,10.2494538 133.982075,10.5824652 133.963481,10.822977 L133.935592,12.1550357 C133.935592,12.2105384 133.879813,12.2382893 133.768253,12.2382893 C133.656693,12.2382893 133.600914,12.2105384 133.600914,12.1550357 C133.600914,11.7850175 133.452169,11.4057546 133.154676,11.0172355 C132.857183,10.6287165 132.476026,10.3049554 132.011193,10.0459427 C131.54636,9.78693001 131.072237,9.6574256 130.588811,9.6574256 C129.733518,9.6574256 129.305878,10.0551891 129.305878,10.8507282 C129.305878,11.4427572 129.501105,11.9283988 129.891565,12.3076674 Z" id="Home-Hacks"></path>
                        </g>
                    </g>
                </g>
            </g>
        </g>
    </g>
</svg>