<svg width="135" height="40" viewBox="0 0 135 21" xmlns="http://www.w3.org/2000/svg">
  <title>
    Home Hacks
  </title>
  <path class="logo-homehacks" d="M19.607 18.953c0 .11-.028.167-.084.167-.632 0-1.134-.01-1.506-.028l-2.092-.028-2.315.028c-.353.018-.818.028-1.394.028-.037 0-.056-.056-.056-.167 0-.11.02-.166.056-.166.706 0 1.222-.047 1.548-.14.325-.092.543-.267.655-.526.11-.25.16-.67.16-1.24v-6.41H5.02v6.41c0 .56.056.97.168 1.24.11.27.33.45.655.54.325.1.84.14 1.548.14.04 0 .06.06.06.17 0 .11-.02.17-.05.17-.63 0-1.12-.01-1.47-.02l-2.31-.03-2.03.03c-.35.02-.84.03-1.48.03-.05 0-.08-.05-.08-.16s.03-.16.09-.16c.67 0 1.16-.05 1.46-.14.31-.09.52-.27.63-.54.12-.27.17-.68.17-1.24V4.02c0-.556-.05-.96-.17-1.22-.11-.26-.32-.44-.62-.54-.31-.1-.79-.152-1.44-.152-.04 0-.05-.055-.05-.166 0-.11.02-.167.06-.167l1.48.028c.82.037 1.49.055 2.01.055.65 0 1.43-.018 2.32-.055l1.48-.028c.04 0 .06.056.06.167 0 .11-.02.166-.05.166-.68 0-1.19.056-1.52.167-.32.11-.54.3-.67.57-.12.267-.18.678-.18 1.233V9.74h9.56V4.078c0-.555-.05-.966-.16-1.234-.11-.27-.33-.458-.65-.57-.33-.11-.85-.166-1.55-.166-.04 0-.06-.055-.06-.166 0-.11.02-.167.05-.167l1.39.028c.86.037 1.63.055 2.32.055.51 0 1.2-.018 2.1-.055l1.51-.028c.06 0 .09.056.09.167 0 .11-.03.166-.08.166-.67 0-1.153.05-1.46.153-.306.11-.515.29-.63.55-.11.26-.164.67-.164 1.22v12.85c0 .56.06.97.17 1.24.117.27.326.45.63.54.31.1.798.14 1.467.14.054 0 .08.06.08.17zm3.79-.264c-.855-.53-1.515-1.24-1.98-2.14-.465-.9-.697-1.88-.697-2.93 0-1.21.302-2.23.906-3.07.605-.84 1.376-1.47 2.315-1.89.94-.42 1.91-.63 2.89-.63 1.14 0 2.13.27 2.97.8.85.53 1.5 1.24 1.95 2.12.46.88.69 1.81.69 2.81 0 1.11-.28 2.1-.83 2.97-.56.87-1.29 1.54-2.21 2.01-.92.47-1.92.7-2.99.7-1.13 0-2.13-.26-2.98-.79zm5.69-.85c.446-.72.67-1.78.67-3.17 0-1.24-.177-2.32-.53-3.24-.354-.92-.823-1.62-1.41-2.1-.585-.48-1.222-.72-1.91-.72-.818 0-1.445.33-1.882 1.01-.437.67-.655 1.68-.655 3.01 0 1.2.167 2.28.502 3.23.334.95.79 1.7 1.366 2.23.577.53 1.218.8 1.925.8.836 0 1.478-.36 1.924-1.08zm24.736 1.11c0 .11-.037.16-.11.16-.466 0-.838-.01-1.117-.03l-1.59-.03-1.617.03c-.27.02-.63.03-1.09.03-.06 0-.09-.06-.09-.17 0-.11.03-.17.08-.17.61 0 1.02-.13 1.24-.39.21-.26.32-.77.32-1.53v-4.13c0-1.04-.18-1.8-.53-2.29-.35-.49-.9-.74-1.65-.74-.5 0-1.01.12-1.51.35-.5.23-.94.55-1.31.95v5.85c0 .76.11 1.26.32 1.52.21.26.64.39 1.27.39.05 0 .08.05.08.16s-.03.17-.09.17c-.47 0-.84-.01-1.12-.03l-1.62-.03-1.59.02c-.28.02-.65.03-1.12.03-.06 0-.09-.06-.09-.17 0-.11.03-.17.08-.17.61 0 1.03-.14 1.25-.41.22-.27.33-.77.33-1.51V12.7c0-1.036-.18-1.8-.53-2.29-.36-.49-.91-.735-1.68-.735-.48 0-.97.11-1.45.333-.49.22-.91.527-1.28.916v5.91c0 .76.1 1.265.32 1.524.21.26.63.39 1.27.39.07 0 .11.054.11.165 0 .11-.04.165-.11.165-.47 0-.84-.01-1.12-.03l-1.59-.025-1.59.03c-.28.02-.66.03-1.15.03-.04 0-.06-.053-.06-.164 0-.11.02-.17.06-.17.63 0 1.05-.13 1.27-.39.21-.26.32-.77.32-1.53v-5.3c0-.59-.07-1.02-.21-1.29-.14-.27-.37-.4-.69-.4-.32 0-.79.13-1.428.39H33c-.077 0-.13-.05-.15-.14-.03-.09-.02-.15.04-.17l3.69-1.77c.07-.04.13-.06.16-.06.205 0 .395.2.57.61.18.4.276.95.295 1.63 1.287-1.51 2.65-2.27 4.1-2.27.86 0 1.547.21 2.07.63.52.41.84 1.02.97 1.82 1.33-1.63 2.74-2.44 4.25-2.44 1 0 1.77.28 2.3.85.53.56.796 1.43.796 2.59v5.33c0 .76.1 1.26.31 1.52.2.26.62.39 1.26.39.07 0 .11.05.11.16zm10.373-1.58c.056 0 .102.03.14.11.037.07.037.13 0 .16-.67.62-1.353 1.08-2.05 1.37-.698.28-1.446.43-2.246.43-1.134 0-2.12-.25-2.956-.74-.837-.49-1.473-1.14-1.91-1.96-.437-.82-.656-1.7-.656-2.67 0-1.09.274-2.09.823-3 .55-.91 1.31-1.62 2.26-2.15.96-.53 2.02-.79 3.17-.79 1.1 0 1.95.24 2.54.73.6.49.89 1.16.89 2.01 0 .5-.1.75-.3.75h-1.54l-5.24.05c-.05.39-.08.8-.08 1.25 0 1.61.38 2.88 1.13 3.83.76.94 1.81 1.41 3.17 1.41.47 0 .95-.07 1.45-.21.51-.14.96-.34 1.37-.6l.06-.03zm-6.024-7.99c-.446.44-.763 1.05-.948 1.83l4.322-.09c-.018-.76-.176-1.35-.474-1.78-.297-.43-.734-.64-1.31-.64-.614 0-1.144.22-1.59.66zM90.8 18.95c0 .11-.03.167-.085.167-.632 0-1.134-.01-1.506-.03l-2.1-.028-2.32.02c-.36.02-.82.03-1.4.03-.04 0-.06-.06-.06-.17 0-.11.02-.17.06-.17.7 0 1.22-.05 1.54-.14.32-.09.54-.27.65-.53.11-.26.17-.68.17-1.25v-6.41H76.2v6.41c0 .55.057.96.17 1.23.11.27.33.45.656.54.324.09.84.14 1.547.14.04 0 .058.05.058.17 0 .11-.02.16-.05.16-.63 0-1.12-.01-1.48-.03l-2.31-.03-2.03.03c-.35.01-.84.02-1.48.02-.05 0-.08-.06-.08-.17 0-.11.03-.17.09-.17.67 0 1.16-.05 1.47-.14.31-.09.52-.27.63-.54.11-.27.17-.68.17-1.24V4.02c0-.554-.05-.96-.17-1.22-.11-.26-.32-.44-.63-.54-.31-.103-.78-.154-1.43-.154-.03 0-.05-.055-.05-.166 0-.11.02-.167.06-.167l1.48.028c.82.04 1.49.06 2.01.06.65 0 1.42-.02 2.32-.05l1.47-.02c.04 0 .06.06.06.17 0 .11-.02.17-.05.17-.69 0-1.19.06-1.52.17-.32.11-.55.3-.67.57-.12.27-.18.68-.18 1.23v5.66h9.56V4.08c0-.555-.05-.966-.16-1.234-.11-.27-.33-.458-.66-.57-.33-.11-.842-.166-1.55-.166-.04 0-.055-.055-.055-.166 0-.11.02-.164.06-.164l1.393.028c.86.037 1.63.055 2.32.055.5 0 1.2-.02 2.09-.05l1.5-.03c.06 0 .08.06.08.17 0 .11-.03.167-.08.167-.67 0-1.16.05-1.467.153-.306.11-.515.29-.627.55-.11.26-.17.664-.17 1.22v12.85c0 .553.06.964.17 1.233.116.268.32.448.63.54.31.093.798.14 1.467.14.05 0 .08.055.08.166zm11.85-1.332c.074 0 .125.043.153.126.028.083.005.143-.07.18l-2.872 1.36c-.11.037-.2.056-.27.056-.26 0-.51-.148-.75-.444-.24-.296-.41-.694-.5-1.194l-1.45.777c-1.08.55-2 .83-2.76.83-.59 0-1.06-.16-1.39-.46-.33-.31-.5-.73-.5-1.27 0-.58.21-1.01.63-1.29.42-.29 1.22-.63 2.39-1.02l3.02-1.03v-2.22c0-1.15-.13-1.98-.39-2.5s-.65-.78-1.17-.78c-1 0-1.58.73-1.72 2.19-.09.92-.57 1.38-1.42 1.38-.8 0-1.2-.34-1.2-1.02 0-.48.31-.97.91-1.46.6-.49 1.33-.9 2.19-1.22.85-.33 1.62-.49 2.29-.49.84 0 1.51.25 2.02.76s.77 1.27.77 2.29v4.91c0 1.16.37 1.74 1.12 1.74.26 0 .59-.08.98-.25h.06zm-4.38-.332c-.018-.092-.027-.24-.027-.444v-2.137l-2.008.722c-.465.163-.8.36-1.004.58-.2.222-.3.49-.3.804 0 .39.11.7.34.92.23.23.51.34.87.34.39 0 .83-.12 1.31-.36l.84-.41zm7.194 1.374c-.836-.528-1.46-1.212-1.868-2.054-.41-.842-.614-1.725-.614-2.65 0-1.166.316-2.188.948-3.067.633-.88 1.446-1.55 2.44-2.03.996-.47 2.004-.71 3.027-.71.967 0 1.775.19 2.426.57.65.37.976.84.976 1.4 0 .31-.12.58-.35.8-.24.22-.57.33-.99.33-.71 0-1.22-.42-1.54-1.25-.19-.48-.38-.82-.59-1.01-.21-.2-.53-.29-.98-.29-.88 0-1.57.4-2.08 1.2-.51.8-.77 1.86-.77 3.18 0 1.51.35 2.75 1.07 3.7.71.95 1.83 1.43 3.36 1.43.52 0 .98-.06 1.39-.18.4-.12.85-.33 1.33-.63h.05c.05 0 .1.02.15.08.04.06.04.11-.02.17-.67.61-1.34 1.06-2.02 1.34-.68.29-1.45.43-2.3.43-1.23 0-2.26-.26-3.1-.79zm21.473.29c0 .112-.028.168-.083.168-.465 0-.837-.01-1.116-.028l-1.59-.028-2.12.028c-.297.018-.715.028-1.254.028-.037 0-.056-.056-.056-.167 0-.11.02-.16.056-.16.762 0 1.143-.18 1.143-.55 0-.16-.083-.36-.25-.58l-3.237-4.25-.807.7v2.78c0 .76.107 1.27.32 1.53.215.26.638.39 1.27.39.056 0 .084.06.084.17 0 .11-.028.17-.084.17-.484 0-.865-.01-1.144-.03l-1.59-.02-1.59.03c-.28.02-.65.03-1.12.03-.06 0-.09-.06-.09-.17 0-.11.03-.16.08-.16.61 0 1.03-.13 1.25-.4.22-.27.33-.77.33-1.51V2.7c0-.65-.07-1.118-.2-1.405-.13-.28-.36-.43-.67-.43-.26 0-.64.11-1.12.33h-.03c-.07 0-.13-.04-.17-.13-.04-.09-.03-.16.02-.192l3.88-1.834c.04-.02.08-.03.14-.03.07 0 .16.03.25.11.09.07.14.14.14.19v14.21l2.96-2.67c.52-.45.78-.88.78-1.31 0-.24-.11-.44-.32-.58-.22-.15-.52-.22-.91-.22-.06 0-.09-.05-.09-.17 0-.11.03-.17.08-.17.52 0 .93.01 1.23.02l2.15.02 1.95-.03c.26-.02.63-.03 1.09-.03.04 0 .06.05.06.16s-.02.17-.05.17c-.78 0-1.66.19-2.63.57-.97.38-1.86.93-2.68 1.65l-1.2 1.06 3.71 4.86c.97 1.27 2 1.91 3.09 1.91.05 0 .08.05.08.16zm2.955-7.644c.39.38.966.78 1.73 1.207.668.37 1.19.675 1.56.916.372.24.693.56.963.97.27.4.404.89.404 1.47 0 .63-.16 1.21-.48 1.75-.32.53-.79.97-1.41 1.3-.63.33-1.36.5-2.22.5-.99 0-1.93-.26-2.82-.78-.11-.11-.17-.23-.17-.34l-.06-2.56c0-.06.05-.09.15-.1.1-.01.16.01.18.07.31.9.8 1.65 1.45 2.24.65.59 1.34.88 2.06.88.44 0 .8-.12 1.06-.36s.39-.59.39-1.06c0-.72-.21-1.29-.61-1.69-.41-.41-1.01-.83-1.79-1.25-.63-.33-1.13-.62-1.48-.85-.36-.24-.66-.55-.91-.93-.25-.39-.38-.88-.38-1.47 0-1.06.38-1.85 1.15-2.38.77-.53 1.7-.79 2.8-.79.72 0 1.47.14 2.23.42.17.07.25.17.25.3 0 .43-.01.76-.03 1l-.03 1.33c0 .06-.06.08-.17.08-.11 0-.17-.03-.17-.09 0-.37-.15-.75-.44-1.14-.3-.39-.68-.71-1.15-.97-.47-.26-.94-.39-1.42-.39-.86 0-1.29.4-1.29 1.19 0 .59.19 1.08.58 1.46z" fill="#174A8F" fill-rule="evenodd"/>
</svg>
