<svg width="63" height="40" viewBox="0 0 63 27" xmlns="http://www.w3.org/2000/svg">
  <title>
    Relieved logo
  </title>
  <path d="M2.677 25.806v1.13c0 .85.047 1.98 0 2.64C2.63 30 1.737 30 1.41 30c-.236 0-.752-.094-.987-.236l-.188-.188s-.047-.047-.047-.19v-.61c0-.99-.188-1.98-.14-3.017.14-1.28 0-2.69 0-4.01v-2.64c.14-.94-.048-1.89 0-2.88.14-2.08 0-4.15 0-6.32V7.8C.188 6.957 0 6.157 0 5.26v-.61c0-.048.047-.33.188-.378.14-.33.235-.612.564-.754 0-.14.093-.235.28-.235.47-.095.988-.236 1.598-.283h1.222c2.818.14 3.71 1.602 5.025 2.827.094.33.235.52.376.848.188.754.188.566.376 1.273v.188c0 .66.23 1.46.14 2.12v1.273c.09.56 0 1.08-.14 1.55-.1.66-.19 1.27-.33 1.93 0 .47-.05.89-.33 1.51-.05.47-.24.99-.42 1.36-.29.61-.47 1.08-.76 1.55-.24.56-.52 1.04-1.13 1.41-.19.14-.52.33-.71.56-.28.42-.8.7-1.18.99-.14.04-.19.18-.1.37.23.28.33.61.61.94.61.75 1.27 1.55 1.83 2.35.75.84 1.6 2.12 2.25 3.01 0 .09.05.14.05.28.09.28-.14.52-.38.52-.09.09-.33.09-.42 0-.33 0-.38-.19-.57-.33-.29 0-.33-.05-.52-.19-.28-.38-.66-.66-.99-1.04-.47-.66-1.22-1.6-1.65-2.31 0-.1-.14-.29-.24-.29-.56-.61-.89-1.32-1.36-2.12l-.14-.05c-.14-.14-.19-.14-.24-.14-.15 0-.24.14-.29.19v.52c.05.61.05 1.13 0 1.65zm4.744-15.55c0-1.272 0-1.036-.14-2.308-.14-.52-.37-.943-.51-1.602 0-.425-1.64-2.31-2.91-2.168-.51 0-.47.094-.84.283-.04.15-.19.15-.19.24-.14.47-.28.9-.14 1.46.05.14.05.29.05.52-.04.57-.09 1.13-.04 1.65.05.43.05.8.05 1.23v1.98c0 .33 0 .57.1.76.19.28.19.47 0 .8-.1.29-.14.47-.1.76.24.52 0 .9 0 1.42-.04.48-.04.95.1 1.32 0 .29 0 .33-.09.57-.04.33-.04.71-.04 1.04 0 .71 0 1.93-.04 2.64 0 .05 0 .19.05.19 0 .29 0 .33.05.47.24.19.29.29.43.19.47 0 .33-.04.66-.33.52-.66 1.22-1.5 1.69-2.12.19-.33.29-.56.33-.75.14-.42.33-.94.47-1.22.05-.66.33-1.08.47-1.7.14-.61.19-1.27.33-1.79.24-1.18.33-2.31.33-3.49zm5.86.33v-.47c.05-1.132.05-2.357.05-3.488 0-.188.24-.33.28-.33.52-.047.8 0 1.27 0 .66.048 1.22 0 1.88-.14.14 0 .28-.19.33-.33 0-.048 0-.33-.19-.378-.04 0-.04-.094-.14-.188-.14-.094-.37-.094-.66-.236-.19-.188-.52-.188-.8-.188-1.22 0-2.39.14-3.61.282h-.19c-.33.048-.37.33-.37.52-.19.8 0 1.507-.14 2.308 0 2.968.14 7.21 0 10.225 0 .8-.05 1.696.14 2.64-.14.988-.28 1.978-.19 2.92 0 .754-.09 2.026.38 2.64 1.65.376 3.9.187 5.73.187.47-.14.38-1.602.05-1.508-.8 0-1.45.236-2.63.095-.19.094-.51-.19-.84-.19-.04 0-.14-.046-.28-.14-.04-.19-.04-.33-.04-.377 0-.99-.04-1.98-.04-2.97 0-.61-.09-1.27 0-1.978-.14-.283.24-1.366.05-2.167 0-.283 0-.472.33-.472h.71c.33-.14.61.142.94.048.38-.04.85-.23 1.18-.33.19 0 .33-.33.28-.42-.09-.09-.18-.23-.28-.28-.19-.19-.47-.33-.8-.37-.04-.09-.09-.14-.33-.09-.23.1-.42 0-.75.1-.28.05-.47.19-.8.19-.09 0-.28-.19-.42-.33-.04-.28-.04-.42 0-.66-.04-1.41-.09-2.73-.04-4.1zm4.83-4.616c.1 4.426-.04 9.515 0 13.38.1.423.1.8 0 1.27 0 .99.29 1.98.29 2.97 0 .14.05.235.14.47.19.19.24.425.38.708.05.28.38.61.71.8.33.19.66.52.94.8.19.048.33.048.38.048.61.046 1.13.187 1.6.046.62-.047 1.13-.094 1.7-.047.9-.19.61-1.792-.09-1.603-.09 0-.23-.047-.42 0-.65.094-2.11.094-2.81.14-.19 0-.52-.14-.61-.47 0-.094-.09-.33-.19-.424-.05-.99-.14-1.885-.05-2.733v-.8c-.09-.66-.14-1.18-.09-1.98V17.13c-.24-.894 0-5.276 0-6.22 0-1.836.14-2.92 0-5.276 0-.802-1.5-1.038-1.64-.52-.18.33-.18.52-.18.85zm9.71 9.515v-2.45c0-.943.05-1.98 0-2.828-.09-1.226.05-2.404 0-3.535 0-.33 0-.66-.09-.848 0-.33-.33-.47-.51-.66-.18-.33-.37-.33-.79-.33-.19 0-.42.33-.42.52.05.99.05 2.072 0 2.968v1.13c0 2.262.05 4.477 0 6.786v4.43c.05 1.083.05 2.26.05 3.392 0 .377-.04.754-.04 1.084 0 .235 0 .47.05.612.28.8 1.6 1.27 1.69-.19.24-1.083 0-2.968.1-3.486 0-.424.05-.8 0-1.225-.09-.66 0-1.226-.09-1.98.1-.425.1-1.037.1-1.555-.09-.33 0-.754 0-1.084.05-.33 0-.565 0-.753zm4.08-4.9v-.472c.05-1.13.05-2.356.05-3.487 0-.188.24-.33.29-.33.52-.047.8 0 1.27 0 .66.048 1.22 0 1.88-.14.14 0 .28-.19.33-.33 0-.048 0-.33-.19-.378-.04 0-.04-.095-.14-.19-.14-.093-.37-.093-.66-.235-.18-.188-.51-.188-.79-.188-1.22 0-2.39.14-3.61.282h-.19c-.33.047-.37.33-.37.52-.19.8 0 1.506-.14 2.307 0 2.968.14 7.21 0 10.225 0 .8-.05 1.69.14 2.64-.14.98-.28 1.97-.19 2.92 0 .75-.09 2.02.38 2.64 1.65.37 3.9.18 5.73.18.47-.14.38-1.61.05-1.51-.8 0-1.45.23-2.63.09-.19.09-.51-.19-.84-.19-.05 0-.14-.05-.28-.14-.04-.19-.04-.33-.04-.38 0-.99-.05-1.98-.05-2.97 0-.61-.09-1.27 0-1.98-.14-.28.24-1.37.05-2.17 0-.29 0-.48.33-.48h.71c.33-.14.61.14.94.05.38-.05.85-.24 1.18-.33.19 0 .33-.33.288-.43-.1-.1-.19-.24-.29-.29-.19-.19-.47-.33-.8-.38-.05-.1-.09-.14-.33-.1-.23.09-.42 0-.75.09-.28.04-.47.18-.8.18-.09 0-.28-.19-.42-.33-.05-.29-.05-.43 0-.66-.05-1.42-.092-2.74-.05-4.1zm13.19-5.09c-.05-.895-1.32-.895-1.46-.047v.14c0 1.508-.37 3.016-.7 4.383-.19.62-.19 1.23-.28 1.79-.18.95-.51 2.97-.56 3.96-.14.76-.14 1.42-.23 2.12 0 .33 0 .66-.09.99-.09.62-.23 1.28-.33 1.84 0 .43 0 .8-.09 1.18-.23.76-.23 1.42-.33 2.12-.04.19-.04.43-.14.52-.09.28-.18.33-.32.47-.05.19-.19.19-.33 0-.38-1.13-.66-4.52-.71-5.75 0-.23-.05-.51-.05-.7.05-1.03-.28-1.98-.28-2.97 0-1.6-.14-2.82-.14-4.42 0-.19-.05-.37-.05-.52-.09-.61-.19-1.83-.28-2.31V5.92c0-.28-.14-.47-.19-.752-.38-.708-1.97-1.178-1.93 1.272 0 1.79.14 3.44.14 5.09 0 .234 0 .376.1.658.19 1.697.19 3.535.38 5.325 0 1.037.33 2.168.37 3.3.24.847.29 1.79.43 2.637.19.52.24.99.38 1.46.14.142.19.237.19.33.33.378.56.708.94.896.33.283.8.33 1.18.283.19-.05.42-.29.47-.33.19 0 .28-.05.33-.29.28-.52.61-1.04.66-1.7.04-.52.14-.95.19-1.46 0-.66.33-1.32.42-1.98.19-.66.19-1.46.24-2.17 0-.19 0-.33.1-.62.19-.38.23-.85.23-1.32.1-.71.14-1.51.33-2.22 0-.47.28-1.84.42-2.17.1-.66.19-1.23.19-1.89 0-.1.05-.38.19-.52.14-.38.19-.8.29-1.23 0-.61.1-1.23.19-1.79.14-.47.19-.95.19-1.28zm3.51 5.09v-.472c.05-1.13.05-2.356.05-3.487 0-.188.24-.33.29-.33.52-.047.8 0 1.27 0 .66.048 1.22 0 1.88-.14.14 0 .28-.19.33-.33 0-.048 0-.33-.18-.378-.04 0-.04-.095-.14-.19-.14-.093-.37-.093-.65-.235-.19-.188-.52-.188-.8-.188-1.22 0-2.4.14-3.62.282h-.18c-.33.047-.37.33-.37.52-.19.8 0 1.506-.14 2.307 0 2.968.14 7.21 0 10.225 0 .8-.05 1.69.14 2.64-.14.98-.28 1.97-.19 2.92 0 .75-.09 2.02.38 2.64 1.65.37 3.9.18 5.73.18.47-.14.38-1.61.05-1.51-.8 0-1.45.23-2.63.09-.19.09-.51-.19-.84-.19-.05 0-.14-.05-.29-.14-.05-.19-.05-.33-.05-.38 0-.99-.04-1.98-.04-2.97 0-.61-.09-1.27 0-1.98-.14-.28.24-1.37.05-2.17 0-.29 0-.48.33-.48h.7c.33-.14.61.14.94.05.38-.05.85-.24 1.17-.33.19 0 .33-.33.28-.43-.09-.1-.19-.24-.28-.29-.19-.19-.47-.33-.8-.38-.04-.1-.09-.14-.33-.1-.23.09-.42 0-.75.09-.28.04-.47.18-.8.18-.09 0-.28-.19-.42-.33-.05-.29-.05-.43 0-.66-.05-1.42-.09-2.74-.05-4.1zM53.7 21.8l.047-7.727c0-.99-.047-1.98 0-2.968.094-.47 0-.896 0-1.508C53.84 8.56 53.7 7.43 53.7 6.25c0-.09.046-.09.046-.23 0-.19.282-.562.47-.562.798-.093 2.3-.33 3.335 0 .23.048.56.048.66.143.75.19 1.32.43 1.88.85.24.19.42.33.66.66.19.33.43.66.66 1.04.19.19.23.47.23.62.14.57.43 1.04.52 1.56.14.62.42 1.09.42 1.61.14 1.13 0 1.93.14 3.44.05.33.05.57 0 .9-.14.47-.23.99-.23 1.46-.05 1.13-.09 2.31-.37 3.39 0 1.18-.52 2.22-.99 3.3-.14.09-.18.24-.32.42-.47.47-.98.95-1.5 1.28-.14.04-.33.14-.51.28-.66.05-1.32.24-1.93.38-.33.05-.71 0-1.03 0-.47-.19-.89-.33-1.22-.61-.19-.05-.33-.33-.42-.42-.14-.33-.14-.66-.28-1.08-.19-.89-.19-1.83-.19-2.82zm6.905-7.585c.238-.943.144-1.932-.09-2.922 0-.895-.19-1.743-.424-2.64-.09-.658-.42-1.177-.8-1.554-.09-.1-.14-.29-.28-.33-.19-.19-1.03-.33-1.36-.33-.47-.1-.8 0-1.27.14-.18 0-.23.09-.23.19 0 .66.05 1.36.05 1.98-.19.47 0 3.86-.05 4.19v.47c.1.85.05 1.74 0 2.49-.09.8-.14 1.6 0 2.4.05.56.05 1.18 0 1.79-.14.99-.14 1.98-.14 2.87v.61c.14.47.14.89.05 1.36 0 .09.1.19.1.19.05.14.33.28.38.28 1.18-.28 2.49-.99 2.91-2.17.38-.99.71-1.93.9-2.83.09-.62.14-.99.19-1.56.1-1.04.24-2.17.1-3.21V14.2z" fill="#174A8F" fill-rule="evenodd"/>
</svg>
