<svg width="188" height="40" viewBox="0 0 188 20" xmlns="http://www.w3.org/2000/svg">
  <title>
    animal chan logo
  </title>
  <path class="logo-animal-channel" d="M13.702 13.533l-.96-4.134h-6.56l-.96 4.13H0L4.996-5.12h9.286l4.97 18.653h-5.55zm-6.61-8.117h4.742L9.488-4.718h-.05L7.09 5.416zM28.694.374c-2.423 0-3.86 1.84-3.86 4.94h-.05V.627h-5.048v12.907h5.047V6.65c0-1.46.63-2.343 1.716-2.343.95 0 1.51.68 1.51 1.84v7.386h5.04V5.895c0-3.48-1.62-5.52-4.37-5.52zM34.63-1.29h5.046v-3.83H34.63v3.83zm0 14.823h5.046V.626H34.63v12.907zM58.226.373c-2.347 0-3.734 1.842-3.734 4.942h-.05c0-3.1-1.49-4.94-4.038-4.94-2.473 0-3.937 1.84-3.937 4.94h-.05V.625H41.37v12.908h5.048V6.525c0-1.386.58-2.218 1.59-2.218.883 0 1.388.63 1.388 1.714v7.52h5.046V6.53c0-1.386.58-2.218 1.59-2.218.883 0 1.388.63 1.388 1.714v7.514h5.046V5.77c0-3.404-1.564-5.396-4.24-5.396zm14.388.253h5.046v12.907h-5.045v-4.69h-.05c0 3.102-1.616 4.942-4.366 4.942-2.96 0-4.72-2.496-4.72-6.705 0-4.21 1.76-6.706 4.72-6.706 2.75 0 4.36 1.84 4.36 4.94h.05V.627zm-1.893 9.2c1.32 0 2.1-1.26 2.1-2.746 0-1.488-.78-2.773-2.09-2.773-1.31 0-2.09 1.033-2.09 2.773 0 1.74.78 2.747 2.1 2.747zm8.64 3.707h5.05v-19.41h-5.05v19.41zm28.32-7.562h-5.02c-.3 2.35-1.61 3.73-3.68 3.73-2.44 0-3.91-2.04-3.91-5.49s1.47-5.49 3.91-5.49c2 0 3.39 1.41 3.69 3.76h5.02c-.48-4.91-3.71-7.84-8.7-7.84-5.88 0-9.36 3.56-9.36 9.58s3.48 9.58 9.36 9.58c5 0 8.23-2.92 8.71-7.81zm9.97-5.59c-2.42 0-3.86 1.84-3.86 4.94h-.05V-5.87h-5.04v19.41h5.05V6.65c0-1.46.63-2.343 1.72-2.343.96 0 1.516.68 1.516 1.84v7.386h5.045V5.895c0-3.48-1.614-5.52-4.364-5.52zm14.52.26h5.05v12.9h-5.04V8.85h-.05c0 3.1-1.613 4.94-4.363 4.94-2.953 0-4.72-2.495-4.72-6.704 0-4.21 1.767-6.705 4.72-6.705 2.75 0 4.365 1.84 4.365 4.94h.05V.63zm-1.89 9.2c1.32 0 2.1-1.26 2.1-2.74 0-1.484-.78-2.77-2.09-2.77-1.31 0-2.09 1.037-2.09 2.777s.78 2.748 2.096 2.748zM147.87.38c-2.422 0-3.86 1.84-3.86 4.94h-.05V.623h-5.048V13.53h5.046V6.65c0-1.46.63-2.343 1.716-2.343.96 0 1.514.68 1.514 1.84v7.386h5.047V5.895c0-3.48-1.615-5.52-4.366-5.52zm14.893 0c-2.423 0-3.86 1.84-3.86 4.94h-.052V.623h-5.05V13.53h5.05V6.65c0-1.46.63-2.343 1.72-2.343.96 0 1.52.68 1.52 1.84v7.386h5.05V5.895c0-3.48-1.61-5.52-4.36-5.52zm18.954 6.68v.5h-8.755c.126 1.58.857 2.49 1.993 2.49.933 0 1.64-.456 1.918-1.21h4.845c-.53 3.1-3.052 4.94-6.76 4.94-4.316 0-6.865-2.497-6.865-6.73 0-4.21 2.55-6.68 6.862-6.68 4.24 0 6.76 2.47 6.76 6.68zm-6.76-2.978c-1.086 0-1.793.81-1.97 2.22h3.836c-.15-1.41-.835-2.22-1.87-2.22zm7.826 9.455h5.044v-19.41h-5.045v19.41z" fill="#174A8F" fill-rule="evenodd"/>
</svg>
