<svg class="logo-relieved" width="63" height="40" viewBox="0 0 63 27" xmlns="http://www.w3.org/2000/svg">
  <title>
    Relieved logo
  </title>
  <path d="M2.67731955 25.8062827v1.1308901c0 .8481675.0469705 1.9790576 0 2.6387434C2.63034903 30 1.73790918 30 1.40911555 30c-.2348526 0-.7515283-.0942408-.9863809-.2356021l-.18788206-.1884817s-.0469706-.0471204-.0469706-.1884816v-.6125655c0-.9895288-.1878821-1.9790576-.1409116-3.0157068.14091152-1.2722513 0-2.6858639 0-4.0052356v-2.6387435c.14091152-.9424083-.0469705-1.8848167 0-2.8743455.14091152-2.0732984 0-4.14659686 0-6.31413613V7.80628272C.18788204 6.95811518 0 6.15706806 0 5.2617801v-.61256544c0-.04712042.04697052-.32984293.18788207-.37696335.14091156-.3298429.2348526-.6125654.56364622-.7539267 0-.1413612.093941-.2356021.2818231-.2356021C1.5030566 3.1884817 2.0197323 3.0471205 2.630349 3h1.2212335c2.8182311.14136126 3.71067095 1.60209424 5.02584547 2.82722513.09394103.32984293.2348526.5183246.37576414.84816754.1878821.7539267.1878821.56544503.3757642 1.2722513v.18848168c0 .65968587.2348526 1.460733.1409116 2.12041885v1.2722513c.0939411.56544504 0 1.08376965-.1409115 1.5549738-.09394103.6596859-.18788206 1.2722513-.32879362 1.9319372 0 .4712042-.04697052.895288-.32879363 1.5078534-.04697052.4712042-.2348526.9895288-.42273466 1.3664922-.2818231.6125654-.4697052 1.0837696-.7515283 1.5549738-.2348526.565445-.5166757 1.0366492-1.12729244 1.4136125-.18788206.1413613-.5166757.329843-.70455776.5654451-.2818231.4240837-.7984988.7068063-1.174263.9895288-.14091155.0471204-.18788207.1884816-.09394104.3769633.2348526.2827225.32879364.6125655.61061675.9424084.6106167.7539267 1.268204 1.5549738 1.8318502 2.3560209.7515283.8481676 1.5969976 2.1204189 2.2545849 3.0157068 0 .0942409.0469705.1413613.0469705.2827226.093941.2827225-.14091157.5183246-.37576416.5183246-.093941.0942408-.3287936.0942408-.4227346 0-.32879364 0-.37576416-.1884817-.56364624-.329843-.2818231 0-.32879364-.0471204-.5166757-.1884816-.2818231-.3769634-.65758727-.6596859-.9863809-1.0366493-.4697052-.6596858-1.2212335-1.6020942-1.64396815-2.3089005 0-.0942408-.14091157-.2827225-.2348526-.2827225-.56364623-.6125654-.89243985-1.3193717-1.36214504-2.1204188l-.14091152-.0471205c-.14091156-.1413612-.18788208-.1413612-.2348526-.1413612-.14091155 0-.2348526.1413612-.2818231.1884817v.5183246c.0469705.6125654.0469705 1.13089 0 1.6492146zM7.4213419 10.2565445c0-1.2722513 0-1.0366492-.14091156-2.30890052-.14091155-.5183246-.37576414-.94240838-.5166757-1.60209424 0-.42408377-1.64396814-2.30890053-2.91217214-2.16753927-.5166757 0-.46970518.09424084-.84546933.2827225-.0469705.14136127-.18788207.14136127-.18788207.2356021-.14091155.4712042-.2818231.89528797-.14091155 1.460733.0469705.14136125.0469705.2827225.0469705.5183246-.0469705.56544503-.09394102 1.13089005-.0469705 1.64921466.0469705.42408377.0469705.80104712.0469705 1.2251309v1.97905758c0 .329843 0 .5654451.09394105.7539267.18788207.2827226.18788207.4712042 0 .8010471-.09394104.2827225-.14091155.4712042-.09394104.7539267.2348526.5183246 0 .895288 0 1.4136126-.0469705.4712042-.0469705.9424084.09394104 1.3193717 0 .2827225 0 .329843-.09394104.5654451-.0469705.3298429-.0469705.7068062-.0469705 1.0366492 0 .7068063 0 1.9319371-.04697053 2.6387434 0 .0471204 0 .1884817.04697052.1884817 0 .2827225 0 .3298429.0469705.4712042.2348526.1884817.28182312.2827225.42273468.1884817.46970518 0 .32879363-.0471205.65758726-.329843.5166757-.6596858 1.2212334-1.5078534 1.6909386-2.1204188.187882-.3298429.2818231-.565445.3287936-.7539267.1409115-.4240838.3287936-.9424084.4697052-1.2251309.0469705-.6596859.3287936-1.0837696.4697051-1.6963351.14091156-.6125654.18788207-1.2722513.32879363-1.7905759.2348526-1.1780104.32879363-2.3089005.32879363-3.486911zm5.8591372.32984293v-.47120418c.0469705-1.13089006.0469705-2.35602095.0469705-3.486911 0-.18848167.2348526-.32984293.2818232-.32984293.5166757-.04712042.7984988 0 1.268204 0 .6575872.04712042 1.2212334 0 1.8788207-.14136126.1409115 0 .2818231-.18848167.3287936-.32984293 0-.04712042 0-.32984293-.1878821-.37696335-.0469705 0-.0469705-.09424084-.1409115-.18848168-.1409116-.09424083-.3757642-.09424083-.6575873-.2356021-.187882-.18848166-.5166757-.18848166-.7984988-.18848166-1.2212335 0-2.3954964.14136125-3.6167299.2827225h-.1878821c-.3287936.04712043-.3757641.32984294-.3757641.51832462-.1878821.80104712 0 1.5078534-.1409116 2.30890052 0 2.9685864.1409116 7.20942412 0 10.22513092 0 .8010471-.0469705 1.696335.1409116 2.6387434-.1409116.9895288-.2818231 1.9790576-.1878821 2.921466 0 .7539267-.093941 2.026178.3757642 2.6387434 1.6439681.3769634 3.898553.1884817 5.7304032.1884817.4697052-.1413612.3757641-1.6020942.0469705-1.5078534-.7984988 0-1.4560861.2356021-2.630349.0942409-.1878821.0942408-.5166757-.1884817-.8454693-.1884817-.0469706 0-.1409116-.0471204-.2818232-.1413613-.0469705-.1884816-.0469705-.3298429-.0469705-.3769633 0-.9895288-.0469705-1.9790576-.0469705-2.9685864 0-.6125655-.093941-1.2722513 0-1.9790576-.1409115-.2827225.2348526-1.3664921.0469705-2.1675393 0-.2827225 0-.4712042.3287937-.4712042h.7045577c.3287937-.1413612.6106168.1413613.9394104.0471205.3757641-.0471205.8454693-.2356021 1.174263-.329843.187882 0 .3287936-.3298429.2818231-.4240837-.0939411-.0942409-.1878821-.2356021-.2818231-.2827226-.1878821-.1884816-.4697052-.3298429-.7984989-.3769633-.0469705-.0942408-.093941-.1413613-.3287936-.0942408-.2348526.0942408-.4227346 0-.7515283.0942408-.2818231.0471204-.4697052.1884817-.7984988.1884817-.093941 0-.2818231-.1884817-.4227347-.329843-.0469705-.2827225-.0469705-.4240837 0-.6596858-.0469705-1.4136126-.093941-2.73298432-.0469705-4.09947647zM18.106265 5.9685864c.093941 4.42931936-.0469706 9.5183246 0 13.3821989.093941.4240838.093941.8010472 0 1.2722513 0 .9895288.2818231 1.9790576.2818231 2.9685864 0 .1413613.0469705.2356021.1409115.4712042.1878821.1884817.2348526.4240838.3757642.7068063.0469705.2827225.3757641.6125655.7045577.8010471.3287937.1884817.6575873.5183246.9394104.8010471.1878821.0471205.3287936.0471205.3757642.0471205.6106167.0471204 1.1272924.1884816 1.5969976.0471204.6106167-.0471204 1.1272924-.0942409 1.6909386-.0471204.8924399-.1884817.6106168-1.7905759-.093941-1.6020943-.093941 0-.2348526-.0471204-.4227347 0-.6575872.0942409-2.1136733.0942409-2.8182311.1413613-.187882 0-.5166757-.1413613-.6106167-.4712042 0-.0942408-.093941-.3298429-.1878821-.4240838-.0469705-.9895288-.1409115-1.8848167-.0469705-2.7329843v-.8010471c-.093941-.6596859-.1409115-1.1780105-.093941-1.9790576v-1.4136125c-.2348526-.895288 0-5.27748696 0-6.21989533 0-1.83769634.1409115-2.92146597 0-5.2774869 0-.80104713-1.5030566-1.03664923-1.6439682-.51832462-.187882.32984293-.187882.5183246-.187882.84816754zm9.7107197 9.5183246v-2.4502618c0-.94240836.0469705-1.97905758 0-2.82722512-.093941-1.2251309.0469705-2.40314136 0-3.5340314 0-.32984294 0-.65968587-.093941-.84816755 0-.32984293-.3287937-.4712042-.5166758-.65968586-.187882-.32984293-.3757641-.32984293-.7984988-.32984293-.187882 0-.4227346.32984293-.4227346.5183246.0469705.9895288.0469705 2.07329843 0 2.9685864v1.13089004c0 2.2617801.0469705 4.47643982 0 6.78534032v4.4293194c.0469705 1.0837696.0469705 2.2617801.0469705 3.3926701 0 .3769634-.0469705.7539267-.0469705 1.0837697 0 .2356021 0 .4712041.0469705.6125654.2818231.8010471 1.5969976 1.2722513 1.6909387-.1884817.2348525-1.0837696 0-2.9685864.093941-3.486911 0-.4240837.0469705-.8010471 0-1.2251309-.093941-.6596858 0-1.2251308-.093941-1.9790575.093941-.4240838.093941-1.0366493.093941-1.5549739-.093941-.3298429 0-.7539267 0-1.0837696.0469705-.3298429 0-.565445 0-.7539267zm4.0742575-4.90052357v-.47120418c.0469705-1.13089006.0469705-2.35602095.0469705-3.486911 0-.18848167.2348526-.32984293.2818231-.32984293.5166758-.04712042.7984989 0 1.268204 0 .6575873.04712042 1.2212335 0 1.8788208-.14136126.1409115 0 .2818231-.18848167.3287936-.32984293 0-.04712042 0-.32984293-.1878821-.37696335-.0469705 0-.0469705-.09424084-.1409115-.18848168-.1409116-.09424083-.3757642-.09424083-.6575873-.2356021-.1878821-.18848166-.5166757-.18848166-.7984988-.18848166-1.2212335 0-2.3954964.14136125-3.6167299.2827225h-.1878821c-.3287936.04712043-.3757641.32984294-.3757641.51832462-.1878821.80104712 0 1.5078534-.1409116 2.30890052 0 2.9685864.1409116 7.20942412 0 10.22513092 0 .8010471-.0469705 1.696335.1409116 2.6387434-.1409116.9895288-.2818231 1.9790576-.1878821 2.921466 0 .7539267-.093941 2.026178.3757642 2.6387434 1.6439681.3769634 3.898553.1884817 5.7304032.1884817.4697052-.1413612.3757641-1.6020942.0469705-1.5078534-.7984988 0-1.4560861.2356021-2.630349.0942409-.1878821.0942408-.5166757-.1884817-.8454694-.1884817-.0469705 0-.1409115-.0471204-.2818231-.1413613-.0469705-.1884816-.0469705-.3298429-.0469705-.3769633 0-.9895288-.0469705-1.9790576-.0469705-2.9685864 0-.6125655-.093941-1.2722513 0-1.9790576-.1409116-.2827225.2348526-1.3664921.0469705-2.1675393 0-.2827225 0-.4712042.3287936-.4712042h.7045578c.3287937-.1413612.6106168.1413613.9394104.0471205.3757641-.0471205.8454693-.2356021 1.1742629-.329843.1878821 0 .3287937-.3298429.2818232-.4240837-.0939411-.0942409-.1878821-.2356021-.2818232-.2827226-.187882-.1884816-.4697051-.3298429-.7984988-.3769633-.0469705-.0942408-.093941-.1413613-.3287936-.0942408-.2348526.0942408-.4227347 0-.7515283.0942408-.2818231.0471204-.4697052.1884817-.7984988.1884817-.093941 0-.2818231-.1884817-.4227347-.329843-.0469705-.2827225-.0469705-.4240837 0-.6596858-.0469705-1.4136126-.093941-2.73298432-.0469705-4.09947647zM45.0777803 5.4973822c-.0469705-.89528796-1.3151745-.89528796-1.4560861-.04712042v.14136126c0 1.5078534-.3757641 3.0157068-.7045577 4.38219895-.1878821.6125654-.1878821 1.2251308-.2818231 1.7905759-.1878821.9424083-.5166757 2.9685864-.5636463 3.9581152-.1409115.7539267-.1409115 1.4136126-.2348526 2.1204188 0 .329843 0 .6596859-.093941.9895288-.093941.6125655-.2348526 1.2722513-.3287936 1.8376964 0 .4240837 0 .8010471-.0939411 1.1780104-.2348525.7539267-.2348525 1.4136126-.3287936 2.1204189-.0469705.1884817-.0469705.4240838-.1409115.5183246-.0939411.2827225-.1878821.3298429-.3287937.4712042-.0469705.1884817-.187882.1884817-.3287936 0-.3757641-1.1308901-.6575873-4.5235602-.7045578-5.7486911 0-.2356021-.0469705-.5183246-.0469705-.7068063.0469705-1.0366492-.2818231-1.9790576-.2818231-2.9685864 0-1.6020942-.1409116-2.8272252-.1409116-4.4293194 0-.1884817-.0469705-.3769634-.0469705-.5183246-.093941-.6125655-.187882-1.8376964-.2818231-2.3089006V5.9214659c0-.2827225-.1409115-.4712042-.1878821-.7539267-.3757641-.7068063-1.9727617-1.17801047-1.9257912 1.2722513 0 1.7905759.1409115 3.43979058.1409115 5.08900524 0 .2356021 0 .37696336.0939411.6596859.1878821 1.6963351.1878821 3.5340314.3757641 5.3246073 0 1.0366492.3287937 2.1675393.3757642 3.2984293.2348526.8481676.2818231 1.7905759.4227346 2.6387435.1878821.5183246.2348526.9895288.3757642 1.460733.1409115.1413612.1878821.2356021.1878821.3298429.3287936.3769633.5636462.7068063.9394103.895288.3287937.2827225.7984988.3298429 1.174263.2827225.1878821-.0471205.4227347-.2827225.4697052-.329843.187882 0 .2818231-.0471204.3287936-.2827225.2818231-.5183246.6106167-1.0366492.6575873-1.6963351.0469705-.5183246.1409115-.9424083.187882-1.4607329 0-.6596859.3287937-1.3193718.4227347-1.9790576.1878821-.6596859.1878821-1.460733.2348526-2.1675393 0-.1884817 0-.3298429.093941-.6125654.1878821-.3769634.2348526-.8481676.2348526-1.3193718.0939411-.7068063.1409116-1.5078534.3287936-2.2146597 0-.4712041.2818232-1.8376963.4227347-2.1675392.093941-.6596859.1878821-1.2251309.1878821-1.88481678 0-.09424085.0469705-.37696336.1878821-.5183246.1409115-.37696337.187882-.80104714.2818231-1.2251309 0-.61256545.093941-1.2251309.187882-1.7905759.1409116-.4712042.1878821-.9424084.1878821-1.27225133zm3.5106113 5.08900523v-.47120418c.0469705-1.13089006.0469705-2.35602095.0469705-3.486911 0-.18848167.2348526-.32984293.2818232-.32984293.5166757-.04712042.7984988 0 1.2682039 0 .6575873.04712042 1.2212335 0 1.8788208-.14136126.1409115 0 .2818231-.18848167.3287936-.32984293 0-.04712042 0-.32984293-.1878821-.37696335-.0469705 0-.0469705-.09424084-.1409115-.18848168-.1409116-.09424083-.3757642-.09424083-.6575873-.2356021-.187882-.18848166-.5166757-.18848166-.7984988-.18848166-1.2212335 0-2.3954964.14136125-3.6167299.2827225h-.1878821c-.3287936.04712043-.3757641.32984294-.3757641.51832462-.1878821.80104712 0 1.5078534-.1409116 2.30890052 0 2.9685864.1409116 7.20942412 0 10.22513092 0 .8010471-.0469705 1.696335.1409116 2.6387434-.1409116.9895288-.2818231 1.9790576-.1878821 2.921466 0 .7539267-.093941 2.026178.3757642 2.6387434 1.6439681.3769634 3.898553.1884817 5.7304032.1884817.4697052-.1413612.3757641-1.6020942.0469705-1.5078534-.7984988 0-1.4560861.2356021-2.630349.0942409-.1878821.0942408-.5166757-.1884817-.8454693-.1884817-.0469706 0-.1409116-.0471204-.2818232-.1413613-.0469705-.1884816-.0469705-.3298429-.0469705-.3769633 0-.9895288-.0469705-1.9790576-.0469705-2.9685864 0-.6125655-.093941-1.2722513 0-1.9790576-.1409115-.2827225.2348526-1.3664921.0469705-2.1675393 0-.2827225 0-.4712042.3287937-.4712042h.7045577c.3287937-.1413612.6106168.1413613.9394104.0471205.3757641-.0471205.8454693-.2356021 1.174263-.329843.187882 0 .3287936-.3298429.2818231-.4240837-.0939411-.0942409-.1878821-.2356021-.2818231-.2827226-.1878821-.1884816-.4697052-.3298429-.7984989-.3769633-.0469705-.0942408-.093941-.1413613-.3287936-.0942408-.2348526.0942408-.4227347 0-.7515283.0942408-.2818231.0471204-.4697052.1884817-.7984988.1884817-.093941 0-.2818231-.1884817-.4227347-.329843-.0469705-.2827225-.0469705-.4240837 0-.6596858-.0469705-1.4136126-.093941-2.73298432-.0469705-4.09947647zm5.107609 11.21465967l.0469705-7.7277487c0-.9895288-.0469705-1.97905756 0-2.96858636.093941-.4712042 0-.89528796 0-1.5078534.093941-1.03664922-.0469705-2.16753927-.0469705-3.34554974 0-.09424084.0469705-.09424084.0469705-.2356021 0-.18848167.2818231-.56544502.4697052-.56544502.7984988-.09424084 2.3015554-.32984293 3.3349068 0 .2348526.04712042.5636462.04712042.6575872.14136126.7515283.18848167 1.3151745.42408377 1.8788208.84816754.2348525.18848167.4227346.32984293.6575872.65968586.1878821.32984293.4227347.65968586.6575873 1.0366492.187882.1884817.2348526.4712042.2348526.61256546.1409115.56544503.4227346 1.0366492.5166757 1.55497382.1409115.61256545.4227346 1.08376963.4227346 1.60209424.1409116 1.13089004 0 1.93193714.1409116 3.43979054.0469705.329843.0469705.5654451 0 .895288-.1409116.4712042-.2348526.9895288-.2348526 1.460733-.0469705 1.13089-.093941 2.3089005-.3757642 3.3926701 0 1.1780105-.5166757 2.2146597-.9863808 3.2984294-.1409116.0942408-.1878821.2356021-.3287937.4240837-.4697052.4712042-.9863809.9424084-1.5030566 1.2722513-.1409115.0471205-.3287936.1413613-.5166757.2827225-.6575872.0471205-1.3151745.2356021-1.9257912.3769634-.3287936.0471204-.7045578 0-1.0333514 0-.4697052-.1884817-.8924399-.3298429-1.2212335-.6125654-.1878821-.0471205-.3287936-.329843-.4227347-.4240838-.1409115-.3298429-.1409115-.6596859-.2818231-1.0837696-.187882-.895288-.187882-1.8376964-.187882-2.8272252zm6.9046662-7.5863874c.2348525-.9424084.1409115-1.9319372-.0939411-2.92146598 0-.89528796-.1878821-1.7434555-.4227346-2.63874346-.0939411-.65968586-.4227347-1.17801047-.7984989-1.55497382-.093941-.09424084-.1409115-.2827225-.2818231-.32984293-.187882-.1884816-1.0333514-.3298429-1.362145-.3298429-.4697052-.0942408-.7984988 0-1.268204.1413613-.1878821 0-.2348526.0942409-.2348526.1884817 0 .6596859.0469705 1.3664922.0469705 1.9790576-.187882.4712042 0 3.8638744-.0469705 4.1937173v.47120426c.0939411.8481675.0469705 1.7434555 0 2.4973822-.093941.8010471-.1409115 1.6020942 0 2.4031413.0469705.5654451.0469705 1.1780105 0 1.7905759-.1409115.9895288-.1409115 1.9790576-.1409115 2.8743456v.6125654c.1409115.4712042.1409115.895288.0469705 1.3664922 0 .0942408.093941.1884817.093941.1884817.0469705.1413612.3287936.2827225.3757642.2827225 1.1742629-.2827225 2.4894374-.9895288 2.9121721-2.1675393.3757641-.9895288.7045578-1.9319372.8924398-2.8272251.0939411-.6125655.1409116-.9895288.1878821-1.5549738.0939411-1.0366493.2348526-2.1675393.0939411-3.2041885v-1.460733z" fill="#F77062" fill-rule="evenodd"/>
</svg>
