<svg width="99" height="40" viewBox="0 0 99 25" xmlns="http://www.w3.org/2000/svg">
  <title>
    Sweet&amp;Sav logo
  </title>
  <path class="logo-sweet" d="M5.6903 21.281c-.1122-.0747-.0187-.1683 0-.262.0375-.3555.1684-.7298-.131-1.048-.0935-.1123-.187-.206-.318-.2246-.8795-.1123-1.7403-.1684-2.5075.3743-.1684.1123-.3368.2246-.524.2995-.056 0-.1122.0187-.1496.056-.2807.468-.8234.7114-1.0666 1.2354-.1123.262-.262.5053-.3368.786-.0936.2434-.1872.5054-.075.7862.0188.0187.0375.0748.0188.0935-.2994.6364.262.9546.5427 1.3476.1684.224.3555.393.6736.393.112 0 .224.131.355.187.131.056.262.168.411.131.468-.075.935.037 1.384-.094.299-.113.636-.244.898-.412.393-.262.786-.543 1.122-.899.355-.431.711-.861 1.029-1.292.187-.244.374-.524.505-.805.075-.15.15-.318.281-.449.112-.113.149-.262.187-.412.056-.225.206-.431.262-.618.262-.842.617-1.703.15-2.583-.281-.506-.768-.711-1.31-.749-.449-.019-.917.093-1.385.075-.955-.038-1.928-.056-2.826-.543-.506-.281-.674-.711-.711-1.198-.075-.599.093-1.217.299-1.759.187-.468.449-.936.73-1.366.28-.431.617-.843.954-1.236.879-1.03 1.908-1.891 3.125-2.471.991-.487 2.039-.786 3.162-.543.655.15 1.235.43 1.665 1.01.318.449.355.861.206 1.366-.113.449-.337.861-.562 1.254-.243.411-.618.73-.917 1.104-.038-.038-.075-.057-.113-.075.262-.487.486-.973.804-1.423.262-.375.112-.824.262-1.217.018-.038-.056-.15-.113-.206-.468-.524-1.385-.637-2.04-.375-.599.262-1.048.711-1.609 1.029-.206.112-.318.411-.524.58-.412.355-.674.823-1.011 1.254-.3.374-.468.823-.749 1.179-.356.468-.43.992-.655 1.478-.15.299-.112.617-.112.936 0 .43.412.786.824.655.412-.112.861.056 1.216-.262.823 0 1.703-.225 2.489.206.449.243.767.655.898 1.16.075.318.28.673-.038.992-.019.018-.019.037-.019.056.243.655-.131 1.235-.281 1.834-.15.561-.337 1.123-.73 1.591 0 .617-.636.879-.805 1.403-.056.131-.169.262-.281.356-.299.262-.524.599-.805.824-.524.411-1.029.861-1.647 1.141-.244.112-.58.094-.73.374-.019.019-.075.056-.094.038-.318-.056-.58.149-.861.168-.431.038-.898.131-1.348.056-.636-.112-1.31-.206-1.778-.674-.485-.485-.934-1.009-.897-1.776.019-.3-.112-.58-.093-.899.056-.412.206-.786.337-1.198.224-.637.711-1.086 1.141-1.554.187-.225.412-.449.73-.524.056-.019.131-.038.168-.094.561-.505 1.272-.599 1.965-.674.524-.056 1.085-.056 1.553.318.318.262.58.973.468 1.366-.057.187-.187.3-.337.412-.112.056-.243.075-.337 0zm4.6594-3.088c-.0374-.0374-.0936-.0562-.1497 0 .056.056.1123.056.1497 0zm-.5053-.4305c-.0748.0562 0 .1123.0375.1497.037.0375.093.0562.149 0 0-.1122-.075-.1497-.187-.1497zm-.0187 1.329c0 .0186-.0187.0186-.0187.0186v.094h.0374c0-.037 0-.075-.0187-.112zm-.2058.0934l-.019.037h.037l-.019-.037zm2.226-10.163l-.019-.019v.037l.018-.019zm-.487-.038c-.019 0-.019.037-.038.056.037 0 .093 0 .131.019v-.037c-.038-.019-.056-.038-.094-.038zm-.337-.094c-.019.018-.038.018-.019.037 0 .019.018.019.018.019.018.018.037 0 .037-.019-.019-.019-.038-.019-.038-.038zm-.356-.449c-.019-.019 0-.057-.056-.019.018.018.037.018.056.018v.037h.018c0 .037 0 .075.056.037-.019-.019-.037-.019-.056-.038V8.46c-.019 0-.019 0-.019-.0186zm-.636.243c-.075.037-.057.093-.019.15.074-.057.074-.094.018-.15zm-.356-.037c-.075-.075-.131-.131-.206.018.075-.019.131-.019.206-.019zm-.58.243c0 .019-.019.037-.019.037l.037.037c0-.019.018-.056.018-.075h-.037zm-.674.019h-.037l.018.037.019-.038zm-.692 1.422c-.038 0-.056.019-.075.019.019.037.019.074.037.112.018-.019.037-.019.037-.019v-.112zm-.449-.393c.056.056.112.056.149-.038-.056-.019-.112-.056-.15.037zm-.056-.955c-.019.018-.019.037-.038.056.037 0 .075 0 .224.019-.131-.057-.169-.075-.188-.075zm-.131.318c-.038 0-.075 0-.112.018 0 0 0 .018.018.018h.112c-.019-.019-.019-.019-.019-.038zm.093 1.385c-.075 0-.15.018-.243.037l.058.17c.093-.056.187-.056.187-.206zm-.599.524c0 .018-.038.018-.019.037 0 .037.019.037.037 0 .018-.019 0-.019-.019-.038zm-1.085.655v-.038h-.15v.037H5.5zm.187-.281c.056-.075.131-.094.093-.169-.038-.019-.075-.038-.113-.038l-.113.056c.037.056.075.093.131.149zM6.4 9.508h-.018v.038l.0188-.038zm-.318 1.8906c0 .0188-.0374.0375-.0374.0375.0183.056.056.056.0744 0l-.0375-.037zm-.2995-1.497c-.0936 0-.131.0187-.131.0936.0187.0375.075.056.1123.075.056-.056.075-.112.0188-.1683zm-.262.992c-.0187 0-.0187.0374-.0374.056.038.0188.075.0188.131.0188v-.0374c-.037-.0185-.075-.0185-.093-.0372zm-.262-.5615v.094c.0375.019.075.038.1685.056-.019-.187-.019-.187-.1686-.15zm-2.6005 4.38c.0375 0 .075-.018.1685-.018-.019-.112-.019-.168-.0376-.262-.131.075-.206.15-.131.281zm.4117.992c.019 0 .019-.019.019-.037-.037 0-.0747-.018-.112-.037 0 0-.0187.056-.0187.075h.1124zm.281.187c.131 0 .131 0 .131-.149-.056.038-.131.056-.131.15zm.281-.673c.0185 0 .0185-.037.0372-.056-.038-.018-.075-.018-.112-.018-.019.019-.019.019-.019.037.037.019.075.019.093.038zm.3366 1.292c.075-.075.0562-.15 0-.262-.0374.112-.1123.206 0 .262zm.0562-2.395c-.0377-.056-.0564-.112-.0938-.168.056-.056.1122-.094.187-.15.1123.075.2433.169.4117.075l.056-.112c-.131-.112-.2616 0-.3926-.037-.243-.131-.243-.131-.4115-.037-.0187.037-.0374.094-.075.15.075.112.206.225.0563.374-.0564 0-.0938.019-.131.019v-.019h-.019c-.0187-.056-.0187-.112-.0187-.206-.094.131-.056.169.019.206v.019h.019c0 .094 0 .206.15.169.074-.094.224-.15.243-.281zm.1495.281l.019-.037h-.037l.019.038zm.318 2.209c.0377-.112.0938-.205.131-.299-.112-.093-.2056-.075-.2804-.018 0 .244.0186.3.1496.318zm.0564-1.628c.0186.113.0186.113.1496.113-.0187-.075-.0374-.131-.1497-.112zm.2993 1.703c.019.038.0374.038.056 0l-.0187-.019c-.018 0-.037.019-.037.019zm.056-.823v-.037c-.037-.075-.0747-.094-.131-.037.019.038.0376.075.0563.094.0188 0 .056 0 .075-.018zm-.037-1.142c.075-.056.1495-.075.0934-.168-.112-.019-.149.019-.093.169zm.58 2.04c0 .038 0 .075.056.019-.0188 0-.0375-.019-.056-.019v-.019c-.019 0-.019 0-.019-.018-.0186-.019 0-.075-.075-.019.019 0 .0564.019.075.019v.019c0 .019 0 .019.019.019zm1.89-.037c.0185 0 .056-.018.075-.018 0-.019 0-.037-.019-.037h-.075c-.019 0-.019.019-.019.038 0 0 .0188.019.0375.019zm2.0956 4.997c-.0562 0-.0936 0-.1684.019.075.038.112.075.168-.018zm-.4117.674c.056-.018.0936-.037.15-.056-.019-.056-.0377-.093-.056-.149-.0566.019-.094.038-.15.075.0185.038.0372.094.056.131zm.075-.842h.0373l-.019-.037-.019.037zm.056-3.855c-.056-.131-.056-.131-.187-.094 0 .057.0186.094.0373.131.056 0 .093-.018.149-.037zm-.393 4.623c-.0187-.018-.0374.019-.056.038.0186 0 .0373.019.0373.019.037 0 .056-.018.093-.037-.019 0-.056-.018-.075-.018zm-.056-5.839l-.0188.019h.0376l-.019-.018zm0 6.046c-.0937.15.0373.187.1122.262.0376-.056.075-.093.15-.15-.1123-.037-.187-.075-.262-.112zm-.0937-5.596c.075-.075.056-.131 0-.187-.038.019-.075.038-.15.056.056.056.112.094.149.131zm0 5.184c-.038.019-.038.038 0 .056l.018-.018c0-.018-.019-.037-.019-.037zm-.019.73c0 .038 0 .075-.019.225.056-.131.075-.168.075-.206-.019 0-.038 0-.057-.018zm-.599.861c.056-.056.074-.112.018-.168h-.111c0 .038-.019.075-.038.131.037 0 .093.019.131.038zm.318-1.984l-.019.019h.037l-.019-.019zm.112.505l-.15-.15c.037.206.037.206.15.15zm-.206.281c-.038.056-.038.093-.056.112 0 .019.019.037.037.037 0 0 .037 0 .037-.018 0-.037-.019-.056-.019-.131zm-.113.486c-.056.019-.094.038-.169.056.075.075.112.113.168.15.056-.018.093-.037.168-.056-.075-.075-.112-.112-.168-.15zm-.187-.767h-.131v.038h.131v-.037zm-.412 1.498c-.019 0-.038.019-.038.037 0 0 .018.018.037.018l.019-.018c0-.019-.019-.037-.019-.037zm-.131-.786v.112h.056c0-.037-.019-.075-.019-.112h-.037zm-.281 1.104c-.019.019-.019.056-.038.112l.336.112c.038-.056.075-.093.113-.15.131-.018.281.019.299-.168-.075-.056-.169-.056-.243-.019-.15.075-.3.075-.468.112zm-.898.58s-.019.038-.019.056c.037.019.074.019.112.019 0 0 0-.019.019-.037-.038-.019-.075-.019-.112-.037zm-.636.225v.15c.15.037.28.075.43.112 0 0 .018-.037.037-.037v-.131c-.075 0-.169 0-.244-.019-.075-.019-.15-.056-.225-.075zm-.88.599v.131c-.038.113-.225.187-.075.337h.168l.262-.262c-.019-.075-.019-.131-.037-.206-.019-.037-.075-.075-.112-.112-.075.037-.15.075-.206.112zm-.936.225c-.057.075-.057.15.056.281.056-.074.093-.112.131-.168-.056-.075-.094-.15-.187-.112zM2.45 25.63c0 .0183-.038.037-.019.037 0 .0374.037.0374.056 0l-.038-.037zm-.898-.187l-.019.037h.018v-.037zm21.338-9.96c.112 0 .206 0 .262.1124.037.0936-.038.1498-.094.187-.038.019-.075.0564-.075.075 0 .3744-.356.4867-.543.7113-.075.112-.187.187-.243.299-.056.094-.131.15-.244.206-.281.15-.562.281-.805.524-.019.019-.056.0376-.094.056-.524.056-.992.262-1.516.262-.131 0-.244 0-.337-.056-.374-.113-.487-.057-.636.28-.3.786-.58 1.609-.955 2.377-.075.131-.019.318-.113.411-.15.168-.262.318-.206.561 0 .037-.056.0936-.094.131-.131.075-.169.206-.206.3556-.094.337-.225.655-.449.936-.056.056-.094.15-.112.2248-.094.244-.262.412-.505.468-.169.038-.3.187-.487.206-.187.038-.375.113-.58.019-.056-.019-.131-.038-.187-.019-.225.131-.393.019-.543-.131-.206-.187-.487-.337-.468-.674 0-.093-.019-.168-.056-.262-.094-.224-.131-.468-.113-.711.018-.243.018-.487-.056-.73-.038-.056-.075-.131-.038-.187.168-.412-.056-.842.075-1.254 0-.019-.019-.056-.056-.112-.318.281-.561.599-.879.842-.131.075-.225.112-.374.131-.318.019-.618-.019-.898-.168-.3-.169-.505-.374-.58-.73-.038-.243-.075-.487-.056-.73 0-.131.018-.262-.038-.393-.018-.038-.037-.094-.018-.15.131-.599.28-1.216.43-1.815.037-.149.131-.262.206-.393.018-.037.093-.074.093-.112-.075-.355.2432-.561.3742-.823.168-.281.336-.599.598-.842.075-.037.131-.075.187-.15.206-.224.2434-.224.487-.075.206.131.374.281.449.524.019.075.056.169.019.225-.131.243-.1127.505-.281.749-.225.3-.337.674-.4867 1.03-.1125.3-.187.599-.2435.88-.1125.524-.318 1.048-.1686 1.591.056.187-.037.356-.037.58.262-.093.393-.281.4863-.468.075-.15.1682-.281.2992-.393.075-.056.15-.131.168-.206.187-.543.692-.917.842-1.478.019-.094.131-.187.187-.281.037-.037.112-.075.112-.112 0-.318.243-.543.355-.805.131-.318.243-.692.561-.898.15-.093.262-.112.393 0 .206.169.374.356.318.693-.056.468-.131.936-.206 1.404-.093.655-.262 1.31-.243 1.984v.037c0 .206-.262.337-.112.599.094.206-.075.43-.075.655 0 .206.056.468-.038.636-.112.281.037.506.019.749-.019.262-.056.524.018.767.038.075.038.15.075.225.056.131.15.187.281.093.112-.056.206-.131.262-.262.225-.43.487-.842.655-1.291.15-.449.374-.861.543-1.273.149-.374.28-.73.467-1.085.243-.468.393-.973.58-1.46.037-.093-.019-.149-.094-.187-.356-.149-.543-.468-.749-.767-.225-.299-.318-.617-.169-.973.038-.093.038-.206.038-.299-.018-.15.038-.243.113-.355.169-.355.375-.692.655-.992.225-.243.468-.449.805-.486.131-.019.243-.019.299.112.169.281.356.561.337.936 0 .28-.075.561.019.842v.075c-.243.224-.075.524-.169.767-.094.243-.131.524-.281.767 0 .019-.018.038-.018.075-.038.169.018.243.187.243.748-.018 1.478-.112 2.133-.486.224-.131.542-.225.655-.524.037-.112.262-.093.28-.187.075-.281.375-.374.468-.636.019-.093.112-.168.225-.187zm-3.705-.7486c0 .0188-.038.0376-.038.0376 0 .019.019.056.038.075 0-.019.019-.038.037-.056 0-.019-.019-.038-.038-.057zm-1.553 1.123s.018 0 .018-.0186l-.018-.019-.019.019c0 .018.019.018.019.018zm0-.2994l.018-.019c0-.019 0-.019-.018-.038 0 .018-.019.018-.019.037l.019.019zm-4.51-.3c-.056.018-.075.018-.112.037 0 .037.019.075.037.112.037-.019.074-.019.112-.038-.019-.038-.038-.075-.038-.113zm-.15-.431c-.037-.037-.074-.037-.112.019.056.037.094.037.113-.019zm-.318.973c-.037.056-.056.093.019.168l.131-.131c-.075-.019-.112-.019-.15-.038zm-.075-.131l-.018.018c0 .0375.019.0375.037 0l-.019-.0187zm-.093-.393s-.019.018 0 .018c0 .019 0 .019.019.0374 0-.019 0-.0374.019-.056h-.038zm-.244 1.796c.019.037.038.037.056.019 0-.019-.018-.019-.037-.038 0 .0183-.019.0183-.019.0183zm.206-.992v-.018c-.019 0-.019-.019-.019-.019l-.038.037h.056zm-.037-.973c-.019 0-.056.019-.15.056h.168c0-.019-.019-.056-.019-.056zm-.15.393c0 .019-.019.019-.019.019.018.019.018.019.037.019v-.019l-.019-.019zm-1.16 2.021s-.019.018-.019.037c0 0 0 .019.019.019l.019-.019c0-.019-.018-.019-.018-.0378zm.019.262s0-.019-.019-.019c0 0-.019 0-.019.018.019 0 .019.019.037.019v-.019zm-.15.992c-.019 0-.038.018-.056.018.019 0 .019.019.037.019h.019v-.038zm.037.861c-.018-.019-.018-.019-.018-.038 0-.0378.018-.094-.056-.1127-.038.056-.019.112.056.112v.018l.018.0184zm0 0v.018c.019.018.019 0 .038 0-.019 0-.038-.019-.038-.019zm-.018-1.217h.149c-.056-.056-.093-.056-.149 0zm1.141-2.714c-.019-.057-.056-.113-.112-.094 0 .112 0 .112.112.0933zm-.094 1.441c-.038 0-.038.018 0 .037l.019-.019c0-.019 0-.019-.018-.019zm-.075.374l-.019.019c0 .018.018.018.037.018v-.0188l-.019-.0185zm-.019 1.0852c0 .038 0 .075-.019.131.075-.018.131-.056.112-.112-.019 0-.037-.019-.094-.019zm.018.693c-.038.019-.075.038-.113.038 0 .056.019.075.038.112.037 0 .074-.019.112-.038-.019-.0376-.038-.075-.038-.1125zm-.019-.3555c0 .019.018.019.018.019.019 0 .019 0 .019-.0186l-.019-.018c-.019 0-.019.018-.019.018zm-.094-1.31c-.056-.0372-.094-.075-.15 0l.112.1125c.018-.056.018-.075.037-.112zm-.58.318s0-.0183.019-.0183c-.019 0-.019-.019-.019-.019-.019 0-.019 0-.038.019.018 0 .037.018.037.019zm.149-.2242c.093-.074-.019-.131-.019-.187.018-.018.018-.056.037-.075 0 0-.019-.018-.0378-.018h-.112c.019.094.019.15.019.206.0374.0377.075.056.112.075zm.131.974c0 .1126 0 .1126.112.1126-.019-.018-.019-.056-.038-.056-.0188-.018-.037-.037-.075-.056zm.093-.5612c.037-.019.075-.038.112-.038-.019-.0374-.019-.075-.0378-.1123-.038 0-.075.019-.1125.0373.0182.038.037.075.037.113zm.561 2.302c0-.038.0183-.056.0183-.094l-.224-.112c-.0934.037-.15.075-.206.112-.0184.0186-.0184.056-.0184.075.037.0185.056.037.093.037.112 0 .224.0187.337-.019zm3.162-2.695c.056-.075.131-.094.131-.169l-.056-.056-.0938.0935c0 .0377 0 .075.0186.131zm.0935-.318c.056-.056.056-.094 0-.15-.056.056-.056.093 0 .149zm0-1.385c-.019 0-.019.019-.0373.019 0 .018.0185.018.0185.037.019-.019.019-.019.037-.019-.019-.019-.019-.019-.019-.0376zm.0936.318c-.056-.038-.112-.094-.168-.169-.056.056-.112.075-.094.131.113.056.113.056.094.1497-.037 0-.075-.056-.131 0 .019.1124.075.1686.187.1686.038-.075.075-.1686.113-.281zm-.15-.899c-.037-.056-.075-.056-.131 0 0 .019.019.056.019.0936.037 0 .075-.019.112-.019v-.075zm-.15.2434v.019h.019c-.019.075-.019.15.037.2247.019-.019.056-.019.094-.0376 0-.112-.038-.168-.131-.187-.019 0-.019-.019-.019-.019zm.131 1.46c-.056-.037-.131-.075-.187 0 .056.0377.131.056.187 0zm-.15.3746c-.018 0-.037-.019-.037-.019l-.019-.019c0-.038-.018-.094-.018-.131-.019.056-.075.112.019.131v.018h.019c0 .018 0 .018.018.037l.019-.019zm-.056-1.367c-.037-.056-.093-.075-.131-.018.019.0378.056.075.094.112.019-.037.037-.074.037-.093zm-.112.506c-.037 0-.037.019 0 .038l.019-.019-.019-.0184zm.019.487c0-.0184 0-.0184-.019-.0184 0 0-.018 0-.018.018l.019.018.019-.018zm-.187-.786c-.038.075 0 .1125.093.1125.019-.0372.019-.075.038-.094-.056-.037-.094-.075-.131-.019zm0 1.7595c-.019.019-.056.019-.113.0377.019.037.038.075.038.0933.056.0188.094.0188.113.0188h.019c.019.0938.075.075.15.075v.018c.018.038.018.075.018.131h.112c0-.093-.056-.112-.131-.131v-.019c-.019-.094-.093-.075-.149-.075h-.019c0-.056.019-.094-.037-.15zm-.075.599c.093 0 .187.056.262-.0373-.038-.019-.056-.056-.112-.094-.056 0-.112.019-.168.019 0 .0375 0 .075.019.1124zm.187 3.144h-.037c0 .019-.018.019-.018.019l.037.0375c0-.019 0-.0374.019-.0562zm-.15-2.545l-.018-.0184c-.037 0-.037.0187-.018.037.019 0 .038-.0184.038-.0184zm-.187-2.508l-.019.019c0 .0187.019.0187.019.0187s.019 0 .019-.019c0 0 0-.019-.019-.019zm-.131 1.909c-.037.075-.131.075-.112.15.075.0188.131.0375.187 0 0-.0373.019-.056 0-.075 0-.0185-.018-.0372-.075-.075zm-.299-.73c-.056-.037-.094-.037-.131.019.037.019.075.056.131-.019zm-.169-.1493c0-.019-.018-.0377-.037 0 0 0 0 .019.019.037 0-.0187.019-.0187.019-.0374zm-.149.861c-.037-.0378-.094-.0378-.131 0 .037.037.075.037.131 0zm-.243.206c.019-.056.019-.075.019-.075 0-.019-.018-.0378-.018-.075-.018.019-.056.019-.056.0372l-.056.056c.038.018.057.037.113.056zm.038.8792c.019.037.038.037.056 0l-.018-.019c-.018 0-.037.0186-.037.0186zm.075.281v-.019c.037 0 .094.037.131-.056-.056 0-.112-.019-.131.056h-.019v.0183h.019zm.131.262c-.019 0-.019-.019-.019-.019-.018 0-.037.0183-.037.0183 0 .019.019.019.019.0376l.037-.037zm-.094.355c-.037.0374-.056.0935 0 .131.019 0 .057 0 .094-.019 0-.037 0-.0746-.018-.093-.018 0-.056-.019-.075-.019zm-.018 1.291c.019.019.019 0 .038-.019-.019 0-.019-.019-.019-.019-.037.0184-.037.037-.019.037zm.187-.767l.094-.094c-.094-.056-.15-.056-.225 0 0 .0184.019.056.019.0933H14zm.15-1.572c.019-.056.019-.094-.037-.113-.056-.019-.093 0-.093.075-.056 0-.093-.019-.131.018.075.0565.075.0565.131-.0184.038.0188.075.0375.131.0375zm.225 1.703c.038-.075.056-.169 0-.244-.037 0-.056-.019-.093-.019l-.112.113c.113.1685.113.1685.206.15zm-.037-3.07c.056-.038.112-.056.112-.131-.056-.038-.131-.056-.187.0183 0 .075.019.1124.075.1124zm.131 1.9273l.169-.056c.056.0187.093.0374.131.056.075-.056.131-.112.075-.206-.038.019-.094.0377-.131.075-.056-.056-.075-.112-.113-.1496-.093-.0185-.149.0376-.168.1125 0 .019.019.038.038.056-.019.038-.094.094 0 .113zm.281 1.666c-.018.037-.037.056-.037.075 0 .018.037.037.037.056.019-.019.037-.038.037-.056.019-.019 0-.038-.019-.0565 0-.019-.018-.019-.018-.019zm-.018-.9735s.019 0 .019.0186c.019-.018.019-.037.019-.056h-.019c0 .019-.019.019-.019.038zm-.13 2.564c.019 0 .019 0 .038-.019-.019 0-.019-.018-.038-.018 0 .019-.018.019-.018.038h.018zm.206-.206c.038 0 .094 0 .131-.038-.075-.056-.093-.056-.131.0378h-.167c-.019-.019-.019-.0376-.019-.056-.019 0-.037.0184-.037.0184.018.019.037.019.056.037.019.019.037.056.056.075.056 0 .075-.019.094-.075h.019zm0-.5804c.019.038.038.038.056 0l-.018-.019c-.019 0-.038.019-.038.019zm.094-.43c.056-.037.112-.056.112-.149-.038-.019-.075-.056-.131-.094-.038.075-.056.131-.094.187.056.019.075.038.112.056zm.149-2.732c.056-.018.094-.056.112-.131-.038 0-.075 0-.15-.018.018.075.018.113.037.15zm.169 3.725s.019 0 .019-.019c0 0 0-.018-.018-.018l-.019.019.019.019zm.337.225v-.112c-.056-.018-.093-.018-.131-.018-.075 0-.075.018-.056.131.056.018.131.037.187 0zm2.788-6.288c.281-.88.524-1.703.225-2.583-.206.056-.374.131-.412.393 0 .093-.093.168-.149.262-.075.112-.15.243-.131.393.038.524.094 1.048.468 1.534zm2.512 4.192c-.299-.431-.524-.899-.598-1.404-.056-.337-.112-.712 0-1.067.094-.281.15-.599.244-.899.224-.73.561-1.404.935-2.078.187-.318.412-.599.636-.861.449-.506.992-.917 1.74-.955.636.075 1.16.374 1.478.955.131.225.094.487-.019.711-.168.3-.411.581-.673.824-.598.562-1.216 1.123-1.833 1.685-.15.131-.262.299-.318.505-.056.206-.113.43-.187.636-.149.318-.168.692-.131 1.01.038.375.356.637.73.749.449.15.898.094 1.329-.15.711-.374 1.291-.898 1.815-1.497.468-.542.88-1.104 1.273-1.703.206-.318.356-.674.561-.992.206-.318.337-.692.431-1.067.019-.112.075-.224.206-.262.168-.037.281.038.281.206-.019.094-.038.187-.056.262-.244.524-.431 1.086-.711 1.572-.3.543-.581 1.086-1.011 1.535-.056.318-.486.393-.486.749 0 .019-.075.075-.112.075-.131.038-.206.094-.243.225-.037.093-.112.149-.187.187-.112.037-.168.093-.206.206 0 .037-.018.112-.037.112-.318.037-.393.355-.655.468-.038.018-.094.018-.113.037-.074.243-.336.243-.505.374-.748.506-1.553.693-2.432.562-.449-.056-.861-.262-1.141-.711zm3.631-.187c-.056-.038-.056-.038-.15 0h.15zm-1.067.43c.056.056.094.056.15 0h-.151zm.131-.15h-.187c.019.019.019.037.019.056.038-.019.056-.019.169-.056zm-.73.224s0 .019-.019.019c0 .018.018.018.018.018.019 0 .019 0 .038-.018-.019 0-.019-.018-.038-.018zm2.077-6.419c0 .019.019.056.038.112.038-.056.075-.093.094-.131-.056-.037-.093-.018-.131.019zm-2.152 2.059c.056-.019.075-.037.113-.056-.018-.038-.018-.075-.037-.112l-.112.056c.019.038.038.056.038.113zm-.018-1.067c0 .019.019.019.019.019.019.019.019 0 .019-.018l-.019-.019-.019.019zm.131-.112v.019h.019c.056.075.056.075.15 0h-.15v-.019h-.019zm.056.355c.019 0 .019-.018.019-.018 0-.019-.018-.056-.018-.075l-.019.019c-.019.056 0 .093.019.075zm1.703-1.647c-.037 0-.037.019 0 .038l.019-.018c0-.019-.018-.019-.018-.019zm-.43-.337c-.056-.074-.074-.074-.149-.018.056 0 .094.019.15.019 0 .056 0 .094.038.131.094.019.168.056.262-.019-.056-.056-.037-.149-.131-.168l-.168.056zm.225.581l-.019-.019c-.037.019-.037.038 0 .056 0 0 .019-.019.019-.037zm-.225.468c-.018-.038-.018-.075-.037-.112-.037.019-.075.038-.112.038.019.056.019.075.038.113.038-.018.075-.018.112-.037zm-.093-.318c-.075-.038-.168-.075-.206.056 0 0 0-.019-.019-.019v.019h.019c.019.018.056.018.075.037.056.038.094.038.131-.019v-.074zm-.243-.468c-.018 0-.018 0-.018.019-.019 0 0 .018.019.018 0 0 0-.018.019-.018l-.019-.019zm.225 1.16c-.131.244-.337.375-.486.581l-.505.73.056.056c.506-.43 1.067-.805 1.404-1.441-.206-.056-.412-.056-.468.075zm-.393-.692c0-.019 0 0-.018 0 0 .019.019.019.019.037l.019-.019c0-.018 0-.018-.018-.018zm-.131-.337c-.018 0-.037.019-.037.019.019.019.019.038.037.038.019.019.037 0 .094-.019-.057-.019-.075-.037-.094-.037zm.169 1.123c-.094-.019-.094-.019-.281.094l.093.094.187-.187zm-.749.636c.056.038.075.019.112-.019-.037-.037-.075-.037-.112.019zm.094-.973h-.187c.018.038.037.056.056.075 0 .019 0 .038.019.056h-.019l.018.019-.018-.018v.019h-.206c.038.113.094.169.206.131v-.131h.019v-.018c.075 0 .112-.037.112-.131zm-.374-.786c-.019 0-.037.019-.037.019.018.019.018.056.037.056s.056-.018.093-.037c-.037-.018-.075-.018-.093-.037zm-1.235 4.399v-.075s-.019 0-.037-.019c0 .019-.019.056-.019.075l.018.019h.038zm.037-.599h.206c-.075-.15-.168-.168-.262-.131-.019 0-.019.019-.037.038l.094.093zm0-.468c.075-.037.15-.075.206-.112-.019-.037-.019-.075-.037-.094-.131-.037-.187.019-.262.113.038.019.075.056.094.093zm.262 3.182c.019 0 .056 0 .113-.019-.056-.037-.094-.075-.131-.112-.038.037-.056.093.018.131zm.113-2.976c-.038-.112-.038-.112-.15-.094.018.15.018.15.149.094zm-.131-1.029s-.019.018 0 .018c0 .019.018.019.037.019v.019h.019c0 .037 0 .074.056.037-.019-.019-.038-.019-.056-.037-.019 0-.019 0-.019-.019s0-.037-.037-.037zm.075 1.254c0 .018.018.056.037.093-.019.056-.131.075-.113.169.056.018.131.037.187-.038 0-.056.019-.131.019-.206-.038-.056-.075-.056-.131-.019zm.411 2.62c-.019.037-.038.056-.038.093.057.075.131.056.188.019-.019-.075-.056-.131-.15-.112zm-.056-.225c-.131.056-.15-.15-.3-.056 0 .037.019.075.038.094.094.019.169.056.262-.037zm-.225-3.724l.037.019c.019.019.037 0 .037-.019-.019-.038-.019-.056-.038-.131-.019.075-.037.093-.037.131zm.617.038c.131-.037.075-.112.056-.187-.037-.019-.056-.019-.093-.037-.037.037-.075.075-.112.131.056.037.131.037.149.093v.018c-.131.019-.131.019-.131.15.038-.019.075-.019.131-.037v-.131zm-.037-.973s.019 0 .019.019l-.019.019c-.019 0-.019-.018-.038-.018.019-.019.019-.019.037-.019zm-.075-.861c-.037 0-.056 0-.187-.019.112.057.15.057.168.075 0-.018.019-.037.019-.056zm-.168.468l-.019.019c.018.037.037.037.056 0 0 0-.019-.019-.038-.019zm.018 2.246c-.075.075-.075.131-.019.206.056-.075.075-.131.019-.206zm-.224-2.134c-.075.038-.093.057-.131.075v.169c.094-.037.15-.075.243-.112-.056-.056-.093-.093-.112-.131zm-.318-.037h-.019v.056c.019 0 .019-.018.038-.018 0-.019-.019-.019-.019-.037zm.094.412c-.038-.019-.056-.019-.094-.037 0 0-.019.019-.019.038 0 0 .019.019.038.019.019.019.037 0 .075-.019zm-.15.58v.018c-.019 0-.037 0-.056.019.019 0 .019.019.037.019 0-.018 0-.037.019-.037 0 0 0-.018.019-.018h.075c.037.075.056.075.149.019-.056 0-.112 0-.15-.019h-.019c-.019-.018-.038-.037-.038-.056-.019.019-.019.038-.019.056h-.018zm-.112-.768c-.037 0-.075.019-.112.019.019.056.019.094.037.131.038-.018.075-.037.112-.037-.018-.037-.018-.075-.037-.112zm-.037.637c-.019.056-.019.075-.037.15-.056-.057-.075-.094-.131-.15h.168zm-.281.711s-.018 0-.018.019c.019 0 .019.019.019.019.019-.019.019-.038.019-.038h-.019zm.019 3.725c-.037 0-.037.019 0 .037 0 0 0-.019.019-.019 0-.018-.019-.018-.019-.018zm-.468-.861c-.018 0-.018.019-.037.037.019 0 .019 0 .038.019 0-.018.019-.018.019-.037l-.019-.018zm5.712.842c-.299-.431-.524-.898-.599-1.404-.056-.337-.112-.711 0-1.067.094-.28.15-.599.244-.898.225-.73.562-1.404.936-2.078.187-.318.411-.599.636-.861.449-.505.992-.917 1.74-.954.636.075 1.16.374 1.478.955.131.224.093.486-.019.711-.169.299-.412.58-.674.823-.599.562-1.216 1.123-1.834 1.685-.149.131-.262.3-.318.506-.056.206-.112.43-.187.636-.149.318-.168.693-.131 1.011.038.374.356.636.73.749.449.15.899.094 1.329-.15.711-.374 1.291-.898 1.815-1.497.468-.543.88-1.104 1.273-1.703.206-.318.356-.674.562-.992.205-.318.336-.693.43-1.067.019-.112.075-.224.206-.262.168-.037.281.038.281.206-.019.094-.038.187-.056.262-.244.524-.431 1.086-.711 1.572-.3.543-.58 1.086-1.011 1.535-.056.318-.486.393-.486.749 0 .019-.075.075-.112.075-.131.037-.206.093-.243.224-.038.093-.113.15-.187.187-.112.037-.168.094-.206.206 0 .037-.018.112-.037.112-.318.038-.393.356-.655.468-.037.019-.093.019-.112.037-.075.243-.337.243-.505.374-.748.506-1.553.693-2.432.562-.449-.056-.861-.262-1.141-.712zm3.63-.187c-.056-.038-.056-.038-.149 0h.15zm-1.066.43c.056.056.094.056.15 0h-.15zm.131-.149h-.187c.019.019.019.037.019.056.038-.019.056-.019.169-.056zm-.73.225s0 .018-.018.018c0 .019.019.019.019.019.019 0 .019 0 .037-.019-.019 0-.019-.019-.037-.019zm2.077-6.42c0 .019.019.056.038.112.037-.056.075-.094.093-.131-.056-.038-.094-.019-.131.019zm-2.151 2.059c.056-.019.075-.037.112-.056-.019-.038-.019-.075-.037-.112l-.112.056c.018.038.037.056.037.113zm-.018-1.067l.018-.019.019.019c0 .019 0 .038-.018.019 0 0-.019 0-.019-.019zm.131-.112v.019h.018c.056.075.056.075.15 0h-.149v-.019h-.019zm.056.356c.018 0 .018-.019.018-.019 0-.019-.019-.056-.019-.075l-.019.019c-.018.056 0 .094.019.075zm1.703-1.647c-.038 0-.038.019 0 .038l.018-.019c0-.019-.019-.019-.019-.019zm-.431-.337c-.056-.075-.075-.075-.15-.019.056 0 .094.019.15.019 0 .056 0 .094.037.131.093.019.168.056.262-.018-.056-.056-.038-.15-.131-.168l-.169.056zm.225.58l-.019-.019c-.038.018-.038.037 0 .056 0 0 .018-.019.018-.038zm-.225.468c-.019-.037-.019-.075-.038-.112-.038.019-.075.038-.113.038.019.056.019.074.037.112.038-.019.075-.019.113-.038zm-.094-.318c-.075-.037-.168-.075-.206.056 0 0 0-.018-.019-.018v.018h.019c.018.019.056.019.075.038.056.037.093.037.131-.019v-.075zm-.243-.468c-.019 0-.019 0-.019.019-.019 0 0 .019.018.019 0 0 0-.019.019-.019l-.018-.019zm.224 1.161c-.131.243-.336.374-.486.58l-.505.73.056.056c.506-.43 1.067-.805 1.404-1.441-.206-.056-.412-.056-.468.075zm-.393-.692c0-.018 0 0-.018 0 0 .019.019.019.019.038l.019-.019c0-.019 0-.019-.019-.019zm-.131-.337c-.018 0-.037.019-.037.019.019.019.019.038.038.038.019.019.037 0 .094-.019-.056-.018-.075-.037-.093-.037zm.169 1.123c-.093-.018-.093-.018-.281.094l.093.094.187-.187zm-.748.637c.056.037.075.018.112-.019-.038-.038-.075-.038-.113.019zm.094-.974c0 .094-.037.131-.112.131v.019h-.019v.131c-.113.037-.169-.019-.206-.131h.206v-.019l.018.019-.019-.019h.019c-.019-.019-.019-.038-.019-.056-.018-.019-.037-.038-.056-.075h.187zm-.374-.786c-.019 0-.038.019-.038.019.019.019.019.056.037.056s.056-.018.093-.037c-.037-.018-.075-.018-.094-.037zm-1.237 4.398v-.075s-.019 0-.038-.018c0 .019-.019.056-.019.075l.019.018h.038zm.037-.599h.206c-.075-.15-.168-.168-.262-.131-.019 0-.019.019-.037.038l.093.093zm0-.468c-.019-.037-.056-.075-.094-.093.075-.093.131-.149.262-.112.019.019.019.056.037.094-.056.037-.131.075-.205.112zm.262 3.182c.019 0 .056 0 .112-.019-.056-.037-.093-.075-.131-.112-.037.037-.056.094.019.131zm.112-2.976c-.037-.112-.037-.112-.15-.093.018.15.018.15.149.093zm-.131-1.029s-.019.019 0 .019c0 .019.019.019.038.019v.019h.018c0 .038 0 .075.056.038-.019-.019-.038-.019-.057-.037-.019 0-.019 0-.019-.019s0-.037-.038-.037zm.075 1.254c0 .019.019.057.037.094-.019.056-.131.075-.113.168.056.019.131.037.187-.037 0-.056.019-.131.019-.206-.037-.056-.075-.056-.131-.019zm.412 2.62c-.019.037-.037.056-.037.094.056.075.131.056.187.019-.019-.074-.056-.131-.15-.112zm-.056-.225c-.131.056-.15-.149-.299-.056 0 .038.018.075.037.094.093.019.168.056.262-.037zm-.224-3.724c0-.037.019-.056.038-.131.018.075.018.094.037.131 0 .019-.019.037-.037.019l-.038-.019zm.618.037c.131-.037.075-.112.056-.187-.037-.019-.056-.019-.094-.037-.038.038-.075.075-.113.131.057.038.131.038.15.094v.019c-.131.018-.131.018-.131.149.038-.019.075-.019.131-.038v-.131zm-.038-.973s.018 0 .018.019l-.018.019c-.019 0-.019-.019-.037-.019.018-.018.018-.018.037-.018zm-.075-.861c-.038 0-.056 0-.187-.019.112.057.149.057.168.075 0-.018.018-.037.018-.056zm-.169.468l-.019.019c.018.038.037.038.056 0 0 0-.019-.018-.038-.018zm.018 2.246c-.075.075-.075.131-.019.206.056-.075.075-.131.018-.206zm-.225-2.134c-.075.038-.094.056-.131.075v.168c.093-.037.149-.075.243-.112-.056-.056-.094-.093-.112-.131zm-.318-.037h-.019v.056c.018 0 .018-.019.037-.019 0-.019-.019-.019-.019-.038zm.093.412c-.037-.019-.056-.019-.093-.037 0 0-.019.019-.019.038 0 0 .019.019.038.019.019.019.038 0 .075-.019zm-.15.58v.019c-.018 0-.037 0-.056.019.019 0 .019.018.038.018 0-.019 0-.038.018-.038 0 0 0-.019.019-.019h.075c.038.075.057.075.15.019-.056 0-.112 0-.15-.019h-.018c-.019-.019-.038-.038-.038-.056-.019.018-.019.037-.019.056h-.018zm-.112-.767c-.037 0-.075.018-.112.018.019.057.019.094.038.131.037-.018.074-.037.112-.037-.019-.037-.019-.075-.038-.112zm-.037.636h-.167c.056.056.075.093.131.15.019-.075.019-.094.037-.15zm-.281.711s-.018 0-.018.018c.019 0 .019.018.019.018.018-.019.018-.038.018-.038h-.018zm.019 3.724c-.037 0-.037.018 0 .037 0 0 0-.019.019-.019 0-.019-.019-.019-.019-.019zm-.468-.861c-.018 0-.018.019-.037.037.019 0 .019 0 .038.019 0-.019.019-.019.019-.038l-.018-.019zm13.871-5.072c.131.056.093.131.075.281-.15.711-.431 1.366-.711 2.021-.074.224-.056.468-.28.655-.112.075 0 .299-.093.43-.28.43-.411.917-.636 1.366-.168.28-.299.599-.449.879-.187.337-.393.673-.542 1.01-.15.299-.505.468-.468.842-.169.131-.337.28-.431.486-.262.449-.693.749-1.03 1.142-.187.225-.505.318-.767.43-.318.15-.692.244-1.048.057-.412-.206-.749-.487-1.029-.861-.487-.618-.674-1.329-.861-2.077-.131-.543-.131-1.104-.15-1.666 0-.786.075-1.591.262-2.358.131-.636.262-1.273.524-1.89.112-.262.168-.562.281-.824.131-.243.206-.505.337-.786-.393-.093-.711.113-1.066.075-.093-.018-.224.056-.262-.093-.018-.131.075-.262.187-.243.318.037.562-.225.88-.206.281.019.542-.131.655-.393.206-.412.486-.805.617-1.235.019-.075.037-.131.094-.169.131-.075.187-.187.243-.337.112-.262.243-.318.524-.187.15.057.3.131.449.188.337.168.393.28.3.655-.057.243-.113.468-.169.73.187.037.337-.094.486-.113.318-.075.636.038.954-.056.169-.037.356.15.449.337.094.15-.056.318-.262.3-.243-.018-.486-.018-.748-.037-.187 0-.374.019-.561.075-.337.075-.636.393-.673.73-.019.075 0 .15-.038.187-.337.468-.43 1.03-.599 1.535-.131.337-.299.655-.281 1.029 0 .15-.149.244-.168.393-.075.618-.318 1.198-.374 1.816-.037.355-.112.711-.168 1.048-.075.449-.075.898-.15 1.329-.018.131-.018.262.038.393.019.056.056.131 0 .168-.206.206-.056.374 0 .58.056.262.038.524.094.805.15.505.468.73.973.599.262-.056.505-.112.655-.356.056-.075.131-.093.206-.112.112-.038.187-.094.224-.225.019-.094.093-.168.187-.187.112-.038.168-.094.187-.225 0-.037.019-.075.038-.093.58-.561.917-1.31 1.31-1.984.225-.393.468-.767.58-1.216.056-.206.225-.356.3-.562.224-.673.636-1.291.786-1.984.037-.168.206-.28.224-.449.075-.337.262-.636.337-.973.038-.206.187-.374.243-.599.038-.131.188-.112.319-.074zm-3.2-2.04c-.037.018-.093 0-.093.075.075.018.131.037.187-.038 0-.019 0-.038-.018-.075-.019.018-.056.018-.075.037zm-2.208.992c.075.037.112.018.131-.038h.019l-.019-.019v.019c-.056 0-.094-.019-.131.037zm.15-.637c.094.056.187.037.299 0-.112-.038-.206-.038-.299 0zm.094-1.236c.056.056.112.056.187 0-.056-.056-.131-.056-.187 0zm.336.692c0-.019-.019-.019-.019-.019h-.094c.019.038.019.056.037.094 0 .038.019.075.019.112.019.037.019.056.038.093.037.019.074.056.112.056.019.019.037 0 .075-.018-.038-.056-.094-.113-.131-.15 0-.075-.019-.131-.038-.169zm-.225-1.048c-.037.019-.075.019-.131.019.094.056.094.075.131-.019h.019c.056 0 .112.019.131-.056-.056-.019-.112-.019-.131.056h-.019zm-.15.861c-.056.019-.093.019-.15.019.056.075.112.075.15-.019zm-.093.337c-.094-.038-.187-.056-.281.019.037.113-.056.225.037.337.094 0 .15-.037.168-.131-.037-.019-.075-.037-.131-.075.075-.056.15-.093.206-.149zm-.393-.337s-.019.019-.038.019c.019.018.019.018.019.037h.075s.018-.018.018-.037c-.019 0-.056-.019-.075-.019zm-.15.243l-.038.037c.019 0 .019 0 .037.019 0-.019 0-.019.019-.037 0 0-.019 0-.019-.019zm.093.692c-.037 0-.094 0-.15.056l.131.131c.019-.093.019-.149.019-.187h.019l-.018-.018v.019zm-1.272 6.663c.093.019.187.056.262-.037-.057-.056-.113-.094-.188-.15-.056.019-.112.056-.187.094.056.038.094.075.112.094zm.093.973h-.019c-.019 0-.019.019-.019.019l.019.019c0-.019.018-.019.018-.038zm-.187-1.946c0 .019 0 .038.018.056 0-.018.019-.018.019-.037l-.018-.018h-.019zm.056.206c.037.019.075.056.093.094.057-.019.094-.037.131-.056 0-.038-.018-.075-.018-.094-.075-.019-.131-.038-.206.056zm.243-2.358c.019-.019.019-.037.019-.019.019 0 .019 0 .037.019-.019 0-.019 0-.037.019 0-.019-.019-.019-.019-.019zm.09 1.476c.038.038.075.038.112-.018-.037-.037-.074-.037-.112.019zm.281-.543c.037-.037.037-.056.056-.093-.056-.056-.131-.037-.206-.019-.056 0-.075.057-.056.113.019.037.056.056.093.093.037-.037.075-.056.112-.093zm-.113-1.909c0-.037.019-.075.037-.112-.056-.037-.094-.056-.15 0v.075c.037 0 .056.019.112.038zm.112.131c-.038.019-.075.056-.113.094-.019-.056-.019-.075-.037-.094.056-.037.093-.075.15 0zm-.038 1.329c.056 0 .131.038.187-.056-.038-.018-.075-.056-.112-.093-.038.019-.075.038-.113.038.019.037.019.075.037.112zm.075-.786c.093.019.168.038.28-.037-.037-.037-.075-.075-.093-.075-.113 0-.206-.056-.3.019.038.037.075.075.112.093zm.149-2.732c.056-.019.131.094.187-.019-.056-.038-.112-.019-.187.019zm.112 1.479l-.019.019c-.038-.019-.038-.037 0-.037 0-.019.019 0 .019.019zm-.206-.786c.056.056.093.038.149 0-.019-.037-.037-.056-.037-.112l-.112.112zm.131 1.011c-.019.018-.019.018-.038.018 0 0-.019 0-.019-.018.019 0 .019-.018.019-.018.019 0 .019.018.038.018zm.131.879c.018 0 .018-.019.018-.019 0-.018-.019-.018-.019-.037-.019 0-.019.019-.038.037.019 0 .038.019.038.019zm.074-.15l.018-.018c0-.019-.018-.019-.018-.037 0 .019-.019.019-.019.019 0 .018 0 .037.019.037zm.018-.411c0-.113 0-.113-.131-.169-.018.037-.037.056-.075.093.075.019.131.056.206.075zm-.112-2.583c0 .037.019.037.038.018 0-.018-.019-.018-.019-.037 0 .019-.019.019-.019.019zm-.037-.244c-.019 0-.019.019-.038.038.019 0 .038.019.056.019.019 0 .038-.019.057-.037-.038-.018-.056-.018-.075-.018zm-.187.375c0 .037-.019.056-.038.094.037.056.074.112.149.093.019-.056.019-.112-.037-.168-.019 0-.038-.018-.075-.018zm-.038.636s-.019 0-.075.019c.018.056.037.075.037.112.075.019.131.019.187-.037-.037-.037-.075-.093-.149-.093zm-.187.225c-.019.038-.019.056-.056.113.037.038.075.075.131.112.037-.056.075-.075.093-.112-.038-.056-.075-.131-.168-.112zm-.094-.299c-.019-.018-.056 0-.094.019.037.019.075.019.094.038l.037-.018-.038-.038zm-.037.412c0-.018-.019-.018-.019-.037-.019.019-.038.019-.038.038 0 0 .019.019.037.019l.019-.018zm.018 1.778c-.15-.075-.206.056-.299.075.037.038.056.075.093.112.075-.056.131-.112.206-.187zm-.281-1.179c-.037.038-.037.075 0 .112.038-.037.038-.075 0-.112zm-.019 1.572c.075-.018.037.056.075.094.018.019.037.056.056.094-.056 0-.094-.019-.112-.019-.038-.056-.038-.113-.019-.169zm-.018 2.024c0-.075.018-.131-.057-.168h-.093c.018.094-.038.15.056.206.019-.018.056-.018.093-.037zm-.225-1.198c.038-.093.075-.149.131-.262 0 .113.019.15.019.225-.038 0-.075.019-.15.038zm.187-2.077c-.019 0-.019 0-.037.019.019 0 .037 0 .056.019v-.04h-.019zm-.112-.262c-.019 0-.037.019-.056.038.019 0 .019.038.037.038.019 0 .056-.019.075-.019-.019-.019-.037-.056-.056-.056zm-.112.711l-.037.038s.019 0 .019.019c.019 0 .019-.019.038-.019-.018-.018-.018-.018-.018-.037zm-.018.955c-.019.019-.019.038-.037.094.094.075.187.15.281.244l.019-.019c.019-.113-.075-.169-.112-.262-.056-.019-.112-.038-.15-.056zm-.037 2.134v.019c-.056-.037-.112-.056-.168-.093-.057.075.018.093.018.149v.187c0 .019.037.019.056.057.037-.056.056-.093.094-.112v-.187h.018l-.019-.018zm.019 1.479h-.018c0-.019-.019-.037-.019-.037-.019 0-.019.018-.037.018.019.019.038.019.057.019v.019l.019-.019zm-.206-3.556c0 .019-.018.019-.018.037l.019.019.019-.019c0-.018 0-.018-.019-.037zm-.074-.318c-.019.056-.094.056-.094.15.057 0 .094-.019.131-.019 0-.056-.018-.093-.037-.131zm-.094 1.404l.057.112c-.038.019-.075.019-.113.038-.019-.038-.038-.075-.038-.113.038-.019.056-.038.094-.038zm-.037 1.086c-.056.018-.094.018-.15.018.019.056.019.094.037.131h.131c0 .019.019.038.019.057.019 0 .019-.019.038-.019-.019-.019-.037-.019-.056-.038h-.018v-.15zm.075.43l-.019-.019h-.038c.019.038.038.038.056.019zm-.337-.487s-.019 0-.019.018c.019.019.019.019.037 0 0 0 0-.019-.018-.019zm-.056.206c-.056.056-.094.074-.131.112 0 .056 0 .131.018.206.056-.057.094-.094.131-.15 0-.056-.019-.094-.019-.169zm0 .898l-.131-.131v.187c.018.056.056.112.075.168.019 0 .038.019.057.019v-.243zm-.038.674c-.018 0-.056 0-.093.018.038.056.075.075.113.113.056-.056.037-.093-.019-.131zm.019.468c.056-.057.094-.094.15-.169-.093.019-.131.019-.187.019.019.056.019.094.038.15zm.112-1.161c.056.056.094.131.187.112.019-.019.038-.056.038-.075-.037-.075-.074-.15-.187-.131 0 .038-.018.056-.037.094zm.113.355c-.056.131-.037.225.019.318h.281c-.093-.075-.168-.075-.187-.15-.019-.056-.056-.093-.112-.168zm.356 1.385c-.149-.056-.149-.056-.112.093.038-.037.075-.056.113-.093zm-.056.842c.056.037.112.075.206.075v-.112h.019-.019c-.075 0-.149-.019-.206.037zm.131.486c.131-.038.206-.075.318-.094-.056-.056-.093-.075-.112-.113-.075.038-.131.075-.187.113 0 .019 0 .037-.018.094zm.449-1.647c0-.019.019-.019.038-.056-.057-.056-.075-.131-.15-.131.019.112.019.112.112.187zm.056-.917c.019 0 .019-.019.038-.019-.018-.019-.018-.038-.018-.038-.037.018-.056.037-.019.056zm9.525-1.315l-.035-.176c-.012-.024-.035-.07-.024-.094.141-.176.012-.41.094-.609.082-.187.071-.409.176-.585.117-.21.164-.456.363-.62.117-.093.187-.234.304-.339.223-.211.457-.398.749-.526.082-.035.164-.07.223-.164-.526-.14-.795-.468-.783-.959.012-.281.129-.491.257-.702.234-.409.597-.702.983-.936.316-.187.655-.304 1.017-.398.292-.082.596-.094.888-.082.257 0 .538 0 .772.164.222.164.362.596.269.854-.082.234-.176.456-.351.643-.117.117-.246.199-.398.222-.07.011-.129.011-.187-.035-.082-.071-.082-.164.011-.223.07-.07.163-.093.269-.117.339-.093.514-.596.304-.877-.024-.035-.047-.082-.082-.082-.211-.047-.433-.117-.643-.035-.082.035-.176.023-.258.047-.222.071-.432.176-.631.304-.316.199-.596.433-.865.691-.222.222-.374.456-.421.76-.023.152.035.246.176.292.222.082.444.105.678.117.234.012.456.094.702.094.07-.012.141.047.187.105.036.035.024.094-.011.106-.187.012-.269.175-.398.257-.398.269-.784.55-1.111.912-.269.293-.515.609-.678.983-.14.327-.234.643-.269.982-.07.492.082.924.374 1.299.14.199.363.339.62.363.152.012.269.094.433.082.643-.035 1.17-.292 1.579-.784.222-.246.339-.538.444-.842.07-.175.023-.234-.152-.316-.269-.117-.444.071-.643.164-.117.059-.211.141-.328.187-.187.07-.304-.011-.269-.222.012-.047.035-.094.047-.14.059-.129.141-.246.105-.386-.011-.059.024-.117.071-.152.175-.187.362-.34.619-.41.141-.023.281-.058.421-.07.339-.035.573.176.831.316.047.024.059.07.071.117.081.234.163.456.245.679.047.106.117.211.199.304.152.187.351.129.538.141.035.012.07-.023.082-.047.012-.035.012-.082.035-.094.316-.257.176-.538.035-.807-.058-.105-.058-.222-.093-.327-.024-.082.011-.117.093-.14.257-.082.526.059.596.316.035.14.152.304-.035.444-.035.035-.024.094-.012.141.011.058.011.117-.024.164-.246.339-.503.655-.947.76-.515.105-.784-.024-1.088-.269-.071.105-.164.199-.176.339 0 .058-.035.093-.082.117-.082.047-.105.105-.117.199-.024.105-.129.163-.199.245-.176.188-.351.363-.573.527-.164.129-.386.164-.538.316-.035.035-.094.047-.164.047-.035 0-.094-.012-.117.012-.175.199-.433.14-.655.187-.327.07-.643 0-.959-.094-.304-.093-.503-.292-.748-.456-.024-.011-.059-.035-.07-.07-.188-.327-.48-.608-.585-1.006-.07-.269-.129-.526-.141-.807zm5.263-.573c-.012 0-.012-.012-.023-.012.012.012.012.012.012.023 0 0 0-.012.011-.012zm-.047.702c0 .012 0 .023-.011.023.012 0 .012-.012.024-.012 0-.012.011-.024.011-.024l-.024.024v-.012zm-.175-1.006h-.023c0 .011.012.011.012.011.012 0 .012-.012.012-.012zm-1.239.468h-.011c0 .011-.012.011-.012.023l.023-.024zm.222-.059h.152c-.012-.035-.023-.059-.035-.082h-.094c-.012.023-.012.047-.024.082zm.187-.292c.012-.024.023-.035.012-.047-.012-.012-.035-.012-.047-.024 0 .011-.011.011-.011.023.011.011.035.023.047.047zm.316.234h.023c-.012 0-.012-.012-.012-.012h-.012v.011zm.035-.164v-.024s-.012.011-.023.011c.012 0 .012.012.012.012 0 .012.011 0 .011 0zm-.328 2s0 .012-.012.023c.011-.012.011-.012.011-.024h.012c.035-.011.082.012.059-.07-.024.024-.035.047-.059.07h-.012zm-.176.211h-.117c0 .035.012.046.012.082.035-.024.059-.036.106-.082zm-.549.315c-.012-.012-.024-.012-.035-.012 0 .011.011.011.011.011h.024zm-1.006.093h-.02l.012.012.012-.011zm-.269.176l-.059.059c.082.035.094.024.059-.058zm-.316-.316c-.012.012-.012.024-.047.094.07-.046.094-.058.129-.082-.012-.011-.012-.023-.023-.035-.011.012-.035.012-.058.024zm-.234-.011c-.012.024-.012.035-.023.07.035.012.082.035.14.071-.011-.117-.058-.129-.117-.141zm1.146-4.924c-.035.023-.058.035-.082.058.012.023.024.035.047.07.012-.059.07-.07.035-.129zm-.129.281c-.047.012-.082.024-.117.024.035.058.07.093.117.047v-.07zm-.187.152c-.012-.093-.012-.093-.082-.07.024.024.047.035.082.07zm-.327.328s0-.012.012-.012c-.012 0-.035-.012-.047-.012.012.012.024.012.035.023zm-.14-.164c.093.07.093.07.257.047-.093-.047-.093-.047-.257-.047zm.245-.585h-.047.047zm-.082.117l-.07.035c.023.012.035.023.07.058v-.094c.012 0 .012 0 .012-.012.023 0 .047.012.058-.035-.023.023-.035.035-.058.035 0 0-.012 0-.012.012zm-.164.234c-.023.047-.023.082.047.093-.023-.035-.023-.059-.047-.094zm1.123-2.761c.012-.023.012-.035.012-.035h-.011v.035zm.293-.374v.093c.082-.012.164.023.222-.047h.012c.024-.012.059-.012.106-.024l-.094-.093c0 .058-.012.082-.012.117h-.01c-.07-.012-.14-.035-.222-.047zm-.362.152c-.023 0-.047.011-.082.023.035.023.047.035.082.07v-.094zm0 0c0-.012.012-.012.012-.012.035.011.059-.012.082-.035h.023v-.012h.07s0 .011.012.011h.011c.012.024.035.047.082.012-.035-.012-.058-.012-.082-.012l-.012-.012H46.3c-.0233-.047-.035-.047-.07 0h-.012s0 .012-.012.012c-.035 0-.07-.011-.082.035h-.011v.012zm-1.555 2.152c.011-.012.023-.012.035-.024l-.035-.035s-.012.012-.012.023c0 .012.012.024.012.035zm-.012-.222c0 .012.012.012.012.024 0 0 .012-.012.024-.012l-.012-.012c-.012-.012-.024 0-.024 0zm.047-.725c.023-.047 0-.094-.035-.152-.012.023-.036.047-.047.07.011.047.023.082.082.082zm.807-.749c-.012.011-.024.011-.047.011.012.023.023.035.07.093-.012-.07-.023-.082-.023-.105zm-.024.245h-.093c0 .023.012.035.024.058.023-.023.035-.035.07-.058zm-.082-.363l-.058.059c.047 0 .094 0 .058-.059zm-.351.257c-.023.094-.046.175-.07.257.047.012.082.024.129.024l.105-.07-.093-.047c.046-.058.058-.058.07-.128v.012l.011-.012h-.011l-.14-.035zm.012.655c-.047-.012-.093-.058-.152.012.012.023.035.058.07.105.059-.035.105-.059.082-.117zm-.129.491c0-.07.07-.14.035-.234-.058.024-.093.035-.152.047.012.059.023.094.023.129s-.012.07-.012.117c.035-.024.07-.035.105-.059zm.082 1.334h-.059c.012 0 .012.012.024.012s.024-.0114.035-.0114zm-.07.538c-.059-.035-.082-.012-.094.047.059.035.082.012.094-.047zm-.176-.351v.058h.012V17.3h-.011zm-.842 2.842c.011.047.035.035.07.024-.012-.035-.023-.058-.07-.047v.023zm.117.913c.011-.035.023-.058.035-.093.023-.035.058-.07.093-.117-.07-.024-.117-.047-.175-.059.012.106-.035.199.047.269zm.175.199v-.023h-.105v.023h.105zm.222.141l-.012-.012v.023l.012-.012zm-.012-.468c-.082 0-.14 0-.199.011-.023.012-.07.023-.035.082.023 0 .07-.024.094-.012.047 0 .082.023.117-.012 0-.012.012-.024.024-.07zm-.047-3.124v-.012h-.011l.012.011zm.339.082c0-.023.012-.047.012-.07-.035-.035-.07-.058-.141-.105 0 .07 0 .07.129.175zm-.163-.304c.012.023.035.047.058.07.011-.023.011-.035.023-.07h-.082zm0 0v-.012h-.024l.012.012h.012zm.07-.211c-.035.023-.047.047-.093.082.059 0 .082.011.117.011-.011-.035-.011-.058-.023-.093zm-.035.608h-.082c.047.035.058.012.082 0h.012c0-.012.011-.023.011-.023s-.012.011-.024.011v.012zm-.234-.398c.012.023.023.046.035.081l.059-.058c-.035-.012-.07-.024-.093-.024zm0 0v-.012h-.012c.011-.035.023-.07.047-.117-.071-.012-.129-.024-.164.058.023.07.07.058.117.058v.012h.011zm-.129.842l-.012.012c0 .012.011.023.023.023s.011-.012.023-.023c-.012-.011-.023-.011-.035-.011zm.011.257h-.012v.011l.012-.012zm-.058-1.041l-.012.011h.012v-.011zm-.012 1.181c-.012.023-.023.035-.035.058.035.035.059.035.094-.012-.024-.011-.035-.023-.059-.046zm.07 1.719c-.058-.023-.093.012-.117.07.024.011.035.023.059.047.035-.023.059-.035.094-.058-.011-.023-.023-.035-.035-.059zm-.21.117v-.01h-.058v.012h.058zm0-.795c-.035-.07-.035-.07-.14-.058.035.058.082.082.141.058zm-.082-1.532c.012-.059-.011-.059-.07-.035.023.023.023.058.07.035zm-.503 2.012v-.023.024zm-.012-.866h.012v-.012l-.012.012zm0-.351h.012v-.012l-.012.012zm.14 1.38c.047-.023.082-.035.141-.058-.059-.035-.094-.07-.14-.117v.175zm.187-.362c.012-.047.047-.082.082-.163-.058.023-.082.035-.117.047.024.07-.046.117-.023.199.07 0 .047-.058.058-.082zm.094-.819c-.012 0-.012-.012-.023-.012v.023c.012 0 .012-.011.023-.011zm-.047.245l.012-.012c-.012-.012-.024-.023-.024-.035-.023.023-.012.035.012.047zm-.07-.702c-.012.105-.012.105.023.105.024.012.035-.023.047-.035l-.07-.07zm0 .304l-.047.047c.047.023.07.035.047-.047zm-.047.526H43.4c-.012.024-.0234.035-.047.059.035.082.094.117.187.058.0118-.023.0235-.058.047-.117zm-.14-1.31c-.012.07-.024.129-.035.234.106-.082.117-.164.106-.245-.024 0-.047 0-.07.012zm-.047.468c-.082.035-.117.047-.082.141.035-.011.059-.035.094-.046 0 .011.012.011.012.011l-.011-.011c-.012-.024-.012-.047-.012-.094zm-.105.959c.012-.105.012-.105-.07-.105l.07.105zM57.44 21.28c-.1125-.074-.019-.168 0-.262.037-.355.168-.73-.131-1.048-.094-.112-.1874-.206-.318-.224-.88-.112-1.7406-.168-2.508.375-.168.112-.3366.2243-.524.2992-.056 0-.112.018-.1494.056-.28.468-.823.711-1.066 1.235-.112.262-.262.505-.3364.786-.0933.2435-.187.5055-.075.786.019.019.0378.075.019.094-.299.636.262.954.543 1.347.169.225.356.393.674.393.112 0 .225.131.356.187.131.056.262.169.4115.131.4677-.075.935.038 1.384-.093.3-.112.637-.243.899-.412.393-.262.786-.543 1.123-.898.356-.43.711-.861 1.0295-1.291.187-.243.374-.524.505-.805.074-.149.149-.318.28-.449.1123-.112.15-.262.1872-.4116.056-.225.206-.431.262-.618.262-.842.618-1.703.15-2.583-.2804-.505-.767-.711-1.31-.749-.449-.019-.917.094-1.384.075-.9547-.0375-1.9277-.056-2.826-.543-.505-.281-.6736-.711-.711-1.198-.075-.599.0935-1.216.2994-1.759.187-.4675.449-.9354.7295-1.366.281-.43.6175-.842.954-1.235.879-1.0295 1.909-1.8904 3.125-2.4706.992-.487 2.0398-.786 3.162-.543.655.15 1.235.4308 1.666 1.011.318.449.355.861.206 1.366-.113.449-.337.861-.562 1.254-.243.412-.6174.73-.917 1.104-.037-.0374-.075-.056-.112-.075.262-.4865.4866-.973.805-1.4223.262-.374.112-.823.262-1.216.018-.0375-.056-.15-.1124-.206-.468-.524-1.385-.636-2.04-.374-.599.262-1.048.7114-1.609 1.0295-.206.1125-.318.412-.524.58-.412.356-.674.824-1.011 1.254-.3.3747-.468.824-.749 1.179-.355.468-.43.992-.655 1.479-.149.2996-.112.6177-.112.936 0 .431.412.786.823.655.412-.112.861.0564 1.216-.262.824 0 1.703-.2244 2.489.206.449.2434.767.655.898 1.1605.075.318.281.6732-.037.992-.019.018-.019.037-.019.056.243.655-.131 1.235-.281 1.834-.15.561-.337 1.123-.73 1.591 0 .617-.637.879-.805 1.403-.056.131-.168.262-.281.355-.299.262-.524.599-.805.824-.524.412-1.029.861-1.646 1.142-.243.112-.58.0936-.73.3744-.019.019-.075.056-.094.037-.318-.056-.58.15-.86.169-.431.038-.899.131-1.348.056-.636-.112-1.31-.206-1.778-.674-.487-.486-.936-1.01-.898-1.778.018-.299-.113-.58-.094-.898.056-.412.206-.786.337-1.198.224-.636.711-1.085 1.141-1.553.187-.225.412-.449.73-.524.056-.019.131-.038.168-.094.562-.505 1.273-.599 1.965-.674.524-.056 1.085-.056 1.553.318.318.262.58.974.468 1.367-.056.187-.187.3-.337.412-.113.056-.244.075-.337 0zm4.66-3.09c-.0373-.037-.0935-.056-.1496 0 .056.056.112.056.149 0zm-.505-.43c-.075.056 0 .1122.037.15.0377.037.094.056.15 0 0-.1127-.075-.15-.187-.15zm-.019 1.329c0 .019-.0186.019-.0186.019v.095h.038c0-.0377 0-.075-.019-.1125zm-.206.0933l-.0184.0373h.038l-.019-.0376zM63.602 9.02l-.0187-.0186v.038l.0186-.0187zm-.4865-.0373c-.019 0-.019.0376-.0374.056.038 0 .094 0 .131.019v-.037c-.037-.0185-.056-.0372-.093-.0372zm-.337-.0934c-.0185.0186-.0372.0186-.0185.0373 0 .019.019.019.019.019.019.0188.0375 0 .0375-.019-.0188-.0184-.0375-.0184-.0375-.037zm-.3553-.449c-.0186-.019 0-.0564-.056-.019.0187.0186.0374.0186.056.0186v.037h.0188c0 .037 0 .074.056.037-.0186-.019-.0373-.019-.056-.038V8.46c-.0187 0-.0187 0-.0187-.0186zm-.636.243c-.075.0374-.056.0935-.0184.1497.075-.0562.075-.0936.0187-.1498zm-.3553-.0375c-.075-.075-.131-.131-.206.0187.075-.0188.131-.0188.206-.0188zm-.58.2433c0 .019-.019.038-.019.038l.037.038c0-.018.018-.056.018-.075h-.038zm-.674.019h-.038l.018.038.018-.037zm-.692 1.423c-.038 0-.056.019-.075.019.019.038.019.075.037.113.018-.019.037-.019.037-.019v-.112zm-.449-.393c.056.056.112.056.149-.037-.057-.019-.113-.056-.15.038zm-.056-.954c-.019.019-.019.038-.038.056.038 0 .075 0 .225.019-.131-.056-.169-.075-.187-.075zm-.131.318c-.038 0-.075 0-.113.019 0 0 0 .019.018.019h.112c-.019-.019-.019-.019-.019-.037zm.093 1.385c-.075 0-.15.019-.243.038l.056.169c.094-.056.187-.056.187-.206zm-.599.524c0 .019-.038.019-.019.038 0 .038.019.038.037 0 .019-.018 0-.018-.019-.037zm-1.086.655v-.037h-.149v.038h.15zm.187-.28c.056-.075.131-.094.093-.168-.038-.018-.075-.037-.113-.037l-.112.056c.037.056.075.094.131.15zm.711-2.077h-.019v.038l.018-.038zm-.318 1.891c0 .019-.038.038-.038.038.018.056.056.056.074 0l-.037-.037zm-.298-1.5c-.094 0-.131.019-.131.094.019.038.075.056.112.075.056-.056.075-.112.019-.168zm-.262.992c-.019 0-.019.038-.038.056.038.019.075.019.131.019v-.037c-.037-.019-.075-.019-.093-.037zm-.262-.561v.094c.037.019.075.038.168.056-.019-.187-.019-.187-.169-.149zm-2.601 4.379c.037 0 .075-.018.168-.018-.019-.112-.019-.168-.038-.262-.131.075-.206.15-.131.281zm.412.992c.019 0 .019-.019.019-.037-.037 0-.075-.019-.112-.037 0 0-.018.056-.018.075h.112zm.281.187c.131 0 .131 0 .131-.149-.056.038-.131.056-.131.15zm.281-.673c.019 0 .019-.037.037-.056-.037-.019-.074-.019-.112-.019-.018.019-.018.019-.018.038.038.019.075.019.094.038zm.337 1.292c.075-.074.056-.149 0-.262-.038.113-.112.206 0 .262zm.056-2.395c-.037-.056-.056-.112-.094-.168.056-.056.113-.094.187-.15.113.075.244.168.412.075l.056-.113c-.131-.113-.262 0-.393-.038-.243-.131-.243-.131-.411-.038-.019.038-.037.094-.075.15.075.113.206.225.056.375-.056 0-.093.019-.131.019v-.018h-.018c-.019-.056-.019-.112-.019-.206-.093.131-.056.169.019.206v.019h.019c0 .094 0 .206.15.168.075-.094.224-.15.243-.281zm.15.281l.019-.038h-.037l.019.037zm.318 2.208c.038-.112.094-.206.131-.3-.112-.093-.206-.075-.28-.018 0 .243.018.3.149.318zm.056-1.628c.019.112.019.112.15.112-.019-.075-.037-.131-.15-.112zm.299 1.703c.019.037.038.037.056 0l-.018-.019c-.019 0-.037.018-.037.018zm.056-.824v-.037c-.037-.075-.074-.093-.131-.037.019.038.038.075.057.094.019 0 .056 0 .075-.018zm-.037-1.141c.075-.056.149-.075.093-.168-.112-.018-.15.019-.094.169zm.58 2.04c0 .038 0 .075.056.019-.019 0-.038-.018-.056-.018v-.019c-.019 0-.019 0-.019-.018-.019-.018 0-.074-.075-.018.019 0 .056.019.075.019v.019c0 .019 0 .019.018.019zm1.89-.037c.018 0 .056-.018.075-.018 0-.019 0-.037-.019-.037h-.075c-.019 0-.019.019-.019.037 0 0 .019.019.037.019zm2.096 4.998c-.056 0-.094 0-.169.019.075.038.112.075.168-.018zm-.412.674c.056-.018.093-.037.149-.056-.019-.056-.038-.093-.056-.149-.056.019-.094.037-.15.075.019.037.037.093.056.131zm.074-.842h.038l-.019-.037-.019.038zm.056-3.855c-.056-.131-.056-.131-.187-.093 0 .057.019.094.038.131.056 0 .094-.018.15-.037zm-.392 4.623c-.019-.018-.038.019-.056.038.019 0 .037.019.037.019.038 0 .056-.019.094-.037-.019 0-.056-.018-.075-.018zm-.056-5.839l-.019.019h.037l-.019-.019zm0 6.046c-.094.15.037.187.112.262.037-.056.075-.094.15-.15-.112-.037-.187-.075-.262-.112zm-.094-5.596c.074-.075.056-.131 0-.187-.038.019-.075.038-.15.056.056.056.112.094.15.131zm0 5.184c-.038.019-.038.037 0 .056l.018-.019c0-.018-.019-.037-.019-.037zm-.019.73c0 .037 0 .075-.019.225.056-.131.075-.169.075-.206-.019 0-.038 0-.056-.019zm-.599.861c.056-.056.075-.112.019-.169h-.112c0 .038-.019.075-.037.131.037 0 .093.019.131.038zm.318-1.984l-.019.019h.037l-.019-.018zm.112.505l-.15-.15c.037.206.037.206.15.15zm-.206.281c-.037.056-.037.094-.056.112 0 .019.019.037.037.037 0 0 .037 0 .037-.018 0-.037-.019-.056-.019-.131zm-.112.487c-.056.019-.094.037-.169.056.075.075.112.112.168.15.056-.019.093-.038.168-.056-.075-.075-.112-.113-.169-.15zm-.187-.768h-.131v.038h.131v-.038zm-.412 1.498c-.019 0-.038.019-.038.037 0 0 .018.019.037.019l.019-.019c0-.019-.019-.037-.019-.037zm-.131-.786v.112h.056c0-.038-.019-.075-.019-.113h-.039zm-.281 1.104c-.019.018-.019.056-.038.112l.337.112c.037-.056.074-.093.112-.149.131-.019.28.018.299-.169-.075-.056-.169-.056-.243-.018-.15.075-.3.075-.468.112zm-.898.58s-.019.037-.019.056c.037.019.075.019.112.019 0 0 0-.019.019-.038-.037-.018-.075-.018-.112-.037zm-.636.224v.15c.15.038.281.075.43.113 0 0 .019-.037.038-.037v-.131c-.075 0-.168 0-.243-.018-.075-.019-.15-.056-.224-.075zm-.879.599v.131c-.038.112-.225.187-.075.337h.168l.262-.262c-.019-.075-.019-.131-.037-.206-.019-.037-.075-.074-.113-.112-.074.038-.149.075-.205.112zm-.937.225c-.056.075-.056.15.057.281.056-.075.093-.112.131-.168-.056-.075-.094-.149-.187-.112zm-1.291-.037c0 .019-.037.038-.018.038 0 .037.037.037.056 0l-.038-.037zm-.898-.187l-.019.038h.019v-.037zm18.96-9.863c.113.056.113.169.075.262-.168.412-.355.824-.524 1.235-.037.094-.093.169-.112.243-.169.487-.431.936-.618 1.404-.187.487-.506.899-.693 1.385-.094.243-.3.468-.431.73-.187.412-.468.749-.73 1.104-.262.337-.561.618-.992.711-.187.038-.356.075-.524 0-.075-.018-.169-.056-.225-.037-.356.131-.505-.112-.674-.318-.131-.187-.224-.393-.318-.58-.037-.037-.056-.112-.037-.149.224-.262-.056-.543-.019-.823-.168.131-.355.206-.449.375-.056.113-.168.15-.281.206l-.673.393c-.15.075-.318.169-.506.094-.056-.019-.112-.019-.15.018-.281.262-.561.056-.842 0-.262-.056-.505-.168-.674-.393-.206-.281-.468-.524-.562-.88-.056-.206-.113-.393-.075-.599.037-.243-.056-.486-.038-.73.019-.374.019-.748.206-1.085.038-.075.038-.149.019-.224-.038-.131-.019-.262.112-.337.075-.018.094-.075.112-.149.168-.636.58-1.141.954-1.665.468-.618 1.066-1.067 1.703-1.479.28-.168.636-.224.879-.468h.037c.318.113.562-.149.842-.187.655-.075 1.235.038 1.741.449.337.262.355.824.075 1.086-.15.131-.3.056-.449.075-.187.018-.281-.057-.318-.244-.037-.113-.093-.15-.224-.169-.262-.056-.487-.037-.73.094-.412.225-.842.43-1.123.823-.318.113-.318.524-.618.637 0 .018-.019.018-.019.037 0 .318-.299.468-.43.711-.169.3-.243.655-.487.899-.075.093-.112.206-.15.318-.038.262-.169.505-.244.767-.169.543-.318 1.123-.169 1.704.056.187.112.299.299.374.131.075.262.037.412.019.337-.075.524-.356.824-.468.168-.056.28-.318.449-.449.093-.075.168-.206.281-.262.075-.038.112-.094.131-.187 0-.056-.019-.168.018-.187.3-.169.225-.487.3-.73.057-.262.15-.524.187-.805.038-.206.113-.412.206-.617.038-.056.094-.131.094-.206-.019-.355.262-.561.356-.861.019-.057.094-.113.094-.169 0-.374.337-.449.543-.599.206-.15.692.056.823.281.038.056.057.131.038.224-.094.318-.3.599-.281.936-.299.318-.15.805-.43 1.123-.019.674-.356 1.273-.356 1.947 0 .168-.056.356-.094.524-.094.356 0 .711.018 1.067.018.299.149.355.43.243.337-.112.599-.299.73-.636.075-.187.262-.243.355-.412.15-.262.243-.542.412-.786.056-.075.075-.187.187-.224.037-.019.075-.056.075-.075.169-.674.618-1.217.88-1.853.168-.374.318-.749.524-1.123.168-.318.28-.692.411-1.067.019-.075.037-.168.131-.224.093-.057.187-.094.299-.038zm-3.686 1.291c-.094-.074-.15-.074-.225-.018.038.038.057.056.113.131.037-.056.075-.075.112-.112zm-.58 1.778c.037-.075.056-.131-.019-.206-.038.075-.15.094-.056.206h.074zm.018-1.141c-.037-.075-.037-.075-.131-.018.056 0 .094 0 .131.019h.019c.037.056.075.094.093.15.056-.056.056-.094 0-.15h-.113zm-.168.73s0-.018-.019-.018v.056c.019-.019.019-.019.019-.038zm.524-3.668c0 .019-.019.019-.019.019.019.037.037.037.037 0 .018 0 0 0-.019-.019zm-.543-.543s0 .019-.019.019c0 .019.019.019.019.019.019 0 .019 0 .019-.019l-.018-.019zm-.243-.206c-.038.057-.038.113.018.169.056-.038.112-.075.112-.169-.056-.037-.094-.056-.131 0zm-.524.281c-.019 0-.038.019-.019.019 0 .037.019.037.037 0l-.019-.019zm-.786.318l-.019.019c.018.019.037.038.037 0 0 0 0-.018-.019-.018zm-.075.15l-.019.019c0 .019.019.019.019.019s.019 0 .019-.019c0 0 0-.019-.018-.019zm-.281-.243s-.019.019-.075.019c.075.093.149.15.206.206.018-.131.018-.131-.131-.225zm-.075.262h-.131c.037.037.075.056.131 0zm-.262-.094c-.038.019-.038.019 0 .038 0 0 .018 0 .018-.019l-.019-.019zm-.243.075l-.019.019.018.019c.018 0 .018 0 .037-.019-.019 0-.019-.018-.037-.018zm0 1.235c0 .019-.019.019-.019.038l.018.019c.018 0 .018-.019.037-.019l-.037-.037zm-.131.319c-.019 0-.019.019-.038.038 0 0 .019.019.038.019.037 0 .056-.019.131-.019-.075-.019-.094-.038-.131-.038zm-.581-.355s0 .019.019.019l.019-.019c0-.019 0-.019-.019-.037 0 0-.018.019-.018.038zm.019.206c-.037 0-.037.019 0 .037 0 0 .019 0 .019-.018 0 0 0-.019-.019-.019zm.262.636c-.019 0-.037.019-.056.019 0 .037.019.056.037.093.019-.037.019-.056.019-.075.019-.019 0-.037 0-.037zm-.187-.337c.019-.056.019-.075.037-.112-.037-.037-.075-.056-.131-.019.019.038.056.075.094.131zm-.168-1.216c0 .018-.019.056-.019.075.037.037.056.112.131.093.056-.037.112-.074.075-.168-.057-.019-.113-.056-.187 0zm-1.853 2.975s.018 0 .037-.019c-.019 0-.019-.018-.019-.018-.038 0-.038.019-.019.038zm.074 1.554l.018-.019s0-.019-.019-.019c-.018.019-.037.019 0 .037zm.018-.955c0-.018 0-.056.019-.187-.038.131-.056.15-.056.169 0 .019.018.019.037.019zm.056-.898c.019-.018.019-.018.037-.018 0-.019-.018-.037-.018-.037-.019 0-.038.019-.038.019 0 .019.018.019.018.038zm1.235-.243c.056-.019.056-.056.019-.112-.038.019-.075.056-.113.093.038.019.075.038.094.019zm-.056-1.834c-.037.019-.075.056-.131.113.094.056.169.056.244-.019 0-.056-.019-.094-.113-.094zm-.299 2.227c.019 0 .056 0 .131-.019l-.131-.131c-.056.075-.056.113 0 .15zm-.093-1.834c-.019.019-.019.019 0 .037 0 0 .018 0 .018-.018 0 0 0-.019-.019-.019zm-.506.861c-.056.112-.056.131-.075.168.019 0 .037 0 .056.019 0-.037 0-.075.019-.187zm-.037 4.323c.018-.131.018-.131-.131-.131.075.056.093.094.131.131zm-.019-2.115c.037.038.075.019.131-.018-.038-.037-.075-.056-.131-.112 0 .056-.019.094 0 .131zm.112 1.31c0-.112.075-.187-.019-.262-.038.113-.038.113.019.262zm.056-2.564c.019 0 .038-.018.038-.018 0-.037-.019-.056-.037-.131-.019.075-.019.094-.019.131l.019.019zm.169 2.34c.037-.037.037-.075-.019-.094-.037.038-.037.075.019.094zm-.019-2.751v.057l.038-.038s-.018 0-.018-.019H63.4zm-.018-.205c.056.056.131.131.206.187.057 0 .094 0 .225-.019-.224-.056-.206-.243-.336-.281-.094-.018-.094.038-.094.113zm.262 4.136c.019-.019.019-.019.038-.019-.018-.019-.018-.037-.037-.019l-.018.019.018.019zm.056-1.816c.019 0 .019.037.038.037.038 0 .057-.019.075-.037-.018 0-.037-.019-.056-.019s-.037 0-.056.019zm.113 1.965c.038-.037.019-.075-.018-.112-.038.037-.057.075.018.112zm.113.056c.075.037.131.056.206 0-.075-.037-.131-.056-.206 0zm2.62-1.31v-.113c-.056 0-.112 0-.149-.018-.056.037-.075.094-.037.15.056.018.112.037.187-.019zm.056-.375l.019-.018c0-.018-.018-.018-.018-.018s-.019 0-.019.019c0 0 0 .019.019.019zm1.161-3.237c0 .074-.094.131.018.205.019-.094.019-.094-.019-.206zm.018 1.123c0-.019 0-.019-.019-.038 0 .019-.019.019-.019.019.018.037.018.037.037.019zm.019.692c-.056-.038-.093-.038-.131 0 .038.037.075.056.131 0zm-.3-1.422c-.019 0-.037 0-.056.019 0 0 .019.038.038.038.018 0 .037-.019.056-.019 0-.018-.019-.037-.038-.037zm-.617 4.473h.131c-.056-.056-.075-.056-.131 0zm.112-1.852s.018-.018.018-.037l-.019-.019c-.038.018-.038.037 0 .056zm-.019-.243c.075-.037.131-.075.112-.187-.037-.037-.075-.075-.15-.131-.038.056-.057.075-.075.094l.112.225zm.131 1.891v-.02c.019 0 .037-.019.056-.019-.019 0-.019-.019-.038-.019 0 0 0 .019-.019.037 0 .018-.019.018-.019.018s-.018.018-.037.018c.018 0 .018.018.037.018v-.038h.018zm-.15-2.545c.056.056.093.15.206.112-.038-.075-.057-.15-.094-.206-.056 0-.113 0-.113.094zm.245 2.281c.037.037.075.019.112-.019-.037-.038-.075-.075-.112.019zm.468 1.011c.018-.019.037-.019.037-.037-.019 0-.038 0-.056-.019s-.019-.038-.019-.056l-.038.037c.018 0 .037 0 .056.019s.018.037.018.056zm-.075-2.508s0 .019.018.019c0 0 .019 0 .019-.019l-.019-.018-.019.019zm.093.487c.037-.038.037-.075 0-.112-.038.037-.038.074 0 .112zm-.131-.805c.075.056.149.075.243 0 0-.056.018-.112-.038-.15-.038.019-.094.038-.15.056-.019-.056-.038-.093-.075-.149-.056.038-.113.056-.187.094 0 .075-.019.131.037.187.037 0 .075-.018.168-.037zm10.613-3.725c.168.056.149.187.112.318-.019.075 0 .187-.056.224-.3.262-.412.674-.711.936-.3.262-.562.562-.88.73-.431.225-.824.505-1.348.505-.243 0-.487.094-.749.038-.112-.019-.187.019-.243.131-.281.618-.693 1.142-1.011 1.722-.43.749-1.067 1.198-1.89 1.348-.094.019-.168.075-.243.113-.374.169-.767.019-.973-.318-.131-.224-.225-.449-.225-.711.018-.374 0-.748.018-1.123.019-.262.112-.524.131-.767.056-.506.243-.974.318-1.479.056-.299.15-.58.225-.861.075-.299.187-.617.262-.917.093-.337.318-.636.393-.992 0-.037.056-.093.112-.112.225-.094.449 0 .655.093.187.094.262.262.206.468-.056.225-.094.487-.094.711.019.468-.262.88-.206 1.366.019.15-.037.3-.075.449-.131.58-.187 1.179-.318 1.741-.074.356-.074.73-.205 1.086-.075.243.112.449.187.655.018.056.075.075.131.056.037-.037.093-.056.131-.093.318-.355.786-.58.973-1.085.037-.112.168-.206.262-.318.112-.112.224-.224.224-.393 0-.056 0-.131.037-.149.262-.131.281-.449.468-.655-.356-.15-.505-.412-.487-.786 0-.112-.037-.206-.075-.3-.056-.131-.075-.262.056-.356.075-.037.094-.112.094-.187.037-.505.318-.88.58-1.254.262-.318.636-.431 1.029-.449.093 0 .187.038.224.131.112.187.243.374.187.599-.075.243-.131.487-.206.73-.187.505-.468.954-.599 1.46.075.093.187.075.281.056.636-.15 1.272-.318 1.815-.693.056-.056.093-.094.131-.15.018-.075.037-.149.093-.168.486-.262.655-.748.917-1.179.074-.149.187-.224.336-.168zm-7.092 3.836l-.019-.018c-.038.019-.038.019 0 .038 0 0 .019 0 .019-.019zm-.075-1.422v-.019h.018c.019-.018.019-.037.037-.056.019.056 0 .056-.038.056v.019H71zm-.094-1.329s-.019.038-.019.056h.074s.018 0 .018-.018v-.019c-.019-.018-.056-.018-.075-.018zm-.113.318c-.019 0-.038.019-.056.019 0 .018.018.037.037.037s.037-.019.056-.019c0-.019-.019-.038-.037-.038zm-.056 3.201c-.019 0-.019 0-.038.019.019 0 .037.019.056.019l.018-.018c-.019-.019-.038-.019-.038-.019zm-.075-.318l-.019.018c0 .019 0 .019.019.019 0 0 .018 0 .018-.019l-.019-.019zm-.075-1.011l.018.018c-.019.038-.038.038-.038 0-.019 0 0-.018.019-.018zm0 1.684c.093-.018.093-.018.205-.131-.149-.018-.131-.187-.262-.243-.075.038-.131.075-.224.113.056.038.093.075.131.094.019-.019.056-.019.093-.037.019.075.038.15.056.206zm.205-3.013c.038.075.075.075.131.019-.056 0-.075 0-.131-.019zm.094.244s0 .019-.019.019l.019.019c.018 0 .018 0 .037-.019-.019 0-.019-.018-.038-.018zM71 20.78v-.037c-.019 0-.037.019-.056.019l.019.019h.038zm-.131-1.198c.019.113.019.113.206.094-.131-.019-.112-.112-.206-.093zm.58-2.994c-.037.15-.037.15.131.131l-.131-.131zm.262-.917c.094-.019.075-.075.0375-.15-.019.019-.056.019-.0934.019.019.0372.037.075.056.131-.075.019-.131.075-.15.15h-.018v.019h-.131c0 .056.019.093.019.1493.056-.056.075-.112.112-.149 0 0 .019 0 .019-.019.037 0 .094 0 .15-.0186v-.131zm.094-.9547c-.093-.075-.168-.075-.262 0 .038.038.075.056.131.112.056-.037.094-.075.131-.112zm-.5425.749c.0374.0375.075.075.094.112.075.019.131.038.187-.018-.094-.0374-.15-.1497-.281-.0936zm.8795 5.409c0-.019.019-.019.019-.0374h-.037c0 .018 0 .018.019.037zm.206-.187c.056.038.094.038.131 0-.037-.037-.075-.037-.131 0zm.73-.842l.019-.0184-.019-.019c-.037 0-.037.018 0 .037zm.749-3.799c.056-.0375.056-.0375 0-.15v.1494zm-.0188.019c-.038 0-.075 0-.038.056.019-.0186.019-.037.037-.056zm0 0s0-.019.0182-.019h-.018v.019zm-.0567.3743c-.0185.019-.056.0376-.0933.056.056.019.0934.0565.131 0 0 0-.019-.037-.0376-.056zm-.0372.4306c0-.037-.019-.037-.0375 0-.019.019 0 .019.019.038 0-.019.0182-.019.0182-.038zm.056.9734c.056-.056.094-.0936.131-.15-.0187-.075-.0187-.131-.0187-.206-.0933-.037-.168-.075-.243-.112-.075.0747.019.112.019.1683 0 .075 0 .15.019.206.038.037.075.056.094.093zm.6924-.936c.187-.337.337-.711.468-1.0854.056-.149.019-.299-.075-.43-.112-.15-.224-.15-.318.019-.112.187-.336.337-.336.58-.337.2996-.0935.7487-.2994 1.0295 0 .187.075.2994.1123.412.0185.056.056.093.112.093.0563 0 .0937-.037.1124-.093.056-.187.15-.337.225-.524zm10.671-1.424c.094.0187.131.1123.15.187.075.1873.075.337-.131.4306-.056.019-.0933.075-.131.131-.3553.749-.917 1.292-1.628 1.685-.075.038-.131.094-.168.169-.018.056-.056.112-.093.112-.2435.038-.412.244-.6364.3-.393.094-.767.356-1.197.337-.056 0-.112.038-.112.094-.075.243-.281.393-.375.636-.131.2996-.374.543-.58.805-.281.356-.618.674-.973.917-.393.262-.749.5617-1.254.599-.113.019-.225.1124-.356.131-.206.0376-.393.0376-.599-.0186-.281-.0934-.58-.0934-.842-.262-.449-.281-.861-.973-.842-1.4784.018-.262-.094-.5054-.075-.7674.037-.337.075-.674.206-.9733.037-.0937.093-.187.093-.262-.056-.187-.0375-.3558.1496-.449.018-.019.037-.0377.056-.075.112-.5616.486-.973.879-1.3477.168-.1684.187-.337.187-.543-.056-.693.094-1.329.543-1.872.056-.075.093-.149.131-.224.037-.0935.075-.1684.168-.187.28-.094.467-.318.748-.393.037 0 .075-.056.093-.056.355.037.692-.038 1.048.0184.411.075.711.356 1.066.562.093.038.168.131.206.225l.673 1.2352c.019.038.056.094.056.131-.037.524.15 1.03.112 1.572-.019.487-.225.918-.206 1.442.599-.15 1.16-.356 1.628-.711.262-.1878.524-.356.748-.599.262-.262.505-.562.748-.861.131-.131.206-.318.299-.487.037-.0938.093-.1687.206-.15zm-9.393 4.173c0 .0377.019.0377.037 0 0 0-.018 0-.018-.0185 0 .019-.0183.019-.0183.019zm5.37-4.136l-.018.0187c.019.0377.038.0377.056 0 0 0-.018-.0184-.037-.0184zm-.149-.468l-.168.1685c0 .019.0187.038.0374.057.094-.038.169-.094.244-.131 0-.094-.037-.094-.112-.094zm-.262-.0186c.056 0 .075-.0373.056-.0934-.038-.057-.075-.169-.206-.113.056.075.093.15.149.206zm.038-.4864s.019 0 .038-.019h-.056s0 .018.019.018zm-.261-.674c-.093.018-.093.056-.075.093.075.075.169.131.244.187.019.019.075 0 .113 0-.0375-.056-.056-.112-.0936-.169-.056-.038-.131-.075-.187-.113zm-.131.786c-.037.037-.056.075 0 .131.038-.038.038-.094 0-.131zm-.149-.468c-.037.056-.056.093 0 .131.038-.038.038-.075 0-.131zm.038.28c-.0187-.019-.0374-.019-.056-.019 0 .018-.019.056-.019.093h.038c0-.019.019-.056.038-.075zm-.2245-.992c-.0377 0-.0938.019-.206.019.1683.075.056.131.056.187 0 .019.019.019.038.019h.1684c.019-.112.019-.168-.056-.225zm-.019.58c-.018 0-.018-.019-.037-.019-.037.018-.037.037 0 .037 0 .0183.019 0 .0375-.019zm-.505.056c-.018.037-.018.056-.037.112.0373.018.075.018.1122.037.018-.0375.037-.056.037-.0937 0 .019.018.019.018.019v-.019c.0372 0 .094.019.131-.038-.075-.037-.112-.019-.131.037H79.6l-.1126-.056zm-.0745-.15c-.019 0-.019.018-.0372.018.0182 0 .037.0187.056.0187v-.02c0-.019-.019-.019-.019-.019zm-.655-.618c0 .075.019.112.075.131h.0188c.093.112.093.112.187.037-.056-.056-.131-.0374-.187-.0374h-.019l.075-.149c-.0566.0183-.1127.0183-.15.0183zm.374.711c-.037-.019-.056-.056-.0932-.0937-.075.037-.131.056-.206.093.112.056.206.056.299 0zm-.486-.449c-.0186.075-.037.093-.037.131 0 0 .019.0184.0373.0184s.038-.019.038-.019c-.019-.037-.019-.056-.0373-.131zm-.131.954v.018l.019-.019c.019 0 .0562 0 .0375-.056h-.019c0 .019-.0184.037-.0184.056h-.019zm-.262-.131s-.0186 0-.0186.018c0 0 0 .019.019.019l.019-.019-.019-.019zm-.2057-.58v.018h.0187c0 .0378 0 .075.037.0378 0-.019-.019-.019-.0374-.0373l-.019-.019zm-.094 2.994c-.037-.038-.075-.038-.112.037.0377.019.075.0374.1125-.037zm-.168-1.797c-.019 0-.019.018-.0375.018.019 0 .019.019.0372.019 0 0 .019 0 .019-.019l-.019-.018zm-.075.861l-.0186.018s0 .019.0186.019l.019-.0184-.019-.019zm-.0935.542c.056.056.056.113.0372.169-.075.038-.093-.018-.131-.075l.094-.093zm-.2247-1.628c-.019 0-.019 0-.037.019.0183 0 .037 0 .056.019v-.038h-.019zm-.2243.225c-.056.075-.019.112.019.168.056.131.056.131.243.0935l-.262-.262zm.1685.8794c-.056-.037-.1123-.0744-.2246-.131.019.131.0374.206.15.225.0185-.0376.056-.056.075-.094zm.0186 1.385c0-.056.018-.131-.038-.168-.093-.019-.131.037-.168.112.094.112.094.112.206.056zm-.262-.318s0 .019.018.019c-.019.0185-.019.0185-.0373.0185-.019-.019-.019-.019.0185-.038zm-.056.73c-.057-.075-.094-.168-.225-.093.056.075.093.1682.224.0933zm-1.198 3.126c.037-.037.075-.056.112-.0934-.037-.0186-.075-.037-.093-.056-.056.056-.056.0935-.019.15zm.168-2.115v-.0185h-.037c0 .019.019.019.019.019 0 .019.018 0 .018 0zm.019-.2056c.019 0 .038-.019.056-.019 0-.019-.018-.056-.037-.056s-.037.0184-.056.0184c0 .019.019.0565.038.0565zm.3 1.141v-.337h-.149c.037.093.056.131.093.187.019.056-.019.112.056.15zm.019-2.49c.019.057.037.094.056.15-.019.038-.075.094-.037.15.019.019.056.019.112.037.019-.037.056-.093.093-.131v-.149l-.112-.112-.112.056zm.225 1.086l-.019-.019c-.038 0-.038.019-.019.038.018 0 .018-.019.037-.019zm-.187.4868s.019-.019.019-.0375l-.019-.019c-.038.019-.038.0374 0 .056zm.318 2.489s0-.0186.019-.0186c0-.019-.019-.019-.019-.038-.0182.019-.0182.019-.037.019 0 .0185.0187.037.037.037zm2.489-.393c.038 0 .075-.0186.131-.0186-.056-.019-.093-.038-.131-.038 0 0-.019.019-.019.038l.019.019zm.693-.6924c0-.019.018-.019.018-.0373 0 0 0-.019-.019-.019l-.018.0185c0 .019.019.019.019.037zm0-.4864c.187-.206.243-.487.43-.73-.15-.0376-.262-.0937-.375-.0937-.7296-.0188-1.366-.318-1.946-.7487-.1495-.093-.262-.206-.393-.318-.0934-.093-.2056-.093-.2805 0-.131.169-.28.337-.374.524-.149.3-.168.637-.393.918-.018.037-.018.112-.018.187.019.168-.037.337-.075.486-.075.262-.075.524.019.749.093.225.299.412.486.599.15.15.356.206.543.1688.412-.075.842-.112 1.123-.4862.019-.056.075-.056.131-.0935.281-.187.561-.374.711-.711.019-.056.037-.093.094-.112.168-.056.224-.224.318-.337zm-1.104-1.498c0 .0183 0 .0183.018.0183h.0186c0-.018-.019-.037-.019-.037-.019 0-.019.019-.019.019zm.374.093c0 .0376.018.056.037.0937.019-.037.019-.056.019-.093 0 0-.019-.019-.038-.019l-.0184.019zm1.403.3745c.019.037.0376.037.0564 0l-.019-.019c-.019 0-.037.018-.037.018zm-.037-.337c0-.187.225-.337.206-.562-.018-.318.094-.636.075-.955 0-.206-.056-.375-.056-.581-.037-.58-.411-.973-.804-1.348-.038-.038-.113-.056-.169-.075-.505-.075-1.0102-.206-1.31.374-.019.019-.056.056-.094.056-.262.075-.243.281-.299.506.206-.075.374-.075.543-.075.262.019.43.168.505.412.0376.168-.0934.505-.3366.58-.2995.093-.449.337-.6925.487.636.767 1.4032 1.216 2.433 1.179zm-2.096-2.321c.057.075.094.112.188.224.0376-.15.131-.15.1124-.225h-.3zm2.377 2.976c.056.037.075.037.113-.019-.037-.037-.075-.019-.112.019zm.131-.955c-.075.037-.075.056-.018.131.019-.056.019-.094.019-.131v-.019h.019c.0185 0 .056 0 .037-.056h-.019c-.0184.018-.0184.037-.0184.056h-.019v.018zm.056.337l.019-.019c0-.038-.018-.056-.037-.131-.019.075-.019.093-.0374.131 0 0 .038.019.056.019zm.038-2.209c0 .019.019.019.0375.037 0-.019.019-.038.019-.057s-.019-.038-.037-.056c0 .037-.019.056-.019.075zm.412 1.048c.056-.15.056-.15 0-.187-.019.019-.056.019-.094.037-.019-.037-.0566-.094-.075-.131-.056 0-.094 0-.15.019-.0185.093-.056.168-.075.262.075.075.15-.075.225-.038.056.019.0935.075.1684.037zm8.911-.318c-.168.075-.206.206-.168.393.019.075-.019.131-.056.206-.4304.711-.6924 1.497-1.104 2.208-.15.262-.206.58-.4305.805-.056.056-.093.15-.112.243-.037.131-.075.262-.168.355-.224.187-.299.486-.468.73-.168.28-.43.486-.673.674-.449.355-.973.393-1.515.318-.412-.056-.73-.262-.898-.655-.075-.131-.168-.262-.243-.412-.15-.281-.225-.562-.131-.88 0-.056.037-.112.019-.15-.169-.337.037-.636.037-.955-.019-.093.019-.187.056-.262.225-.43.281-.898.487-1.329.187-.393.281-.804.431-1.216.168-.43-.019-.655-.468-.767-.524-.131-1.085-.187-1.591-.449-.243-.112-.449-.3-.655-.468-.037-.038-.093-.112-.093-.169.038-.43-.149-.879.019-1.329.038-.094.038-.206.019-.3-.019-.075-.037-.15-.019-.187.244-.412.319-.899.524-1.311.206-.412.487-.786.768-1.161.131-.169.318-.262.524-.318.337-.094.693-.206 1.011.093.243.225.374.487.337.824-.094.561-.206 1.123-.412 1.665-.093.243-.149.524-.224.767-.112.3-.224.599-.318.898-.037.131-.056.281-.094.449.431.037.805.093 1.179.224.037.019.094.037.131.037.299-.131.468.056.655.206.187.149.281.336.393.561.225.431.15.842-.019 1.254-.131.337-.206.693-.355 1.029-.094.187-.075.431-.281.599.094.3-.112.562-.149.861-.019.131-.056.243-.075.374-.094.431.075.842.168 1.235.037.169.168.375.355.375.206 0 .412-.037.562-.243.281-.355.524-.748.786-1.123.112-.149.206-.355.281-.542.187-.449.543-.824.618-1.329.019-.094.094-.15.15-.225.112-.168.262-.318.243-.542-.019-.094.019-.169.075-.206.112-.094.187-.206.168-.337-.019-.206.187-.281.243-.468.094-.356.243-.674.374-1.011.056-.131.131-.262.243-.356.056-.037.113-.074.187-.037.075.037.113.112.094.187-.056.187-.094.393-.187.561-.056.131-.15.262-.15.431 0 .056-.019.131-.075.169zm-3.593.505c-.018.056-.037.075-.056.113.056.037.094.056.15 0-.0372-.038-.056-.057-.094-.113zm-1.197-5.82c-.019 0-.056.018-.075.018l.037.038c.019 0 .038-.019.075-.019l-.037-.038zm-.056-.169c0 .018-.018.018-.018.037l.0184.018c.019 0 .019-.019.019-.019 0-.019-.018-.019-.018-.038zm-.243 1.179c-.019.018-.019.037 0 .056.019 0 .038-.019.038-.038 0 0-.019-.019-.038-.019zm-.823-1.591c-.019-.056-.056-.094-.131-.094 0 .037 0 .075.019.112.037 0 .0746-.019.112-.019zm-.15.299c-.0744-.038-.1493-.075-.2054.018.056.019.1125.019.206-.018zm-.0744.861c-.0185-.038-.0372-.038-.056-.019 0 .018.019.018.019.037.019 0 .019-.019.0378-.019zm-.187-1.048c-.019 0-.019.018-.0374.018.018.018.018.037.037.037l.019-.019c0-.019-.019-.038-.019-.038zm-.0374 1.235c-.019 0-.038.018-.056.037.074.056.168.112.262.187.018-.075.037-.131 0-.187-.057-.056-.131-.038-.206-.038zm-.113-.992c-.019 0-.019 0-.038.018.019 0 .019.019.0375.019l.0183-.019-.0182-.019zm-.206 1.759c-.019-.075-.075-.075-.131-.038.0373.056.075.037.131.037v.019h.019c.019.075.056.075.15.018-.075-.019-.112-.019-.15-.019 0 0 0-.019-.019-.019zm-.112.093c-.019.037-.019.075-.056.149.075-.019.112-.019.15-.038-.019-.018-.038-.056-.056-.075l-.038-.037zm-.3-.693c-.019 0-.019.019-.0375.019l.0183.019c.019 0 .019 0 .038-.019-.0183 0-.0183-.019-.0183-.019zm-.356 1.385c.038-.019.075 0 .038-.056-.019.019-.019.037-.038.056h-.0184c-.019 0-.056 0-.019.056 0-.019.0183-.038.0183-.056h.019zm.4308 1.31v-.037l-.018-.018c0 .018-.0185.018-.0185.037.019 0 .019.018.038.018zm-.187-.936h.374c-.056-.056-.112-.075-.131-.093-.018-.075-.037-.131-.056-.187-.112-.038-.149.056-.206.149.019.037.019.075.019.131zm.487.936c.019-.037.1127-.037.094-.131-.056 0-.112 0-.15-.019-.056.112-.056.112.056.149zm.075-1.16c.019-.038.0377-.075.0377-.094-.037-.038-.075-.056-.131-.019.038.037.056.075.094.112zm.243.711c.038-.169.038-.169-.131-.113.0567.037.094.075.131.112zm0 .543c.038-.019.075-.038.1128-.038 0-.037-.019-.056-.019-.131-.056.037-.0933.037-.131.056 0 .038.019.075.0377.112zm-.187-2.47c.056.131.1685.149.2995.112-.057-.056-.094-.112-.15-.15-.056.018-.113.018-.15.037zm.337 1.59c0 .169.056.318.206.393.393-1.048.674-2.133.8796-3.238-.2432.188-.449.375-.5614.674-.0937.244-.1686.524-.281.73-.244.468-.206.955-.244 1.441zm.243.768c.019-.019.019-.038.019-.057 0-.018-.0185-.037-.037-.037 0 .018-.019.037-.019.056 0 .019.019.037.037.037zm.075.411c0-.019.019-.019.019-.019 0-.019 0-.019-.0185-.038h-.019c0 .018 0 .037.019.056zm.075-.468c0-.019.019-.019.019-.037l-.019-.019c-.019 0-.019.019-.038.019l.038.038zm.468.692c-.0185 0-.0185-.019-.0373-.019.019-.018.019-.037.038-.037 0 0 .019.018.019.037l-.019.018zm.15-.112c.0186-.019.0186 0 .0186.019l-.0184.019c-.038-.019-.019-.038 0-.038zm0 .187s-.019 0-.019-.019l.019-.019c.0188 0 .0188 0 .0375.019-.019 0-.019.019-.038.019zm.1496-.3l.019-.019c-.0183-.019-.0183-.038-.037-.038-.019 0-.038 0-.094.019.056.018.075.037.112.037zm-.5985 4.473c.056.018.093.037.131.037l.0183-.019c0-.019-.019-.057-.019-.057-.0373.018-.075.018-.131.037zm.131.28c-.019.131-.019.131.131.112-.038-.038-.075-.075-.131-.113zm.5422-2.228c-.037.038-.037.075.019.094.037-.037.037-.075-.019-.094zm-.299.917l-.019.019c0 .019 0 .019.019.019 0 0 .018 0 .018-.019 0 0-.019 0-.019-.019zm0 2.452l.018-.019-.019-.019c-.038 0-.038.019 0 .038zm.018-1.235c.019 0 .038 0 .094-.019-.056-.018-.075-.037-.093-.037-.019 0-.019.018-.037.018.019.019.019.037.037.037zm.225-.337c0-.019.019-.037.019-.056s-.019-.037-.019-.037c-.094.019-.168.056-.262.094.094.056.168.037.262 0zm-.037-.842c.056.037.075.037.112-.019-.038-.037-.075-.037-.113.019zm.093 3.032c.019 0 .019 0 .037-.019-.019 0-.019 0-.019-.019-.019 0-.019.018-.038.018l.018.019zm0-.374c.019 0 .019-.019.037-.037-.019 0-.019-.019-.019-.019-.038.019-.038.037-.019.056zm.075-2.171s.019-.037.019-.056c.019 0 0-.019-.019-.019-.019.018-.056.018-.093.037.037.019.075.038.093.038zm.019-1.179s0-.019.019-.019l-.019-.019c-.019 0-.019 0-.019.019 0 0 0 .019.019.019zm0-.393l.019-.019-.019-.019c-.038 0-.038.019 0 .038zm1.01.318c.019-.112.019-.112-.093-.225-.019.056-.019.075-.019.112l.112.112zm-.074-.823c-.038 0-.038.019 0 .037 0 .019.018 0 .018-.018l-.019-.019zm-.038-.786c-.056.075-.131.131-.056.206.112.037.149-.038.168-.094-.019-.094-.056-.188-.094-.262h-.095c.019.056.037.093.075.149zm-.43 2.152c0-.037.018-.056.018-.093-.093-.112-.168-.243-.355-.262.131.112.112.337.337.356zm.018.655l-.093-.093c-.056.037-.074.075-.131.112.057.056.094.112.131.112.113 0 .094-.056.094-.131zm-.355-1.853l.019.038c.018 0 .018-.019.037-.037-.018-.019-.037-.037-.056 0zm.15.319c.018.018.037.037.056 0 0 0-.019-.019-.038-.019 0 0-.018 0-.018.018zm-.113-2.508c-.037.018-.112.037-.093.131h.281c-.075-.094-.113-.131-.187-.131zm.075 7.056c.038 0 .075-.019.094-.038 0-.094-.056-.15-.131-.187h-.096v-.019l-.038-.038-.018.019c.019.019.038.019.056.019v.018c-.018.113.038.187.131.225zm.188-.038c.019.037.037.037.056 0l-.018-.019c-.019 0-.037.019-.037.019zm.037-.749c0-.019 0-.019.019-.019 0-.019-.019-.019-.019-.038-.019 0-.019.018-.019.018 0 .019 0 .019.019.037zm.056-.299c.019 0 .037-.019.037-.019-.018-.019-.018-.056-.037-.056-.037 0-.056.018-.131.037.075.019.094.019.131.038zm.056-5.558v-.093c-.037-.019-.075-.056-.112-.094-.056.075-.056.149 0 .224.037-.019.075-.019.112-.038zm.037 2.115s.018 0 .018-.019l-.019-.019c-.038.019-.038.019 0 .037zm.037-1.61c.018-.019.037-.019.056-.019l-.038-.037c0 .018 0 .037-.019.056-.019 0-.038.019-.056.019 0 .018.018.018.037.037 0-.019 0-.038.019-.056zm.112.637l-.019.018c.018 0 .018.019.037.019v-.019c0-.019-.019-.019-.019-.019zm-.019 4.828v.094c.018 0 .056.019.093.038.037-.056.056-.094 0-.15-.019 0-.056.018-.094.018zm.187.655c.056-.093.037-.187 0-.281-.075 0-.131-.037-.187.038.056.018.093.037.131.075 0 .056.018.093.037.149 0 0 0 .019.018.019zm11.924-5.54c-.038.019-.094.056-.113.094-.037.449-.411.73-.542 1.141-.019.094-.056.169-.112.243-.206.28-.431.561-.505.898-.018.037-.037.056-.056.075-.542.73-.992 1.535-1.572 2.228-.28.355-.561.711-.842 1.048-.112.15-.187.281-.149.468.019.075.019.168-.019.224-.244.524-.225 1.141-.524 1.647.037.355-.337.561-.3.917.019.056-.037.112-.075.168-.056.056-.131.112-.15.187-.131.43-.374.823-.58 1.235-.131.262-.281.524-.43.786-.224.43-.486.861-.804 1.216-.318.356-.543.786-.973 1.048-.15.094-.206.262-.356.393-.3.244-.618.524-.955.711-.636.374-1.272.748-2.021.804-.15 0-.318.019-.449.057-.318.094-.599 0-.879-.056-.243-.037-.43-.168-.58-.355-.056-.112-.131-.187-.206-.28-.393-.562-.393-.674-.337-1.366.018-.356.112-.674.187-1.011.075-.262.224-.487.374-.711.262-.468.655-.842 1.085-1.161.262-.206.542-.411.842-.599.599-.355 1.197-.73 1.834-1.048.299-.149.505-.43.861-.468.149-.337.58-.262.767-.561.075-.131.281-.187.43-.262.187-.112.374-.206.524-.393.093-.131.224-.206.374-.262.187-.093.318-.206.28-.449-.037-.206.131-.356.169-.543.187-.711.374-1.441.542-2.152.131-.599.374-1.198.374-1.834.243-.374.224-.842.337-1.254.112-.449.224-.917.28-1.385-.113 0-.187.037-.225.094-.412.599-.954 1.085-1.422 1.628-.393.486-.917.786-1.516.954-.355.094-.711-.019-1.067-.075-.674-.131-.936-.692-1.216-1.216-.112-.206.019-.468 0-.712-.019-.393.168-.748.262-1.123.019-.093.093-.168.15-.262.075-.112.169-.224.225-.355.168-.524.617-.842.917-1.273.131-.187.318-.262.542-.262.243 0 .486 0 .73.038.505.075.711.561.411.935-.356.412-.618.861-.917 1.291-.112.15-.15.337-.243.487-.206.355-.206.748-.356 1.104-.037.112-.056.243-.056.355.037.187.075.412.299.468.187.056.412.056.58-.094.094-.112.206-.206.356-.206.074 0 .112-.056.149-.113.224-.224.411-.486.692-.692.15-.112.299-.281.393-.449.206-.393.599-.58.786-.973.075-.169.355-.262.542-.337.112-.056.243-.075.355-.15.206-.113.749.075.917.337.15.205.356.393.15.692-.056.094.056.281.037.412-.019.374-.112.73-.093 1.123.019.056-.019.112-.075.168-.056.056-.112.131-.075.206.168.374-.094.692-.094 1.048-.018.299-.112.599-.112.917 0 .206-.15.393-.168.618-.018.149-.056.299-.018.486.15-.149.318-.299.412-.449.299-.449.674-.861.917-1.347.15-.262.337-.505.505-.767.094-.15.206-.3.243-.487.018-.075.056-.131.149-.169.037-.019.094-.037.094-.056 0-.281.243-.431.318-.655.187-.468.468-.861.636-1.328.075-.15.15-.318.224-.487.037-.075.094-.169.206-.15.093.019.168.094.187.206.019.112 0 .206-.056.299-.131.206-.243.431-.281.674-.019.075-.056.15-.131.206zm-8.851-.786c-.038.038-.112.056-.094.131.056.019.131.038.187-.019 0-.037 0-.075-.019-.093-.018-.019-.056-.019-.075-.019zm.093.505c0-.019-.019-.019-.019-.019-.019 0-.019 0-.037.019.018 0 .018.019.037.019 0 0 0-.019.019-.019zm-.243.43c.074-.056.149-.094.243-.131l-.187-.187h-.113c0-.057-.019-.075-.075-.075v-.019c0-.056 0-.131-.038-.206h-.094c-.019.112-.019.112.019.206h.112v.018c0 .037.019.056.075.075-.019.075-.038.131-.038.206.019.037.056.075.094.112zm.28-1.048c.037.018.074.037.112-.019-.056-.038-.075-.038-.113.019zm.093-.225l.018-.019c0-.019-.019-.019-.019-.019-.019 0-.019 0-.038.019.018 0 .018.019.037.019zm.842-.15c.093-.056.168-.112.093-.206-.094-.019-.15.038-.187.112.037.038.074.056.093.094zm.262-.468c.018 0 .056 0 .131-.019-.075-.019-.113-.037-.131-.037-.019 0-.038.019-.038.019.018.018.018.037.037.037zm.598-.43l-.018.018.019.019c.019-.018.019-.018.019-.037h-.019zm-.205.468c-.131-.019-.131-.019-.113.149.056-.075.075-.112.112-.15zm-.356-1.067v.075c.018 0 .056.018.112.037l.112-.112c-.131-.038-.131-.038-.225 0zm-.375-.113c-.038.038-.075.075-.094.113.038.019.075.037.131.056.038.019.075.037.113.075.056-.019.075-.038.112-.056-.094-.056-.168-.112-.262-.187zm.187.337c-.038-.056-.075-.037-.131 0 .037.056.093.056.131 0zm-.112.206c-.057.056-.113.131-.188.187l.056.113h.262c0 .019 0 .019.018.019-.018 0-.018-.019-.018-.019.037-.075.093-.131.131-.206-.056-.094-.15-.113-.262-.094zm-.206-.206c-.038-.037-.075-.056-.131 0 0 .038.018.075.018.131.056-.056.093-.093.112-.131zm-.075.768l-.019-.019-.019.019c0 .018.019.018.019.037.018-.019.018-.019.018-.037zm0 1.647c-.019 0-.057 0-.057-.019s.019-.056.037-.112c.018.056.037.093.037.112 0 .019-.019.037-.019.019zm3.555-.768c.037-.037.037-.075 0-.112-.038.038-.038.075 0 .113zm-2.171 8.59c-.037.019-.037.038 0 .038 0 .019 0 0 .019-.019-.019 0-.019-.019-.019-.019zm-1.74 1.067c.019-.018.037-.018.037-.018 0-.019 0-.019-.019-.038 0 .019-.019.037-.019.056zm-.019.019c-.037 0-.056 0-.056.038h.037c0-.019 0-.019.018-.038zm0 0h.019v-.018h-.019v.019zm-2.713 6.42c.094.019.15.056.225-.019-.094-.037-.15-.056-.225.019zm3.293-1.928c.056-.056.037-.093 0-.131-.038 0-.056 0-.094-.018h-.019c0-.056.019-.094-.019-.131-.074.018-.056.056-.037.093.019.018.037.018.056.037h.019c.037.056.056.093.093.149zm.411-2.152c.244-.393.393-.823.58-1.254.075-.224.188-.411.169-.655.299-.187.187-.542.318-.804.112-.187.168-.43.15-.711-.674.599-1.497.917-2.171 1.441-.075.038-.169.075-.262.075-.056 0-.169 0-.187.038-.113.206-.318.224-.487.337-.524.337-1.067.655-1.572 1.01-.917.655-1.254 1.029-1.722 2.152-.018.038-.037.075-.075.094-.112.094-.112.225-.131.356-.019.374.094.73.206 1.085.019.056.056.094.094.131.299.206.636.375 1.01.318.954-.112 1.759-.598 2.414-1.253.318-.3.655-.599.86-.992.112-.169.168-.375.374-.468.112-.038 0-.262.093-.318.206-.15.206-.393.337-.581zm.805.824c.037 0 .056 0 .037-.037l-.056.056c-.038 0-.094-.019-.131.056h.112c.018 0 .018-.037.018-.056h.018v-.017zm.318-1.067v-.019h-.019v.019c-.075 0-.131-.019-.187.018.093.075.093.075.187-.019h.018zm-.15-.356c.056.038.131.056.262.131-.056-.093-.075-.131-.094-.15-.056-.018-.112-.037-.168.019zm.262-.225c.018-.038.018-.056.018-.075-.056-.038-.131-.075-.187-.112-.038.037-.057.075-.094.112.037.038.075.075.112.094.056 0 .113 0 .15-.018zm.505-2.059v-.018h-.019c0-.019 0-.038-.019-.056 0 .019-.019.019-.019.037.019 0 .019.019.038.019v.019h.018zm0 0c0 .019.018.019.018.038l.018-.019c0-.018-.019-.018-.037-.018zm.168-1.871c-.019.056-.056.113-.094.169.075.075.131.075.206.019.038-.056.038-.112-.018-.169-.019 0-.056-.019-.094-.019zm.131.337c-.019 0-.019-.019-.038-.019l-.019.019c.018.019.018.019.037.019l.019-.019zm-.056 3.07c.056-.038.075-.075.018-.131l-.113.112c.037 0 .075.019.094.019zm.112-.412c.037-.056.019-.112-.019-.206-.019.075-.094.056-.075.15.018.018.037.075.093.056zm.019-2.171c.019-.094.019-.187-.019-.281-.037 0-.075 0-.093.019-.038.093-.056.187.019.28.019-.018.056-.018.094-.018zm.019 2.321c.018.037.037.037.056 0l-.019-.019c-.019 0-.038.018-.038.018zm.43-5.821c-.038-.056-.075-.038-.113-.019.037.056.075.056.112.018zm-.337 1.722c.056-.056.056-.075-.019-.131.018.056.018.093.018.131zm.075-.3c.037-.037.074-.094.018-.15l-.131.131c.056 0 .093.019.112.019zm.168.299c.131-.019.131-.019.168-.131h-.15c-.037.037-.056.075-.019.131zm.318-.599c-.019 0-.019.019-.019.019 0 .019.019.019.019.037.019-.019.019-.019.019-.038l-.019-.019zm-.075 3.163v-.037h-.019l-.019.019c.019.018.019.018.037.018zm-.019-2.414c.018 0 .018-.019.037-.019-.019 0-.019-.019-.019-.019-.019 0-.019 0-.019.019v.019zm.187.318v-.094c-.019-.019-.056-.038-.094-.038-.037.037-.056.075 0 .131h.093zM95.191 18c.019-.094.038-.168-.019-.225-.075.056-.149.112-.093.225h.113zm-.187-.412c.075-.018.131-.056.112-.168-.019-.019-.056-.019-.093-.038-.056.075-.075.131-.019.206zm.075-1.834c-.037 0-.056.019-.131.038.075.019.094.019.131.019 0 0 .019-.0183.019-.037l-.019-.019zm-.037 1.441c-.056-.056-.056-.112-.131-.093-.019.056-.038.1127.018.187.038-.018.075-.056.113-.093zm-.58-1.347l-.038.038c.018.018.037.056.056.093h.262V16c.037.056.075.075.168.0185C94.836 16 94.799 16 94.743 16v-.0186c0-.018 0-.018-.0187-.018-.075-.038-.1683-.075-.262-.113zm.28 1.1046c-.019-.037-.019-.056-.019-.093-.056-.0186-.075-.0186-.094-.037-.038-.0187-.075-.0187-.094-.037l-.094.093c.075.037.15.075.243.112 0 0 .038-.037.056-.037zm-.412-.262c-.019 0-.019.019-.038.019l.037.038c.019 0 .056 0 .093-.019-.037-.019-.075-.038-.093-.038zm0 1.423c-.038-.037-.057-.056-.113-.0935 0 .131 0 .131.112.093zm-.131-.8047c-.057 0-.094 0-.169.019.019.056.038.093.038.15.056-.038.093-.038.112-.056 0-.038 0-.075.018-.112l.018-.019c.019 0 .056 0 .019-.037-.019.018-.019.018-.019.037-.019 0-.019 0-.019.019zm-.094 1.198l-.019-.019c-.038.019-.038.019 0 .037 0 0 .018 0 .018-.019zm-.206-2.564c.037.056.074.037.131 0-.057-.038-.094-.038-.131 0zm.131 2.414c-.038-.038-.075-.038-.131 0 .037.018.074.056.131 0zm-.15.299c-.019.018-.038.056-.075.075.037.037.056.075.112.131.093-.131.243-.038.374-.131-.093-.019-.168-.019-.224-.038-.057 0-.113-.018-.187-.037zm-.019 4.248c.037 0 .056-.018.112-.037-.056-.018-.075-.037-.112-.037l-.019.019c0 .019.019.056.019.056zm.037-.505c.131.038.131.038.112-.093-.019 0-.056.019-.056.037l-.056.056zm.094-.917c.019 0 .019-.018.037-.018-.019 0-.019-.019-.037-.019-.019.018-.019.018 0 .037zm.393-.936c0 .019.019 0 .037-.018-.019 0-.019-.019-.038-.019-.037.018-.037.037 0 .037zm-.038-.355c.075-.056.15-.056.131-.15h-.299c.075.074.112.112.168.149zm.112-1.74c0 .019.018 0 .018-.019 0 0 0-.019-.018-.019s-.038-.019-.056 0c0 0-.019.019-.019.038h.075zm.056-.168c.037.037.075.075.112.093.112-.019.112-.019.056-.131-.056 0-.112-.038-.168.037zm.187 1.067l-.019.019c0 .037.019.037.038 0l-.019-.019zm0 2.751c0 .018.019 0 .019-.019 0 0-.019 0-.019-.019-.038.018-.038.037 0 .037zm-.019-3.968c.075.056.131-.019.169-.038.037.018.075.037.131.056-.037-.131-.075-.243-.112-.337 0-.019-.019-.019-.037-.037h-.225c-.038.037-.056.075-.094.112.037.019.093.037.131.056.019.074.037.131.037.187zm.075 1.778c0 .168 0 .168.131.168-.037-.056-.075-.075-.131-.169z" fill="#174A8F" fill-rule="evenodd"/>
</svg>
