<svg class="logo-homehacks" width="135" height="40" viewBox="0 0 135 21" xmlns="http://www.w3.org/2000/svg">
  <title>
    Home Hacks
  </title>
  <path d="M19.6065573 18.9531293c0 .1110055-.0278895.1665074-.0836695.1665074-.6321729 0-1.1341849-.0092504-1.5060513-.0277513l-2.091738-.0277512-2.3148567.0277512c-.3532731.0185009-.8180991.0277513-1.394492.0277513-.0371866 0-.0557797-.0555019-.0557797-.1665074 0-.1110054.0185931-.1665073.0557797-.1665073.7065461 0 1.222503-.0462516 1.5478861-.1387561.3253831-.0925046.5438513-.2682606.6554112-.5272733.11156-.2590127.1673391-.6752769.1673391-1.248805v-6.4105325H5.02017115v6.4105325c0 .5550272.05577912.9666663.16733904 1.2349294.1115599.2682632.3300281.4486443.6554112.5411489.3253831.0925045.8413399.1387561 1.5478861.1387561.0371866 0 .0557797.0555019.0557797.1665073 0 .1110055-.0185931.1665074-.0557797.1665074-.6321729 0-1.1248885-.0092504-1.4781615-.0277513l-2.3148567-.0277512-2.0359583.0277512c-.3532731.0185009-.8459887.0277513-1.4781615.0277513-.05578 0-.0836695-.0555019-.0836695-.1665074 0-.1110054.0278895-.1665073.0836695-.1665073.6693595 0 1.1574268-.0462516 1.4642166-.1387561.30678972-.0925046.51596142-.2728857.6275214-.5411489.1115599-.2682631.167339-.6799022.167339-1.2349294V4.02297136c0-.55502724-.0557791-.9620411-.16733906-1.2210538-.11155993-.25901272-.32073163-.43939387-.6275214-.54114886-.30678978-.101755-.78556057-.15263173-1.43632675-.15263173-.03718664 0-.05577968-.0555019-.05577968-.16650733 0-.11100545.01859304-.16650734.05577968-.16650734l1.4781615.02775122c.81810608.03700182 1.48745554.05550245 2.0080685.05550245.65076616 0 1.42237734-.01850063 2.3148567-.05550245l1.4781615-.02775122c.03718662 0 .05577966.0555019.05577966.16650734 0 .11100544-.018593.16650733-.0557796.16650733-.6879528 0-1.1946132.0555019-1.51999626.16650734-.3253831.1110055-.54849957.300637-.66935615.5689001-.1208566.2682632-.18128397.6799022-.18128397 1.2349294v5.6612495h9.56621502V4.0784738c0-.55502723-.0557791-.96666625-.1673391-1.23492942-.1115599-.26826316-.3300281-.45789462-.6554112-.56890007-.3253831-.1110054-.84134-.1665073-1.5478861-.1665073-.0371866 0-.0557797-.0555019-.0557797-.1665073s.0185931-.1665073.0557797-.1665073l1.394492.02775127c.8552927.0370018 1.6269039.05550245 2.3148567.05550245.5020196 0 1.1992586-.01850062 2.091738-.05550244l1.5060513-.02775122c.05578 0 .0836695.0555019.0836695.16650736 0 .11100542-.0278895.1665073-.0836695.1665073-.6693595 0-1.1574268.05087676-1.4642166.15263175-.3067897.101755-.5159615.28213612-.6275214.54114883-.1115599.2590127-.167339.66602656-.167339 1.2210538v12.8488162c0 .5550272.0557791.9666663.167339 1.2349294.1115599.2682632.3207317.4486443.6275214.5411489.3067898.0925045.7948571.1387561 1.4642166.1387561.05578 0 .0836695.0555019.0836695.1665073zm3.7908728-.2636366c-.8552927-.5272759-1.5153456-1.2395501-1.9801786-2.1368442-.464833-.897294-.697246-1.8732022-.697246-2.927754 0-1.202559.3021369-2.2247188.9064198-3.0665101.6042829-.8417913 1.3758941-1.4708128 2.3148567-1.8870832.9389626-.41627042 1.9011525-.6244025 2.8865984-.6244025 1.1341925 0 2.1242719.26825913 2.970268.80478546.845996.53652634 1.4967524 1.24417544 1.9522887 2.12296854.4555364.8787931.6833011 1.8177001.6833011 2.8167491 0 1.1100545-.2788956 2.0998382-.8366952 2.9693809-.5577996.8695427-1.2968729 1.5401905-2.2172422 2.0119637-.9203694.4717731-1.9197453.7076562-2.9981578.7076562-1.1341925 0-2.1289202-.263634-2.9842129-.7909099zm5.6895273-.8464123c.4462397-.7215354.6693562-1.7760713.6693562-3.1636394 0-1.2395608-.1766339-2.3172226-.529907-3.2330175-.353273-.9157949-.8227473-1.6141937-1.4084369-2.0952173-.5856895-.48102363-1.2225012-.72153183-1.910454-.72153183-.818106 0-1.4456212.3376365-1.8825642 1.01291963-.436943.6752831-.6554112 1.6789423-.6554112 3.0110077 0 1.202559.1673374 2.2802207.5020171 3.2330175.3346798.9527967.7902093 1.6974471 1.3666022 2.2339734.5763929.5365264 1.2178528.8047855 1.9243989.8047855.8366994 0 1.4781593-.3607623 1.9243989-1.0822977zm24.7361425 1.1100489c0 .1110055-.0371861.1665074-.1115594.1665074-.464833 0-.8366938-.0092504-1.1155936-.0277513l-1.5897208-.0277512-1.6176107.0277512c-.2603065.0185009-.6228708.0277513-1.0877038.0277513-.0557799 0-.0836695-.0555019-.0836695-.1665074 0-.1110054.0278896-.1665073.0836695-.1665073.6135796 0 1.0272747-.1295044 1.2410979-.3885171s.3207331-.7677801.3207331-1.5263173v-4.1349322c0-1.0360509-.1766338-1.7992019-.5299069-2.2894759-.3532731-.4902741-.9017678-.7354074-1.6455006-.7354074-.5020196 0-1.0040317.1156289-1.5060513.3468903-.5020196.2312613-.9389561.5503972-1.3108225.9574171v5.8555081c0 .7585372.10691 1.2673046.3207332 1.5263173.2138232.2590127.6368148.3885171 1.2689877.3885171.05578 0 .0836695.0555019.0836695.1665073 0 .1110055-.0278895.1665074-.0836695.1665074-.464833 0-.8366938-.0092504-1.1155936-.0277513l-1.6176107-.0277512-1.5897209.0277512c-.2788998.0185009-.6507606.0277513-1.1155936.0277513-.0557799 0-.0836695-.0555019-.0836695-.1665074 0-.1110054.0278896-.1665073.0836695-.1665073.6135796 0 1.031923-.1341296 1.2550428-.4023928.2231199-.2682631.3346781-.7724053.3346781-1.5124416v-4.1349322c0-1.0360509-.1766339-1.7992019-.5299069-2.2894759-.3532731-.4902741-.9110643-.7354074-1.6733904-.7354074-.4834263 0-.9668454.1110038-1.4502717.3330146-.4834263.2220109-.9110662.5272713-1.2829326.9157904v5.9110105c0 .7585372.10691 1.2673046.3207331 1.5263173.2138232.2590127.6368149.3885171 1.2689877.3885171.0743733 0 .1115594.0555019.1115594.1665073 0 .1110055-.0371861.1665074-.1115594.1665074-.4648329 0-.8366938-.0092504-1.1155935-.0277513l-1.5897209-.0277512-1.5897209.0277512c-.2788998.0185009-.6600571.0277513-1.1434834.0277513-.0371866 0-.0557797-.0555019-.0557797-.1665074 0-.1110054.0185931-.1665073.0557797-.1665073.6321729 0 1.0551645-.1295044 1.2689877-.3885171s.3207332-.7677801.3207332-1.5263173V11.571304c0-.592029-.0697239-1.0221687-.2091738-1.2904319-.1394499-.2682631-.3672147-.4023927-.6833011-.4023927s-.790209.1295044-1.4223818.3885171h-.0278899c-.0743733 0-.1255041-.0462515-.1533941-.1387561-.02789-.0925045-.0139452-.1480064.0418348-.1665073l3.6814588-1.7760783c.0743733-.0370018.1301524-.05550244.167339-.05550244.2045266 0 .3951052.20350693.5717418.6105269.1766365.40701994.27425.95278854.2928433 1.63732214 1.282939-1.51707442 2.6495275-2.27560026 4.0998064-2.27560026.8552927 0 1.5432352.2081321 2.0638482.6244025.5206129.41627046.8459911 1.02216606.9761444 1.81770516 1.3201256-1.62807993 2.7331967-2.44210766 4.2392556-2.44210766 1.0040392 0 1.7710022.2821346 2.3009118.8464123.5299096.56427766.7948604 1.42918216.7948604 2.59473936v5.3282348c0 .7585372.1022617 1.2673046.3067882 1.5263173.2045266.2590127.62287.3885171 1.2550428.3885171.0743733 0 .1115594.0555019.1115594.1665073zm10.372875-1.5818197c.0557799 0 .1022625.0370013.1394492.1110049.0371866.0740036.0371866.1295055 0 .1665073-.6693595.6290309-1.3526538 1.0869215-2.0499033 1.3736856-.6972494.286764-1.4456193.4301439-2.2451321.4301439-1.1341924 0-2.1196236-.2451333-2.956323-.7354074-.8366993-.490274-1.473511-1.1424213-1.910454-1.9564612-.436943-.8140399-.6554112-1.7020702-.6554112-2.6641174 0-1.0915536.2742473-2.0905876.8227503-2.9971321.5485029-.9065445 1.301521-1.6234439 2.259077-2.15071976.9575559-.52727588 2.012711-.79090986 3.1654968-.79090986 1.0970058 0 1.9429892.24513335 2.5379754.7354074.5949862.49027402.8924749 1.16092192.8924749 2.01196372 0 .4995245-.1022618.749283-.3067883.749283h-1.5339412l-5.2432898.0555024c-.05578.3885191-.0836695.8047833-.0836695 1.2488051 0 1.6095789.376509 2.8861224 1.1295385 3.8296687.7530294.9435463 1.8081845 1.4153124 3.1654968 1.4153124.464833 0 .948252-.0693774 1.4502716-.2081342.5020197-.1387568.9575492-.3376386 1.3666022-.5966513l.0557797-.0277512zm-6.0242054-7.9923522c-.4462397.4440218-.7623214 1.0545426-.9482546 1.8315807l4.3229252-.0832537c-.0185933-.7585372-.1766342-1.3505573-.4741273-1.7760782-.2974931-.4255209-.7344295-.63827816-1.3108225-.63827816-.6135795 0-1.1434811.22200757-1.5897208.66602936zm32.6268217 9.5741719c0 .1110055-.0278896.1665074-.0836695.1665074-.6321729 0-1.134185-.0092504-1.5060514-.0277513l-2.091738-.0277512-2.3148567.0277512c-.353273.0185009-.8180991.0277513-1.394492.0277513-.0371866 0-.0557796-.0555019-.0557796-.1665074 0-.1110054.018593-.1665073.0557796-.1665073.7065462 0 1.2225031-.0462516 1.5478861-.1387561.3253831-.0925046.5438514-.2682606.6554113-.5272733.1115599-.2590127.167339-.6752769.167339-1.248805v-6.4105325h-9.566215v6.4105325c0 .5550272.0557791.9666663.167339 1.2349294.1115599.2682632.3300282.4486443.6554113.5411489.3253831.0925045.8413399.1387561 1.5478861.1387561.0371866 0 .0557796.0555019.0557796.1665073 0 .1110055-.018593.1665074-.0557796.1665074-.6321729 0-1.1248885-.0092504-1.4781615-.0277513l-2.3148567-.0277512-2.0359583.0277512c-.3532731.0185009-.8459887.0277513-1.4781615.0277513-.05578 0-.0836696-.0555019-.0836696-.1665074 0-.1110054.0278896-.1665073.0836696-.1665073.6693595 0 1.1574268-.0462516 1.4642165-.1387561.3067898-.0925046.5159615-.2728857.6275214-.5411489.11156-.2682631.1673391-.6799022.1673391-1.2349294V4.02297136c0-.55502724-.0557791-.9620411-.1673391-1.2210538-.1115599-.25901272-.3207316-.43939387-.6275214-.54114886-.3067897-.101755-.7855605-.15263173-1.4363267-.15263173-.0371866 0-.0557797-.0555019-.0557797-.16650733 0-.11100545.0185931-.16650734.0557797-.16650734l1.4781615.02775122c.8181061.03700182 1.4874555.05550245 2.0080685.05550245.6507661 0 1.4223773-.01850063 2.3148567-.05550245l1.4781615-.02775122c.0371866 0 .0557796.0555019.0557796.16650734 0 .11100544-.018593.16650733-.0557796.16650733-.6879528 0-1.1946132.0555019-1.5199963.16650734-.3253831.1110055-.5484996.300637-.6693561.5689001-.1208566.2682632-.181284.6799022-.181284 1.2349294v5.6612495h9.566215V4.0784738c0-.55502723-.0557791-.96666625-.167339-1.23492942-.1115599-.26826316-.3300282-.45789462-.6554113-.56890007-.325383-.1110054-.8413399-.1665073-1.5478861-.1665073-.0371866 0-.0557796-.0555019-.0557796-.1665073s.018593-.1665073.0557796-.1665073l1.394492.02775127c.8552927.0370018 1.6269039.05550245 2.3148567.05550245.5020197 0 1.1992587-.01850062 2.091738-.05550244l1.5060514-.02775122c.0557799 0 .0836695.0555019.0836695.16650736 0 .11100542-.0278896.1665073-.0836695.1665073-.6693595 0-1.1574269.05087676-1.4642166.15263175-.3067898.101755-.5159615.28213612-.6275214.54114883-.1115599.2590127-.1673391.66602656-.1673391 1.2210538v12.8488162c0 .5550272.0557792.9666663.1673391 1.2349294.1115599.2682632.3207316.4486443.6275214.5411489.3067897.0925045.7948571.1387561 1.4642166.1387561.0557799 0 .0836695.0555019.0836695.1665073zm11.8510368-1.3320587c.074373 0 .125504.0416264.153394.1248805.02789.0832541.004648.1433812-.069725.180383l-2.8726533 1.3598099c-.1115599.0370018-.2045251.0555024-.2788984.0555024-.2603065 0-.5113125-.148005-.7530257-.4440195-.2417131-.2960146-.4090505-.6937781-.5020171-1.1933026l-1.4502717.7770342c-1.0784125.5550273-1.998768.8325367-2.7610941.8325367-.5949862 0-1.0598122-.1526302-1.394492-.4578952-.3346797-.3052649-.5020171-.7261543-.5020171-1.2626806 0-.5735281.2091717-1.0036678.6275214-1.2904319.4183497-.286764 1.2132022-.6244005 2.3845813-1.0129196l3.0121027-1.0267953v-2.2200978c0-1.1470563-.1301513-1.9795846-.3904578-2.4976101-.2603064-.5180254-.6507603-.7770342-1.1713732-.7770342-1.0040393 0-1.5804236.7307749-1.7291701 2.1923466-.0929666.9250454-.5670891 1.3875612-1.4223818 1.3875612-.7995128 0-1.1992631-.3422617-1.1992631-1.0267953 0-.4810236.3021369-.9666651.9064198-1.4569392.6042828-.4902741 1.3340597-.89728793 2.1893524-1.22105382.8552927-.32376588 1.6176073-.4856464 2.2869668-.4856464.8366994 0 1.5106971.25438367 2.0220134.76315863.5113166.508775.7669706 1.271926.7669706 2.2894759v4.9119665c0 1.1655572.371861 1.748327 1.115594 1.748327.260306 0 .585684-.0832528.976144-.249761h.05578zm-4.3787052-.3330147c-.0185933-.0925045-.0278898-.2405095-.0278898-.4440195v-2.1368442l-2.0080685.7215318c-.464833.1665082-.7995077.3607648-1.0040342.5827757-.2045265.2220109-.3067882.49027-.3067882.8047855 0 .388519.1115582.6937794.334678.9157903.2231199.2220109.511312.3330147.8645851.3330147.3904597 0 .8273961-.1202541 1.3108224-.3607659l.8366952-.4162684zm7.1934332 1.3736856c-.836699-.5272759-1.459566-1.2117992-1.868619-2.0535905-.409053-.8417913-.613577-1.7251964-.613577-2.6502418 0-1.1655572.316082-2.187717.948255-3.0665102.632173-.8787931 1.445618-1.5540661 2.440361-2.02583923.994742-.47177315 2.003415-.7076562 3.026047-.7076562.966853 0 1.77565.18963147 2.426417.56890008.650766.37926865.976144.84640955.976144 1.40143675 0 .3145154-.116207.5827746-.348623.8047855-.232417.2220109-.562443.3330147-.990089.3330147-.706547 0-1.217855-.4162642-1.533942-1.2488051-.185933-.4810236-.38116-.8186601-.585686-1.0129196-.204527-.19425955-.529905-.29138786-.976145-.29138786-.873886 0-1.566476.40238876-2.077793 1.20717816-.511316.8047895-.76697 1.8639506-.76697 3.1775151 0 1.5170744.357916 2.7519915 1.073759 3.7047882.715842.9527968 1.836073 1.429188 3.360725 1.429188.520613 0 .985439-.060127 1.394492-.1803829.409053-.1202559.855286-.328388 1.338713-.6244025h.055779c.05578 0 .106911.0277509.153394.0832536.046484.0555027.041835.1110046-.013945.1665074-.669359.6105299-1.343357 1.0591702-2.022013 1.3459343-.678656.286764-1.445619.4301439-2.300912.4301439-1.227159 0-2.259073-.2636339-3.095772-.7909098zm21.473031.2913878c0 .1110055-.027889.1665074-.083669.1665074-.464833 0-.836694-.0092504-1.115594-.0277513l-1.589721-.0277512-2.119628.0277512c-.297493.0185009-.715836.0277513-1.255042.0277513-.037187 0-.05578-.0555019-.05578-.1665074 0-.1110054.018593-.1665073.05578-.1665073.762326 0 1.143483-.1850063 1.143483-.5550245 0-.1665081-.083669-.3607648-.251008-.5827757l-3.235222-4.2459371-.808805.6937806v2.7751223c0 .7585372.10691 1.2673046.320733 1.5263173.213823.2590127.636815.3885171 1.268988.3885171.05578 0 .083669.0555019.083669.1665073 0 .1110055-.027889.1665074-.083669.1665074-.483427 0-.864584-.0092504-1.143484-.0277513l-1.589721-.0277512-1.58972.0277512c-.2789.0185009-.650761.0277513-1.115594.0277513-.05578 0-.08367-.0555019-.08367-.1665074 0-.1110054.02789-.1665073.08367-.1665073.613579 0 1.031923-.1341296 1.255043-.4023928.22312-.2682631.334678-.7724053.334678-1.5124416V2.69091266c0-.64753178-.065076-1.1146727-.195229-1.40143676-.130153-.28676408-.35327-.43014396-.669356-.43014396-.260307 0-.632168.11100378-1.115594.33301468h-.02789c-.074373 0-.130152-.04625158-.167339-.13875612-.037186-.09250454-.02789-.15725674.02789-.19425856l3.876688-1.83158072C117.12946-.99074968 117.175943-1 117.231723-1c.074373 0 .158042.03700126.251009.1110049.092966.07400362.139449.13875583.139449.19425855V13.5138896l2.956323-2.6641174c.520613-.4440218.780915-.8787866.780915-1.3043075 0-.2405118-.10691-.4347684-.320733-.58277565-.213823-.14800726-.51596-.22200978-.90642-.22200978-.05578 0-.083669-.0555019-.083669-.16650734 0-.11100545.027889-.16650734.083669-.16650734.520613 0 .92966.0092503 1.227153.0277512l2.147518.0277512 1.952289-.0277513c.260306-.0185009.622871-.0277512 1.087704-.0277512.037186 0 .055779.05550184.055779.1665073s-.018593.16650732-.055779.16650732c-.78092 0-1.654793.18963146-2.621645.56890003-.966853.3792686-1.859319.9296624-2.677425 1.6511978l-1.199263 1.0545465 3.709349 4.856464c.966852 1.2765626 1.998766 1.9148344 3.095772 1.9148344.05578 0 .083669.0555019.083669.1665073zm2.954178-7.6454619c.39046.3792686.966844.7816573 1.72917 1.2071782.669359.3700181 1.189965.6752785 1.561831.9157903.371866.2405119.692596.5642729.962199.9712929.269604.4070199.404403.8972866.404403 1.4708148 0 .6290308-.158041 1.2118007-.474127 1.748327-.316087.5365263-.785561.9712912-1.408437 1.3043075-.622876.3330163-1.36195.499522-2.217242.499522-.985446 0-1.924395-.2590088-2.816874-.7770342-.11156-.1110055-.167339-.2220093-.167339-.3330147l-.05578-2.5531125c0-.0555027.051131-.0878788.153394-.0971293.102264-.0092505.162691.0138753.181284.0693781.316087.9065444.799506 1.65582 1.450272 2.247849.650766.5920291 1.338709.8880392 2.063848.8880392.44624 0 .799507-.1202541 1.059814-.3607659.260306-.2405118.390458-.5920238.390458-1.0545465 0-.7215354-.204524-1.2858046-.613577-1.6928246-.409053-.40702-1.00403-.8232842-1.78495-1.2488051-.632172-.3330163-1.124888-.6151509-1.478161-.8464123-.353273-.2312613-.65541-.5411469-.90642-.9296659-.25101-.3885191-.376513-.8787858-.376513-1.4708148 0-1.0545518.385806-1.8454537 1.157429-2.3727296.771622-.52727588 1.705923-.79090986 2.802929-.79090986.725139 0 1.468861.13875472 2.231187.41626834.16734.07400363.251008.1757571.251008.30526345 0 .42552087-.009296.75853227-.02789.99904407l-.027889 1.3320587c0 .0555027-.055779.0832536-.167339.0832536-.11156 0-.167339-.0277509-.167339-.0832536 0-.3700182-.148745-.7492811-.446238-1.1378002-.297493-.388519-.67865-.7122801-1.143483-.9712928-.464833-.2590127-.938956-.3885171-1.422382-.3885171-.855293 0-1.282933.3977635-1.282933 1.1933026 0 .592029.195227 1.0776706.585687 1.4569392z" fill="#ffffff" fill-rule="evenodd"/>
</svg>
