<?xml version="1.0" encoding="UTF-8"?>
<svg width="63px" height="27px" viewBox="0 0 63 27" version="1.1" xmlns="http://www.w3.org/2000/svg" xmlns:xlink="http://www.w3.org/1999/xlink">
    <!-- Generator: Sketch 46.2 (44496) - http://www.bohemiancoding.com/sketch -->
    <title>Relieved logo</title>
    <desc>Created with Sketch.</desc>
    <defs></defs>
    <g id="SBLY-homepage" stroke="none" stroke-width="1" fill="none" fill-rule="evenodd">
        <g id="sbly-homepage" transform="translate(-620.000000, -42.000000)" fill="#174A8F">
            <g id="01-header">
                <g id="Group-49" transform="translate(481.000000, 42.000000)">
                    <g id="Stacked-Group">
                        <g id="Relieved-logo" transform="translate(139.000000, 0.000000)">
                            <path d="M2.67731955,22.8062827 L2.67731955,23.9371728 C2.67731955,24.7853403 2.72429006,25.9162304 2.67731955,26.5759162 C2.63034903,27 1.73790918,27 1.40911555,27 C1.17426296,27 0.657587257,26.9057592 0.422734665,26.7643979 L0.234852592,26.5759162 C0.234852592,26.5759162 0.187882073,26.5287958 0.187882073,26.3874346 L0.187882073,25.7748691 C0.187882073,24.7853403 0,23.7958115 0.0469705183,22.7591623 C0.187882073,21.486911 0.0469705183,20.0732984 0.0469705183,18.7539267 L0.0469705183,16.1151832 C0.187882073,15.1727749 0,14.2303665 0.0469705183,13.2408377 C0.187882073,11.1675393 0.0469705183,9.09424084 0.0469705183,6.92670157 L0.0469705183,4.80628272 C0.187882073,3.95811518 0,3.15706806 0,2.2617801 L0,1.64921466 C0,1.60209424 0.0469705183,1.31937173 0.187882073,1.27225131 C0.328793628,0.942408377 0.422734665,0.659685864 0.751528293,0.518324607 C0.751528293,0.376963351 0.84546933,0.282722513 1.0333514,0.282722513 C1.50305659,0.188481675 2.01973229,0.0471204188 2.63034903,0 L3.8515825,0 C6.6698136,0.141361257 7.56225345,1.60209424 8.87742797,2.82722513 C8.971369,3.15706806 9.11228056,3.34554974 9.25319211,3.67539267 C9.44107419,4.42931937 9.44107419,4.2408377 9.62895626,4.94764398 L9.62895626,5.13612565 C9.62895626,5.79581152 9.86380885,6.59685864 9.76986781,7.2565445 L9.76986781,8.52879581 C9.86380885,9.09424084 9.76986781,9.61256545 9.62895626,10.0837696 C9.53501522,10.7434555 9.44107419,11.3560209 9.30016263,12.0157068 C9.30016263,12.486911 9.25319211,12.9109948 8.971369,13.5235602 C8.92439848,13.9947644 8.73651641,14.513089 8.54863434,14.8900524 C8.26681123,15.5026178 8.07892915,15.973822 7.79710604,16.4450262 C7.56225345,17.0104712 7.28043034,17.4816754 6.6698136,17.8586387 C6.48193153,18 6.1531379,18.1884817 5.96525583,18.4240838 C5.68343272,18.8481675 5.16675702,19.1308901 4.79099287,19.4136126 C4.65008132,19.460733 4.6031108,19.6020942 4.69705183,19.7905759 C4.93190443,20.0732984 5.02584546,20.4031414 5.30766857,20.7329843 C5.91828531,21.486911 6.57587257,22.2879581 7.13951879,23.0890052 C7.89104708,23.9371728 8.73651641,25.2094241 9.39410367,26.104712 C9.39410367,26.1989529 9.44107419,26.2460733 9.44107419,26.3874346 C9.53501522,26.6701571 9.30016263,26.9057592 9.06531004,26.9057592 C8.971369,27 8.73651641,27 8.64257537,26.9057592 C8.31378175,26.9057592 8.26681123,26.7172775 8.07892915,26.5759162 C7.79710604,26.5759162 7.75013553,26.5287958 7.56225345,26.3874346 C7.28043034,26.0104712 6.9046662,25.7277487 6.57587257,25.3507853 C6.10616738,24.6910995 5.35463909,23.7486911 4.93190443,23.0418848 C4.93190443,22.947644 4.79099287,22.7591623 4.69705183,22.7591623 C4.13340561,22.1465969 3.80461199,21.4397906 3.3349068,20.6387435 L3.19399525,20.591623 C3.05308369,20.4502618 3.00611317,20.4502618 2.95914266,20.4502618 C2.8182311,20.4502618 2.72429006,20.591623 2.67731955,20.6387435 L2.67731955,21.1570681 C2.72429006,21.7696335 2.72429006,22.2879581 2.67731955,22.8062827 Z M7.4213419,7.2565445 C7.4213419,5.98429319 7.4213419,6.21989529 7.28043034,4.94764398 C7.13951879,4.42931937 6.9046662,4.0052356 6.76375464,3.34554974 C6.76375464,2.92146597 5.1197865,1.03664921 3.8515825,1.17801047 C3.3349068,1.17801047 3.38187732,1.27225131 3.00611317,1.46073298 C2.95914266,1.60209424 2.8182311,1.60209424 2.8182311,1.69633508 C2.67731955,2.16753927 2.53640799,2.59162304 2.67731955,3.15706806 C2.72429006,3.29842932 2.72429006,3.43979058 2.72429006,3.67539267 C2.67731955,4.2408377 2.63034903,4.80628272 2.67731955,5.32460733 C2.72429006,5.7486911 2.72429006,6.12565445 2.72429006,6.54973822 L2.72429006,8.52879581 C2.72429006,8.85863874 2.72429006,9.09424084 2.8182311,9.28272251 C3.00611317,9.56544503 3.00611317,9.7539267 2.8182311,10.0837696 C2.72429006,10.3664921 2.67731955,10.5549738 2.72429006,10.8376963 C2.95914266,11.3560209 2.72429006,11.7329843 2.72429006,12.2513089 C2.67731955,12.7225131 2.67731955,13.1937173 2.8182311,13.5706806 C2.8182311,13.8534031 2.8182311,13.9005236 2.72429006,14.1361257 C2.67731955,14.4659686 2.67731955,14.8429319 2.67731955,15.1727749 C2.67731955,15.8795812 2.67731955,17.104712 2.63034903,17.8115183 C2.63034903,17.8586387 2.63034903,18 2.67731955,18 C2.67731955,18.2827225 2.67731955,18.3298429 2.72429006,18.4712042 C2.95914266,18.6596859 3.00611317,18.7539267 3.14702473,18.6596859 C3.61672991,18.6596859 3.47581836,18.6125654 3.80461199,18.3298429 C4.32128769,17.6701571 5.02584546,16.8219895 5.49555065,16.2094241 C5.68343272,15.8795812 5.77737376,15.6439791 5.82434427,15.4554974 C5.96525583,15.0314136 6.1531379,14.513089 6.29404946,14.2303665 C6.34101998,13.5706806 6.62284309,13.1465969 6.76375464,12.5340314 C6.9046662,11.921466 6.95163671,11.2617801 7.09254827,10.7434555 C7.32740086,9.56544503 7.4213419,8.43455497 7.4213419,7.2565445 Z M13.2804791,7.58638743 L13.2804791,7.11518325 C13.3274496,5.98429319 13.3274496,4.7591623 13.3274496,3.62827225 C13.3274496,3.43979058 13.5623022,3.29842932 13.6092728,3.29842932 C14.1259485,3.2513089 14.4077716,3.29842932 14.8774768,3.29842932 C15.535064,3.34554974 16.0987102,3.29842932 16.7562975,3.15706806 C16.897209,3.15706806 17.0381206,2.96858639 17.0850911,2.82722513 C17.0850911,2.78010471 17.0850911,2.4973822 16.897209,2.45026178 C16.8502385,2.45026178 16.8502385,2.35602094 16.7562975,2.2617801 C16.6153859,2.16753927 16.3805333,2.16753927 16.0987102,2.02617801 C15.9108282,1.83769634 15.5820345,1.83769634 15.3002114,1.83769634 C14.0789779,1.83769634 12.904715,1.97905759 11.6834815,2.12041885 L11.4955994,2.12041885 C11.1668058,2.16753927 11.1198353,2.45026178 11.1198353,2.63874346 C10.9319532,3.43979058 11.1198353,4.14659686 10.9789237,4.94764398 C10.9789237,7.91623037 11.1198353,12.1570681 10.9789237,15.1727749 C10.9789237,15.973822 10.9319532,16.8691099 11.1198353,17.8115183 C10.9789237,18.8010471 10.8380122,19.7905759 10.9319532,20.7329843 C10.9319532,21.486911 10.8380122,22.7591623 11.3077174,23.3717277 C12.9516855,23.7486911 15.2062704,23.5602094 17.0381206,23.5602094 C17.5078258,23.4188482 17.4138847,21.9581152 17.0850911,22.052356 C16.2865923,22.052356 15.629005,22.2879581 14.4547421,22.1465969 C14.26686,22.2408377 13.9380664,21.9581152 13.6092728,21.9581152 C13.5623022,21.9581152 13.4683612,21.9109948 13.3274496,21.8167539 C13.2804791,21.6282723 13.2804791,21.486911 13.2804791,21.4397906 C13.2804791,20.4502618 13.2335086,19.460733 13.2335086,18.4712042 C13.2335086,17.8586387 13.1395676,17.1989529 13.2335086,16.4921466 C13.0925971,16.2094241 13.4683612,15.1256545 13.2804791,14.3246073 C13.2804791,14.0418848 13.2804791,13.8534031 13.6092728,13.8534031 L14.3138305,13.8534031 C14.6426242,13.7120419 14.9244473,13.9947644 15.2532409,13.9005236 C15.629005,13.8534031 16.0987102,13.6649215 16.4275039,13.5706806 C16.6153859,13.5706806 16.7562975,13.2408377 16.709327,13.1465969 C16.6153859,13.052356 16.5214449,12.9109948 16.4275039,12.8638743 C16.2396218,12.6753927 15.9577987,12.5340314 15.629005,12.486911 C15.5820345,12.3926702 15.535064,12.3455497 15.3002114,12.3926702 C15.0653588,12.486911 14.8774768,12.3926702 14.5486831,12.486911 C14.26686,12.5340314 14.0789779,12.6753927 13.7501843,12.6753927 C13.6562433,12.6753927 13.4683612,12.486911 13.3274496,12.3455497 C13.2804791,12.0628272 13.2804791,11.921466 13.3274496,11.6858639 C13.2804791,10.2722513 13.2335086,8.95287958 13.2804791,7.58638743 Z M18.106265,2.96858639 C18.200206,7.39790576 18.0592944,12.486911 18.106265,16.3507853 C18.200206,16.7748691 18.200206,17.1518325 18.106265,17.6230366 C18.106265,18.6125654 18.3880881,19.6020942 18.3880881,20.591623 C18.3880881,20.7329843 18.4350586,20.8272251 18.5289996,21.0628272 C18.7168817,21.2513089 18.7638522,21.486911 18.9047638,21.7696335 C18.9517343,22.052356 19.2805279,22.382199 19.6093215,22.5706806 C19.9381152,22.7591623 20.2669088,23.0890052 20.5487319,23.3717277 C20.736614,23.4188482 20.8775255,23.4188482 20.9244961,23.4188482 C21.5351128,23.4659686 22.0517885,23.6073298 22.5214937,23.4659686 C23.1321104,23.4188482 23.6487861,23.3717277 24.2124323,23.4188482 C25.1048722,23.2303665 24.8230491,21.6282723 24.1184913,21.8167539 C24.0245503,21.8167539 23.8836387,21.7696335 23.6957566,21.8167539 C23.0381694,21.9109948 21.5820833,21.9109948 20.8775255,21.9581152 C20.6896435,21.9581152 20.3608498,21.8167539 20.2669088,21.486911 C20.2669088,21.3926702 20.1729678,21.1570681 20.0790267,21.0628272 C20.0320562,20.0732984 19.9381152,19.1780105 20.0320562,18.3298429 L20.0320562,17.5287958 C19.9381152,16.8691099 19.8911447,16.3507853 19.9381152,15.5497382 L19.9381152,14.1361257 C19.7032626,13.2408377 19.9381152,8.85863874 19.9381152,7.91623037 C19.9381152,6.07853403 20.0790267,4.9947644 19.9381152,2.63874346 C19.9381152,1.83769634 18.4350586,1.60209424 18.294147,2.12041885 C18.106265,2.45026178 18.106265,2.63874346 18.106265,2.96858639 Z M27.8169847,12.486911 L27.8169847,10.0366492 C27.8169847,9.09424084 27.8639552,8.05759162 27.8169847,7.20942408 C27.7230437,5.98429319 27.8639552,4.80628272 27.8169847,3.67539267 C27.8169847,3.34554974 27.8169847,3.01570681 27.7230437,2.82722513 C27.7230437,2.4973822 27.39425,2.35602094 27.2063679,2.16753927 C27.0184859,1.83769634 26.8306038,1.83769634 26.4078691,1.83769634 C26.2199871,1.83769634 25.9851345,2.16753927 25.9851345,2.35602094 C26.032105,3.34554974 26.032105,4.42931937 25.9851345,5.32460733 L25.9851345,6.45549738 C25.9851345,8.71727749 26.032105,10.9319372 25.9851345,13.2408377 L25.9851345,17.6701571 C26.032105,18.7539267 26.032105,19.9319372 26.032105,21.0628272 C26.032105,21.4397906 25.9851345,21.8167539 25.9851345,22.1465969 C25.9851345,22.382199 25.9851345,22.617801 26.032105,22.7591623 C26.3139281,23.5602094 27.6291026,24.0314136 27.7230437,22.5706806 C27.9578962,21.486911 27.7230437,19.6020942 27.8169847,19.0837696 C27.8169847,18.6596859 27.8639552,18.2827225 27.8169847,17.8586387 C27.7230437,17.1989529 27.8169847,16.6335079 27.7230437,15.8795812 C27.8169847,15.4554974 27.8169847,14.8429319 27.8169847,14.3246073 C27.7230437,13.9947644 27.8169847,13.5706806 27.8169847,13.2408377 C27.8639552,12.9109948 27.8169847,12.6753927 27.8169847,12.486911 Z M31.8912422,7.58638743 L31.8912422,7.11518325 C31.9382127,5.98429319 31.9382127,4.7591623 31.9382127,3.62827225 C31.9382127,3.43979058 32.1730653,3.29842932 32.2200358,3.29842932 C32.7367116,3.2513089 33.0185347,3.29842932 33.4882398,3.29842932 C34.1458271,3.34554974 34.7094733,3.29842932 35.3670606,3.15706806 C35.5079721,3.15706806 35.6488837,2.96858639 35.6958542,2.82722513 C35.6958542,2.78010471 35.6958542,2.4973822 35.5079721,2.45026178 C35.4610016,2.45026178 35.4610016,2.35602094 35.3670606,2.2617801 C35.226149,2.16753927 34.9912964,2.16753927 34.7094733,2.02617801 C34.5215912,1.83769634 34.1927976,1.83769634 33.9109745,1.83769634 C32.689741,1.83769634 31.5154781,1.97905759 30.2942446,2.12041885 L30.1063625,2.12041885 C29.7775689,2.16753927 29.7305984,2.45026178 29.7305984,2.63874346 C29.5427163,3.43979058 29.7305984,4.14659686 29.5896868,4.94764398 C29.5896868,7.91623037 29.7305984,12.1570681 29.5896868,15.1727749 C29.5896868,15.973822 29.5427163,16.8691099 29.7305984,17.8115183 C29.5896868,18.8010471 29.4487753,19.7905759 29.5427163,20.7329843 C29.5427163,21.486911 29.4487753,22.7591623 29.9184805,23.3717277 C31.5624486,23.7486911 33.8170335,23.5602094 35.6488837,23.5602094 C36.1185889,23.4188482 36.0246478,21.9581152 35.6958542,22.052356 C34.8973554,22.052356 34.2397681,22.2879581 33.0655052,22.1465969 C32.8776231,22.2408377 32.5488295,21.9581152 32.2200358,21.9581152 C32.1730653,21.9581152 32.0791243,21.9109948 31.9382127,21.8167539 C31.8912422,21.6282723 31.8912422,21.486911 31.8912422,21.4397906 C31.8912422,20.4502618 31.8442717,19.460733 31.8442717,18.4712042 C31.8442717,17.8586387 31.7503307,17.1989529 31.8442717,16.4921466 C31.7033601,16.2094241 32.0791243,15.1256545 31.8912422,14.3246073 C31.8912422,14.0418848 31.8912422,13.8534031 32.2200358,13.8534031 L32.9245936,13.8534031 C33.2533873,13.7120419 33.5352104,13.9947644 33.864004,13.9005236 C34.2397681,13.8534031 34.7094733,13.6649215 35.0382669,13.5706806 C35.226149,13.5706806 35.3670606,13.2408377 35.3200901,13.1465969 C35.226149,13.052356 35.132208,12.9109948 35.0382669,12.8638743 C34.8503849,12.6753927 34.5685618,12.5340314 34.2397681,12.486911 C34.1927976,12.3926702 34.1458271,12.3455497 33.9109745,12.3926702 C33.6761219,12.486911 33.4882398,12.3926702 33.1594462,12.486911 C32.8776231,12.5340314 32.689741,12.6753927 32.3609474,12.6753927 C32.2670064,12.6753927 32.0791243,12.486911 31.9382127,12.3455497 C31.8912422,12.0628272 31.8912422,11.921466 31.9382127,11.6858639 C31.8912422,10.2722513 31.8442717,8.95287958 31.8912422,7.58638743 Z M45.0777803,2.4973822 C45.0308098,1.60209424 43.7626058,1.60209424 43.6216942,2.45026178 L43.6216942,2.59162304 C43.6216942,4.09947644 43.2459301,5.60732984 42.9171365,6.97382199 C42.7292544,7.58638743 42.7292544,8.19895288 42.6353134,8.76439791 C42.4474313,9.70680628 42.1186377,11.7329843 42.0716671,12.7225131 C41.9307556,13.4764398 41.9307556,14.1361257 41.8368145,14.8429319 C41.8368145,15.1727749 41.8368145,15.5026178 41.7428735,15.8324607 C41.6489325,16.4450262 41.5080209,17.104712 41.4140799,17.6701571 C41.4140799,18.0942408 41.4140799,18.4712042 41.3201388,18.8481675 C41.0852863,19.6020942 41.0852863,20.2617801 40.9913452,20.9685864 C40.9443747,21.1570681 40.9443747,21.3926702 40.8504337,21.486911 C40.7564926,21.7696335 40.6625516,21.8167539 40.52164,21.9581152 C40.4746695,22.1465969 40.333758,22.1465969 40.1928464,21.9581152 C39.8170823,20.8272251 39.5352591,17.434555 39.4882886,16.2094241 C39.4882886,15.973822 39.4413181,15.6910995 39.4413181,15.5026178 C39.4882886,14.4659686 39.159495,13.5235602 39.159495,12.5340314 C39.159495,10.9319372 39.0185834,9.70680628 39.0185834,8.10471204 C39.0185834,7.91623037 38.9716129,7.72774869 38.9716129,7.58638743 C38.8776719,6.97382199 38.7837309,5.7486911 38.6897898,5.27748691 L38.6897898,2.92146597 C38.6897898,2.63874346 38.5488783,2.45026178 38.5019077,2.16753927 C38.1261436,1.46073298 36.529146,0.989528796 36.5761165,3.43979058 C36.5761165,5.23036649 36.717028,6.87958115 36.717028,8.52879581 C36.717028,8.76439791 36.717028,8.90575916 36.8109691,9.18848168 C36.9988512,10.8848168 36.9988512,12.7225131 37.1867332,14.513089 C37.1867332,15.5497382 37.5155269,16.6806283 37.5624974,17.8115183 C37.79735,18.6596859 37.8443205,19.6020942 37.985232,20.4502618 C38.1731141,20.9685864 38.2200846,21.4397906 38.3609962,21.9109948 C38.5019077,22.052356 38.5488783,22.1465969 38.5488783,22.2408377 C38.8776719,22.617801 39.1125245,22.947644 39.4882886,23.1361257 C39.8170823,23.4188482 40.2867874,23.4659686 40.6625516,23.4188482 C40.8504337,23.3717277 41.0852863,23.1361257 41.1322568,23.0890052 C41.3201388,23.0890052 41.4140799,23.0418848 41.4610504,22.8062827 C41.7428735,22.2879581 42.0716671,21.7696335 42.1186377,21.1099476 C42.1656082,20.591623 42.2595492,20.1675393 42.3065197,19.6492147 C42.3065197,18.9895288 42.6353134,18.3298429 42.7292544,17.6701571 C42.9171365,17.0104712 42.9171365,16.2094241 42.964107,15.5026178 C42.964107,15.3141361 42.964107,15.1727749 43.058048,14.8900524 C43.2459301,14.513089 43.2929006,14.0418848 43.2929006,13.5706806 C43.3868417,12.8638743 43.4338122,12.0628272 43.6216942,11.3560209 C43.6216942,10.8848168 43.9035174,9.51832461 44.0444289,9.18848168 C44.1383699,8.52879581 44.232311,7.96335079 44.232311,7.30366492 C44.232311,7.20942408 44.2792815,6.92670157 44.4201931,6.78534031 C44.5611046,6.40837696 44.6080751,5.98429319 44.7020162,5.56020942 C44.7020162,4.94764398 44.7959572,4.33507853 44.8898982,3.76963351 C45.0308098,3.29842932 45.0777803,2.82722513 45.0777803,2.4973822 Z M48.5883916,7.58638743 L48.5883916,7.11518325 C48.6353621,5.98429319 48.6353621,4.7591623 48.6353621,3.62827225 C48.6353621,3.43979058 48.8702147,3.29842932 48.9171853,3.29842932 C49.433861,3.2513089 49.7156841,3.29842932 50.1853892,3.29842932 C50.8429765,3.34554974 51.4066227,3.29842932 52.06421,3.15706806 C52.2051215,3.15706806 52.3460331,2.96858639 52.3930036,2.82722513 C52.3930036,2.78010471 52.3930036,2.4973822 52.2051215,2.45026178 C52.158151,2.45026178 52.158151,2.35602094 52.06421,2.2617801 C51.9232984,2.16753927 51.6884458,2.16753927 51.4066227,2.02617801 C51.2187407,1.83769634 50.889947,1.83769634 50.6081239,1.83769634 C49.3868904,1.83769634 48.2126275,1.97905759 46.991394,2.12041885 L46.8035119,2.12041885 C46.4747183,2.16753927 46.4277478,2.45026178 46.4277478,2.63874346 C46.2398657,3.43979058 46.4277478,4.14659686 46.2868362,4.94764398 C46.2868362,7.91623037 46.4277478,12.1570681 46.2868362,15.1727749 C46.2868362,15.973822 46.2398657,16.8691099 46.4277478,17.8115183 C46.2868362,18.8010471 46.1459247,19.7905759 46.2398657,20.7329843 C46.2398657,21.486911 46.1459247,22.7591623 46.6156299,23.3717277 C48.259598,23.7486911 50.5141829,23.5602094 52.3460331,23.5602094 C52.8157383,23.4188482 52.7217972,21.9581152 52.3930036,22.052356 C51.5945048,22.052356 50.9369175,22.2879581 49.7626546,22.1465969 C49.5747725,22.2408377 49.2459789,21.9581152 48.9171853,21.9581152 C48.8702147,21.9581152 48.7762737,21.9109948 48.6353621,21.8167539 C48.5883916,21.6282723 48.5883916,21.486911 48.5883916,21.4397906 C48.5883916,20.4502618 48.5414211,19.460733 48.5414211,18.4712042 C48.5414211,17.8586387 48.4474801,17.1989529 48.5414211,16.4921466 C48.4005096,16.2094241 48.7762737,15.1256545 48.5883916,14.3246073 C48.5883916,14.0418848 48.5883916,13.8534031 48.9171853,13.8534031 L49.621743,13.8534031 C49.9505367,13.7120419 50.2323598,13.9947644 50.5611534,13.9005236 C50.9369175,13.8534031 51.4066227,13.6649215 51.7354164,13.5706806 C51.9232984,13.5706806 52.06421,13.2408377 52.0172395,13.1465969 C51.9232984,13.052356 51.8293574,12.9109948 51.7354164,12.8638743 C51.5475343,12.6753927 51.2657112,12.5340314 50.9369175,12.486911 C50.889947,12.3926702 50.8429765,12.3455497 50.6081239,12.3926702 C50.3732713,12.486911 50.1853892,12.3926702 49.8565956,12.486911 C49.5747725,12.5340314 49.3868904,12.6753927 49.0580968,12.6753927 C48.9641558,12.6753927 48.7762737,12.486911 48.6353621,12.3455497 C48.5883916,12.0628272 48.5883916,11.921466 48.6353621,11.6858639 C48.5883916,10.2722513 48.5414211,8.95287958 48.5883916,7.58638743 Z M53.6960006,18.8010471 L53.7429711,11.0732984 C53.7429711,10.0837696 53.6960006,9.09424084 53.7429711,8.10471204 C53.8369121,7.63350785 53.7429711,7.20942408 53.7429711,6.59685864 C53.8369121,5.56020942 53.6960006,4.42931937 53.6960006,3.2513089 C53.6960006,3.15706806 53.7429711,3.15706806 53.7429711,3.01570681 C53.7429711,2.82722513 54.0247942,2.45026178 54.2126763,2.45026178 C55.0111751,2.35602094 56.5142317,2.12041885 57.5475831,2.45026178 C57.7824357,2.4973822 58.1112293,2.4973822 58.2051703,2.59162304 C58.9566986,2.78010471 59.5203448,3.01570681 60.0839911,3.43979058 C60.3188436,3.62827225 60.5067257,3.76963351 60.7415783,4.09947644 C60.9294604,4.42931937 61.164313,4.7591623 61.3991656,5.13612565 C61.5870476,5.32460733 61.6340182,5.60732984 61.6340182,5.7486911 C61.7749297,6.31413613 62.0567528,6.78534031 62.1506939,7.30366492 C62.2916054,7.91623037 62.5734285,8.38743455 62.5734285,8.90575916 C62.7143401,10.0366492 62.5734285,10.8376963 62.7143401,12.3455497 C62.7613106,12.6753927 62.7613106,12.9109948 62.7143401,13.2408377 C62.5734285,13.7120419 62.4794875,14.2303665 62.4794875,14.7015707 C62.432517,15.8324607 62.3855465,17.0104712 62.1037233,18.0942408 C62.1037233,19.2722513 61.5870476,20.3089005 61.1173425,21.3926702 C60.9764309,21.486911 60.9294604,21.6282723 60.7885488,21.8167539 C60.3188436,22.2879581 59.8021679,22.7591623 59.2854922,23.0890052 C59.1445807,23.1361257 58.9566986,23.2303665 58.7688165,23.3717277 C58.1112293,23.4188482 57.453642,23.6073298 56.8430253,23.7486911 C56.5142317,23.7958115 56.1384675,23.7486911 55.8096739,23.7486911 C55.3399687,23.5602094 54.917234,23.4188482 54.5884404,23.1361257 C54.4005583,23.0890052 54.2596468,22.8062827 54.1657057,22.7120419 C54.0247942,22.382199 54.0247942,22.052356 53.8838826,21.6282723 C53.6960006,20.7329843 53.6960006,19.7905759 53.6960006,18.8010471 Z M60.6006668,11.2146597 C60.8355193,10.2722513 60.7415783,9.28272251 60.5067257,8.29319372 C60.5067257,7.39790576 60.3188436,6.54973822 60.0839911,5.65445026 C59.99005,4.9947644 59.6612564,4.47643979 59.2854922,4.09947644 C59.1915512,4.0052356 59.1445807,3.81675393 59.0036691,3.76963351 C58.8157871,3.58115183 57.9703177,3.43979058 57.6415241,3.43979058 C57.1718189,3.34554974 56.8430253,3.43979058 56.3733201,3.58115183 C56.185438,3.58115183 56.1384675,3.67539267 56.1384675,3.76963351 C56.1384675,4.42931937 56.185438,5.13612565 56.185438,5.7486911 C55.997556,6.21989529 56.185438,9.61256545 56.1384675,9.94240838 L56.1384675,10.4136126 C56.2324086,11.2617801 56.185438,12.1570681 56.1384675,12.9109948 C56.0445265,13.7120419 55.997556,14.513089 56.1384675,15.3141361 C56.185438,15.8795812 56.185438,16.4921466 56.1384675,17.104712 C55.997556,18.0942408 55.997556,19.0837696 55.997556,19.9790576 L55.997556,20.591623 C56.1384675,21.0628272 56.1384675,21.486911 56.0445265,21.9581152 C56.0445265,22.052356 56.1384675,22.1465969 56.1384675,22.1465969 C56.185438,22.2879581 56.4672611,22.4293194 56.5142317,22.4293194 C57.6884946,22.1465969 59.0036691,21.4397906 59.4264038,20.2617801 C59.8021679,19.2722513 60.1309616,18.3298429 60.3188436,17.434555 C60.4127847,16.8219895 60.4597552,16.4450262 60.5067257,15.8795812 C60.6006668,14.8429319 60.7415783,13.7120419 60.6006668,12.6753927 L60.6006668,11.2146597 Z" id="Relieved-Copy"></path>
                        </g>
                    </g>
                </g>
            </g>
        </g>
    </g>
</svg>