<svg class="logo-sbly" width="114" height="48" viewBox="0 0 114 48" xmlns="http://www.w3.org/2000/svg">
  <title>
    Page 1
  </title>
  <path d="M0 33.8363024l7.29177694-.8653067c.49472973 5.8709181 1.60708782 7.663608 6.18004586 7.663608 5.3147392 0 6.1800459-2.1626398 6.1800459-5.8094689 0-9.7641715-18.787189-7.4773789-18.787189-22.2471619 0-7.16887828 2.9664973-12.29801538 12.7927451-12.29801538 10.3817999 0 11.9888878 5.00561143 12.6685925 13.41037348l-7.1688783.6176284c-.4941027-5.49971414-1.2358838-7.3538533-5.6853162-7.3538533-4.44943235 0-5.37618842 1.91621552-5.37618842 5.1297641 0 9.1459161 18.78656193 7.2303277 18.78656193 22.3092383 0 7.5388283-2.7808952 12.9770931-13.4103735 12.9770931C2.84234458 47.3702016.67970474 41.9319368 0 33.8363024m45.794604 6.7363503c4.6350344 0 5.6232398-1.5450114 5.6232398-6.9211999v-1.1129851c0-5.3761885-.9882054-6.9826492-5.6232398-6.9826492h-5.6853162v15.0168342h5.6853162zm-.9273831-21.3204058c4.4500594 0 5.6238668-1.4214858 5.6238668-5.6853161v-.8038575c0-4.32527965-.9888324-5.68531613-5.6238668-5.68531613h-4.7579331V19.2522469h4.7579331zM32.8168838.65065995h11.7418364c10.5674019 0 13.2862208 3.33707428 13.2862208 11.55686135v.185602c0 5.2526628-1.2979601 8.2806094-5.2526628 9.5779425 4.6971108 1.3600365 6.0565202 4.7585601 6.0565202 11.0000553v1.4835621c0 9.0838398-2.8429716 12.5450668-13.3489242 12.5450668H32.8168838V.65065995zm32.631031 0h7.4159297V40.1399994h14.0280019l.9273831 6.8597506H65.4479148m30.0976261-17.6126919L85.1016647.65072265H92.64112l6.7355979 19.96099645h.0620763L106.050866.65072265h7.353854l-10.3818 28.73633545v17.6127546h-7.4773791" fill="#231F20" fill-rule="evenodd"/>
</svg>
