<svg width="26" height="26" viewBox="0 0 26 26" xmlns="http://www.w3.org/2000/svg">
  <title>
    Shape
  </title>
  <path d="M24.413 21.576L19.2 16.363c-.03-.028-.06-.048-.09-.073 1.026-1.557 1.624-3.42 1.624-5.423 0-5.45-4.417-9.867-9.867-9.867C5.417 1 1 5.418 1 10.867c0 5.45 4.418 9.867 9.867 9.867 2.003 0 3.866-.598 5.422-1.624.023.028.043.06.07.09l5.214 5.213c.783.783 2.053.783 2.837 0 .784-.784.784-2.053 0-2.837zm-13.546-4.262c-3.56 0-6.446-2.887-6.446-6.447S7.31 4.42 10.87 4.42s6.447 2.887 6.447 6.447-2.887 6.447-6.447 6.447z" fill="#2B6FCA" stroke="#FFF" fill-rule="evenodd"/>
</svg>
