<?xml version="1.0" encoding="UTF-8"?>
<svg width="26px" height="26px" viewBox="0 0 26 26" version="1.1" xmlns="http://www.w3.org/2000/svg" xmlns:xlink="http://www.w3.org/1999/xlink">
    <!-- Generator: Sketch 46.2 (44496) - http://www.bohemiancoding.com/sketch -->
    <title>Shape</title>
    <desc>Created with Sketch.</desc>
    <defs></defs>
    <g id="SBLY-homepage" stroke="none" stroke-width="1" fill="none" fill-rule="evenodd">
        <g id="sbly-homepage" transform="translate(-1355.000000, -43.000000)" fill="#2B6FCA" stroke="#FFFFFF">
            <g id="01-header">
                <g id="Group" transform="translate(1356.000000, 44.000000)">
                    <path d="M23.412637,20.5763048 L18.1987599,15.3625236 C18.1710505,15.3348142 18.1385471,15.3154463 18.1095912,15.2896545 C19.1355109,13.7334207 19.7342836,11.8705615 19.7342836,9.86723769 C19.7342836,4.41768673 15.3165969,0 9.86714181,0 C4.41768673,0 0,4.41768673 0,9.86714181 C0,15.316501 4.41759085,19.7342836 9.86704593,19.7342836 C11.8704657,19.7342836 13.7332289,19.1355109 15.2894628,18.1095912 C15.3152546,18.1384512 15.3345265,18.1709546 15.3622359,18.1986641 L20.5762089,23.412637 C21.3594554,24.1957877 22.6292946,24.1957877 23.412637,23.412637 C24.1957877,22.6293905 24.1957877,21.3595513 23.412637,20.5763048 L23.412637,20.5763048 Z M9.86714181,16.3136566 C6.30672121,16.3136566 3.42053118,13.4274665 3.42053118,9.86714181 C3.42053118,6.30672121 6.30681709,3.42053118 9.86714181,3.42053118 C13.4273706,3.42053118 16.3136566,6.30681709 16.3136566,9.86714181 C16.3136566,13.4274665 13.4273706,16.3136566 9.86714181,16.3136566 L9.86714181,16.3136566 Z" id="Shape"></path>
                </g>
            </g>
        </g>
    </g>
</svg>