<svg class="swiggle" width="113" height="26" viewBox="0 0 113 26" xmlns="http://www.w3.org/2000/svg" xmlns:xlink="http://www.w3.org/1999/xlink">
  <title>
    swiggle1
  </title>
  <defs>
    <path id="a" d="M0 .2h90.7v8H0z"/>
    <path id="c" d="M91 .52v8H.3v-8H91z"/>
  </defs>
  <g  fill="none" fill-rule="evenodd">
    <g transform="translate(0 .422)">
      <mask id="b" fill="#fff">
        <use xlink:href="#a"/>
      </mask>
      <path d="M58 .2c2.72 0 5.26 1.15 7.15 3.24 1.46 1.6 3.4 2.5 5.47 2.5s4.02-.9 5.48-2.5C78 1.34 80.54.2 83.25.2c2.72 0 5.26 1.15 7.16 3.24.5.46.4 1.18 0 1.6-.4.42-1.2.4-1.6-.07-1.4-1.6-3.4-2.5-5.4-2.5s-4 .9-5.5 2.5C76 7.05 73.4 8.2 70.7 8.2s-5.25-1.15-7.15-3.23c-1.48-1.6-3.4-2.5-5.5-2.5s-4 .9-5.45 2.5c-2 2.08-4.5 3.23-7.2 3.23s-5.3-1.15-7.2-3.23c-2.93-3.22-8.03-3.22-10.96 0-1.9 2.08-4.5 3.23-7.2 3.23S14.8 7.05 12.9 4.97c-1.45-1.6-3.4-2.5-5.46-2.5s-4.03.9-5.5 2.5c-.43.46-1.15.5-1.6.07-.47-.42-.5-1.14-.1-1.6C2.2 1.34 4.76.2 7.46.2s5.28 1.15 7.18 3.24c1.46 1.6 3.4 2.5 5.47 2.5s4-.9 5.5-2.5c3.8-4.17 10.5-4.17 14.3 0 1.5 1.6 3.4 2.5 5.5 2.5s4-.9 5.5-2.5C52.8 1.34 55.3.2 58 .2" fill="#EF98C3" mask="url(#b)"/>
    </g>
    <g transform="translate(21.028 17.194)">
      <mask id="d" fill="#fff">
        <use xlink:href="#c"/>
      </mask>
      <path d="M58.3.52c2.72 0 5.26 1.15 7.15 3.23 1.46 1.6 3.4 2.5 5.47 2.5s4.02-.9 5.48-2.5C78.3 1.67 80.84.52 83.55.52c2.73 0 5.26 1.15 7.16 3.23.5.47.4 1.2 0 1.6-.4.43-1.2.4-1.6-.07-1.4-1.6-3.4-2.5-5.4-2.5s-4 .9-5.5 2.5C76.3 7.38 73.7 8.5 71 8.5c-2.73 0-5.27-1.1-7.17-3.2-1.48-1.6-3.4-2.5-5.5-2.5s-4 .9-5.45 2.5c-1.9 2.1-4.44 3.28-7.15 3.28-2.72 0-5.27-1.13-7.16-3.22-2.92-3.2-8.02-3.2-10.95 0-1.9 2.1-4.46 3.24-7.2 3.24-2.7 0-5.24-1.14-7.14-3.23-1.46-1.6-3.4-2.5-5.47-2.5-2.1 0-4 .9-5.5 2.5-.4.47-1.1.5-1.6.1C.2 4.97.2 4.22.6 3.8 2.5 1.64 5.04.5 7.75.5c2.73 0 5.27 1.15 7.16 3.23 1.5 1.6 3.5 2.5 5.5 2.5s4-.9 5.5-2.5c3.8-4.17 10.5-4.17 14.3 0 1.5 1.6 3.4 2.5 5.5 2.5s4-.9 5.5-2.5c1.9-2.06 4.5-3.2 7.2-3.2" fill="#EF98C3" mask="url(#d)"/>
    </g>
  </g>
</svg>
