<svg width="66" height="25" viewBox="0 0 66 25" xmlns="http://www.w3.org/2000/svg">
  <title>
    swiggle2
  </title>
  <path class="triple-swiggle" d="M41.96 18.6c1.96 0 3.8.83 5.17 2.33 1.06 1.16 2.47 1.8 3.96 1.8 1.5 0 2.9-.64 3.9-1.8 1.4-1.5 3.2-2.34 5.2-2.34 1.9 0 3.8.8 5.2 2.3.3.3.3.8-.1 1.1-.4.3-.9.2-1.2-.1-1.1-1.2-2.5-1.8-4-1.8s-2.9.6-4 1.8c-1.3 1.5-3.1 2.4-5.1 2.4s-3.8-.9-5.2-2.4c-1.1-1.2-2.5-1.8-4-1.8s-2.9.6-4 1.8c-1.4 1.5-3.2 2.3-5.2 2.3s-3.8-.83-5.2-2.34c-2.1-2.3-5.8-2.3-7.97 0-1.36 1.5-3.2 2.3-5.16 2.3-2 0-3.8-.86-5.2-2.37C8.04 20.67 6.64 20 5.14 20s-2.9.67-3.96 1.8c-.3.36-.84.4-1.17.08-.35-.3-.4-.83-.1-1.2 1.4-1.5 3.2-2.32 5.2-2.32 1.97 0 3.8.8 5.18 2.3 1.05 1.13 2.46 1.8 3.96 1.8s2.9-.67 4-1.8c2.72-3 7.6-3 10.32 0 1.04 1.13 2.44 1.8 3.94 1.8s2.9-.67 3.94-1.8c1.4-1.5 3.2-2.37 5.2-2.37M41.9 0c1.98 0 3.8.83 5.2 2.34 1.05 1.16 2.46 1.8 3.95 1.8 1.5 0 2.9-.64 3.94-1.8C56.4.84 58.2 0 60.2 0c1.96 0 3.8.83 5.17 2.34.3.34.3.85-.03 1.16-.34.3-.86.28-1.16-.06-1.05-1.16-2.45-1.8-3.95-1.8s-2.9.64-3.96 1.8c-1.38 1.5-3.2 2.34-5.2 2.34s-3.8-.83-5.2-2.34c-1.04-1.16-2.44-1.8-3.94-1.8s-2.9.64-3.97 1.8c-1.4 1.5-3.23 2.34-5.2 2.34-1.96 0-3.8-.83-5.17-2.34-2.1-2.32-5.8-2.32-8 0-1.4 1.5-3.2 2.34-5.2 2.34s-3.8-.83-5.2-2.34c-1-1.16-2.4-1.8-3.9-1.8s-2.9.64-4 1.8C1 3.78.5 3.8.1 3.5c-.3-.3-.3-.83 0-1.16C1.6.84 3.5 0 5.4 0s3.8.83 5.17 2.34c1.06 1.16 2.47 1.8 3.97 1.8s2.9-.64 3.96-1.8c2.75-3.02 7.6-3.02 10.35 0 1.07 1.16 2.47 1.8 3.97 1.8s2.9-.64 3.96-1.8C38.16.84 39.98 0 41.96 0m0 9.45c1.96 0 3.8.83 5.17 2.34 1.06 1.1 2.47 1.8 3.96 1.8 1.5 0 2.9-.7 3.9-1.8 1.4-1.6 3.2-2.4 5.2-2.4 1.9 0 3.8.8 5.2 2.3.3.3.3.8-.1 1.1-.4.3-.9.3-1.2-.1-1.1-1.2-2.5-1.8-4-1.8s-2.9.6-4 1.8c-1.4 1.5-3.2 2.3-5.2 2.3s-3.8-.9-5.2-2.4c-1-1.2-2.4-1.8-3.9-1.8s-2.9.62-4 1.8c-1.4 1.6-3.2 2.4-5.2 2.4-1.97 0-3.8-.83-5.2-2.34-2.1-2.3-5.8-2.3-7.9 0-1.37 1.5-3.2 2.34-5.17 2.34-2 0-3.8-.8-5.2-2.3-1-1.2-2.4-1.8-3.9-1.8s-2.9.68-3.98 1.8c-.3.38-.83.4-1.16.1-.3-.3-.3-.85 0-1.2 1.4-1.5 3.2-2.3 5.2-2.3 1.97 0 3.8.8 5.2 2.3 1.04 1.16 2.45 1.8 3.95 1.8s2.9-.64 3.95-1.8c2.7-3.02 7.6-3.02 10.3 0 1.1 1.16 2.5 1.8 4 1.8s2.9-.64 3.98-1.8c1.4-1.5 3.2-2.34 5.2-2.34" fill="#189DA0" fill-rule="evenodd"/>
</svg>
