<?xml version="1.0" encoding="UTF-8"?>
<svg width="66px" height="25px" viewBox="0 0 66 25" version="1.1" xmlns="http://www.w3.org/2000/svg" xmlns:xlink="http://www.w3.org/1999/xlink">
    <!-- Generator: Sketch 46.2 (44496) - http://www.bohemiancoding.com/sketch -->
    <title>swiggle2</title>
    <desc>Created with Sketch.</desc>
    <defs></defs>
    <g id="SBLY-homepage" stroke="none" stroke-width="1" fill="none" fill-rule="evenodd">
        <g id="sbly-homepage" transform="translate(-652.000000, -2138.000000)" fill="#189DA0">
            <g id="07-sub-cards-01" transform="translate(57.000000, 2087.000000)">
                <g id="swiggle2" transform="translate(595.000000, 51.000000)">
                    <path d="M41.9581746,18.5936144 L41.9629991,18.5936144 C43.9241575,18.5936144 45.7598789,19.4258403 47.1348607,20.9334958 C48.1914258,22.0937875 49.5953546,22.7330335 51.0909489,22.7330335 L51.0933612,22.7330335 C52.5889555,22.7330335 53.9952966,22.0937875 55.0518616,20.9334958 C56.4268434,19.4258403 58.2649771,18.5936144 60.2285477,18.5936144 L60.2333722,18.5936144 C62.199355,18.5936144 64.0326642,19.4258403 65.4052338,20.9334958 C65.7091771,21.2687984 65.6850547,21.7898442 65.3473398,22.0937875 C65.0144495,22.3977309 64.4934037,22.3736084 64.1870481,22.0383058 C63.1328953,20.8780141 61.7265542,20.2387681 60.2333722,20.2387681 L60.2309599,20.2387681 C58.7329534,20.2387681 57.3266123,20.8756018 56.267635,22.0407181 C54.8950654,23.5483736 53.0569318,24.375775 51.0933612,24.375775 L51.0909489,24.375775 C49.1249661,24.375775 47.2892447,23.5483736 45.9166751,22.0407181 C44.86011,20.8780141 43.4561812,20.2387681 41.9629991,20.2387681 L41.9605869,20.2387681 C40.4625803,20.2387681 39.0562392,20.8756018 37.9948497,22.0407181 C36.6222801,23.5483736 34.7841465,24.375775 32.8181636,24.375775 C30.8521808,24.375775 29.0164594,23.5483736 27.6390653,22.0407181 C25.5259352,19.7153101 21.8351944,19.7153101 19.7148277,22.0407181 C18.3422581,23.5483736 16.5017122,24.375775 14.5381416,24.375775 L14.5357293,24.375775 C12.5673342,24.375775 10.7316128,23.5483736 9.35663097,22.0407181 C8.30006596,20.8756018 6.89613711,20.2387681 5.39813055,20.2387681 L5.39330605,20.2387681 C3.89771175,20.2387681 2.49137065,20.8756018 1.42998114,22.0407181 C1.12121328,22.3736084 0.602579771,22.3977309 0.269689425,22.0913753 C-0.0680254185,21.7874319 -0.0921479074,21.2663862 0.214207701,20.9334958 C1.59160181,19.4258403 3.42732321,18.5936144 5.39330605,18.5936144 L5.39813055,18.5936144 C7.36170114,18.5936144 9.19983479,19.4258403 10.5748167,20.9334958 C11.6313817,22.0937875 13.0377228,22.7330335 14.5357293,22.7330335 L14.5381416,22.7330335 C16.0361481,22.7330335 17.4424892,22.0937875 18.4990542,20.9334958 C21.2466057,17.9181847 26.1121117,17.9181847 28.8548387,20.9334958 C29.9162282,22.0937875 31.3201571,22.7330335 32.8181636,22.7330335 C34.3161702,22.7330335 35.7225113,22.0937875 36.7814885,20.9334958 C38.1564704,19.4258403 39.994604,18.5936144 41.9581746,18.5936144" id="Fill-1"></path>
                    <path d="M41.9581746,0 L41.9629991,0 C43.9241575,0 45.7598789,0.829813616 47.1348607,2.33746917 C48.1914258,3.50017313 49.5953546,4.13700684 51.0909489,4.13700684 L51.0933612,4.13700684 C52.5889555,4.13700684 53.9952966,3.50017313 55.0518616,2.33746917 C56.4268434,0.829813616 58.2649771,0 60.2285477,0 L60.2333722,0 C62.199355,0 64.0326642,0.829813616 65.4052338,2.33746917 C65.7091771,2.67518401 65.6850547,3.19381752 65.3473398,3.50017313 C65.0144495,3.80170424 64.4934037,3.77758175 64.1870481,3.44469141 C63.1328953,2.28439969 61.7265542,1.64515374 60.2333722,1.64515374 L60.2309599,1.64515374 C58.7329534,1.64515374 57.3266123,2.28198744 56.267635,3.44469141 C54.8950654,4.95234696 53.0569318,5.77974833 51.0933612,5.77974833 L51.0909489,5.77974833 C49.1249661,5.77974833 47.2892447,4.95234696 45.9166751,3.44469141 C44.86011,2.28439969 43.4561812,1.64515374 41.9629991,1.64515374 L41.9605869,1.64515374 C40.4625803,1.64515374 39.0562392,2.28198744 37.9948497,3.44469141 C36.6222801,4.95234696 34.7841465,5.77974833 32.8181636,5.77974833 C30.8521808,5.77974833 29.0164594,4.95234696 27.6390653,3.44469141 C25.5259352,1.12169573 21.8351944,1.12169573 19.7148277,3.44469141 C18.3422581,4.95234696 16.5017122,5.77974833 14.5381416,5.77974833 L14.5357293,5.77974833 C12.5673342,5.77974833 10.7316128,4.95234696 9.35663097,3.44469141 C8.30006596,2.28198744 6.89613711,1.64515374 5.39813055,1.64515374 L5.39330605,1.64515374 C3.89771175,1.64515374 2.49137065,2.28198744 1.42998114,3.44469141 C1.12121328,3.77758175 0.602579771,3.80411649 0.269689425,3.49776088 C-0.0680254185,3.19381752 -0.0921479074,2.67035951 0.214207701,2.33746917 C1.59160181,0.829813616 3.42732321,0 5.39330605,0 L5.39813055,0 C7.36170114,0 9.19983479,0.829813616 10.5748167,2.33746917 C11.6313817,3.50017313 13.0377228,4.13700684 14.5357293,4.13700684 L14.5381416,4.13700684 C16.0361481,4.13700684 17.4424892,3.50017313 18.4990542,2.33746917 C21.2466057,-0.677841936 26.1121117,-0.677841936 28.8548387,2.33746917 C29.9162282,3.50017313 31.3201571,4.13700684 32.8181636,4.13700684 C34.3161702,4.13700684 35.7225113,3.50017313 36.7814885,2.33746917 C38.1564704,0.829813616 39.994604,0 41.9581746,0" id="Fill-4"></path>
                    <path d="M41.9581746,9.44636663 L41.9629991,9.44636663 C43.9241575,9.44636663 45.7598789,10.2810047 47.1348607,11.7886603 C48.1914258,12.9465398 49.5953546,13.588198 51.0909489,13.588198 L51.0933612,13.588198 C52.5889555,13.588198 53.9952966,12.9465398 55.0518616,11.786248 C56.4268434,10.2785925 58.2649771,9.44636663 60.2285477,9.44636663 L60.2333722,9.44636663 C62.199355,9.44636663 64.0326642,10.2810047 65.4052338,11.7886603 C65.7091771,12.1215506 65.6850547,12.6425964 65.3473398,12.9465398 C65.0144495,13.2504831 64.4934037,13.2287729 64.1870481,12.891058 C63.1328953,11.7307663 61.7265542,11.0915204 60.2333722,11.0915204 L60.2309599,11.0915204 C58.7329534,11.0915204 57.3266123,11.7307663 56.267635,12.8934703 C54.8950654,14.4011258 53.0569318,15.2309395 51.0933612,15.2309395 L51.0909489,15.2309395 C49.1249661,15.2309395 47.2892447,14.4011258 45.9166751,12.8934703 C44.86011,11.7307663 43.4561812,11.0915204 41.9629991,11.0915204 L41.9605869,11.0915204 C40.4625803,11.0915204 39.0562392,11.7307663 37.9948497,12.8934703 C36.6222801,14.4011258 34.7841465,15.2309395 32.8181636,15.2309395 C30.8521808,15.2309395 29.0164594,14.4011258 27.6390653,12.8934703 C25.5259352,10.5680624 21.8351944,10.5680624 19.7148277,12.8934703 C18.3422581,14.4011258 16.5017122,15.2309395 14.5381416,15.2309395 L14.5357293,15.2309395 C12.5673342,15.2309395 10.7316128,14.4011258 9.35663097,12.8934703 C8.30006596,11.7307663 6.89613711,11.0915204 5.39813055,11.0915204 L5.39330605,11.0915204 C3.89771175,11.0915204 2.49137065,11.7307663 1.42998114,12.8934703 C1.12121328,13.2263606 0.602579771,13.2528954 0.269689425,12.9465398 C-0.0680254185,12.6401842 -0.0921479074,12.1215506 0.214207701,11.786248 C1.59160181,10.2785925 3.42732321,9.44636663 5.39330605,9.44636663 L5.39813055,9.44636663 C7.36170114,9.44636663 9.19983479,10.2785925 10.5748167,11.786248 C11.6313817,12.9465398 13.0377228,13.588198 14.5357293,13.588198 L14.5381416,13.588198 C16.0361481,13.588198 17.4424892,12.9465398 18.4990542,11.786248 C21.2466057,8.77093694 26.1121117,8.77093694 28.8548387,11.786248 C29.9162282,12.9465398 31.3201571,13.588198 32.8181636,13.588198 C34.3161702,13.588198 35.7225113,12.9465398 36.7814885,11.786248 C38.1564704,10.2785925 39.994604,9.44636663 41.9581746,9.44636663" id="Fill-7"></path>
                </g>
            </g>
        </g>
    </g>
</svg>